<svg width="174" height="63" viewBox="0 0 174 63" fill="none" xmlns="http://www.w3.org/2000/svg">
<g filter="url(#filter0_dd_227_3895)">
<path d="M10.0048 5.68652C10.1774 3.66341 11.87 2.10913 13.9004 2.10913H168.742C171.033 2.10913 172.833 4.06912 172.638 6.35126L168.626 53.375C168.453 55.3981 166.761 56.9524 164.73 56.9524H9.8884C7.59797 56.9524 5.79808 54.9924 5.99279 52.7103L10.0048 5.68652Z" fill="#353C52"/>
<path d="M13.9004 1.4575C11.5316 1.4575 9.55693 3.27083 9.35555 5.63112L5.34353 52.6549C5.11636 55.3174 7.21623 57.604 9.8884 57.604H164.73C167.099 57.604 169.074 55.7907 169.275 53.4304L173.287 6.40665C173.514 3.74415 171.415 1.4575 168.742 1.4575H13.9004Z" stroke="black" stroke-width="1.30325"/>
</g>
<mask id="mask0_227_3895" style="mask-type:alpha" maskUnits="userSpaceOnUse" x="5" y="2" width="151" height="55">
<path d="M9.55672 5.72016C9.71285 3.68271 11.4116 2.10913 13.455 2.10913H151.731C154.008 2.10913 155.804 4.04725 155.63 6.31761L152.026 53.3414C151.87 55.3788 150.171 56.9524 148.128 56.9524H9.85167C7.57466 56.9524 5.77937 55.0143 5.95335 52.7439L9.55672 5.72016Z" fill="#353C52"/>
</mask>
<g mask="url(#mask0_227_3895)">
<rect x="3.23145" y="51.8235" width="92.6394" height="5.12901" fill="#272C3D"/>
</g>
<g filter="url(#filter1_d_227_3895)">
<path d="M59.0745 8.93186L38.5813 26.7136C38.0196 27.201 37.979 28.0589 38.4921 28.5972L57.0615 48.0782C57.6546 48.7003 58.6769 48.5881 59.1208 47.852L64.051 39.6773C64.3199 39.2313 64.2976 38.6681 63.9941 38.2448L56.9699 28.4479C56.6173 27.9562 56.6495 27.2866 57.0476 26.831L64.9986 17.731C65.3678 17.3084 65.4251 16.697 65.1408 16.2132L61.0522 9.25592C60.6393 8.55329 59.69 8.39776 59.0745 8.93186Z" fill="white"/>
<path d="M59.0745 8.93186L38.5813 26.7136C38.0196 27.201 37.979 28.0589 38.4921 28.5972L57.0615 48.0782C57.6546 48.7003 58.6769 48.5881 59.1208 47.852L64.051 39.6773C64.3199 39.2313 64.2976 38.6681 63.9941 38.2448L56.9699 28.4479C56.6173 27.9562 56.6495 27.2866 57.0476 26.831L64.9986 17.731C65.3678 17.3084 65.4251 16.697 65.1408 16.2132L61.0522 9.25592C60.6393 8.55329 59.69 8.39776 59.0745 8.93186Z" stroke="black" stroke-width="1.0426"/>
</g>
<path d="M101.493 27.4417C101.493 29.1751 100.743 30.4917 99.2428 31.3917C100.059 31.6917 100.743 32.2084 101.293 32.9417C101.843 33.6751 102.118 34.7167 102.118 36.0667C102.118 37.4001 101.618 38.4584 100.618 39.2417C99.6344 40.0251 98.2178 40.4167 96.3678 40.4167H90.4678C90.1844 40.4167 89.9511 40.3251 89.7678 40.1417C89.5844 39.9417 89.4928 39.6834 89.4928 39.3667V23.3667C89.4928 23.1834 89.5178 23.0667 89.5678 23.0167C89.6344 22.9501 89.7594 22.9167 89.9428 22.9167H95.6428C99.5428 22.9167 101.493 24.4251 101.493 27.4417ZM94.2928 26.9667V30.2417H94.4178C96.0178 30.2417 96.8178 29.7084 96.8178 28.6417C96.8178 28.0584 96.6594 27.6334 96.3428 27.3667C96.0428 27.1001 95.5344 26.9667 94.8178 26.9667H94.2928ZM94.2928 33.1917V36.4417H94.7428C95.4594 36.4417 95.9844 36.3084 96.3178 36.0417C96.6511 35.7751 96.8178 35.3501 96.8178 34.7667C96.8178 34.1834 96.6594 33.7751 96.3428 33.5417C96.0428 33.3084 95.5344 33.1917 94.8178 33.1917H94.2928ZM105.387 31.3417C104.92 30.5084 104.687 29.8334 104.687 29.3167C104.687 28.7834 104.828 28.4417 105.112 28.2917C106.062 27.8751 107.362 27.6667 109.012 27.6667C110.678 27.6667 111.853 28.0584 112.537 28.8417C113.22 29.6084 113.562 30.7501 113.562 32.2667V36.2167H114.412C114.695 36.2167 114.912 36.3834 115.062 36.7167C115.228 37.0501 115.312 37.5084 115.312 38.0917C115.312 38.6751 115.162 39.2501 114.862 39.8167C114.578 40.3834 114.187 40.6667 113.687 40.6667C112.787 40.6667 112.062 40.4251 111.512 39.9417C111.262 39.7417 111.07 39.5001 110.937 39.2167C110.17 40.1834 108.978 40.6667 107.362 40.6667C106.145 40.6667 105.12 40.2334 104.287 39.3667C103.453 38.5001 103.037 37.4751 103.037 36.2917C103.037 33.5751 104.662 32.2167 107.912 32.2167H109.287V31.9667C109.287 31.5334 109.212 31.2584 109.062 31.1417C108.928 31.0084 108.603 30.9417 108.087 30.9417C107.453 30.9417 106.553 31.0751 105.387 31.3417ZM107.387 35.9417C107.387 36.3084 107.487 36.5917 107.687 36.7917C107.887 36.9751 108.137 37.0667 108.437 37.0667C108.753 37.0667 109.037 36.9417 109.287 36.6917V34.7667H108.587C107.787 34.7667 107.387 35.1584 107.387 35.9417ZM120.702 34.2167C120.702 35.8501 121.318 36.6667 122.552 36.6667C123.352 36.6667 124.018 36.5084 124.552 36.1917C124.802 36.1917 125.002 36.6251 125.152 37.4917C125.318 38.3417 125.402 38.9251 125.402 39.2417C125.402 39.5417 125.36 39.7417 125.277 39.8417C124.393 40.3917 123.185 40.6667 121.652 40.6667C120.118 40.6667 118.81 40.1001 117.727 38.9667C116.66 37.8167 116.127 36.2584 116.127 34.2917C116.127 32.3084 116.652 30.7084 117.702 29.4917C118.768 28.2751 120.177 27.6667 121.927 27.6667C123.693 27.6667 124.918 28.0917 125.602 28.9417C125.752 29.1251 125.827 29.4001 125.827 29.7667C125.827 30.1167 125.76 30.5501 125.627 31.0667C125.327 32.1334 124.935 32.7501 124.452 32.9167C124.385 32.9334 124.285 32.9417 124.152 32.9417C124.035 32.9417 123.885 32.8417 123.702 32.6417C123.052 31.9917 122.527 31.6667 122.127 31.6667C121.743 31.6667 121.41 31.8667 121.127 32.2667C120.843 32.6667 120.702 33.3167 120.702 34.2167ZM127.072 23.1167C127.072 22.8501 127.831 22.7167 129.347 22.7167C130.764 22.7667 131.472 22.8751 131.472 23.0417V32.6417L133.947 28.0667C134.064 27.8167 134.772 27.6917 136.072 27.6917C137.372 27.6917 138.206 27.7751 138.572 27.9417L135.322 33.2417L139.072 40.2667C139.106 40.3334 138.789 40.3834 138.122 40.4167C137.472 40.4667 136.931 40.4917 136.497 40.4917C134.897 40.4917 134.039 40.4167 133.922 40.2667L131.447 34.7167V40.2417C131.447 40.4584 130.714 40.5667 129.247 40.5667C127.797 40.5667 127.072 40.4667 127.072 40.2667V23.1167Z" fill="white"/>
<defs>
<filter id="filter0_dd_227_3895" x="4.6748" y="0.805908" width="169.281" height="62.0111" filterUnits="userSpaceOnUse" color-interpolation-filters="sRGB">
<feFlood flood-opacity="0" result="BackgroundImageFix"/>
<feColorMatrix in="SourceAlpha" type="matrix" values="0 0 0 0 0 0 0 0 0 0 0 0 0 0 0 0 0 0 127 0" result="hardAlpha"/>
<feOffset dy="4.56138"/>
<feComposite in2="hardAlpha" operator="out"/>
<feColorMatrix type="matrix" values="0 0 0 0 0 0 0 0 0 0 0 0 0 0 0 0 0 0 0.5 0"/>
<feBlend mode="normal" in2="BackgroundImageFix" result="effect1_dropShadow_227_3895"/>
<feColorMatrix in="SourceAlpha" type="matrix" values="0 0 0 0 0 0 0 0 0 0 0 0 0 0 0 0 0 0 127 0" result="hardAlpha"/>
<feOffset dy="1.95488"/>
<feComposite in2="hardAlpha" operator="out"/>
<feColorMatrix type="matrix" values="0 0 0 0 0 0 0 0 0 0 0 0 0 0 0 0 0 0 1 0"/>
<feBlend mode="normal" in2="effect1_dropShadow_227_3895" result="effect2_dropShadow_227_3895"/>
<feBlend mode="normal" in="SourceGraphic" in2="effect2_dropShadow_227_3895" result="shape"/>
</filter>
<filter id="filter1_d_227_3895" x="37.6113" y="8.09155" width="28.2305" height="41.6941" filterUnits="userSpaceOnUse" color-interpolation-filters="sRGB">
<feFlood flood-opacity="0" result="BackgroundImageFix"/>
<feColorMatrix in="SourceAlpha" type="matrix" values="0 0 0 0 0 0 0 0 0 0 0 0 0 0 0 0 0 0 127 0" result="hardAlpha"/>
<feOffset dy="0.781951"/>
<feComposite in2="hardAlpha" operator="out"/>
<feColorMatrix type="matrix" values="0 0 0 0 0 0 0 0 0 0 0 0 0 0 0 0 0 0 1 0"/>
<feBlend mode="normal" in2="BackgroundImageFix" result="effect1_dropShadow_227_3895"/>
<feBlend mode="normal" in="SourceGraphic" in2="effect1_dropShadow_227_3895" result="shape"/>
</filter>
</defs>
</svg>
