<svg width="85" height="63" viewBox="0 0 85 63" fill="none" xmlns="http://www.w3.org/2000/svg">
<g filter="url(#filter0_dd_106_929)">
<path d="M5.4983 4.32965C5.62135 2.7094 6.97191 1.45752 8.59683 1.45752H79.6835C81.4924 1.45752 82.919 2.99657 82.782 4.8003L79.0889 53.4287C78.9658 55.0489 77.6153 56.3008 75.9903 56.3008H4.90368C3.09475 56.3008 1.66815 54.7617 1.80514 52.958L5.4983 4.32965Z" fill="#E6311F"/>
<path d="M8.59683 0.874871C6.66724 0.874871 5.06345 2.36148 4.91732 4.28553L1.22417 52.9139C1.06149 55.0558 2.75557 56.8834 4.90368 56.8834H75.9903C77.9199 56.8834 79.5237 55.3968 79.6699 53.4728L83.363 4.84442C83.5257 2.70249 81.8316 0.874871 79.6835 0.874871H8.59683Z" stroke="black" stroke-width="1.1653"/>
</g>
<mask id="mask0_106_929" style="mask-type:alpha" maskUnits="userSpaceOnUse" x="1" y="1" width="82" height="56">
<path d="M5.4983 4.32965C5.62135 2.7094 6.97191 1.45752 8.59683 1.45752H79.6835C81.4924 1.45752 82.919 2.99657 82.782 4.8003L79.0889 53.4287C78.9658 55.0489 77.6153 56.3008 75.9903 56.3008H4.90368C3.09475 56.3008 1.66815 54.7617 1.80514 52.958L5.4983 4.32965Z" fill="#343B50"/>
</mask>
<g mask="url(#mask0_106_929)">
<rect x="-1.1377" y="-10.3931" width="90.7141" height="15.9517" fill="#FF7B7B"/>
<rect x="-1.08447" y="50.8821" width="90.7141" height="15.9517" fill="#CD0034"/>
</g>
<path d="M39.6022 12.5497C39.495 12.4382 39.3478 12.374 39.1932 12.3711C39.0386 12.3682 38.8891 12.4269 38.7778 12.5342L29.8513 21.1427C29.6212 21.3646 29.6129 21.7304 29.8326 21.9626L36.3398 28.8374L29.2866 34.4378C29.1589 34.5392 29.0795 34.6896 29.0678 34.8523C29.0561 35.015 29.1131 35.1752 29.2251 35.2939L37.839 44.4271C38.0557 44.6568 38.416 44.6721 38.6513 44.4616L45.4076 38.4174L51.8324 45.2051C52.0455 45.4302 52.3976 45.4491 52.6335 45.248L62.2849 37.0216C62.4072 36.9174 62.481 36.7674 62.4889 36.607C62.4969 36.4466 62.4382 36.29 62.3269 36.1742L55.6612 29.2446L62.6175 23.0215C62.8448 22.8181 62.8768 22.4739 62.6909 22.2321L56.2153 13.8111C56.1202 13.6874 55.9793 13.607 55.8244 13.588C55.6695 13.569 55.5134 13.6129 55.3911 13.71L47.0722 20.3155L39.6022 12.5497Z" fill="black" stroke="black" stroke-width="1.1653" stroke-linejoin="round"/>
<path d="M29.1021 21.5105V19.2892C29.1021 19.1819 29.189 19.095 29.2963 19.095H30.9866C31.0938 19.095 31.1808 19.1819 31.1808 19.2892V21.5105C31.1808 21.6178 31.0938 21.7047 30.9866 21.7047H29.2963C29.189 21.7047 29.1021 21.6178 29.1021 21.5105Z" fill="black"/>
<path d="M28.4854 34.8553V32.4974C28.4854 32.3902 28.5723 32.3032 28.6796 32.3032H30.3699C30.4771 32.3032 30.5641 32.3902 30.5641 32.4974V34.8553C30.5641 34.9626 30.4771 35.0496 30.3699 35.0496H28.6796C28.5723 35.0496 28.4854 34.9626 28.4854 34.8553Z" fill="black"/>
<path d="M61.3184 22.5272V20.1693C61.3184 20.0621 61.4053 19.9751 61.5126 19.9751H63.2029C63.3101 19.9751 63.3971 20.0621 63.3971 20.1693V22.5272C63.3971 22.6345 63.3101 22.7214 63.2029 22.7214H61.5126C61.4053 22.7214 61.3184 22.6345 61.3184 22.5272Z" fill="black"/>
<path d="M60.9873 36.579V34.2211C60.9873 34.1138 61.0743 34.0269 61.1815 34.0269H62.8718C62.9791 34.0269 63.066 34.1138 63.066 34.2211V36.579C63.066 36.6862 62.9791 36.7732 62.8718 36.7732H61.1815C61.0743 36.7732 60.9873 36.6862 60.9873 36.579Z" fill="black"/>
<mask id="path-11-outside-1_106_929" maskUnits="userSpaceOnUse" x="27.6484" y="8.52734" width="36" height="36" fill="black">
<rect fill="white" x="27.6484" y="8.52734" width="36" height="36"/>
<path fill-rule="evenodd" clip-rule="evenodd" d="M39.1818 10.5273L30.2553 19.1358L37.1994 26.4721L29.6484 32.4678L38.2624 41.601L45.4409 35.1792L52.2551 42.3783L61.9065 34.1519L54.822 26.7868L62.2285 20.161L55.7529 11.74L47.0191 18.675L39.1818 10.5273Z"/>
</mask>
<path fill-rule="evenodd" clip-rule="evenodd" d="M39.1818 10.5273L30.2553 19.1358L37.1994 26.4721L29.6484 32.4678L38.2624 41.601L45.4409 35.1792L52.2551 42.3783L61.9065 34.1519L54.822 26.7868L62.2285 20.161L55.7529 11.74L47.0191 18.675L39.1818 10.5273Z" fill="white"/>
<path d="M30.2553 19.1358L29.4464 18.297C28.9861 18.7408 28.9695 19.4725 29.409 19.9369L30.2553 19.1358ZM39.1818 10.5273L40.0216 9.7195C39.8072 9.49658 39.5129 9.36806 39.2037 9.36225C38.8944 9.35645 38.5955 9.47383 38.3729 9.68855L39.1818 10.5273ZM37.1994 26.4721L37.924 27.3847C38.1798 27.1816 38.3386 26.8805 38.3617 26.5547C38.3849 26.2289 38.2702 25.9083 38.0457 25.6711L37.1994 26.4721ZM29.6484 32.4678L28.9238 31.5552C28.6683 31.7581 28.5095 32.0588 28.4861 32.3842C28.4627 32.7097 28.5768 33.03 28.8007 33.2674L29.6484 32.4678ZM38.2624 41.601L37.4146 42.4006C37.848 42.8601 38.5686 42.8907 39.0393 42.4695L38.2624 41.601ZM45.4409 35.1792L46.2872 34.3781C45.8535 33.92 45.1341 33.8901 44.6639 34.3107L45.4409 35.1792ZM52.2551 42.3783L51.4088 43.1794C51.835 43.6296 52.5391 43.6673 53.011 43.2652L52.2551 42.3783ZM61.9065 34.1519L62.6624 35.0387C62.9069 34.8304 63.0545 34.5303 63.0704 34.2095C63.0863 33.8887 62.969 33.5756 62.7463 33.3441L61.9065 34.1519ZM54.822 26.7868L54.045 25.9184C53.8092 26.1293 53.6694 26.427 53.6575 26.7432C53.6456 27.0593 53.7628 27.3667 53.9821 27.5947L54.822 26.7868ZM62.2285 20.161L63.0054 21.0295C63.4601 20.6227 63.5241 19.9342 63.1523 19.4506L62.2285 20.161ZM55.7529 11.74L56.6767 11.0297C56.4864 10.7822 56.2047 10.6214 55.8949 10.5834C55.585 10.5454 55.2728 10.6333 55.0283 10.8274L55.7529 11.74ZM47.0191 18.675L46.1793 19.4828C46.5958 19.9158 47.2732 19.9612 47.7437 19.5876L47.0191 18.675ZM31.0642 19.9746L39.9907 11.3661L38.3729 9.68855L29.4464 18.297L31.0642 19.9746ZM38.0457 25.6711L31.1016 18.3347L29.409 19.9369L36.3531 27.2732L38.0457 25.6711ZM36.4747 25.5596L28.9238 31.5552L30.3731 33.3804L37.924 27.3847L36.4747 25.5596ZM28.8007 33.2674L37.4146 42.4006L39.1101 40.8015L30.4962 31.6683L28.8007 33.2674ZM39.0393 42.4695L46.2178 36.0477L44.6639 34.3107L37.4854 40.7326L39.0393 42.4695ZM53.1014 41.5772L46.2872 34.3781L44.5946 35.9802L51.4088 43.1794L53.1014 41.5772ZM61.1506 33.265L51.4991 41.4914L53.011 43.2652L62.6624 35.0387L61.1506 33.265ZM53.9821 27.5947L61.0667 34.9597L62.7463 33.3441L55.6618 25.979L53.9821 27.5947ZM55.5989 27.6553L63.0054 21.0295L61.4516 19.2925L54.045 25.9184L55.5989 27.6553ZM63.1523 19.4506L56.6767 11.0297L54.8292 12.4504L61.3047 20.8713L63.1523 19.4506ZM55.0283 10.8274L46.2945 17.7624L47.7437 19.5876L56.4776 12.6526L55.0283 10.8274ZM38.3419 11.3352L46.1793 19.4828L47.8589 17.8671L40.0216 9.7195L38.3419 11.3352Z" fill="black" mask="url(#path-11-outside-1_106_929)"/>
<defs>
<filter id="filter0_dd_106_929" x="0.630859" y="0.292236" width="83.7141" height="62.0292" filterUnits="userSpaceOnUse" color-interpolation-filters="sRGB">
<feFlood flood-opacity="0" result="BackgroundImageFix"/>
<feColorMatrix in="SourceAlpha" type="matrix" values="0 0 0 0 0 0 0 0 0 0 0 0 0 0 0 0 0 0 127 0" result="hardAlpha"/>
<feOffset dx="0.388432" dy="4.8554"/>
<feComposite in2="hardAlpha" operator="out"/>
<feColorMatrix type="matrix" values="0 0 0 0 0 0 0 0 0 0 0 0 0 0 0 0 0 0 0.5 0"/>
<feBlend mode="normal" in2="BackgroundImageFix" result="effect1_dropShadow_106_929"/>
<feColorMatrix in="SourceAlpha" type="matrix" values="0 0 0 0 0 0 0 0 0 0 0 0 0 0 0 0 0 0 127 0" result="hardAlpha"/>
<feOffset dy="1.1653"/>
<feComposite in2="hardAlpha" operator="out"/>
<feColorMatrix type="matrix" values="0 0 0 0 0 0 0 0 0 0 0 0 0 0 0 0 0 0 1 0"/>
<feBlend mode="normal" in2="effect1_dropShadow_106_929" result="effect2_dropShadow_106_929"/>
<feBlend mode="normal" in="SourceGraphic" in2="effect2_dropShadow_106_929" result="shape"/>
</filter>
</defs>
</svg>
