<svg width="337" height="88" viewBox="0 0 337 88" fill="none" xmlns="http://www.w3.org/2000/svg">
<g filter="url(#filter0_dd_106_904)">
<path d="M17.1595 3.17442C17.3046 2.42137 17.9637 1.8772 18.7306 1.8772H333.922C334.927 1.8772 335.683 2.79303 335.493 3.77997L320.31 82.5658C320.165 83.3189 319.506 83.8631 318.739 83.8631H3.54716C2.54206 83.8631 1.78587 82.9472 1.97607 81.9603L17.1595 3.17442Z" fill="#2373FF"/>
<path d="M18.7306 1.3772C17.724 1.3772 16.859 2.09142 16.6685 3.0798L1.48511 81.8657C1.23547 83.161 2.22796 84.3631 3.54716 84.3631H318.739C319.745 84.3631 320.61 83.6488 320.801 82.6605L335.984 3.87459C336.234 2.57924 335.241 1.3772 333.922 1.3772H18.7306Z" stroke="black"/>
</g>
<mask id="mask0_106_904" style="mask-type:alpha" maskUnits="userSpaceOnUse" x="1" y="1" width="335" height="83">
<path d="M17.1595 3.17442C17.3046 2.42137 17.9637 1.8772 18.7306 1.8772H333.922C334.927 1.8772 335.683 2.79303 335.493 3.77997L320.31 82.5658C320.165 83.3189 319.506 83.8631 318.739 83.8631H3.54716C2.54206 83.8631 1.78587 82.9472 1.97607 81.9603L17.1595 3.17442Z" fill="#343B50"/>
</mask>
<g mask="url(#mask0_106_904)">
<rect x="-9.46436" y="-15.8381" width="373.618" height="23.8464" fill="#1499FF"/>
<rect x="-9.24707" y="75.7625" width="373.618" height="23.8464" fill="#094CF0"/>
<path d="M344.575 22.3867L303.666 1.0708H344.575V22.3867Z" fill="#33A6FF"/>
</g>
<g filter="url(#filter1_d_106_904)">
<mask id="path-7-outside-1_106_904" maskUnits="userSpaceOnUse" x="99.312" y="24.6057" width="138" height="29" fill="black">
<rect fill="white" x="99.312" y="24.6057" width="138" height="29"/>
<path d="M101.062 49.9957V28.9957C101.062 28.4124 101.202 27.9574 101.482 27.6307C101.785 27.2807 102.17 27.1057 102.637 27.1057H108.482C112.192 27.1057 115.004 28.039 116.917 29.9057C118.854 31.7724 119.822 34.7124 119.822 38.7257C119.822 47.3124 116.159 51.6057 108.832 51.6057H102.847C101.657 51.6057 101.062 51.069 101.062 49.9957ZM107.782 33.7557V44.2207C107.782 44.7107 107.817 45.0257 107.887 45.1657C107.957 45.2824 108.167 45.3407 108.517 45.3407C109.8 45.3407 110.769 44.8624 111.422 43.9057C112.099 42.949 112.437 41.3624 112.437 39.1457C112.437 36.9057 112.087 35.4474 111.387 34.7707C110.71 34.094 109.625 33.7557 108.132 33.7557H107.782ZM134.354 36.8357C134.798 36.8357 135.019 37.6524 135.019 39.2857C135.019 39.7757 134.961 40.359 134.844 41.0357C134.751 41.689 134.564 42.0157 134.284 42.0157H129.839V45.5157H136.279C136.676 45.5157 136.944 46.029 137.084 47.0557C137.154 47.499 137.189 47.9774 137.189 48.4907C137.189 48.9807 137.119 49.6224 136.979 50.4157C136.839 51.209 136.606 51.6057 136.279 51.6057H124.309C123.423 51.6057 122.979 51.244 122.979 50.5207V28.0157C122.979 27.409 123.248 27.1057 123.784 27.1057H136.314C136.804 27.1057 137.049 28.144 137.049 30.2207C137.049 32.274 136.804 33.3007 136.314 33.3007H129.839V36.8357H134.354ZM143.635 51.6757C141.512 51.6757 140.45 51.4424 140.45 50.9757V28.2957C140.45 27.5024 140.812 27.1057 141.535 27.1057H147.695C151.148 27.1057 153.633 27.8174 155.15 29.2407C156.69 30.664 157.46 32.729 157.46 35.4357C157.46 37.6757 156.737 39.729 155.29 41.5957C154.567 42.529 153.505 43.2757 152.105 43.8357C150.705 44.3957 149.072 44.6757 147.205 44.6757V50.9407C147.205 51.2207 146.762 51.419 145.875 51.5357C145.012 51.629 144.265 51.6757 143.635 51.6757ZM147.205 33.1957V38.7257H147.66C148.477 38.7257 149.165 38.469 149.725 37.9557C150.285 37.4424 150.565 36.719 150.565 35.7857C150.565 34.8524 150.367 34.1874 149.97 33.7907C149.597 33.394 148.92 33.1957 147.94 33.1957H147.205ZM171.296 51.9557C168.029 51.9557 165.358 50.8824 163.281 48.7357C161.228 46.589 160.201 43.4624 160.201 39.3557C160.201 35.2257 161.239 32.099 163.316 29.9757C165.416 27.8524 168.111 26.7907 171.401 26.7907C174.714 26.7907 177.386 27.8407 179.416 29.9407C181.446 32.0174 182.461 35.179 182.461 39.4257C182.461 43.649 181.423 46.799 179.346 48.8757C177.269 50.929 174.586 51.9557 171.296 51.9557ZM171.331 33.5107C170.211 33.5107 169.266 34.024 168.496 35.0507C167.749 36.0774 167.376 37.524 167.376 39.3907C167.376 41.234 167.738 42.6574 168.461 43.6607C169.184 44.6407 170.129 45.1307 171.296 45.1307C172.486 45.1307 173.443 44.629 174.166 43.6257C174.913 42.6224 175.286 41.1874 175.286 39.3207C175.286 37.454 174.901 36.019 174.131 35.0157C173.384 34.0124 172.451 33.5107 171.331 33.5107ZM186.531 43.0657C186.975 43.4157 187.733 43.894 188.806 44.5007C189.903 45.1074 190.941 45.4107 191.921 45.4107C192.925 45.4107 193.426 45.0257 193.426 44.2557C193.426 43.9057 193.286 43.6024 193.006 43.3457C192.726 43.0657 192.213 42.7507 191.466 42.4007C190.72 42.0507 190.16 41.7824 189.786 41.5957C189.413 41.3857 188.911 41.059 188.281 40.6157C187.675 40.149 187.208 39.6707 186.881 39.1807C185.948 37.8507 185.481 36.159 185.481 34.1057C185.481 32.0524 186.24 30.3257 187.756 28.9257C189.296 27.5024 191.303 26.7907 193.776 26.7907C195.456 26.7907 197.008 26.9774 198.431 27.3507C199.855 27.7007 200.59 28.1674 200.636 28.7507C200.636 28.8207 200.636 28.8907 200.636 28.9607C200.636 29.7774 200.38 30.8157 199.866 32.0757C199.353 33.3124 198.991 34.0007 198.781 34.1407C197.288 33.3707 195.946 32.9857 194.756 32.9857C193.59 32.9857 193.006 33.4057 193.006 34.2457C193.006 34.759 193.438 35.214 194.301 35.6107C194.488 35.704 194.756 35.8324 195.106 35.9957C195.456 36.159 195.853 36.3574 196.296 36.5907C196.763 36.8007 197.253 37.0807 197.766 37.4307C198.303 37.7574 198.875 38.2007 199.481 38.7607C200.718 39.9274 201.336 41.4674 201.336 43.3807C201.336 45.8774 200.648 47.919 199.271 49.5057C197.895 51.0924 195.771 51.909 192.901 51.9557C191.501 51.9557 190.23 51.839 189.086 51.6057C187.966 51.3724 186.986 50.9174 186.146 50.2407C185.306 49.564 184.886 48.7474 184.886 47.7907C184.886 46.834 185.061 45.889 185.411 44.9557C185.761 43.999 186.135 43.369 186.531 43.0657ZM206.875 45.5857V33.1257H204.39C203.993 33.1257 203.713 32.624 203.55 31.6207C203.48 31.1307 203.445 30.629 203.445 30.1157C203.445 29.6024 203.48 29.1007 203.55 28.6107C203.713 27.6074 203.993 27.1057 204.39 27.1057H216.15C216.547 27.1057 216.815 27.6074 216.955 28.6107C217.048 29.1007 217.095 29.6024 217.095 30.1157C217.095 30.629 217.048 31.1307 216.955 31.6207C216.815 32.624 216.547 33.1257 216.15 33.1257H213.805V45.5857H216.255C216.652 45.5857 216.932 46.0874 217.095 47.0907C217.188 47.5807 217.235 48.0824 217.235 48.5957C217.235 49.109 217.188 49.6107 217.095 50.1007C216.932 51.104 216.652 51.6057 216.255 51.6057H204.46C204.063 51.6057 203.795 51.104 203.655 50.1007C203.562 49.6107 203.515 49.109 203.515 48.5957C203.515 48.0824 203.562 47.5807 203.655 47.0907C203.795 46.0874 204.063 45.5857 204.46 45.5857H206.875ZM230.455 51.0457C230.455 51.5124 229.3 51.7457 226.99 51.7457C224.68 51.7457 223.525 51.5124 223.525 51.0457V33.4757H219.325C218.928 33.4757 218.648 32.939 218.485 31.8657C218.415 31.3524 218.38 30.8274 218.38 30.2907C218.38 29.754 218.415 29.229 218.485 28.7157C218.648 27.6424 218.928 27.1057 219.325 27.1057H234.55C234.946 27.1057 235.226 27.6424 235.39 28.7157C235.46 29.229 235.495 29.754 235.495 30.2907C235.495 30.8274 235.46 31.3524 235.39 31.8657C235.226 32.939 234.946 33.4757 234.55 33.4757H230.455V51.0457Z"/>
</mask>
<path d="M101.062 49.9957V28.9957C101.062 28.4124 101.202 27.9574 101.482 27.6307C101.785 27.2807 102.17 27.1057 102.637 27.1057H108.482C112.192 27.1057 115.004 28.039 116.917 29.9057C118.854 31.7724 119.822 34.7124 119.822 38.7257C119.822 47.3124 116.159 51.6057 108.832 51.6057H102.847C101.657 51.6057 101.062 51.069 101.062 49.9957ZM107.782 33.7557V44.2207C107.782 44.7107 107.817 45.0257 107.887 45.1657C107.957 45.2824 108.167 45.3407 108.517 45.3407C109.8 45.3407 110.769 44.8624 111.422 43.9057C112.099 42.949 112.437 41.3624 112.437 39.1457C112.437 36.9057 112.087 35.4474 111.387 34.7707C110.71 34.094 109.625 33.7557 108.132 33.7557H107.782ZM134.354 36.8357C134.798 36.8357 135.019 37.6524 135.019 39.2857C135.019 39.7757 134.961 40.359 134.844 41.0357C134.751 41.689 134.564 42.0157 134.284 42.0157H129.839V45.5157H136.279C136.676 45.5157 136.944 46.029 137.084 47.0557C137.154 47.499 137.189 47.9774 137.189 48.4907C137.189 48.9807 137.119 49.6224 136.979 50.4157C136.839 51.209 136.606 51.6057 136.279 51.6057H124.309C123.423 51.6057 122.979 51.244 122.979 50.5207V28.0157C122.979 27.409 123.248 27.1057 123.784 27.1057H136.314C136.804 27.1057 137.049 28.144 137.049 30.2207C137.049 32.274 136.804 33.3007 136.314 33.3007H129.839V36.8357H134.354ZM143.635 51.6757C141.512 51.6757 140.45 51.4424 140.45 50.9757V28.2957C140.45 27.5024 140.812 27.1057 141.535 27.1057H147.695C151.148 27.1057 153.633 27.8174 155.15 29.2407C156.69 30.664 157.46 32.729 157.46 35.4357C157.46 37.6757 156.737 39.729 155.29 41.5957C154.567 42.529 153.505 43.2757 152.105 43.8357C150.705 44.3957 149.072 44.6757 147.205 44.6757V50.9407C147.205 51.2207 146.762 51.419 145.875 51.5357C145.012 51.629 144.265 51.6757 143.635 51.6757ZM147.205 33.1957V38.7257H147.66C148.477 38.7257 149.165 38.469 149.725 37.9557C150.285 37.4424 150.565 36.719 150.565 35.7857C150.565 34.8524 150.367 34.1874 149.97 33.7907C149.597 33.394 148.92 33.1957 147.94 33.1957H147.205ZM171.296 51.9557C168.029 51.9557 165.358 50.8824 163.281 48.7357C161.228 46.589 160.201 43.4624 160.201 39.3557C160.201 35.2257 161.239 32.099 163.316 29.9757C165.416 27.8524 168.111 26.7907 171.401 26.7907C174.714 26.7907 177.386 27.8407 179.416 29.9407C181.446 32.0174 182.461 35.179 182.461 39.4257C182.461 43.649 181.423 46.799 179.346 48.8757C177.269 50.929 174.586 51.9557 171.296 51.9557ZM171.331 33.5107C170.211 33.5107 169.266 34.024 168.496 35.0507C167.749 36.0774 167.376 37.524 167.376 39.3907C167.376 41.234 167.738 42.6574 168.461 43.6607C169.184 44.6407 170.129 45.1307 171.296 45.1307C172.486 45.1307 173.443 44.629 174.166 43.6257C174.913 42.6224 175.286 41.1874 175.286 39.3207C175.286 37.454 174.901 36.019 174.131 35.0157C173.384 34.0124 172.451 33.5107 171.331 33.5107ZM186.531 43.0657C186.975 43.4157 187.733 43.894 188.806 44.5007C189.903 45.1074 190.941 45.4107 191.921 45.4107C192.925 45.4107 193.426 45.0257 193.426 44.2557C193.426 43.9057 193.286 43.6024 193.006 43.3457C192.726 43.0657 192.213 42.7507 191.466 42.4007C190.72 42.0507 190.16 41.7824 189.786 41.5957C189.413 41.3857 188.911 41.059 188.281 40.6157C187.675 40.149 187.208 39.6707 186.881 39.1807C185.948 37.8507 185.481 36.159 185.481 34.1057C185.481 32.0524 186.24 30.3257 187.756 28.9257C189.296 27.5024 191.303 26.7907 193.776 26.7907C195.456 26.7907 197.008 26.9774 198.431 27.3507C199.855 27.7007 200.59 28.1674 200.636 28.7507C200.636 28.8207 200.636 28.8907 200.636 28.9607C200.636 29.7774 200.38 30.8157 199.866 32.0757C199.353 33.3124 198.991 34.0007 198.781 34.1407C197.288 33.3707 195.946 32.9857 194.756 32.9857C193.59 32.9857 193.006 33.4057 193.006 34.2457C193.006 34.759 193.438 35.214 194.301 35.6107C194.488 35.704 194.756 35.8324 195.106 35.9957C195.456 36.159 195.853 36.3574 196.296 36.5907C196.763 36.8007 197.253 37.0807 197.766 37.4307C198.303 37.7574 198.875 38.2007 199.481 38.7607C200.718 39.9274 201.336 41.4674 201.336 43.3807C201.336 45.8774 200.648 47.919 199.271 49.5057C197.895 51.0924 195.771 51.909 192.901 51.9557C191.501 51.9557 190.23 51.839 189.086 51.6057C187.966 51.3724 186.986 50.9174 186.146 50.2407C185.306 49.564 184.886 48.7474 184.886 47.7907C184.886 46.834 185.061 45.889 185.411 44.9557C185.761 43.999 186.135 43.369 186.531 43.0657ZM206.875 45.5857V33.1257H204.39C203.993 33.1257 203.713 32.624 203.55 31.6207C203.48 31.1307 203.445 30.629 203.445 30.1157C203.445 29.6024 203.48 29.1007 203.55 28.6107C203.713 27.6074 203.993 27.1057 204.39 27.1057H216.15C216.547 27.1057 216.815 27.6074 216.955 28.6107C217.048 29.1007 217.095 29.6024 217.095 30.1157C217.095 30.629 217.048 31.1307 216.955 31.6207C216.815 32.624 216.547 33.1257 216.15 33.1257H213.805V45.5857H216.255C216.652 45.5857 216.932 46.0874 217.095 47.0907C217.188 47.5807 217.235 48.0824 217.235 48.5957C217.235 49.109 217.188 49.6107 217.095 50.1007C216.932 51.104 216.652 51.6057 216.255 51.6057H204.46C204.063 51.6057 203.795 51.104 203.655 50.1007C203.562 49.6107 203.515 49.109 203.515 48.5957C203.515 48.0824 203.562 47.5807 203.655 47.0907C203.795 46.0874 204.063 45.5857 204.46 45.5857H206.875ZM230.455 51.0457C230.455 51.5124 229.3 51.7457 226.99 51.7457C224.68 51.7457 223.525 51.5124 223.525 51.0457V33.4757H219.325C218.928 33.4757 218.648 32.939 218.485 31.8657C218.415 31.3524 218.38 30.8274 218.38 30.2907C218.38 29.754 218.415 29.229 218.485 28.7157C218.648 27.6424 218.928 27.1057 219.325 27.1057H234.55C234.946 27.1057 235.226 27.6424 235.39 28.7157C235.46 29.229 235.495 29.754 235.495 30.2907C235.495 30.8274 235.46 31.3524 235.39 31.8657C235.226 32.939 234.946 33.4757 234.55 33.4757H230.455V51.0457Z" fill="white"/>
<path d="M101.482 27.6307L100.469 26.7529L100.464 26.7585L101.482 27.6307ZM116.917 29.9057L115.981 30.8651L115.987 30.8707L116.917 29.9057ZM107.782 33.7557V32.4154H106.442V33.7557H107.782ZM107.887 45.1657L106.688 45.7651L106.711 45.8111L106.738 45.8553L107.887 45.1657ZM111.422 43.9057L110.328 43.1317L110.321 43.1407L110.315 43.1498L111.422 43.9057ZM111.387 34.7707L110.439 35.7184L110.447 35.7265L110.455 35.7344L111.387 34.7707ZM102.402 49.9957V28.9957H99.7217V49.9957H102.402ZM102.402 28.9957C102.402 28.618 102.492 28.5121 102.5 28.503L100.464 26.7585C99.9122 27.4027 99.7217 28.2068 99.7217 28.9957H102.402ZM102.495 28.5085C102.532 28.4652 102.552 28.4575 102.553 28.4571C102.554 28.4566 102.575 28.446 102.637 28.446V25.7654C101.785 25.7654 101.029 26.1066 100.469 26.7529L102.495 28.5085ZM102.637 28.446H108.482V25.7654H102.637V28.446ZM108.482 28.446C111.98 28.446 114.402 29.3243 115.981 30.8651L117.853 28.9464C115.606 26.7538 112.404 25.7654 108.482 25.7654V28.446ZM115.987 30.8707C117.556 32.3832 118.482 34.898 118.482 38.7257H121.162C121.162 34.5267 120.151 31.1616 117.847 28.9407L115.987 30.8707ZM118.482 38.7257C118.482 42.8599 117.595 45.7104 116.055 47.5158C114.549 49.2803 112.228 50.2654 108.832 50.2654V52.946C112.762 52.946 115.936 51.7844 118.094 49.2557C120.217 46.7676 121.162 43.1782 121.162 38.7257H118.482ZM108.832 50.2654H102.847V52.946H108.832V50.2654ZM102.847 50.2654C102.426 50.2654 102.361 50.1676 102.406 50.208C102.43 50.2292 102.435 50.2482 102.431 50.2355C102.423 50.215 102.402 50.1437 102.402 49.9957H99.7217C99.7217 50.7767 99.9446 51.5977 100.611 52.1985C101.25 52.7755 102.078 52.946 102.847 52.946V50.2654ZM106.442 33.7557V44.2207H109.122V33.7557H106.442ZM106.442 44.2207C106.442 44.4916 106.451 44.747 106.476 44.9725C106.497 45.1599 106.542 45.4723 106.688 45.7651L109.086 44.5663C109.133 44.6601 109.147 44.7254 109.147 44.7265C109.149 44.7344 109.145 44.7205 109.14 44.6765C109.13 44.587 109.122 44.4398 109.122 44.2207H106.442ZM106.738 45.8553C107.03 46.3423 107.493 46.5201 107.738 46.5883C108.009 46.6635 108.285 46.681 108.517 46.681V44.0004C108.399 44.0004 108.395 43.9888 108.456 44.0056C108.49 44.0151 108.573 44.0416 108.676 44.1057C108.783 44.1724 108.924 44.289 109.036 44.4761L106.738 45.8553ZM108.517 46.681C110.187 46.681 111.596 46.0278 112.529 44.6616L110.315 43.1498C109.942 43.6969 109.413 44.0004 108.517 44.0004V46.681ZM112.516 44.6797C113.442 43.3703 113.777 41.4285 113.777 39.1457H111.097C111.097 41.2962 110.755 42.5278 110.328 43.1317L112.516 44.6797ZM113.777 39.1457C113.777 37.9667 113.686 36.9277 113.478 36.0592C113.273 35.2059 112.926 34.3941 112.319 33.8071L110.455 35.7344C110.548 35.824 110.726 36.0797 110.871 36.6847C111.013 37.2746 111.097 38.0848 111.097 39.1457H113.777ZM112.335 33.823C111.297 32.785 109.787 32.4154 108.132 32.4154V35.096C109.464 35.096 110.124 35.4031 110.439 35.7184L112.335 33.823ZM108.132 32.4154H107.782V35.096H108.132V32.4154ZM134.844 41.0357L133.524 40.808L133.52 40.827L133.518 40.8462L134.844 41.0357ZM129.839 42.0157V40.6754H128.499V42.0157H129.839ZM129.839 45.5157H128.499V46.856H129.839V45.5157ZM137.084 47.0557L135.756 47.2368L135.758 47.2508L135.761 47.2647L137.084 47.0557ZM136.979 50.4157L135.66 50.1828V50.1828L136.979 50.4157ZM129.839 33.3007V31.9604H128.499V33.3007H129.839ZM129.839 36.8357H128.499V38.176H129.839V36.8357ZM134.354 38.176C134.195 38.176 134.032 38.137 133.886 38.06C133.746 37.9863 133.656 37.8965 133.606 37.8351C133.52 37.73 133.527 37.679 133.56 37.7993C133.623 38.0313 133.679 38.4993 133.679 39.2857H136.36C136.36 38.4388 136.305 37.6818 136.147 37.0971C136.068 36.8091 135.937 36.4519 135.685 36.1425C135.4 35.7931 134.946 35.4954 134.354 35.4954V38.176ZM133.679 39.2857C133.679 39.6759 133.632 40.1791 133.524 40.808L136.165 41.2634C136.29 40.5389 136.36 39.8755 136.36 39.2857H133.679ZM133.518 40.8462C133.501 40.9657 133.482 41.0465 133.468 41.0963C133.453 41.1491 133.449 41.1439 133.471 41.1057C133.492 41.0683 133.561 40.9593 133.708 40.8565C133.871 40.7425 134.074 40.6754 134.284 40.6754V43.356C135.068 43.356 135.559 42.8533 135.798 42.4357C136.016 42.0544 136.116 41.6124 136.171 41.2253L133.518 40.8462ZM134.284 40.6754H129.839V43.356H134.284V40.6754ZM128.499 42.0157V45.5157H131.18V42.0157H128.499ZM129.839 46.856H136.279V44.1754H129.839V46.856ZM136.279 46.856C136.064 46.856 135.871 46.7784 135.734 46.6729C135.617 46.5828 135.581 46.5038 135.59 46.5216C135.598 46.5359 135.626 46.5961 135.66 46.7255C135.693 46.8515 135.727 47.0196 135.756 47.2368L138.412 46.8746C138.335 46.309 138.208 45.7421 137.966 45.2798C137.72 44.8088 137.19 44.1754 136.279 44.1754V46.856ZM135.761 47.2647C135.818 47.6299 135.849 48.0376 135.849 48.4907H138.53C138.53 47.9171 138.491 47.3682 138.408 46.8467L135.761 47.2647ZM135.849 48.4907C135.849 48.869 135.793 49.4241 135.66 50.1828L138.299 50.6486C138.445 49.8207 138.53 49.0924 138.53 48.4907H135.849ZM135.66 50.1828C135.632 50.3397 135.603 50.4547 135.578 50.5351C135.552 50.6185 135.536 50.642 135.544 50.6287C135.551 50.6173 135.604 50.5283 135.732 50.4376C135.877 50.3354 136.069 50.2654 136.279 50.2654V52.946C137.1 52.946 137.607 52.4095 137.855 51.9878C138.091 51.5851 138.219 51.1029 138.299 50.6486L135.66 50.1828ZM136.279 50.2654H124.309V52.946H136.279V50.2654ZM124.309 50.2654C124.174 50.2654 124.104 50.2512 124.079 50.2446C124.058 50.2388 124.098 50.2459 124.159 50.2959C124.189 50.3207 124.219 50.3516 124.246 50.3878C124.273 50.4239 124.291 50.4588 124.303 50.4884C124.327 50.5466 124.32 50.5672 124.32 50.5207H121.639C121.639 51.1692 121.851 51.8725 122.465 52.373C123.026 52.8309 123.718 52.946 124.309 52.946V50.2654ZM124.32 50.5207V28.0157H121.639V50.5207H124.32ZM124.32 28.0157C124.32 27.8813 124.353 28.0308 124.185 28.2212C124.098 28.319 123.995 28.3826 123.905 28.4168C123.822 28.4479 123.773 28.446 123.784 28.446V25.7654C123.264 25.7654 122.641 25.9201 122.177 26.4452C121.74 26.9389 121.639 27.5435 121.639 28.0157H124.32ZM123.784 28.446H136.314V25.7654H123.784V28.446ZM136.314 28.446C135.876 28.446 135.619 28.1828 135.542 28.0748C135.489 28.0002 135.516 28.0022 135.561 28.1923C135.647 28.5556 135.709 29.208 135.709 30.2207H138.39C138.39 29.1567 138.329 28.2516 138.17 27.5767C138.092 27.2476 137.966 26.8602 137.73 26.526C137.47 26.1584 136.998 25.7654 136.314 25.7654V28.446ZM135.709 30.2207C135.709 31.2214 135.647 31.8636 135.562 32.2196C135.518 32.4057 135.491 32.4045 135.546 32.328C135.626 32.2171 135.883 31.9604 136.314 31.9604V34.641C136.991 34.641 137.463 34.256 137.726 33.8884C137.964 33.5553 138.091 33.1691 138.169 32.8418C138.329 32.1711 138.39 31.2734 138.39 30.2207H135.709ZM136.314 31.9604H129.839V34.641H136.314V31.9604ZM128.499 33.3007V36.8357H131.18V33.3007H128.499ZM129.839 38.176H134.354V35.4954H129.839V38.176ZM155.15 29.2407L154.233 30.2181L154.24 30.225L155.15 29.2407ZM155.29 41.5957L156.35 42.4167L155.29 41.5957ZM152.105 43.8357L151.607 42.5913L152.105 43.8357ZM147.205 44.6757V43.3354H145.865V44.6757H147.205ZM145.875 51.5357L146.019 52.8682L146.035 52.8666L146.05 52.8645L145.875 51.5357ZM147.205 33.1957V31.8554H145.865V33.1957H147.205ZM147.205 38.7257H145.865V40.066H147.205V38.7257ZM149.725 37.9557L150.631 38.9437L149.725 37.9557ZM149.97 33.7907L148.994 34.7093L149.008 34.7241L149.022 34.7384L149.97 33.7907ZM143.635 50.3354C142.597 50.3354 141.919 50.2762 141.534 50.1917C141.332 50.1472 141.319 50.118 141.387 50.163C141.48 50.2245 141.79 50.4875 141.79 50.9757H139.11C139.11 51.6972 139.553 52.1644 139.911 52.4009C140.245 52.621 140.63 52.7376 140.959 52.8097C141.636 52.9585 142.55 53.016 143.635 53.016V50.3354ZM141.79 50.9757V28.2957H139.11V50.9757H141.79ZM141.79 28.2957C141.79 28.1949 141.802 28.158 141.8 28.1648C141.797 28.1766 141.775 28.2365 141.712 28.3062C141.646 28.3786 141.572 28.4201 141.521 28.4389C141.477 28.4549 141.473 28.446 141.535 28.446V25.7654C140.933 25.7654 140.245 25.9361 139.731 26.5002C139.238 27.0408 139.11 27.7215 139.11 28.2957H141.79ZM141.535 28.446H147.695V25.7654H141.535V28.446ZM147.695 28.446C151.019 28.446 153.085 29.1405 154.233 30.218L156.067 28.2634C154.182 26.4942 151.278 25.7654 147.695 25.7654V28.446ZM154.24 30.225C155.432 31.3259 156.12 32.9878 156.12 35.4357H158.8C158.8 32.4703 157.949 30.0022 156.06 28.2564L154.24 30.225ZM156.12 35.4357C156.12 37.3616 155.506 39.1293 154.231 40.7747L156.35 42.4167C157.968 40.3288 158.8 37.9898 158.8 35.4357H156.12ZM154.231 40.7747C153.689 41.474 152.846 42.0958 151.607 42.5913L152.603 45.0801C154.164 44.4556 155.445 43.5841 156.35 42.4167L154.231 40.7747ZM151.607 42.5913C150.398 43.0749 148.941 43.3354 147.205 43.3354V46.016C149.203 46.016 151.012 45.7166 152.603 45.0801L151.607 42.5913ZM145.865 44.6757V50.9407H148.545V44.6757H145.865ZM145.865 50.9407C145.865 50.7933 145.895 50.6481 145.952 50.5156C146.007 50.3863 146.078 50.2901 146.139 50.2243C146.251 50.1034 146.345 50.0674 146.325 50.076C146.315 50.0806 146.263 50.1016 146.148 50.1287C146.037 50.155 145.89 50.182 145.7 50.2069L146.05 52.8645C146.533 52.801 147.019 52.7022 147.42 52.5229C147.746 52.377 148.545 51.9258 148.545 50.9407H145.865ZM145.731 50.2032C144.899 50.2931 144.203 50.3354 143.635 50.3354V53.016C144.327 53.016 145.124 52.965 146.019 52.8682L145.731 50.2032ZM145.865 33.1957V38.7257H148.545V33.1957H145.865ZM147.205 40.066H147.66V37.3854H147.205V40.066ZM147.66 40.066C148.785 40.066 149.804 39.7015 150.631 38.9437L148.819 36.9677C148.526 37.2366 148.169 37.3854 147.66 37.3854V40.066ZM150.631 38.9437C151.529 38.1201 151.905 37.0022 151.905 35.7857H149.225C149.225 36.4359 149.041 36.7647 148.819 36.9677L150.631 38.9437ZM151.905 35.7857C151.905 34.7202 151.689 33.614 150.918 32.843L149.022 34.7384C149.045 34.7608 149.225 34.9846 149.225 35.7857H151.905ZM150.946 32.8721C150.179 32.0575 149.017 31.8554 147.94 31.8554V34.536C148.348 34.536 148.627 34.5783 148.806 34.6306C148.981 34.682 149.012 34.7286 148.994 34.7093L150.946 32.8721ZM147.94 31.8554H147.205V34.536H147.94V31.8554ZM163.281 48.7357L162.313 49.6622L162.318 49.6676L163.281 48.7357ZM163.316 29.9757L162.363 29.0332L162.358 29.0386L163.316 29.9757ZM179.416 29.9407L178.452 30.8723L178.458 30.8776L179.416 29.9407ZM179.346 48.8757L180.288 49.8288L180.294 49.8234L179.346 48.8757ZM168.496 35.0507L167.424 34.2465L167.418 34.2544L167.412 34.2624L168.496 35.0507ZM168.461 43.6607L167.374 44.4445L167.378 44.4506L167.383 44.4566L168.461 43.6607ZM174.166 43.6257L173.091 42.8256L173.085 42.8337L173.079 42.8419L174.166 43.6257ZM174.131 35.0157L173.056 35.8159L173.062 35.8238L173.068 35.8317L174.131 35.0157ZM171.296 50.6154C168.355 50.6154 166.043 49.6636 164.244 47.8038L162.318 49.6676C164.672 52.1012 167.704 53.296 171.296 53.296V50.6154ZM164.25 47.8093C162.514 45.9943 161.541 43.2509 161.541 39.3557H158.861C158.861 43.6738 159.942 47.1838 162.313 49.6621L164.25 47.8093ZM161.541 39.3557C161.541 35.4373 162.525 32.7015 164.274 30.9128L162.358 29.0386C159.954 31.4966 158.861 35.0141 158.861 39.3557H161.541ZM164.269 30.9182C166.09 29.0765 168.429 28.131 171.401 28.131V25.4504C167.793 25.4504 164.742 26.6282 162.363 29.0332L164.269 30.9182ZM171.401 28.131C174.405 28.131 176.71 29.0696 178.452 30.8722L180.38 29.0092C178.062 26.6119 175.024 25.4504 171.401 25.4504V28.131ZM178.458 30.8776C180.15 32.6084 181.121 35.3682 181.121 39.4257H183.801C183.801 34.9899 182.743 31.4263 180.375 29.0038L178.458 30.8776ZM181.121 39.4257C181.121 43.45 180.131 46.1951 178.398 47.928L180.294 49.8234C182.714 47.403 183.801 43.8481 183.801 39.4257H181.121ZM178.404 47.9227C176.611 49.6957 174.282 50.6154 171.296 50.6154V53.296C174.89 53.296 177.928 52.1624 180.288 49.8288L178.404 47.9227ZM171.331 32.1704C169.724 32.1704 168.405 32.9385 167.424 34.2465L169.568 35.8549C170.127 35.1096 170.698 34.851 171.331 34.851V32.1704ZM167.412 34.2624C166.437 35.6031 166.036 37.368 166.036 39.3907H168.716C168.716 37.6801 169.062 36.5516 169.58 35.839L167.412 34.2624ZM166.036 39.3907C166.036 41.3845 166.423 43.1258 167.374 44.4445L169.548 42.8769C169.052 42.1889 168.716 41.0835 168.716 39.3907H166.036ZM167.383 44.4566C168.346 45.7613 169.682 46.471 171.296 46.471V43.7904C170.576 43.7904 170.023 43.5202 169.539 42.8648L167.383 44.4566ZM171.296 46.471C172.937 46.471 174.29 45.746 175.253 44.4095L173.079 42.8419C172.596 43.5121 172.036 43.7904 171.296 43.7904V46.471ZM175.241 44.4259C176.226 43.1024 176.626 41.3406 176.626 39.3207H173.946C173.946 41.0342 173.599 42.1424 173.091 42.8256L175.241 44.4259ZM176.626 39.3207C176.626 37.2937 176.212 35.5253 175.194 34.1997L173.068 35.8317C173.591 36.5128 173.946 37.6144 173.946 39.3207H176.626ZM175.206 34.2156C174.241 32.918 172.929 32.1704 171.331 32.1704V34.851C171.974 34.851 172.528 35.1068 173.056 35.8159L175.206 34.2156ZM186.531 43.0657L187.362 42.0138L186.544 41.3684L185.717 42.0011L186.531 43.0657ZM188.806 44.5007L188.147 45.6676L188.157 45.6735L188.806 44.5007ZM193.006 43.3457L192.058 44.2934L192.079 44.314L192.101 44.3337L193.006 43.3457ZM191.466 42.4007L190.897 43.6143L191.466 42.4007ZM189.786 41.5957L189.129 42.7639L189.158 42.7799L189.187 42.7945L189.786 41.5957ZM188.281 40.6157L187.464 41.678L187.487 41.6954L187.51 41.7118L188.281 40.6157ZM186.881 39.1807L187.996 38.4373L187.987 38.4239L187.978 38.4108L186.881 39.1807ZM187.756 28.9257L188.665 29.9106L188.666 29.91L187.756 28.9257ZM198.431 27.3507L198.091 28.6471L198.101 28.6498L198.111 28.6522L198.431 27.3507ZM200.636 28.7507H201.976V28.6972L201.972 28.6438L200.636 28.7507ZM199.866 32.0757L201.104 32.5896L201.107 32.5814L199.866 32.0757ZM198.781 34.1407L198.167 35.332L198.868 35.6935L199.525 35.2559L198.781 34.1407ZM194.301 35.6107L194.901 34.4119L194.881 34.4021L194.861 34.3928L194.301 35.6107ZM195.106 35.9957L194.539 37.2103L195.106 35.9957ZM196.296 36.5907L195.672 37.7768L195.709 37.796L195.746 37.8129L196.296 36.5907ZM197.766 37.4307L197.011 38.5381L197.04 38.5576L197.069 38.5756L197.766 37.4307ZM199.481 38.7607L200.401 37.7858L200.396 37.7808L200.39 37.7759L199.481 38.7607ZM199.271 49.5057L200.284 50.3841L199.271 49.5057ZM192.901 51.9557V53.296H192.912L192.923 53.2958L192.901 51.9557ZM189.086 51.6057L188.813 52.9178L188.818 52.9189L189.086 51.6057ZM186.146 50.2407L186.987 49.197L186.146 50.2407ZM185.411 44.9557L186.666 45.4263L186.67 45.4162L185.411 44.9557ZM185.701 44.1177C186.231 44.5362 187.066 45.0569 188.147 45.6675L189.466 43.3339C188.399 42.7311 187.718 42.2953 187.362 42.0138L185.701 44.1177ZM188.157 45.6735C189.399 46.3601 190.66 46.751 191.921 46.751V44.0704C191.223 44.0704 190.407 43.8547 189.455 43.3279L188.157 45.6735ZM191.921 46.751C192.557 46.751 193.279 46.6356 193.866 46.1852C194.52 45.6833 194.766 44.9563 194.766 44.2557H192.086C192.086 44.3044 192.078 44.2843 192.103 44.2271C192.115 44.1983 192.134 44.166 192.159 44.134C192.184 44.1021 192.21 44.077 192.234 44.0587C192.281 44.0226 192.299 44.0269 192.247 44.0401C192.194 44.0537 192.091 44.0704 191.921 44.0704V46.751ZM194.766 44.2557C194.766 43.4956 194.442 42.844 193.912 42.3577L192.101 44.3337C192.127 44.3583 192.118 44.3577 192.104 44.3274C192.098 44.3133 192.093 44.2979 192.089 44.2828C192.086 44.2679 192.086 44.2581 192.086 44.2557H194.766ZM193.954 42.398C193.499 41.9431 192.804 41.5475 192.035 41.1871L190.897 43.6143C191.622 43.9539 191.953 44.1883 192.058 44.2934L193.954 42.398ZM192.035 41.1871C191.291 40.8383 190.743 40.5758 190.386 40.3969L189.187 42.7945C189.576 42.989 190.148 43.2631 190.897 43.6143L192.035 41.1871ZM190.443 40.4276C190.128 40.2505 189.67 39.954 189.053 39.5196L187.51 41.7118C188.153 42.1641 188.697 42.521 189.129 42.7639L190.443 40.4276ZM189.098 39.5534C188.575 39.1507 188.222 38.7751 187.996 38.4373L185.766 39.9242C186.194 40.5663 186.774 41.1474 187.464 41.678L189.098 39.5534ZM187.978 38.4108C187.241 37.3595 186.821 35.9565 186.821 34.1057H184.141C184.141 36.3616 184.655 38.3419 185.784 39.9506L187.978 38.4108ZM186.821 34.1057C186.821 32.4287 187.422 31.0583 188.665 29.9106L186.847 27.9409C185.057 29.5931 184.141 31.6761 184.141 34.1057H186.821ZM188.666 29.91C189.915 28.7558 191.576 28.131 193.776 28.131V25.4504C191.03 25.4504 188.678 26.249 186.846 27.9414L188.666 29.91ZM193.776 28.131C195.357 28.131 196.793 28.3067 198.091 28.6471L198.771 26.0543C197.223 25.6481 195.555 25.4504 193.776 25.4504V28.131ZM198.111 28.6522C198.764 28.8128 199.142 28.9746 199.332 29.0947C199.524 29.2168 199.324 29.1603 199.3 28.8576L201.972 28.6438C201.901 27.7578 201.311 27.1763 200.768 26.8317C200.223 26.4852 199.521 26.2386 198.751 26.0492L198.111 28.6522ZM199.296 28.7507C199.296 28.7508 199.296 28.751 199.296 28.7511C199.296 28.7513 199.296 28.7514 199.296 28.7515C199.296 28.7517 199.296 28.7518 199.296 28.7519C199.296 28.7521 199.296 28.7522 199.296 28.7524C199.296 28.7525 199.296 28.7526 199.296 28.7528C199.296 28.7529 199.296 28.753 199.296 28.7532C199.296 28.7533 199.296 28.7534 199.296 28.7536C199.296 28.7537 199.296 28.7539 199.296 28.754C199.296 28.7541 199.296 28.7543 199.296 28.7544C199.296 28.7545 199.296 28.7547 199.296 28.7548C199.296 28.7549 199.296 28.7551 199.296 28.7552C199.296 28.7554 199.296 28.7555 199.296 28.7556C199.296 28.7558 199.296 28.7559 199.296 28.756C199.296 28.7562 199.296 28.7563 199.296 28.7565C199.296 28.7566 199.296 28.7567 199.296 28.7569C199.296 28.757 199.296 28.7571 199.296 28.7573C199.296 28.7574 199.296 28.7575 199.296 28.7577C199.296 28.7578 199.296 28.758 199.296 28.7581C199.296 28.7582 199.296 28.7584 199.296 28.7585C199.296 28.7586 199.296 28.7588 199.296 28.7589C199.296 28.7591 199.296 28.7592 199.296 28.7593C199.296 28.7595 199.296 28.7596 199.296 28.7597C199.296 28.7599 199.296 28.76 199.296 28.7601C199.296 28.7603 199.296 28.7604 199.296 28.7606C199.296 28.7607 199.296 28.7608 199.296 28.761C199.296 28.7611 199.296 28.7612 199.296 28.7614C199.296 28.7615 199.296 28.7616 199.296 28.7618C199.296 28.7619 199.296 28.7621 199.296 28.7622C199.296 28.7623 199.296 28.7625 199.296 28.7626C199.296 28.7627 199.296 28.7629 199.296 28.763C199.296 28.7632 199.296 28.7633 199.296 28.7634C199.296 28.7636 199.296 28.7637 199.296 28.7638C199.296 28.764 199.296 28.7641 199.296 28.7642C199.296 28.7644 199.296 28.7645 199.296 28.7647C199.296 28.7648 199.296 28.7649 199.296 28.7651C199.296 28.7652 199.296 28.7653 199.296 28.7655C199.296 28.7656 199.296 28.7657 199.296 28.7659C199.296 28.766 199.296 28.7662 199.296 28.7663C199.296 28.7664 199.296 28.7666 199.296 28.7667C199.296 28.7668 199.296 28.767 199.296 28.7671C199.296 28.7673 199.296 28.7674 199.296 28.7675C199.296 28.7677 199.296 28.7678 199.296 28.7679C199.296 28.7681 199.296 28.7682 199.296 28.7683C199.296 28.7685 199.296 28.7686 199.296 28.7688C199.296 28.7689 199.296 28.769 199.296 28.7692C199.296 28.7693 199.296 28.7694 199.296 28.7696C199.296 28.7697 199.296 28.7699 199.296 28.77C199.296 28.7701 199.296 28.7703 199.296 28.7704C199.296 28.7705 199.296 28.7707 199.296 28.7708C199.296 28.7709 199.296 28.7711 199.296 28.7712C199.296 28.7714 199.296 28.7715 199.296 28.7716C199.296 28.7718 199.296 28.7719 199.296 28.772C199.296 28.7722 199.296 28.7723 199.296 28.7724C199.296 28.7726 199.296 28.7727 199.296 28.7729C199.296 28.773 199.296 28.7731 199.296 28.7733C199.296 28.7734 199.296 28.7735 199.296 28.7737C199.296 28.7738 199.296 28.774 199.296 28.7741C199.296 28.7742 199.296 28.7744 199.296 28.7745C199.296 28.7746 199.296 28.7748 199.296 28.7749C199.296 28.775 199.296 28.7752 199.296 28.7753C199.296 28.7755 199.296 28.7756 199.296 28.7757C199.296 28.7759 199.296 28.776 199.296 28.7761C199.296 28.7763 199.296 28.7764 199.296 28.7766C199.296 28.7767 199.296 28.7768 199.296 28.777C199.296 28.7771 199.296 28.7772 199.296 28.7774C199.296 28.7775 199.296 28.7776 199.296 28.7778C199.296 28.7779 199.296 28.7781 199.296 28.7782C199.296 28.7783 199.296 28.7785 199.296 28.7786C199.296 28.7787 199.296 28.7789 199.296 28.779C199.296 28.7791 199.296 28.7793 199.296 28.7794C199.296 28.7796 199.296 28.7797 199.296 28.7798C199.296 28.78 199.296 28.7801 199.296 28.7802C199.296 28.7804 199.296 28.7805 199.296 28.7807C199.296 28.7808 199.296 28.7809 199.296 28.7811C199.296 28.7812 199.296 28.7813 199.296 28.7815C199.296 28.7816 199.296 28.7817 199.296 28.7819C199.296 28.782 199.296 28.7822 199.296 28.7823C199.296 28.7824 199.296 28.7826 199.296 28.7827C199.296 28.7828 199.296 28.783 199.296 28.7831C199.296 28.7832 199.296 28.7834 199.296 28.7835C199.296 28.7837 199.296 28.7838 199.296 28.7839C199.296 28.7841 199.296 28.7842 199.296 28.7843C199.296 28.7845 199.296 28.7846 199.296 28.7848C199.296 28.7849 199.296 28.785 199.296 28.7852C199.296 28.7853 199.296 28.7854 199.296 28.7856C199.296 28.7857 199.296 28.7858 199.296 28.786C199.296 28.7861 199.296 28.7863 199.296 28.7864C199.296 28.7865 199.296 28.7867 199.296 28.7868C199.296 28.7869 199.296 28.7871 199.296 28.7872C199.296 28.7874 199.296 28.7875 199.296 28.7876C199.296 28.7878 199.296 28.7879 199.296 28.788C199.296 28.7882 199.296 28.7883 199.296 28.7884C199.296 28.7886 199.296 28.7887 199.296 28.7889C199.296 28.789 199.296 28.7891 199.296 28.7893C199.296 28.7894 199.296 28.7895 199.296 28.7897C199.296 28.7898 199.296 28.7899 199.296 28.7901C199.296 28.7902 199.296 28.7904 199.296 28.7905C199.296 28.7906 199.296 28.7908 199.296 28.7909C199.296 28.791 199.296 28.7912 199.296 28.7913C199.296 28.7915 199.296 28.7916 199.296 28.7917C199.296 28.7919 199.296 28.792 199.296 28.7921C199.296 28.7923 199.296 28.7924 199.296 28.7925C199.296 28.7927 199.296 28.7928 199.296 28.793C199.296 28.7931 199.296 28.7932 199.296 28.7934C199.296 28.7935 199.296 28.7936 199.296 28.7938C199.296 28.7939 199.296 28.7941 199.296 28.7942C199.296 28.7943 199.296 28.7945 199.296 28.7946C199.296 28.7947 199.296 28.7949 199.296 28.795C199.296 28.7951 199.296 28.7953 199.296 28.7954C199.296 28.7956 199.296 28.7957 199.296 28.7958C199.296 28.796 199.296 28.7961 199.296 28.7962C199.296 28.7964 199.296 28.7965 199.296 28.7966C199.296 28.7968 199.296 28.7969 199.296 28.7971C199.296 28.7972 199.296 28.7973 199.296 28.7975C199.296 28.7976 199.296 28.7977 199.296 28.7979C199.296 28.798 199.296 28.7982 199.296 28.7983C199.296 28.7984 199.296 28.7986 199.296 28.7987C199.296 28.7988 199.296 28.799 199.296 28.7991C199.296 28.7992 199.296 28.7994 199.296 28.7995C199.296 28.7997 199.296 28.7998 199.296 28.7999C199.296 28.8001 199.296 28.8002 199.296 28.8003C199.296 28.8005 199.296 28.8006 199.296 28.8008C199.296 28.8009 199.296 28.801 199.296 28.8012C199.296 28.8013 199.296 28.8014 199.296 28.8016C199.296 28.8017 199.296 28.8018 199.296 28.802C199.296 28.8021 199.296 28.8023 199.296 28.8024C199.296 28.8025 199.296 28.8027 199.296 28.8028C199.296 28.8029 199.296 28.8031 199.296 28.8032C199.296 28.8033 199.296 28.8035 199.296 28.8036C199.296 28.8038 199.296 28.8039 199.296 28.804C199.296 28.8042 199.296 28.8043 199.296 28.8044C199.296 28.8046 199.296 28.8047 199.296 28.8049C199.296 28.805 199.296 28.8051 199.296 28.8053C199.296 28.8054 199.296 28.8055 199.296 28.8057C199.296 28.8058 199.296 28.8059 199.296 28.8061C199.296 28.8062 199.296 28.8064 199.296 28.8065C199.296 28.8066 199.296 28.8068 199.296 28.8069C199.296 28.807 199.296 28.8072 199.296 28.8073C199.296 28.8074 199.296 28.8076 199.296 28.8077C199.296 28.8079 199.296 28.808 199.296 28.8081C199.296 28.8083 199.296 28.8084 199.296 28.8085C199.296 28.8087 199.296 28.8088 199.296 28.809C199.296 28.8091 199.296 28.8092 199.296 28.8094C199.296 28.8095 199.296 28.8096 199.296 28.8098C199.296 28.8099 199.296 28.81 199.296 28.8102C199.296 28.8103 199.296 28.8105 199.296 28.8106C199.296 28.8107 199.296 28.8109 199.296 28.811C199.296 28.8111 199.296 28.8113 199.296 28.8114C199.296 28.8116 199.296 28.8117 199.296 28.8118C199.296 28.812 199.296 28.8121 199.296 28.8122C199.296 28.8124 199.296 28.8125 199.296 28.8126C199.296 28.8128 199.296 28.8129 199.296 28.8131C199.296 28.8132 199.296 28.8133 199.296 28.8135C199.296 28.8136 199.296 28.8137 199.296 28.8139C199.296 28.814 199.296 28.8141 199.296 28.8143C199.296 28.8144 199.296 28.8146 199.296 28.8147C199.296 28.8148 199.296 28.815 199.296 28.8151C199.296 28.8152 199.296 28.8154 199.296 28.8155C199.296 28.8157 199.296 28.8158 199.296 28.8159C199.296 28.8161 199.296 28.8162 199.296 28.8163C199.296 28.8165 199.296 28.8166 199.296 28.8167C199.296 28.8169 199.296 28.817 199.296 28.8172C199.296 28.8173 199.296 28.8174 199.296 28.8176C199.296 28.8177 199.296 28.8178 199.296 28.818C199.296 28.8181 199.296 28.8183 199.296 28.8184C199.296 28.8185 199.296 28.8187 199.296 28.8188C199.296 28.8189 199.296 28.8191 199.296 28.8192C199.296 28.8193 199.296 28.8195 199.296 28.8196C199.296 28.8198 199.296 28.8199 199.296 28.82C199.296 28.8202 199.296 28.8203 199.296 28.8204C199.296 28.8206 199.296 28.8207 199.296 28.8208C199.296 28.821 199.296 28.8211 199.296 28.8213C199.296 28.8214 199.296 28.8215 199.296 28.8217C199.296 28.8218 199.296 28.8219 199.296 28.8221C199.296 28.8222 199.296 28.8224 199.296 28.8225C199.296 28.8226 199.296 28.8228 199.296 28.8229C199.296 28.823 199.296 28.8232 199.296 28.8233C199.296 28.8234 199.296 28.8236 199.296 28.8237C199.296 28.8239 199.296 28.824 199.296 28.8241C199.296 28.8243 199.296 28.8244 199.296 28.8245C199.296 28.8247 199.296 28.8248 199.296 28.8249C199.296 28.8251 199.296 28.8252 199.296 28.8254C199.296 28.8255 199.296 28.8256 199.296 28.8258C199.296 28.8259 199.296 28.826 199.296 28.8262C199.296 28.8263 199.296 28.8265 199.296 28.8266C199.296 28.8267 199.296 28.8269 199.296 28.827C199.296 28.8271 199.296 28.8273 199.296 28.8274C199.296 28.8275 199.296 28.8277 199.296 28.8278C199.296 28.828 199.296 28.8281 199.296 28.8282C199.296 28.8284 199.296 28.8285 199.296 28.8286C199.296 28.8288 199.296 28.8289 199.296 28.8291C199.296 28.8292 199.296 28.8293 199.296 28.8295C199.296 28.8296 199.296 28.8297 199.296 28.8299C199.296 28.83 199.296 28.8301 199.296 28.8303C199.296 28.8304 199.296 28.8306 199.296 28.8307C199.296 28.8308 199.296 28.831 199.296 28.8311C199.296 28.8312 199.296 28.8314 199.296 28.8315C199.296 28.8316 199.296 28.8318 199.296 28.8319C199.296 28.8321 199.296 28.8322 199.296 28.8323C199.296 28.8325 199.296 28.8326 199.296 28.8327C199.296 28.8329 199.296 28.833 199.296 28.8332C199.296 28.8333 199.296 28.8334 199.296 28.8336C199.296 28.8337 199.296 28.8338 199.296 28.834C199.296 28.8341 199.296 28.8342 199.296 28.8344C199.296 28.8345 199.296 28.8347 199.296 28.8348C199.296 28.8349 199.296 28.8351 199.296 28.8352C199.296 28.8353 199.296 28.8355 199.296 28.8356C199.296 28.8358 199.296 28.8359 199.296 28.836C199.296 28.8362 199.296 28.8363 199.296 28.8364C199.296 28.8366 199.296 28.8367 199.296 28.8368C199.296 28.837 199.296 28.8371 199.296 28.8373C199.296 28.8374 199.296 28.8375 199.296 28.8377C199.296 28.8378 199.296 28.8379 199.296 28.8381C199.296 28.8382 199.296 28.8383 199.296 28.8385C199.296 28.8386 199.296 28.8388 199.296 28.8389C199.296 28.839 199.296 28.8392 199.296 28.8393C199.296 28.8394 199.296 28.8396 199.296 28.8397C199.296 28.8399 199.296 28.84 199.296 28.8401C199.296 28.8403 199.296 28.8404 199.296 28.8405C199.296 28.8407 199.296 28.8408 199.296 28.8409C199.296 28.8411 199.296 28.8412 199.296 28.8414C199.296 28.8415 199.296 28.8416 199.296 28.8418C199.296 28.8419 199.296 28.842 199.296 28.8422C199.296 28.8423 199.296 28.8425 199.296 28.8426C199.296 28.8427 199.296 28.8429 199.296 28.843C199.296 28.8431 199.296 28.8433 199.296 28.8434C199.296 28.8435 199.296 28.8437 199.296 28.8438C199.296 28.844 199.296 28.8441 199.296 28.8442C199.296 28.8444 199.296 28.8445 199.296 28.8446C199.296 28.8448 199.296 28.8449 199.296 28.845C199.296 28.8452 199.296 28.8453 199.296 28.8455C199.296 28.8456 199.296 28.8457 199.296 28.8459C199.296 28.846 199.296 28.8461 199.296 28.8463C199.296 28.8464 199.296 28.8466 199.296 28.8467C199.296 28.8468 199.296 28.847 199.296 28.8471C199.296 28.8472 199.296 28.8474 199.296 28.8475C199.296 28.8476 199.296 28.8478 199.296 28.8479C199.296 28.8481 199.296 28.8482 199.296 28.8483C199.296 28.8485 199.296 28.8486 199.296 28.8487C199.296 28.8489 199.296 28.849 199.296 28.8491C199.296 28.8493 199.296 28.8494 199.296 28.8496C199.296 28.8497 199.296 28.8498 199.296 28.85C199.296 28.8501 199.296 28.8502 199.296 28.8504C199.296 28.8505 199.296 28.8507 199.296 28.8508C199.296 28.8509 199.296 28.8511 199.296 28.8512C199.296 28.8513 199.296 28.8515 199.296 28.8516C199.296 28.8517 199.296 28.8519 199.296 28.852C199.296 28.8522 199.296 28.8523 199.296 28.8524C199.296 28.8526 199.296 28.8527 199.296 28.8528C199.296 28.853 199.296 28.8531 199.296 28.8533C199.296 28.8534 199.296 28.8535 199.296 28.8537C199.296 28.8538 199.296 28.8539 199.296 28.8541C199.296 28.8542 199.296 28.8543 199.296 28.8545C199.296 28.8546 199.296 28.8548 199.296 28.8549C199.296 28.855 199.296 28.8552 199.296 28.8553C199.296 28.8554 199.296 28.8556 199.296 28.8557C199.296 28.8558 199.296 28.856 199.296 28.8561C199.296 28.8563 199.296 28.8564 199.296 28.8565C199.296 28.8567 199.296 28.8568 199.296 28.8569C199.296 28.8571 199.296 28.8572 199.296 28.8574C199.296 28.8575 199.296 28.8576 199.296 28.8578C199.296 28.8579 199.296 28.858 199.296 28.8582C199.296 28.8583 199.296 28.8584 199.296 28.8586C199.296 28.8587 199.296 28.8589 199.296 28.859C199.296 28.8591 199.296 28.8593 199.296 28.8594C199.296 28.8595 199.296 28.8597 199.296 28.8598C199.296 28.86 199.296 28.8601 199.296 28.8602C199.296 28.8604 199.296 28.8605 199.296 28.8606C199.296 28.8608 199.296 28.8609 199.296 28.861C199.296 28.8612 199.296 28.8613 199.296 28.8615C199.296 28.8616 199.296 28.8617 199.296 28.8619C199.296 28.862 199.296 28.8621 199.296 28.8623C199.296 28.8624 199.296 28.8625 199.296 28.8627C199.296 28.8628 199.296 28.863 199.296 28.8631C199.296 28.8632 199.296 28.8634 199.296 28.8635C199.296 28.8636 199.296 28.8638 199.296 28.8639C199.296 28.8641 199.296 28.8642 199.296 28.8643C199.296 28.8645 199.296 28.8646 199.296 28.8647C199.296 28.8649 199.296 28.865 199.296 28.8651C199.296 28.8653 199.296 28.8654 199.296 28.8656C199.296 28.8657 199.296 28.8658 199.296 28.866C199.296 28.8661 199.296 28.8662 199.296 28.8664C199.296 28.8665 199.296 28.8666 199.296 28.8668C199.296 28.8669 199.296 28.8671 199.296 28.8672C199.296 28.8673 199.296 28.8675 199.296 28.8676C199.296 28.8677 199.296 28.8679 199.296 28.868C199.296 28.8682 199.296 28.8683 199.296 28.8684C199.296 28.8686 199.296 28.8687 199.296 28.8688C199.296 28.869 199.296 28.8691 199.296 28.8692C199.296 28.8694 199.296 28.8695 199.296 28.8697C199.296 28.8698 199.296 28.8699 199.296 28.8701C199.296 28.8702 199.296 28.8703 199.296 28.8705C199.296 28.8706 199.296 28.8708 199.296 28.8709C199.296 28.871 199.296 28.8712 199.296 28.8713C199.296 28.8714 199.296 28.8716 199.296 28.8717C199.296 28.8718 199.296 28.872 199.296 28.8721C199.296 28.8723 199.296 28.8724 199.296 28.8725C199.296 28.8727 199.296 28.8728 199.296 28.8729C199.296 28.8731 199.296 28.8732 199.296 28.8733C199.296 28.8735 199.296 28.8736 199.296 28.8738C199.296 28.8739 199.296 28.874 199.296 28.8742C199.296 28.8743 199.296 28.8744 199.296 28.8746C199.296 28.8747 199.296 28.8749 199.296 28.875C199.296 28.8751 199.296 28.8753 199.296 28.8754C199.296 28.8755 199.296 28.8757 199.296 28.8758C199.296 28.8759 199.296 28.8761 199.296 28.8762C199.296 28.8764 199.296 28.8765 199.296 28.8766C199.296 28.8768 199.296 28.8769 199.296 28.877C199.296 28.8772 199.296 28.8773 199.296 28.8774C199.296 28.8776 199.296 28.8777 199.296 28.8779C199.296 28.878 199.296 28.8781 199.296 28.8783C199.296 28.8784 199.296 28.8785 199.296 28.8787C199.296 28.8788 199.296 28.879 199.296 28.8791C199.296 28.8792 199.296 28.8794 199.296 28.8795C199.296 28.8796 199.296 28.8798 199.296 28.8799C199.296 28.88 199.296 28.8802 199.296 28.8803C199.296 28.8805 199.296 28.8806 199.296 28.8807C199.296 28.8809 199.296 28.881 199.296 28.8811C199.296 28.8813 199.296 28.8814 199.296 28.8816C199.296 28.8817 199.296 28.8818 199.296 28.882C199.296 28.8821 199.296 28.8822 199.296 28.8824C199.296 28.8825 199.296 28.8826 199.296 28.8828C199.296 28.8829 199.296 28.8831 199.296 28.8832C199.296 28.8833 199.296 28.8835 199.296 28.8836C199.296 28.8837 199.296 28.8839 199.296 28.884C199.296 28.8841 199.296 28.8843 199.296 28.8844C199.296 28.8846 199.296 28.8847 199.296 28.8848C199.296 28.885 199.296 28.8851 199.296 28.8852C199.296 28.8854 199.296 28.8855 199.296 28.8857C199.296 28.8858 199.296 28.8859 199.296 28.8861C199.296 28.8862 199.296 28.8863 199.296 28.8865C199.296 28.8866 199.296 28.8867 199.296 28.8869C199.296 28.887 199.296 28.8872 199.296 28.8873C199.296 28.8874 199.296 28.8876 199.296 28.8877C199.296 28.8878 199.296 28.888 199.296 28.8881C199.296 28.8883 199.296 28.8884 199.296 28.8885C199.296 28.8887 199.296 28.8888 199.296 28.8889C199.296 28.8891 199.296 28.8892 199.296 28.8893C199.296 28.8895 199.296 28.8896 199.296 28.8898C199.296 28.8899 199.296 28.89 199.296 28.8902C199.296 28.8903 199.296 28.8904 199.296 28.8906C199.296 28.8907 199.296 28.8908 199.296 28.891C199.296 28.8911 199.296 28.8913 199.296 28.8914C199.296 28.8915 199.296 28.8917 199.296 28.8918C199.296 28.8919 199.296 28.8921 199.296 28.8922C199.296 28.8924 199.296 28.8925 199.296 28.8926C199.296 28.8928 199.296 28.8929 199.296 28.893C199.296 28.8932 199.296 28.8933 199.296 28.8934C199.296 28.8936 199.296 28.8937 199.296 28.8939C199.296 28.894 199.296 28.8941 199.296 28.8943C199.296 28.8944 199.296 28.8945 199.296 28.8947C199.296 28.8948 199.296 28.8949 199.296 28.8951C199.296 28.8952 199.296 28.8954 199.296 28.8955C199.296 28.8956 199.296 28.8958 199.296 28.8959C199.296 28.896 199.296 28.8962 199.296 28.8963C199.296 28.8965 199.296 28.8966 199.296 28.8967C199.296 28.8969 199.296 28.897 199.296 28.8971C199.296 28.8973 199.296 28.8974 199.296 28.8975C199.296 28.8977 199.296 28.8978 199.296 28.898C199.296 28.8981 199.296 28.8982 199.296 28.8984C199.296 28.8985 199.296 28.8986 199.296 28.8988C199.296 28.8989 199.296 28.8991 199.296 28.8992C199.296 28.8993 199.296 28.8995 199.296 28.8996C199.296 28.8997 199.296 28.8999 199.296 28.9C199.296 28.9001 199.296 28.9003 199.296 28.9004C199.296 28.9006 199.296 28.9007 199.296 28.9008C199.296 28.901 199.296 28.9011 199.296 28.9012C199.296 28.9014 199.296 28.9015 199.296 28.9016C199.296 28.9018 199.296 28.9019 199.296 28.9021C199.296 28.9022 199.296 28.9023 199.296 28.9025C199.296 28.9026 199.296 28.9027 199.296 28.9029C199.296 28.903 199.296 28.9032 199.296 28.9033C199.296 28.9034 199.296 28.9036 199.296 28.9037C199.296 28.9038 199.296 28.904 199.296 28.9041C199.296 28.9042 199.296 28.9044 199.296 28.9045C199.296 28.9047 199.296 28.9048 199.296 28.9049C199.296 28.9051 199.296 28.9052 199.296 28.9053C199.296 28.9055 199.296 28.9056 199.296 28.9058C199.296 28.9059 199.296 28.906 199.296 28.9062C199.296 28.9063 199.296 28.9064 199.296 28.9066C199.296 28.9067 199.296 28.9068 199.296 28.907C199.296 28.9071 199.296 28.9073 199.296 28.9074C199.296 28.9075 199.296 28.9077 199.296 28.9078C199.296 28.9079 199.296 28.9081 199.296 28.9082C199.296 28.9083 199.296 28.9085 199.296 28.9086C199.296 28.9088 199.296 28.9089 199.296 28.909C199.296 28.9092 199.296 28.9093 199.296 28.9094C199.296 28.9096 199.296 28.9097 199.296 28.9099C199.296 28.91 199.296 28.9101 199.296 28.9103C199.296 28.9104 199.296 28.9105 199.296 28.9107C199.296 28.9108 199.296 28.9109 199.296 28.9111C199.296 28.9112 199.296 28.9114 199.296 28.9115C199.296 28.9116 199.296 28.9118 199.296 28.9119C199.296 28.912 199.296 28.9122 199.296 28.9123C199.296 28.9125 199.296 28.9126 199.296 28.9127C199.296 28.9129 199.296 28.913 199.296 28.9131C199.296 28.9133 199.296 28.9134 199.296 28.9135C199.296 28.9137 199.296 28.9138 199.296 28.914C199.296 28.9141 199.296 28.9142 199.296 28.9144C199.296 28.9145 199.296 28.9146 199.296 28.9148C199.296 28.9149 199.296 28.915 199.296 28.9152C199.296 28.9153 199.296 28.9155 199.296 28.9156C199.296 28.9157 199.296 28.9159 199.296 28.916C199.296 28.9161 199.296 28.9163 199.296 28.9164C199.296 28.9166 199.296 28.9167 199.296 28.9168C199.296 28.917 199.296 28.9171 199.296 28.9172C199.296 28.9174 199.296 28.9175 199.296 28.9176C199.296 28.9178 199.296 28.9179 199.296 28.9181C199.296 28.9182 199.296 28.9183 199.296 28.9185C199.296 28.9186 199.296 28.9187 199.296 28.9189C199.296 28.919 199.296 28.9191 199.296 28.9193C199.296 28.9194 199.296 28.9196 199.296 28.9197C199.296 28.9198 199.296 28.92 199.296 28.9201C199.296 28.9202 199.296 28.9204 199.296 28.9205C199.296 28.9207 199.296 28.9208 199.296 28.9209C199.296 28.9211 199.296 28.9212 199.296 28.9213C199.296 28.9215 199.296 28.9216 199.296 28.9217C199.296 28.9219 199.296 28.922 199.296 28.9222C199.296 28.9223 199.296 28.9224 199.296 28.9226C199.296 28.9227 199.296 28.9228 199.296 28.923C199.296 28.9231 199.296 28.9233 199.296 28.9234C199.296 28.9235 199.296 28.9237 199.296 28.9238C199.296 28.9239 199.296 28.9241 199.296 28.9242C199.296 28.9243 199.296 28.9245 199.296 28.9246C199.296 28.9248 199.296 28.9249 199.296 28.925C199.296 28.9252 199.296 28.9253 199.296 28.9254C199.296 28.9256 199.296 28.9257 199.296 28.9258C199.296 28.926 199.296 28.9261 199.296 28.9263C199.296 28.9264 199.296 28.9265 199.296 28.9267C199.296 28.9268 199.296 28.9269 199.296 28.9271C199.296 28.9272 199.296 28.9274 199.296 28.9275C199.296 28.9276 199.296 28.9278 199.296 28.9279C199.296 28.928 199.296 28.9282 199.296 28.9283C199.296 28.9284 199.296 28.9286 199.296 28.9287C199.296 28.9289 199.296 28.929 199.296 28.9291C199.296 28.9293 199.296 28.9294 199.296 28.9295C199.296 28.9297 199.296 28.9298 199.296 28.93C199.296 28.9301 199.296 28.9302 199.296 28.9304C199.296 28.9305 199.296 28.9306 199.296 28.9308C199.296 28.9309 199.296 28.931 199.296 28.9312C199.296 28.9313 199.296 28.9315 199.296 28.9316C199.296 28.9317 199.296 28.9319 199.296 28.932C199.296 28.9321 199.296 28.9323 199.296 28.9324C199.296 28.9325 199.296 28.9327 199.296 28.9328C199.296 28.933 199.296 28.9331 199.296 28.9332C199.296 28.9334 199.296 28.9335 199.296 28.9336C199.296 28.9338 199.296 28.9339 199.296 28.9341C199.296 28.9342 199.296 28.9343 199.296 28.9345C199.296 28.9346 199.296 28.9347 199.296 28.9349C199.296 28.935 199.296 28.9351 199.296 28.9353C199.296 28.9354 199.296 28.9356 199.296 28.9357C199.296 28.9358 199.296 28.936 199.296 28.9361C199.296 28.9362 199.296 28.9364 199.296 28.9365C199.296 28.9366 199.296 28.9368 199.296 28.9369C199.296 28.9371 199.296 28.9372 199.296 28.9373C199.296 28.9375 199.296 28.9376 199.296 28.9377C199.296 28.9379 199.296 28.938 199.296 28.9382C199.296 28.9383 199.296 28.9384 199.296 28.9386C199.296 28.9387 199.296 28.9388 199.296 28.939C199.296 28.9391 199.296 28.9392 199.296 28.9394C199.296 28.9395 199.296 28.9397 199.296 28.9398C199.296 28.9399 199.296 28.9401 199.296 28.9402C199.296 28.9403 199.296 28.9405 199.296 28.9406C199.296 28.9408 199.296 28.9409 199.296 28.941C199.296 28.9412 199.296 28.9413 199.296 28.9414C199.296 28.9416 199.296 28.9417 199.296 28.9418C199.296 28.942 199.296 28.9421 199.296 28.9423C199.296 28.9424 199.296 28.9425 199.296 28.9427C199.296 28.9428 199.296 28.9429 199.296 28.9431C199.296 28.9432 199.296 28.9433 199.296 28.9435C199.296 28.9436 199.296 28.9438 199.296 28.9439C199.296 28.944 199.296 28.9442 199.296 28.9443C199.296 28.9444 199.296 28.9446 199.296 28.9447C199.296 28.9449 199.296 28.945 199.296 28.9451C199.296 28.9453 199.296 28.9454 199.296 28.9455C199.296 28.9457 199.296 28.9458 199.296 28.9459C199.296 28.9461 199.296 28.9462 199.296 28.9464C199.296 28.9465 199.296 28.9466 199.296 28.9468C199.296 28.9469 199.296 28.947 199.296 28.9472C199.296 28.9473 199.296 28.9475 199.296 28.9476C199.296 28.9477 199.296 28.9479 199.296 28.948C199.296 28.9481 199.296 28.9483 199.296 28.9484C199.296 28.9485 199.296 28.9487 199.296 28.9488C199.296 28.949 199.296 28.9491 199.296 28.9492C199.296 28.9494 199.296 28.9495 199.296 28.9496C199.296 28.9498 199.296 28.9499 199.296 28.95C199.296 28.9502 199.296 28.9503 199.296 28.9505C199.296 28.9506 199.296 28.9507 199.296 28.9509C199.296 28.951 199.296 28.9511 199.296 28.9513C199.296 28.9514 199.296 28.9516 199.296 28.9517C199.296 28.9518 199.296 28.952 199.296 28.9521C199.296 28.9522 199.296 28.9524 199.296 28.9525C199.296 28.9526 199.296 28.9528 199.296 28.9529C199.296 28.9531 199.296 28.9532 199.296 28.9533C199.296 28.9535 199.296 28.9536 199.296 28.9537C199.296 28.9539 199.296 28.954 199.296 28.9542C199.296 28.9543 199.296 28.9544 199.296 28.9546C199.296 28.9547 199.296 28.9548 199.296 28.955C199.296 28.9551 199.296 28.9552 199.296 28.9554C199.296 28.9555 199.296 28.9557 199.296 28.9558C199.296 28.9559 199.296 28.9561 199.296 28.9562C199.296 28.9563 199.296 28.9565 199.296 28.9566C199.296 28.9567 199.296 28.9569 199.296 28.957C199.296 28.9572 199.296 28.9573 199.296 28.9574C199.296 28.9576 199.296 28.9577 199.296 28.9578C199.296 28.958 199.296 28.9581 199.296 28.9583C199.296 28.9584 199.296 28.9585 199.296 28.9587C199.296 28.9588 199.296 28.9589 199.296 28.9591C199.296 28.9592 199.296 28.9593 199.296 28.9595C199.296 28.9596 199.296 28.9598 199.296 28.9599C199.296 28.96 199.296 28.9602 199.296 28.9603C199.296 28.9604 199.296 28.9606 199.296 28.9607H201.976C201.976 28.9606 201.976 28.9604 201.976 28.9603C201.976 28.9602 201.976 28.96 201.976 28.9599C201.976 28.9598 201.976 28.9596 201.976 28.9595C201.976 28.9593 201.976 28.9592 201.976 28.9591C201.976 28.9589 201.976 28.9588 201.976 28.9587C201.976 28.9585 201.976 28.9584 201.976 28.9583C201.976 28.9581 201.976 28.958 201.976 28.9578C201.976 28.9577 201.976 28.9576 201.976 28.9574C201.976 28.9573 201.976 28.9572 201.976 28.957C201.976 28.9569 201.976 28.9567 201.976 28.9566C201.976 28.9565 201.976 28.9563 201.976 28.9562C201.976 28.9561 201.976 28.9559 201.976 28.9558C201.976 28.9557 201.976 28.9555 201.976 28.9554C201.976 28.9552 201.976 28.9551 201.976 28.955C201.976 28.9548 201.976 28.9547 201.976 28.9546C201.976 28.9544 201.976 28.9543 201.976 28.9542C201.976 28.954 201.976 28.9539 201.976 28.9537C201.976 28.9536 201.976 28.9535 201.976 28.9533C201.976 28.9532 201.976 28.9531 201.976 28.9529C201.976 28.9528 201.976 28.9526 201.976 28.9525C201.976 28.9524 201.976 28.9522 201.976 28.9521C201.976 28.952 201.976 28.9518 201.976 28.9517C201.976 28.9516 201.976 28.9514 201.976 28.9513C201.976 28.9511 201.976 28.951 201.976 28.9509C201.976 28.9507 201.976 28.9506 201.976 28.9505C201.976 28.9503 201.976 28.9502 201.976 28.95C201.976 28.9499 201.976 28.9498 201.976 28.9496C201.976 28.9495 201.976 28.9494 201.976 28.9492C201.976 28.9491 201.976 28.949 201.976 28.9488C201.976 28.9487 201.976 28.9485 201.976 28.9484C201.976 28.9483 201.976 28.9481 201.976 28.948C201.976 28.9479 201.976 28.9477 201.976 28.9476C201.976 28.9475 201.976 28.9473 201.976 28.9472C201.976 28.947 201.976 28.9469 201.976 28.9468C201.976 28.9466 201.976 28.9465 201.976 28.9464C201.976 28.9462 201.976 28.9461 201.976 28.9459C201.976 28.9458 201.976 28.9457 201.976 28.9455C201.976 28.9454 201.976 28.9453 201.976 28.9451C201.976 28.945 201.976 28.9449 201.976 28.9447C201.976 28.9446 201.976 28.9444 201.976 28.9443C201.976 28.9442 201.976 28.944 201.976 28.9439C201.976 28.9438 201.976 28.9436 201.976 28.9435C201.976 28.9433 201.976 28.9432 201.976 28.9431C201.976 28.9429 201.976 28.9428 201.976 28.9427C201.976 28.9425 201.976 28.9424 201.976 28.9423C201.976 28.9421 201.976 28.942 201.976 28.9418C201.976 28.9417 201.976 28.9416 201.976 28.9414C201.976 28.9413 201.976 28.9412 201.976 28.941C201.976 28.9409 201.976 28.9408 201.976 28.9406C201.976 28.9405 201.976 28.9403 201.976 28.9402C201.976 28.9401 201.976 28.9399 201.976 28.9398C201.976 28.9397 201.976 28.9395 201.976 28.9394C201.976 28.9392 201.976 28.9391 201.976 28.939C201.976 28.9388 201.976 28.9387 201.976 28.9386C201.976 28.9384 201.976 28.9383 201.976 28.9382C201.976 28.938 201.976 28.9379 201.976 28.9377C201.976 28.9376 201.976 28.9375 201.976 28.9373C201.976 28.9372 201.976 28.9371 201.976 28.9369C201.976 28.9368 201.976 28.9366 201.976 28.9365C201.976 28.9364 201.976 28.9362 201.976 28.9361C201.976 28.936 201.976 28.9358 201.976 28.9357C201.976 28.9356 201.976 28.9354 201.976 28.9353C201.976 28.9351 201.976 28.935 201.976 28.9349C201.976 28.9347 201.976 28.9346 201.976 28.9345C201.976 28.9343 201.976 28.9342 201.976 28.9341C201.976 28.9339 201.976 28.9338 201.976 28.9336C201.976 28.9335 201.976 28.9334 201.976 28.9332C201.976 28.9331 201.976 28.933 201.976 28.9328C201.976 28.9327 201.976 28.9325 201.976 28.9324C201.976 28.9323 201.976 28.9321 201.976 28.932C201.976 28.9319 201.976 28.9317 201.976 28.9316C201.976 28.9315 201.976 28.9313 201.976 28.9312C201.976 28.931 201.976 28.9309 201.976 28.9308C201.976 28.9306 201.976 28.9305 201.976 28.9304C201.976 28.9302 201.976 28.9301 201.976 28.93C201.976 28.9298 201.976 28.9297 201.976 28.9295C201.976 28.9294 201.976 28.9293 201.976 28.9291C201.976 28.929 201.976 28.9289 201.976 28.9287C201.976 28.9286 201.976 28.9284 201.976 28.9283C201.976 28.9282 201.976 28.928 201.976 28.9279C201.976 28.9278 201.976 28.9276 201.976 28.9275C201.976 28.9274 201.976 28.9272 201.976 28.9271C201.976 28.9269 201.976 28.9268 201.976 28.9267C201.976 28.9265 201.976 28.9264 201.976 28.9263C201.976 28.9261 201.976 28.926 201.976 28.9258C201.976 28.9257 201.976 28.9256 201.976 28.9254C201.976 28.9253 201.976 28.9252 201.976 28.925C201.976 28.9249 201.976 28.9248 201.976 28.9246C201.976 28.9245 201.976 28.9243 201.976 28.9242C201.976 28.9241 201.976 28.9239 201.976 28.9238C201.976 28.9237 201.976 28.9235 201.976 28.9234C201.976 28.9233 201.976 28.9231 201.976 28.923C201.976 28.9228 201.976 28.9227 201.976 28.9226C201.976 28.9224 201.976 28.9223 201.976 28.9222C201.976 28.922 201.976 28.9219 201.976 28.9217C201.976 28.9216 201.976 28.9215 201.976 28.9213C201.976 28.9212 201.976 28.9211 201.976 28.9209C201.976 28.9208 201.976 28.9207 201.976 28.9205C201.976 28.9204 201.976 28.9202 201.976 28.9201C201.976 28.92 201.976 28.9198 201.976 28.9197C201.976 28.9196 201.976 28.9194 201.976 28.9193C201.976 28.9191 201.976 28.919 201.976 28.9189C201.976 28.9187 201.976 28.9186 201.976 28.9185C201.976 28.9183 201.976 28.9182 201.976 28.9181C201.976 28.9179 201.976 28.9178 201.976 28.9176C201.976 28.9175 201.976 28.9174 201.976 28.9172C201.976 28.9171 201.976 28.917 201.976 28.9168C201.976 28.9167 201.976 28.9166 201.976 28.9164C201.976 28.9163 201.976 28.9161 201.976 28.916C201.976 28.9159 201.976 28.9157 201.976 28.9156C201.976 28.9155 201.976 28.9153 201.976 28.9152C201.976 28.915 201.976 28.9149 201.976 28.9148C201.976 28.9146 201.976 28.9145 201.976 28.9144C201.976 28.9142 201.976 28.9141 201.976 28.914C201.976 28.9138 201.976 28.9137 201.976 28.9135C201.976 28.9134 201.976 28.9133 201.976 28.9131C201.976 28.913 201.976 28.9129 201.976 28.9127C201.976 28.9126 201.976 28.9125 201.976 28.9123C201.976 28.9122 201.976 28.912 201.976 28.9119C201.976 28.9118 201.976 28.9116 201.976 28.9115C201.976 28.9114 201.976 28.9112 201.976 28.9111C201.976 28.9109 201.976 28.9108 201.976 28.9107C201.976 28.9105 201.976 28.9104 201.976 28.9103C201.976 28.9101 201.976 28.91 201.976 28.9099C201.976 28.9097 201.976 28.9096 201.976 28.9094C201.976 28.9093 201.976 28.9092 201.976 28.909C201.976 28.9089 201.976 28.9088 201.976 28.9086C201.976 28.9085 201.976 28.9083 201.976 28.9082C201.976 28.9081 201.976 28.9079 201.976 28.9078C201.976 28.9077 201.976 28.9075 201.976 28.9074C201.976 28.9073 201.976 28.9071 201.976 28.907C201.976 28.9068 201.976 28.9067 201.976 28.9066C201.976 28.9064 201.976 28.9063 201.976 28.9062C201.976 28.906 201.976 28.9059 201.976 28.9058C201.976 28.9056 201.976 28.9055 201.976 28.9053C201.976 28.9052 201.976 28.9051 201.976 28.9049C201.976 28.9048 201.976 28.9047 201.976 28.9045C201.976 28.9044 201.976 28.9042 201.976 28.9041C201.976 28.904 201.976 28.9038 201.976 28.9037C201.976 28.9036 201.976 28.9034 201.976 28.9033C201.976 28.9032 201.976 28.903 201.976 28.9029C201.976 28.9027 201.976 28.9026 201.976 28.9025C201.976 28.9023 201.976 28.9022 201.976 28.9021C201.976 28.9019 201.976 28.9018 201.976 28.9016C201.976 28.9015 201.976 28.9014 201.976 28.9012C201.976 28.9011 201.976 28.901 201.976 28.9008C201.976 28.9007 201.976 28.9006 201.976 28.9004C201.976 28.9003 201.976 28.9001 201.976 28.9C201.976 28.8999 201.976 28.8997 201.976 28.8996C201.976 28.8995 201.976 28.8993 201.976 28.8992C201.976 28.8991 201.976 28.8989 201.976 28.8988C201.976 28.8986 201.976 28.8985 201.976 28.8984C201.976 28.8982 201.976 28.8981 201.976 28.898C201.976 28.8978 201.976 28.8977 201.976 28.8975C201.976 28.8974 201.976 28.8973 201.976 28.8971C201.976 28.897 201.976 28.8969 201.976 28.8967C201.976 28.8966 201.976 28.8965 201.976 28.8963C201.976 28.8962 201.976 28.896 201.976 28.8959C201.976 28.8958 201.976 28.8956 201.976 28.8955C201.976 28.8954 201.976 28.8952 201.976 28.8951C201.976 28.8949 201.976 28.8948 201.976 28.8947C201.976 28.8945 201.976 28.8944 201.976 28.8943C201.976 28.8941 201.976 28.894 201.976 28.8939C201.976 28.8937 201.976 28.8936 201.976 28.8934C201.976 28.8933 201.976 28.8932 201.976 28.893C201.976 28.8929 201.976 28.8928 201.976 28.8926C201.976 28.8925 201.976 28.8924 201.976 28.8922C201.976 28.8921 201.976 28.8919 201.976 28.8918C201.976 28.8917 201.976 28.8915 201.976 28.8914C201.976 28.8913 201.976 28.8911 201.976 28.891C201.976 28.8908 201.976 28.8907 201.976 28.8906C201.976 28.8904 201.976 28.8903 201.976 28.8902C201.976 28.89 201.976 28.8899 201.976 28.8898C201.976 28.8896 201.976 28.8895 201.976 28.8893C201.976 28.8892 201.976 28.8891 201.976 28.8889C201.976 28.8888 201.976 28.8887 201.976 28.8885C201.976 28.8884 201.976 28.8883 201.976 28.8881C201.976 28.888 201.976 28.8878 201.976 28.8877C201.976 28.8876 201.976 28.8874 201.976 28.8873C201.976 28.8872 201.976 28.887 201.976 28.8869C201.976 28.8867 201.976 28.8866 201.976 28.8865C201.976 28.8863 201.976 28.8862 201.976 28.8861C201.976 28.8859 201.976 28.8858 201.976 28.8857C201.976 28.8855 201.976 28.8854 201.976 28.8852C201.976 28.8851 201.976 28.885 201.976 28.8848C201.976 28.8847 201.976 28.8846 201.976 28.8844C201.976 28.8843 201.976 28.8841 201.976 28.884C201.976 28.8839 201.976 28.8837 201.976 28.8836C201.976 28.8835 201.976 28.8833 201.976 28.8832C201.976 28.8831 201.976 28.8829 201.976 28.8828C201.976 28.8826 201.976 28.8825 201.976 28.8824C201.976 28.8822 201.976 28.8821 201.976 28.882C201.976 28.8818 201.976 28.8817 201.976 28.8816C201.976 28.8814 201.976 28.8813 201.976 28.8811C201.976 28.881 201.976 28.8809 201.976 28.8807C201.976 28.8806 201.976 28.8805 201.976 28.8803C201.976 28.8802 201.976 28.88 201.976 28.8799C201.976 28.8798 201.976 28.8796 201.976 28.8795C201.976 28.8794 201.976 28.8792 201.976 28.8791C201.976 28.879 201.976 28.8788 201.976 28.8787C201.976 28.8785 201.976 28.8784 201.976 28.8783C201.976 28.8781 201.976 28.878 201.976 28.8779C201.976 28.8777 201.976 28.8776 201.976 28.8774C201.976 28.8773 201.976 28.8772 201.976 28.877C201.976 28.8769 201.976 28.8768 201.976 28.8766C201.976 28.8765 201.976 28.8764 201.976 28.8762C201.976 28.8761 201.976 28.8759 201.976 28.8758C201.976 28.8757 201.976 28.8755 201.976 28.8754C201.976 28.8753 201.976 28.8751 201.976 28.875C201.976 28.8749 201.976 28.8747 201.976 28.8746C201.976 28.8744 201.976 28.8743 201.976 28.8742C201.976 28.874 201.976 28.8739 201.976 28.8738C201.976 28.8736 201.976 28.8735 201.976 28.8733C201.976 28.8732 201.976 28.8731 201.976 28.8729C201.976 28.8728 201.976 28.8727 201.976 28.8725C201.976 28.8724 201.976 28.8723 201.976 28.8721C201.976 28.872 201.976 28.8718 201.976 28.8717C201.976 28.8716 201.976 28.8714 201.976 28.8713C201.976 28.8712 201.976 28.871 201.976 28.8709C201.976 28.8708 201.976 28.8706 201.976 28.8705C201.976 28.8703 201.976 28.8702 201.976 28.8701C201.976 28.8699 201.976 28.8698 201.976 28.8697C201.976 28.8695 201.976 28.8694 201.976 28.8692C201.976 28.8691 201.976 28.869 201.976 28.8688C201.976 28.8687 201.976 28.8686 201.976 28.8684C201.976 28.8683 201.976 28.8682 201.976 28.868C201.976 28.8679 201.976 28.8677 201.976 28.8676C201.976 28.8675 201.976 28.8673 201.976 28.8672C201.976 28.8671 201.976 28.8669 201.976 28.8668C201.976 28.8666 201.976 28.8665 201.976 28.8664C201.976 28.8662 201.976 28.8661 201.976 28.866C201.976 28.8658 201.976 28.8657 201.976 28.8656C201.976 28.8654 201.976 28.8653 201.976 28.8651C201.976 28.865 201.976 28.8649 201.976 28.8647C201.976 28.8646 201.976 28.8645 201.976 28.8643C201.976 28.8642 201.976 28.8641 201.976 28.8639C201.976 28.8638 201.976 28.8636 201.976 28.8635C201.976 28.8634 201.976 28.8632 201.976 28.8631C201.976 28.863 201.976 28.8628 201.976 28.8627C201.976 28.8625 201.976 28.8624 201.976 28.8623C201.976 28.8621 201.976 28.862 201.976 28.8619C201.976 28.8617 201.976 28.8616 201.976 28.8615C201.976 28.8613 201.976 28.8612 201.976 28.861C201.976 28.8609 201.976 28.8608 201.976 28.8606C201.976 28.8605 201.976 28.8604 201.976 28.8602C201.976 28.8601 201.976 28.86 201.976 28.8598C201.976 28.8597 201.976 28.8595 201.976 28.8594C201.976 28.8593 201.976 28.8591 201.976 28.859C201.976 28.8589 201.976 28.8587 201.976 28.8586C201.976 28.8584 201.976 28.8583 201.976 28.8582C201.976 28.858 201.976 28.8579 201.976 28.8578C201.976 28.8576 201.976 28.8575 201.976 28.8574C201.976 28.8572 201.976 28.8571 201.976 28.8569C201.976 28.8568 201.976 28.8567 201.976 28.8565C201.976 28.8564 201.976 28.8563 201.976 28.8561C201.976 28.856 201.976 28.8558 201.976 28.8557C201.976 28.8556 201.976 28.8554 201.976 28.8553C201.976 28.8552 201.976 28.855 201.976 28.8549C201.976 28.8548 201.976 28.8546 201.976 28.8545C201.976 28.8543 201.976 28.8542 201.976 28.8541C201.976 28.8539 201.976 28.8538 201.976 28.8537C201.976 28.8535 201.976 28.8534 201.976 28.8533C201.976 28.8531 201.976 28.853 201.976 28.8528C201.976 28.8527 201.976 28.8526 201.976 28.8524C201.976 28.8523 201.976 28.8522 201.976 28.852C201.976 28.8519 201.976 28.8517 201.976 28.8516C201.976 28.8515 201.976 28.8513 201.976 28.8512C201.976 28.8511 201.976 28.8509 201.976 28.8508C201.976 28.8507 201.976 28.8505 201.976 28.8504C201.976 28.8502 201.976 28.8501 201.976 28.85C201.976 28.8498 201.976 28.8497 201.976 28.8496C201.976 28.8494 201.976 28.8493 201.976 28.8491C201.976 28.849 201.976 28.8489 201.976 28.8487C201.976 28.8486 201.976 28.8485 201.976 28.8483C201.976 28.8482 201.976 28.8481 201.976 28.8479C201.976 28.8478 201.976 28.8476 201.976 28.8475C201.976 28.8474 201.976 28.8472 201.976 28.8471C201.976 28.847 201.976 28.8468 201.976 28.8467C201.976 28.8466 201.976 28.8464 201.976 28.8463C201.976 28.8461 201.976 28.846 201.976 28.8459C201.976 28.8457 201.976 28.8456 201.976 28.8455C201.976 28.8453 201.976 28.8452 201.976 28.845C201.976 28.8449 201.976 28.8448 201.976 28.8446C201.976 28.8445 201.976 28.8444 201.976 28.8442C201.976 28.8441 201.976 28.844 201.976 28.8438C201.976 28.8437 201.976 28.8435 201.976 28.8434C201.976 28.8433 201.976 28.8431 201.976 28.843C201.976 28.8429 201.976 28.8427 201.976 28.8426C201.976 28.8425 201.976 28.8423 201.976 28.8422C201.976 28.842 201.976 28.8419 201.976 28.8418C201.976 28.8416 201.976 28.8415 201.976 28.8414C201.976 28.8412 201.976 28.8411 201.976 28.8409C201.976 28.8408 201.976 28.8407 201.976 28.8405C201.976 28.8404 201.976 28.8403 201.976 28.8401C201.976 28.84 201.976 28.8399 201.976 28.8397C201.976 28.8396 201.976 28.8394 201.976 28.8393C201.976 28.8392 201.976 28.839 201.976 28.8389C201.976 28.8388 201.976 28.8386 201.976 28.8385C201.976 28.8383 201.976 28.8382 201.976 28.8381C201.976 28.8379 201.976 28.8378 201.976 28.8377C201.976 28.8375 201.976 28.8374 201.976 28.8373C201.976 28.8371 201.976 28.837 201.976 28.8368C201.976 28.8367 201.976 28.8366 201.976 28.8364C201.976 28.8363 201.976 28.8362 201.976 28.836C201.976 28.8359 201.976 28.8358 201.976 28.8356C201.976 28.8355 201.976 28.8353 201.976 28.8352C201.976 28.8351 201.976 28.8349 201.976 28.8348C201.976 28.8347 201.976 28.8345 201.976 28.8344C201.976 28.8342 201.976 28.8341 201.976 28.834C201.976 28.8338 201.976 28.8337 201.976 28.8336C201.976 28.8334 201.976 28.8333 201.976 28.8332C201.976 28.833 201.976 28.8329 201.976 28.8327C201.976 28.8326 201.976 28.8325 201.976 28.8323C201.976 28.8322 201.976 28.8321 201.976 28.8319C201.976 28.8318 201.976 28.8316 201.976 28.8315C201.976 28.8314 201.976 28.8312 201.976 28.8311C201.976 28.831 201.976 28.8308 201.976 28.8307C201.976 28.8306 201.976 28.8304 201.976 28.8303C201.976 28.8301 201.976 28.83 201.976 28.8299C201.976 28.8297 201.976 28.8296 201.976 28.8295C201.976 28.8293 201.976 28.8292 201.976 28.8291C201.976 28.8289 201.976 28.8288 201.976 28.8286C201.976 28.8285 201.976 28.8284 201.976 28.8282C201.976 28.8281 201.976 28.828 201.976 28.8278C201.976 28.8277 201.976 28.8275 201.976 28.8274C201.976 28.8273 201.976 28.8271 201.976 28.827C201.976 28.8269 201.976 28.8267 201.976 28.8266C201.976 28.8265 201.976 28.8263 201.976 28.8262C201.976 28.826 201.976 28.8259 201.976 28.8258C201.976 28.8256 201.976 28.8255 201.976 28.8254C201.976 28.8252 201.976 28.8251 201.976 28.8249C201.976 28.8248 201.976 28.8247 201.976 28.8245C201.976 28.8244 201.976 28.8243 201.976 28.8241C201.976 28.824 201.976 28.8239 201.976 28.8237C201.976 28.8236 201.976 28.8234 201.976 28.8233C201.976 28.8232 201.976 28.823 201.976 28.8229C201.976 28.8228 201.976 28.8226 201.976 28.8225C201.976 28.8224 201.976 28.8222 201.976 28.8221C201.976 28.8219 201.976 28.8218 201.976 28.8217C201.976 28.8215 201.976 28.8214 201.976 28.8213C201.976 28.8211 201.976 28.821 201.976 28.8208C201.976 28.8207 201.976 28.8206 201.976 28.8204C201.976 28.8203 201.976 28.8202 201.976 28.82C201.976 28.8199 201.976 28.8198 201.976 28.8196C201.976 28.8195 201.976 28.8193 201.976 28.8192C201.976 28.8191 201.976 28.8189 201.976 28.8188C201.976 28.8187 201.976 28.8185 201.976 28.8184C201.976 28.8183 201.976 28.8181 201.976 28.818C201.976 28.8178 201.976 28.8177 201.976 28.8176C201.976 28.8174 201.976 28.8173 201.976 28.8172C201.976 28.817 201.976 28.8169 201.976 28.8167C201.976 28.8166 201.976 28.8165 201.976 28.8163C201.976 28.8162 201.976 28.8161 201.976 28.8159C201.976 28.8158 201.976 28.8157 201.976 28.8155C201.976 28.8154 201.976 28.8152 201.976 28.8151C201.976 28.815 201.976 28.8148 201.976 28.8147C201.976 28.8146 201.976 28.8144 201.976 28.8143C201.976 28.8141 201.976 28.814 201.976 28.8139C201.976 28.8137 201.976 28.8136 201.976 28.8135C201.976 28.8133 201.976 28.8132 201.976 28.8131C201.976 28.8129 201.976 28.8128 201.976 28.8126C201.976 28.8125 201.976 28.8124 201.976 28.8122C201.976 28.8121 201.976 28.812 201.976 28.8118C201.976 28.8117 201.976 28.8116 201.976 28.8114C201.976 28.8113 201.976 28.8111 201.976 28.811C201.976 28.8109 201.976 28.8107 201.976 28.8106C201.976 28.8105 201.976 28.8103 201.976 28.8102C201.976 28.81 201.976 28.8099 201.976 28.8098C201.976 28.8096 201.976 28.8095 201.976 28.8094C201.976 28.8092 201.976 28.8091 201.976 28.809C201.976 28.8088 201.976 28.8087 201.976 28.8085C201.976 28.8084 201.976 28.8083 201.976 28.8081C201.976 28.808 201.976 28.8079 201.976 28.8077C201.976 28.8076 201.976 28.8074 201.976 28.8073C201.976 28.8072 201.976 28.807 201.976 28.8069C201.976 28.8068 201.976 28.8066 201.976 28.8065C201.976 28.8064 201.976 28.8062 201.976 28.8061C201.976 28.8059 201.976 28.8058 201.976 28.8057C201.976 28.8055 201.976 28.8054 201.976 28.8053C201.976 28.8051 201.976 28.805 201.976 28.8049C201.976 28.8047 201.976 28.8046 201.976 28.8044C201.976 28.8043 201.976 28.8042 201.976 28.804C201.976 28.8039 201.976 28.8038 201.976 28.8036C201.976 28.8035 201.976 28.8033 201.976 28.8032C201.976 28.8031 201.976 28.8029 201.976 28.8028C201.976 28.8027 201.976 28.8025 201.976 28.8024C201.976 28.8023 201.976 28.8021 201.976 28.802C201.976 28.8018 201.976 28.8017 201.976 28.8016C201.976 28.8014 201.976 28.8013 201.976 28.8012C201.976 28.801 201.976 28.8009 201.976 28.8008C201.976 28.8006 201.976 28.8005 201.976 28.8003C201.976 28.8002 201.976 28.8001 201.976 28.7999C201.976 28.7998 201.976 28.7997 201.976 28.7995C201.976 28.7994 201.976 28.7992 201.976 28.7991C201.976 28.799 201.976 28.7988 201.976 28.7987C201.976 28.7986 201.976 28.7984 201.976 28.7983C201.976 28.7982 201.976 28.798 201.976 28.7979C201.976 28.7977 201.976 28.7976 201.976 28.7975C201.976 28.7973 201.976 28.7972 201.976 28.7971C201.976 28.7969 201.976 28.7968 201.976 28.7966C201.976 28.7965 201.976 28.7964 201.976 28.7962C201.976 28.7961 201.976 28.796 201.976 28.7958C201.976 28.7957 201.976 28.7956 201.976 28.7954C201.976 28.7953 201.976 28.7951 201.976 28.795C201.976 28.7949 201.976 28.7947 201.976 28.7946C201.976 28.7945 201.976 28.7943 201.976 28.7942C201.976 28.7941 201.976 28.7939 201.976 28.7938C201.976 28.7936 201.976 28.7935 201.976 28.7934C201.976 28.7932 201.976 28.7931 201.976 28.793C201.976 28.7928 201.976 28.7927 201.976 28.7925C201.976 28.7924 201.976 28.7923 201.976 28.7921C201.976 28.792 201.976 28.7919 201.976 28.7917C201.976 28.7916 201.976 28.7915 201.976 28.7913C201.976 28.7912 201.976 28.791 201.976 28.7909C201.976 28.7908 201.976 28.7906 201.976 28.7905C201.976 28.7904 201.976 28.7902 201.976 28.7901C201.976 28.7899 201.976 28.7898 201.976 28.7897C201.976 28.7895 201.976 28.7894 201.976 28.7893C201.976 28.7891 201.976 28.789 201.976 28.7889C201.976 28.7887 201.976 28.7886 201.976 28.7884C201.976 28.7883 201.976 28.7882 201.976 28.788C201.976 28.7879 201.976 28.7878 201.976 28.7876C201.976 28.7875 201.976 28.7874 201.976 28.7872C201.976 28.7871 201.976 28.7869 201.976 28.7868C201.976 28.7867 201.976 28.7865 201.976 28.7864C201.976 28.7863 201.976 28.7861 201.976 28.786C201.976 28.7858 201.976 28.7857 201.976 28.7856C201.976 28.7854 201.976 28.7853 201.976 28.7852C201.976 28.785 201.976 28.7849 201.976 28.7848C201.976 28.7846 201.976 28.7845 201.976 28.7843C201.976 28.7842 201.976 28.7841 201.976 28.7839C201.976 28.7838 201.976 28.7837 201.976 28.7835C201.976 28.7834 201.976 28.7832 201.976 28.7831C201.976 28.783 201.976 28.7828 201.976 28.7827C201.976 28.7826 201.976 28.7824 201.976 28.7823C201.976 28.7822 201.976 28.782 201.976 28.7819C201.976 28.7817 201.976 28.7816 201.976 28.7815C201.976 28.7813 201.976 28.7812 201.976 28.7811C201.976 28.7809 201.976 28.7808 201.976 28.7807C201.976 28.7805 201.976 28.7804 201.976 28.7802C201.976 28.7801 201.976 28.78 201.976 28.7798C201.976 28.7797 201.976 28.7796 201.976 28.7794C201.976 28.7793 201.976 28.7791 201.976 28.779C201.976 28.7789 201.976 28.7787 201.976 28.7786C201.976 28.7785 201.976 28.7783 201.976 28.7782C201.976 28.7781 201.976 28.7779 201.976 28.7778C201.976 28.7776 201.976 28.7775 201.976 28.7774C201.976 28.7772 201.976 28.7771 201.976 28.777C201.976 28.7768 201.976 28.7767 201.976 28.7766C201.976 28.7764 201.976 28.7763 201.976 28.7761C201.976 28.776 201.976 28.7759 201.976 28.7757C201.976 28.7756 201.976 28.7755 201.976 28.7753C201.976 28.7752 201.976 28.775 201.976 28.7749C201.976 28.7748 201.976 28.7746 201.976 28.7745C201.976 28.7744 201.976 28.7742 201.976 28.7741C201.976 28.774 201.976 28.7738 201.976 28.7737C201.976 28.7735 201.976 28.7734 201.976 28.7733C201.976 28.7731 201.976 28.773 201.976 28.7729C201.976 28.7727 201.976 28.7726 201.976 28.7724C201.976 28.7723 201.976 28.7722 201.976 28.772C201.976 28.7719 201.976 28.7718 201.976 28.7716C201.976 28.7715 201.976 28.7714 201.976 28.7712C201.976 28.7711 201.976 28.7709 201.976 28.7708C201.976 28.7707 201.976 28.7705 201.976 28.7704C201.976 28.7703 201.976 28.7701 201.976 28.77C201.976 28.7699 201.976 28.7697 201.976 28.7696C201.976 28.7694 201.976 28.7693 201.976 28.7692C201.976 28.769 201.976 28.7689 201.976 28.7688C201.976 28.7686 201.976 28.7685 201.976 28.7683C201.976 28.7682 201.976 28.7681 201.976 28.7679C201.976 28.7678 201.976 28.7677 201.976 28.7675C201.976 28.7674 201.976 28.7673 201.976 28.7671C201.976 28.767 201.976 28.7668 201.976 28.7667C201.976 28.7666 201.976 28.7664 201.976 28.7663C201.976 28.7662 201.976 28.766 201.976 28.7659C201.976 28.7657 201.976 28.7656 201.976 28.7655C201.976 28.7653 201.976 28.7652 201.976 28.7651C201.976 28.7649 201.976 28.7648 201.976 28.7647C201.976 28.7645 201.976 28.7644 201.976 28.7642C201.976 28.7641 201.976 28.764 201.976 28.7638C201.976 28.7637 201.976 28.7636 201.976 28.7634C201.976 28.7633 201.976 28.7632 201.976 28.763C201.976 28.7629 201.976 28.7627 201.976 28.7626C201.976 28.7625 201.976 28.7623 201.976 28.7622C201.976 28.7621 201.976 28.7619 201.976 28.7618C201.976 28.7616 201.976 28.7615 201.976 28.7614C201.976 28.7612 201.976 28.7611 201.976 28.761C201.976 28.7608 201.976 28.7607 201.976 28.7606C201.976 28.7604 201.976 28.7603 201.976 28.7601C201.976 28.76 201.976 28.7599 201.976 28.7597C201.976 28.7596 201.976 28.7595 201.976 28.7593C201.976 28.7592 201.976 28.7591 201.976 28.7589C201.976 28.7588 201.976 28.7586 201.976 28.7585C201.976 28.7584 201.976 28.7582 201.976 28.7581C201.976 28.758 201.976 28.7578 201.976 28.7577C201.976 28.7575 201.976 28.7574 201.976 28.7573C201.976 28.7571 201.976 28.757 201.976 28.7569C201.976 28.7567 201.976 28.7566 201.976 28.7565C201.976 28.7563 201.976 28.7562 201.976 28.756C201.976 28.7559 201.976 28.7558 201.976 28.7556C201.976 28.7555 201.976 28.7554 201.976 28.7552C201.976 28.7551 201.976 28.7549 201.976 28.7548C201.976 28.7547 201.976 28.7545 201.976 28.7544C201.976 28.7543 201.976 28.7541 201.976 28.754C201.976 28.7539 201.976 28.7537 201.976 28.7536C201.976 28.7534 201.976 28.7533 201.976 28.7532C201.976 28.753 201.976 28.7529 201.976 28.7528C201.976 28.7526 201.976 28.7525 201.976 28.7524C201.976 28.7522 201.976 28.7521 201.976 28.7519C201.976 28.7518 201.976 28.7517 201.976 28.7515C201.976 28.7514 201.976 28.7513 201.976 28.7511C201.976 28.751 201.976 28.7508 201.976 28.7507H199.296ZM199.296 28.9607C199.296 29.5261 199.111 30.3779 198.625 31.57L201.107 32.5814C201.648 31.2535 201.976 30.0287 201.976 28.9607H199.296ZM198.628 31.5619C198.378 32.1654 198.177 32.6041 198.023 32.8961C197.946 33.0432 197.893 33.1293 197.864 33.1716C197.812 33.2463 197.869 33.1381 198.038 33.0255L199.525 35.2559C199.799 35.0733 199.979 34.8265 200.07 34.6942C200.184 34.5294 200.293 34.3399 200.396 34.1429C200.605 33.7465 200.841 33.2227 201.104 32.5895L198.628 31.5619ZM199.395 32.9495C197.786 32.1194 196.23 31.6454 194.756 31.6454V34.326C195.663 34.326 196.79 34.622 198.167 35.332L199.395 32.9495ZM194.756 31.6454C194.052 31.6454 193.283 31.7649 192.661 32.213C191.957 32.7198 191.666 33.4777 191.666 34.2457H194.346C194.346 34.1901 194.356 34.2055 194.332 34.2575C194.304 34.3168 194.261 34.3637 194.227 34.3884C194.201 34.4072 194.213 34.3895 194.303 34.3677C194.395 34.3458 194.541 34.326 194.756 34.326V31.6454ZM191.666 34.2457C191.666 35.6225 192.819 36.4045 193.742 36.8286L194.861 34.3928C194.512 34.2327 194.356 34.1064 194.302 34.0495C194.28 34.0264 194.293 34.0333 194.311 34.0741C194.331 34.119 194.346 34.1798 194.346 34.2457H191.666ZM193.702 36.8095C193.905 36.911 194.186 37.0453 194.539 37.2103L195.673 34.7812C195.326 34.6194 195.071 34.4971 194.901 34.4119L193.702 36.8095ZM194.539 37.2103C194.865 37.3624 195.242 37.5506 195.672 37.7768L196.92 35.4047C196.463 35.1641 196.047 34.9557 195.673 34.7812L194.539 37.2103ZM195.746 37.8129C196.128 37.9848 196.549 38.2233 197.011 38.5381L198.521 36.3233C197.956 35.9381 197.398 35.6167 196.846 35.3685L195.746 37.8129ZM197.069 38.5756C197.511 38.8443 198.012 39.2282 198.572 39.7456L200.39 37.7759C199.737 37.1732 199.095 36.6705 198.463 36.2858L197.069 38.5756ZM198.561 39.7356C199.495 40.6161 199.996 41.7854 199.996 43.3807H202.676C202.676 41.1494 201.941 39.2387 200.401 37.7858L198.561 39.7356ZM199.996 43.3807C199.996 45.6186 199.386 47.3288 198.259 48.6274L200.284 50.3841C201.91 48.5093 202.676 46.1361 202.676 43.3807H199.996ZM198.259 48.6274C197.213 49.8323 195.514 50.5728 192.879 50.6156L192.923 53.2958C196.028 53.2453 198.576 52.3525 200.284 50.3841L198.259 48.6274ZM192.901 50.6154C191.574 50.6154 190.394 50.5047 189.354 50.2925L188.818 52.9189C190.065 53.1734 191.428 53.296 192.901 53.296V50.6154ZM189.36 50.2936C188.434 50.1009 187.652 49.7325 186.987 49.197L185.305 51.2845C186.321 52.1023 187.498 52.6439 188.813 52.9178L189.36 50.2936ZM186.987 49.197C186.417 48.738 186.226 48.2867 186.226 47.7907H183.546C183.546 49.208 184.195 50.3901 185.305 51.2845L186.987 49.197ZM186.226 47.7907C186.226 47.0015 186.37 46.2156 186.666 45.4263L184.156 44.4851C183.752 45.5625 183.546 46.6666 183.546 47.7907H186.226ZM186.67 45.4162C187.007 44.4961 187.273 44.1857 187.345 44.1304L185.717 42.0011C184.996 42.5524 184.516 43.502 184.153 44.4952L186.67 45.4162ZM206.875 45.5857V46.926H208.215V45.5857H206.875ZM206.875 33.1257H208.215V31.7854H206.875V33.1257ZM203.55 31.6207L202.223 31.8103L202.225 31.8232L202.227 31.8361L203.55 31.6207ZM203.55 28.6107L202.227 28.3954L202.225 28.4082L202.223 28.4212L203.55 28.6107ZM216.955 28.6107L215.628 28.7959L215.632 28.8288L215.638 28.8615L216.955 28.6107ZM216.955 31.6207L215.638 31.3699L215.632 31.4026L215.628 31.4355L216.955 31.6207ZM213.805 33.1257V31.7854H212.465V33.1257H213.805ZM213.805 45.5857H212.465V46.926H213.805V45.5857ZM217.095 47.0907L215.772 47.3061L215.775 47.3238L215.778 47.3415L217.095 47.0907ZM217.095 50.1007L215.778 49.8499L215.775 49.8676L215.772 49.8854L217.095 50.1007ZM203.655 50.1007L204.982 49.9155L204.978 49.8826L204.972 49.8499L203.655 50.1007ZM203.655 47.0907L204.972 47.3415L204.978 47.3088L204.982 47.2759L203.655 47.0907ZM208.215 45.5857V33.1257H205.535V45.5857H208.215ZM206.875 31.7854H204.39V34.466H206.875V31.7854ZM204.39 31.7854C204.597 31.7854 204.781 31.8578 204.913 31.955C205.025 32.0387 205.062 32.1127 205.053 32.0963C205.045 32.0828 205.017 32.0251 204.98 31.9004C204.944 31.7789 204.907 31.6162 204.873 31.4054L202.227 31.8361C202.318 32.392 202.459 32.9494 202.712 33.4027C202.971 33.8666 203.505 34.466 204.39 34.466V31.7854ZM204.877 31.4312C204.816 31.0062 204.785 30.568 204.785 30.1157H202.105C202.105 30.6901 202.144 31.2552 202.223 31.8103L204.877 31.4312ZM204.785 30.1157C204.785 29.6635 204.816 29.2252 204.877 28.8003L202.223 28.4212C202.144 28.9762 202.105 29.5413 202.105 30.1157H204.785ZM204.873 28.8261C204.907 28.6152 204.944 28.4525 204.98 28.331C205.017 28.2063 205.045 28.1486 205.053 28.1352C205.062 28.1188 205.025 28.1927 204.913 28.2764C204.781 28.3737 204.597 28.446 204.39 28.446V25.7654C203.505 25.7654 202.971 26.3648 202.712 26.8288C202.459 27.2821 202.318 27.8394 202.227 28.3954L204.873 28.8261ZM204.39 28.446H216.15V25.7654H204.39V28.446ZM216.15 28.446C215.943 28.446 215.753 28.3731 215.616 28.2697C215.498 28.1808 215.46 28.1009 215.467 28.1141C215.472 28.1244 215.499 28.1795 215.532 28.3032C215.565 28.4236 215.598 28.5855 215.628 28.7959L218.282 28.4255C218.205 27.8698 218.076 27.3086 217.831 26.8498C217.577 26.3756 217.044 25.7654 216.15 25.7654V28.446ZM215.638 28.8615C215.715 29.2665 215.755 29.6841 215.755 30.1157H218.435C218.435 29.5207 218.381 28.935 218.272 28.3599L215.638 28.8615ZM215.755 30.1157C215.755 30.5473 215.715 30.965 215.638 31.3699L218.272 31.8715C218.381 31.2965 218.435 30.7107 218.435 30.1157H215.755ZM215.628 31.4355C215.598 31.646 215.565 31.8078 215.532 31.9282C215.499 32.0519 215.472 32.1071 215.467 32.1173C215.46 32.1305 215.498 32.0506 215.616 31.9617C215.753 31.8584 215.943 31.7854 216.15 31.7854V34.466C217.044 34.466 217.577 33.8558 217.831 33.3816C218.076 32.9228 218.205 32.3616 218.282 31.8059L215.628 31.4355ZM216.15 31.7854H213.805V34.466H216.15V31.7854ZM212.465 33.1257V45.5857H215.145V33.1257H212.465ZM213.805 46.926H216.255V44.2454H213.805V46.926ZM216.255 46.926C216.048 46.926 215.864 46.8537 215.732 46.7564C215.619 46.6727 215.583 46.5988 215.592 46.6152C215.6 46.6286 215.628 46.6863 215.665 46.811C215.701 46.9325 215.738 47.0952 215.772 47.3061L218.418 46.8754C218.327 46.3194 218.186 45.7621 217.933 45.3088C217.674 44.8448 217.14 44.2454 216.255 44.2454V46.926ZM215.778 47.3415C215.855 47.7465 215.895 48.1641 215.895 48.5957H218.575C218.575 48.0007 218.521 47.415 218.412 46.8399L215.778 47.3415ZM215.895 48.5957C215.895 49.0273 215.855 49.445 215.778 49.8499L218.412 50.3515C218.521 49.7765 218.575 49.1908 218.575 48.5957H215.895ZM215.772 49.8854C215.738 50.0962 215.701 50.2589 215.665 50.3804C215.628 50.5051 215.6 50.5628 215.592 50.5763C215.583 50.5927 215.619 50.5187 215.732 50.435C215.864 50.3378 216.048 50.2654 216.255 50.2654V52.946C217.14 52.946 217.674 52.3466 217.933 51.8827C218.186 51.4294 218.327 50.872 218.418 50.3161L215.772 49.8854ZM216.255 50.2654H204.46V52.946H216.255V50.2654ZM204.46 50.2654C204.667 50.2654 204.857 50.3384 204.994 50.4417C205.112 50.5306 205.15 50.6105 205.143 50.5973C205.138 50.5871 205.111 50.5319 205.078 50.4082C205.045 50.2878 205.012 50.126 204.982 49.9155L202.328 50.2859C202.405 50.8416 202.534 51.4028 202.779 51.8616C203.033 52.3358 203.565 52.946 204.46 52.946V50.2654ZM204.972 49.8499C204.894 49.445 204.855 49.0273 204.855 48.5957H202.175C202.175 49.1908 202.229 49.7765 202.338 50.3515L204.972 49.8499ZM204.855 48.5957C204.855 48.1641 204.894 47.7465 204.972 47.3415L202.338 46.8399C202.229 47.415 202.175 48.0007 202.175 48.5957H204.855ZM204.982 47.2759C205.012 47.0655 205.045 46.9036 205.078 46.7832C205.111 46.6595 205.138 46.6044 205.143 46.5941C205.15 46.5809 205.112 46.6608 204.994 46.7497C204.857 46.8531 204.667 46.926 204.46 46.926V44.2454C203.565 44.2454 203.033 44.8556 202.779 45.3298C202.534 45.7886 202.405 46.3498 202.328 46.9055L204.982 47.2759ZM204.46 46.926H206.875V44.2454H204.46V46.926ZM223.525 33.4757H224.865V32.1354H223.525V33.4757ZM218.485 31.8657L217.157 32.0468L217.158 32.0571L217.16 32.0673L218.485 31.8657ZM218.485 28.7157L217.16 28.5141L217.158 28.5243L217.157 28.5346L218.485 28.7157ZM235.39 28.7157L236.718 28.5346L236.716 28.5243L236.715 28.5141L235.39 28.7157ZM235.39 31.8657L236.715 32.0673L236.716 32.0571L236.718 32.0468L235.39 31.8657ZM230.455 33.4757V32.1354H229.115V33.4757H230.455ZM229.115 51.0457C229.115 50.5029 229.483 50.2424 229.544 50.2058C229.595 50.1746 229.556 50.21 229.323 50.257C228.881 50.3463 228.123 50.4054 226.99 50.4054V53.086C228.166 53.086 229.141 53.0284 229.854 52.8845C230.199 52.8148 230.593 52.7043 230.933 52.4982C231.282 52.2865 231.795 51.8219 231.795 51.0457H229.115ZM226.99 50.4054C225.856 50.4054 225.099 50.3463 224.656 50.257C224.424 50.21 224.385 50.1746 224.436 50.2058C224.497 50.2424 224.865 50.5029 224.865 51.0457H222.185C222.185 51.8219 222.697 52.2865 223.047 52.4982C223.387 52.7043 223.781 52.8148 224.126 52.8845C224.838 53.0284 225.813 53.086 226.99 53.086V50.4054ZM224.865 51.0457V33.4757H222.185V51.0457H224.865ZM223.525 32.1354H219.325V34.816H223.525V32.1354ZM219.325 32.1354C219.555 32.1354 219.752 32.2219 219.882 32.325C219.991 32.4118 220.021 32.4831 220.006 32.4532C219.992 32.4281 219.96 32.3558 219.921 32.2143C219.883 32.0761 219.845 31.8949 219.81 31.6641L217.16 32.0673C217.249 32.6534 217.387 33.2288 217.629 33.6932C217.866 34.1481 218.393 34.816 219.325 34.816V32.1354ZM219.813 31.6846C219.751 31.2334 219.72 30.769 219.72 30.2907H217.04C217.04 30.8858 217.078 31.4713 217.157 32.0468L219.813 31.6846ZM219.72 30.2907C219.72 29.8125 219.751 29.348 219.813 28.8968L217.157 28.5346C217.078 29.1101 217.04 29.6956 217.04 30.2907H219.72ZM219.81 28.9173C219.845 28.6865 219.883 28.5053 219.921 28.3672C219.96 28.2256 219.992 28.1533 220.006 28.1282C220.021 28.0983 219.991 28.1697 219.882 28.2564C219.752 28.3595 219.555 28.446 219.325 28.446V25.7654C218.393 25.7654 217.866 26.4333 217.629 26.8882C217.387 27.3526 217.249 27.928 217.16 28.5141L219.81 28.9173ZM219.325 28.446H234.55V25.7654H219.325V28.446ZM234.55 28.446C234.319 28.446 234.123 28.3595 233.993 28.2564C233.883 28.1697 233.853 28.0983 233.869 28.1282C233.882 28.1533 233.914 28.2256 233.953 28.3672C233.991 28.5053 234.03 28.6865 234.065 28.9173L236.715 28.5141C236.626 27.928 236.488 27.3526 236.246 26.8882C236.008 26.4333 235.482 25.7654 234.55 25.7654V28.446ZM234.062 28.8968C234.123 29.348 234.155 29.8125 234.155 30.2907H236.835C236.835 29.6956 236.796 29.1101 236.718 28.5346L234.062 28.8968ZM234.155 30.2907C234.155 30.769 234.123 31.2334 234.062 31.6846L236.718 32.0468C236.796 31.4713 236.835 30.8858 236.835 30.2907H234.155ZM234.065 31.6641C234.03 31.8949 233.991 32.0761 233.953 32.2143C233.914 32.3558 233.882 32.4281 233.869 32.4532C233.853 32.4831 233.883 32.4118 233.993 32.325C234.123 32.2219 234.319 32.1354 234.55 32.1354V34.816C235.482 34.816 236.008 34.1481 236.246 33.6932C236.488 33.2288 236.626 32.6534 236.715 32.0673L234.065 31.6641ZM234.55 32.1354H230.455V34.816H234.55V32.1354ZM229.115 33.4757V51.0457H231.795V33.4757H229.115Z" fill="black" mask="url(#path-7-outside-1_106_904)"/>
</g>
<defs>
<filter id="filter0_dd_106_904" x="0.946289" y="0.877197" width="335.577" height="86.4858" filterUnits="userSpaceOnUse" color-interpolation-filters="sRGB">
<feFlood flood-opacity="0" result="BackgroundImageFix"/>
<feColorMatrix in="SourceAlpha" type="matrix" values="0 0 0 0 0 0 0 0 0 0 0 0 0 0 0 0 0 0 127 0" result="hardAlpha"/>
<feOffset dy="2.5"/>
<feComposite in2="hardAlpha" operator="out"/>
<feColorMatrix type="matrix" values="0 0 0 0 0 0 0 0 0 0 0 0 0 0 0 0 0 0 0.5 0"/>
<feBlend mode="normal" in2="BackgroundImageFix" result="effect1_dropShadow_106_904"/>
<feColorMatrix in="SourceAlpha" type="matrix" values="0 0 0 0 0 0 0 0 0 0 0 0 0 0 0 0 0 0 127 0" result="hardAlpha"/>
<feOffset dy="1"/>
<feComposite in2="hardAlpha" operator="out"/>
<feColorMatrix type="matrix" values="0 0 0 0 0 0 0 0 0 0 0 0 0 0 0 0 0 0 1 0"/>
<feBlend mode="normal" in2="effect1_dropShadow_106_904" result="effect2_dropShadow_106_904"/>
<feBlend mode="normal" in="SourceGraphic" in2="effect2_dropShadow_106_904" result="shape"/>
</filter>
<filter id="filter1_d_106_904" x="99.7217" y="25.4504" width="137.113" height="31.8663" filterUnits="userSpaceOnUse" color-interpolation-filters="sRGB">
<feFlood flood-opacity="0" result="BackgroundImageFix"/>
<feColorMatrix in="SourceAlpha" type="matrix" values="0 0 0 0 0 0 0 0 0 0 0 0 0 0 0 0 0 0 127 0" result="hardAlpha"/>
<feOffset dy="4.02084"/>
<feComposite in2="hardAlpha" operator="out"/>
<feColorMatrix type="matrix" values="0 0 0 0 0 0 0 0 0 0 0 0 0 0 0 0 0 0 1 0"/>
<feBlend mode="normal" in2="BackgroundImageFix" result="effect1_dropShadow_106_904"/>
<feBlend mode="normal" in="SourceGraphic" in2="effect1_dropShadow_106_904" result="shape"/>
</filter>
</defs>
</svg>
