<svg width="42" height="45" viewBox="0 0 42 45" fill="none" xmlns="http://www.w3.org/2000/svg">
<g filter="url(#filter0_d_106_869)">
<circle cx="21.4201" cy="20.6013" r="20.1081" fill="url(#paint0_linear_106_869)"/>
<circle cx="21.4201" cy="20.6013" r="20.1081" stroke="black" stroke-width="0.963184"/>
</g>
<circle cx="21.4101" cy="20.5517" r="16.5576" fill="#2373FF"/>
<g filter="url(#filter1_d_106_869)">
<path d="M14.6341 30.5228L16.7511 17.7157C16.8326 17.2228 17.2774 16.874 17.7755 16.9124L24.6597 17.4436C25.1866 17.4842 25.5823 17.9419 25.5465 18.4692L24.6602 31.517C24.6235 32.0579 24.1477 32.4619 23.608 32.4106L15.4932 31.6387C14.9376 31.5859 14.5431 31.0734 14.6341 30.5228Z" fill="white" stroke="black" stroke-width="1.15582"/>
<path d="M21.9503 15.5208C25.0857 15.5208 27.789 13.334 27.789 10.4524C27.789 7.57076 25.0857 5.384 21.9503 5.384C18.8148 5.384 16.1115 7.57076 16.1115 10.4524C16.1115 13.334 18.8148 15.5208 21.9503 15.5208Z" fill="white" stroke="black" stroke-width="1.15582"/>
</g>
<defs>
<filter id="filter0_d_106_869" x="0.830566" y="0.0114746" width="41.1792" height="44.2616" filterUnits="userSpaceOnUse" color-interpolation-filters="sRGB">
<feFlood flood-opacity="0" result="BackgroundImageFix"/>
<feColorMatrix in="SourceAlpha" type="matrix" values="0 0 0 0 0 0 0 0 0 0 0 0 0 0 0 0 0 0 127 0" result="hardAlpha"/>
<feOffset dy="3.08219"/>
<feComposite in2="hardAlpha" operator="out"/>
<feColorMatrix type="matrix" values="0 0 0 0 0 0 0 0 0 0 0 0 0 0 0 0 0 0 0.5 0"/>
<feBlend mode="normal" in2="BackgroundImageFix" result="effect1_dropShadow_106_869"/>
<feBlend mode="normal" in="SourceGraphic" in2="effect1_dropShadow_106_869" result="shape"/>
</filter>
<filter id="filter1_d_106_869" x="14.043" y="4.80615" width="14.5164" height="29.15" filterUnits="userSpaceOnUse" color-interpolation-filters="sRGB">
<feFlood flood-opacity="0" result="BackgroundImageFix"/>
<feColorMatrix in="SourceAlpha" type="matrix" values="0 0 0 0 0 0 0 0 0 0 0 0 0 0 0 0 0 0 127 0" result="hardAlpha"/>
<feOffset dx="0.192637" dy="0.963184"/>
<feComposite in2="hardAlpha" operator="out"/>
<feColorMatrix type="matrix" values="0 0 0 0 0 0 0 0 0 0 0 0 0 0 0 0 0 0 1 0"/>
<feBlend mode="normal" in2="BackgroundImageFix" result="effect1_dropShadow_106_869"/>
<feBlend mode="normal" in="SourceGraphic" in2="effect1_dropShadow_106_869" result="shape"/>
</filter>
<linearGradient id="paint0_linear_106_869" x1="21.4201" y1="0.493164" x2="21.4201" y2="40.7094" gradientUnits="userSpaceOnUse">
<stop stop-color="#169CFF"/>
<stop offset="1" stop-color="#0C4DEF"/>
</linearGradient>
</defs>
</svg>
