<svg width="171" height="128" viewBox="0 0 171 128" fill="none" xmlns="http://www.w3.org/2000/svg">
<g filter="url(#filter0_d_65_1016)">
<path d="M9.23801 36.2535C9.44216 33.7576 11.5274 31.8359 14.0317 31.8359H162.819C165.63 31.8359 167.841 34.2361 167.612 37.0377L161.456 112.304C161.252 114.8 159.167 116.722 156.662 116.722H7.87542C5.06447 116.722 2.85257 114.322 3.08172 111.52L9.23801 36.2535Z" fill="#343B50"/>
<path d="M14.0317 30.3329C10.7448 30.3329 8.00793 32.8551 7.73998 36.131L1.58369 111.398C1.28293 115.075 4.18605 118.225 7.87542 118.225H156.662C159.949 118.225 162.686 115.703 162.954 112.427L169.11 37.1603C169.411 33.4832 166.508 30.3329 162.819 30.3329H14.0317Z" stroke="black" stroke-width="3.00607"/>
</g>
<mask id="mask0_65_1016" style="mask-type:alpha" maskUnits="userSpaceOnUse" x="3" y="31" width="165" height="86">
<path d="M9.23801 36.2535C9.44216 33.7576 11.5274 31.8359 14.0317 31.8359H162.819C165.63 31.8359 167.841 34.2361 167.612 37.0377L161.456 112.304C161.252 114.8 159.167 116.722 156.662 116.722H7.87542C5.06447 116.722 2.85257 114.322 3.08172 111.52L9.23801 36.2535Z" fill="#343B50"/>
</mask>
<g mask="url(#mask0_65_1016)">
<rect x="-2.85254" y="13.4939" width="185.886" height="24.69" fill="#5E5576"/>
<rect x="-2.74512" y="108.335" width="185.886" height="24.69" fill="#272C3D"/>
<path d="M173.291 53.0714L152.938 31.0015H173.291V53.0714Z" fill="#766C92"/>
</g>
<g filter="url(#filter1_d_65_1016)">
<mask id="path-7-outside-1_65_1016" maskUnits="userSpaceOnUse" x="35.8389" y="80.8971" width="108" height="25" fill="black">
<rect fill="white" x="35.8389" y="80.8971" width="108" height="25"/>
<path d="M52.6889 101.472C52.6889 101.755 51.8472 101.897 50.1639 101.897C48.4805 101.897 47.6389 101.755 47.6389 101.472V95.7221H44.1389V101.472C44.1389 101.755 43.2972 101.897 41.6139 101.897C39.9305 101.897 39.0889 101.755 39.0889 101.472V84.8971C39.0889 84.5471 39.9305 84.3721 41.6139 84.3721C43.2972 84.3721 44.1389 84.5471 44.1389 84.8971V90.7721H47.6389V84.9471C47.6389 84.7138 48.0555 84.5471 48.8889 84.4471C49.3222 84.4138 49.7472 84.3971 50.1639 84.3971L51.4389 84.4471C52.2722 84.5471 52.6889 84.7138 52.6889 84.9471V101.472ZM57.0777 97.5971V88.6971H55.3027C55.0194 88.6971 54.8194 88.3388 54.7027 87.6221C54.6527 87.2721 54.6277 86.9138 54.6277 86.5471C54.6277 86.1804 54.6527 85.8221 54.7027 85.4721C54.8194 84.7554 55.0194 84.3971 55.3027 84.3971H63.7027C63.9861 84.3971 64.1777 84.7554 64.2777 85.4721C64.3444 85.8221 64.3777 86.1804 64.3777 86.5471C64.3777 86.9138 64.3444 87.2721 64.2777 87.6221C64.1777 88.3388 63.9861 88.6971 63.7027 88.6971H62.0277V97.5971H63.7777C64.0611 97.5971 64.2611 97.9554 64.3777 98.6721C64.4444 99.0221 64.4777 99.3804 64.4777 99.7471C64.4777 100.114 64.4444 100.472 64.3777 100.822C64.2611 101.539 64.0611 101.897 63.7777 101.897H55.3527C55.0694 101.897 54.8777 101.539 54.7777 100.822C54.7111 100.472 54.6777 100.114 54.6777 99.7471C54.6777 99.3804 54.7111 99.0221 54.7777 98.6721C54.8777 97.9554 55.0694 97.5971 55.3527 97.5971H57.0777ZM67.0455 95.7971C67.3622 96.0471 67.9038 96.3888 68.6705 96.8221C69.4538 97.2554 70.1955 97.4721 70.8955 97.4721C71.6122 97.4721 71.9705 97.1971 71.9705 96.6471C71.9705 96.3971 71.8705 96.1804 71.6705 95.9971C71.4705 95.7971 71.1038 95.5721 70.5705 95.3221C70.0372 95.0721 69.6372 94.8804 69.3705 94.7471C69.1038 94.5971 68.7455 94.3638 68.2955 94.0471C67.8622 93.7138 67.5288 93.3721 67.2955 93.0221C66.6288 92.0721 66.2955 90.8638 66.2955 89.3971C66.2955 87.9304 66.8372 86.6971 67.9205 85.6971C69.0205 84.6804 70.4538 84.1721 72.2205 84.1721C73.4205 84.1721 74.5288 84.3054 75.5455 84.5721C76.5622 84.8221 77.0872 85.1554 77.1205 85.5721C77.1205 85.6221 77.1205 85.6721 77.1205 85.7221C77.1205 86.3054 76.9372 87.0471 76.5705 87.9471C76.2038 88.8304 75.9455 89.3221 75.7955 89.4221C74.7288 88.8721 73.7705 88.5971 72.9205 88.5971C72.0872 88.5971 71.6705 88.8971 71.6705 89.4971C71.6705 89.8638 71.9788 90.1888 72.5955 90.4721C72.7288 90.5388 72.9205 90.6304 73.1705 90.7471C73.4205 90.8638 73.7038 91.0054 74.0205 91.1721C74.3538 91.3221 74.7038 91.5221 75.0705 91.7721C75.4538 92.0054 75.8622 92.3221 76.2955 92.7221C77.1788 93.5554 77.6205 94.6554 77.6205 96.0221C77.6205 97.8054 77.1288 99.2638 76.1455 100.397C75.1622 101.53 73.6455 102.114 71.5955 102.147C70.5955 102.147 69.6872 102.064 68.8705 101.897C68.0705 101.73 67.3705 101.405 66.7705 100.922C66.1705 100.439 65.8705 99.8554 65.8705 99.1721C65.8705 98.4888 65.9955 97.8138 66.2455 97.1471C66.4955 96.4638 66.7622 96.0138 67.0455 95.7971ZM87.4518 101.497C87.4518 101.83 86.6268 101.997 84.9768 101.997C83.3268 101.997 82.5018 101.83 82.5018 101.497V88.9471H79.5018C79.2184 88.9471 79.0184 88.5638 78.9018 87.7971C78.8518 87.4304 78.8268 87.0554 78.8268 86.6721C78.8268 86.2888 78.8518 85.9138 78.9018 85.5471C79.0184 84.7804 79.2184 84.3971 79.5018 84.3971H90.3768C90.6601 84.3971 90.8601 84.7804 90.9768 85.5471C91.0268 85.9138 91.0518 86.2888 91.0518 86.6721C91.0518 87.0554 91.0268 87.4304 90.9768 87.7971C90.8601 88.5638 90.6601 88.9471 90.3768 88.9471H87.4518V101.497ZM100.151 102.147C97.8173 102.147 95.9089 101.38 94.4256 99.8471C92.9589 98.3138 92.2256 96.0804 92.2256 93.1471C92.2256 90.1971 92.9673 87.9638 94.4506 86.4471C95.9506 84.9304 97.8756 84.1721 100.226 84.1721C102.592 84.1721 104.501 84.9221 105.951 86.4221C107.401 87.9054 108.126 90.1638 108.126 93.1971C108.126 96.2138 107.384 98.4638 105.901 99.9471C104.417 101.414 102.501 102.147 100.151 102.147ZM100.176 88.9721C99.3756 88.9721 98.7006 89.3388 98.1506 90.0721C97.6173 90.8054 97.3506 91.8388 97.3506 93.1721C97.3506 94.4888 97.6089 95.5054 98.1256 96.2221C98.6423 96.9221 99.3173 97.2721 100.151 97.2721C101.001 97.2721 101.684 96.9138 102.201 96.1971C102.734 95.4804 103.001 94.4554 103.001 93.1221C103.001 91.7888 102.726 90.7638 102.176 90.0471C101.642 89.3304 100.976 88.9721 100.176 88.9721ZM115.158 101.547C115.158 101.814 114.366 101.947 112.783 101.947C111.183 101.947 110.383 101.822 110.383 101.572V85.2721C110.383 84.6888 110.691 84.3971 111.308 84.3971H116.083C120.466 84.3971 122.658 86.1054 122.658 89.5221C122.658 90.5554 122.458 91.4971 122.058 92.3471C121.658 93.1804 121.091 93.8471 120.358 94.3471L123.508 99.5971C123.374 99.9971 122.941 100.455 122.208 100.972C121.208 101.689 120.383 102.047 119.733 102.047C119.083 102.047 118.599 101.814 118.283 101.347L115.933 95.8721H115.158V101.547ZM115.158 88.8221V92.5721H115.283C116.866 92.5721 117.658 91.9138 117.658 90.5971C117.658 89.9971 117.499 89.5554 117.183 89.2721C116.883 88.9721 116.383 88.8221 115.683 88.8221H115.158ZM134.079 85.2221C134.296 84.6388 135.362 84.3471 137.279 84.3471C137.762 84.3471 138.329 84.3804 138.979 84.4471C139.646 84.5138 139.954 84.5971 139.904 84.6971L134.704 95.1471V101.247C134.704 101.53 134.246 101.73 133.329 101.847C132.862 101.914 132.404 101.947 131.954 101.947C131.504 101.947 131.054 101.922 130.604 101.872C129.687 101.755 129.229 101.547 129.229 101.247V95.2971L123.854 84.7471C123.787 84.6471 124.129 84.5554 124.879 84.4721C125.629 84.3721 126.262 84.3221 126.779 84.3221C128.829 84.3221 129.954 84.6221 130.154 85.2221L131.979 90.3221L134.079 85.2221Z"/>
</mask>
<path d="M52.6889 101.472C52.6889 101.755 51.8472 101.897 50.1639 101.897C48.4805 101.897 47.6389 101.755 47.6389 101.472V95.7221H44.1389V101.472C44.1389 101.755 43.2972 101.897 41.6139 101.897C39.9305 101.897 39.0889 101.755 39.0889 101.472V84.8971C39.0889 84.5471 39.9305 84.3721 41.6139 84.3721C43.2972 84.3721 44.1389 84.5471 44.1389 84.8971V90.7721H47.6389V84.9471C47.6389 84.7138 48.0555 84.5471 48.8889 84.4471C49.3222 84.4138 49.7472 84.3971 50.1639 84.3971L51.4389 84.4471C52.2722 84.5471 52.6889 84.7138 52.6889 84.9471V101.472ZM57.0777 97.5971V88.6971H55.3027C55.0194 88.6971 54.8194 88.3388 54.7027 87.6221C54.6527 87.2721 54.6277 86.9138 54.6277 86.5471C54.6277 86.1804 54.6527 85.8221 54.7027 85.4721C54.8194 84.7554 55.0194 84.3971 55.3027 84.3971H63.7027C63.9861 84.3971 64.1777 84.7554 64.2777 85.4721C64.3444 85.8221 64.3777 86.1804 64.3777 86.5471C64.3777 86.9138 64.3444 87.2721 64.2777 87.6221C64.1777 88.3388 63.9861 88.6971 63.7027 88.6971H62.0277V97.5971H63.7777C64.0611 97.5971 64.2611 97.9554 64.3777 98.6721C64.4444 99.0221 64.4777 99.3804 64.4777 99.7471C64.4777 100.114 64.4444 100.472 64.3777 100.822C64.2611 101.539 64.0611 101.897 63.7777 101.897H55.3527C55.0694 101.897 54.8777 101.539 54.7777 100.822C54.7111 100.472 54.6777 100.114 54.6777 99.7471C54.6777 99.3804 54.7111 99.0221 54.7777 98.6721C54.8777 97.9554 55.0694 97.5971 55.3527 97.5971H57.0777ZM67.0455 95.7971C67.3622 96.0471 67.9038 96.3888 68.6705 96.8221C69.4538 97.2554 70.1955 97.4721 70.8955 97.4721C71.6122 97.4721 71.9705 97.1971 71.9705 96.6471C71.9705 96.3971 71.8705 96.1804 71.6705 95.9971C71.4705 95.7971 71.1038 95.5721 70.5705 95.3221C70.0372 95.0721 69.6372 94.8804 69.3705 94.7471C69.1038 94.5971 68.7455 94.3638 68.2955 94.0471C67.8622 93.7138 67.5288 93.3721 67.2955 93.0221C66.6288 92.0721 66.2955 90.8638 66.2955 89.3971C66.2955 87.9304 66.8372 86.6971 67.9205 85.6971C69.0205 84.6804 70.4538 84.1721 72.2205 84.1721C73.4205 84.1721 74.5288 84.3054 75.5455 84.5721C76.5622 84.8221 77.0872 85.1554 77.1205 85.5721C77.1205 85.6221 77.1205 85.6721 77.1205 85.7221C77.1205 86.3054 76.9372 87.0471 76.5705 87.9471C76.2038 88.8304 75.9455 89.3221 75.7955 89.4221C74.7288 88.8721 73.7705 88.5971 72.9205 88.5971C72.0872 88.5971 71.6705 88.8971 71.6705 89.4971C71.6705 89.8638 71.9788 90.1888 72.5955 90.4721C72.7288 90.5388 72.9205 90.6304 73.1705 90.7471C73.4205 90.8638 73.7038 91.0054 74.0205 91.1721C74.3538 91.3221 74.7038 91.5221 75.0705 91.7721C75.4538 92.0054 75.8622 92.3221 76.2955 92.7221C77.1788 93.5554 77.6205 94.6554 77.6205 96.0221C77.6205 97.8054 77.1288 99.2638 76.1455 100.397C75.1622 101.53 73.6455 102.114 71.5955 102.147C70.5955 102.147 69.6872 102.064 68.8705 101.897C68.0705 101.73 67.3705 101.405 66.7705 100.922C66.1705 100.439 65.8705 99.8554 65.8705 99.1721C65.8705 98.4888 65.9955 97.8138 66.2455 97.1471C66.4955 96.4638 66.7622 96.0138 67.0455 95.7971ZM87.4518 101.497C87.4518 101.83 86.6268 101.997 84.9768 101.997C83.3268 101.997 82.5018 101.83 82.5018 101.497V88.9471H79.5018C79.2184 88.9471 79.0184 88.5638 78.9018 87.7971C78.8518 87.4304 78.8268 87.0554 78.8268 86.6721C78.8268 86.2888 78.8518 85.9138 78.9018 85.5471C79.0184 84.7804 79.2184 84.3971 79.5018 84.3971H90.3768C90.6601 84.3971 90.8601 84.7804 90.9768 85.5471C91.0268 85.9138 91.0518 86.2888 91.0518 86.6721C91.0518 87.0554 91.0268 87.4304 90.9768 87.7971C90.8601 88.5638 90.6601 88.9471 90.3768 88.9471H87.4518V101.497ZM100.151 102.147C97.8173 102.147 95.9089 101.38 94.4256 99.8471C92.9589 98.3138 92.2256 96.0804 92.2256 93.1471C92.2256 90.1971 92.9673 87.9638 94.4506 86.4471C95.9506 84.9304 97.8756 84.1721 100.226 84.1721C102.592 84.1721 104.501 84.9221 105.951 86.4221C107.401 87.9054 108.126 90.1638 108.126 93.1971C108.126 96.2138 107.384 98.4638 105.901 99.9471C104.417 101.414 102.501 102.147 100.151 102.147ZM100.176 88.9721C99.3756 88.9721 98.7006 89.3388 98.1506 90.0721C97.6173 90.8054 97.3506 91.8388 97.3506 93.1721C97.3506 94.4888 97.6089 95.5054 98.1256 96.2221C98.6423 96.9221 99.3173 97.2721 100.151 97.2721C101.001 97.2721 101.684 96.9138 102.201 96.1971C102.734 95.4804 103.001 94.4554 103.001 93.1221C103.001 91.7888 102.726 90.7638 102.176 90.0471C101.642 89.3304 100.976 88.9721 100.176 88.9721ZM115.158 101.547C115.158 101.814 114.366 101.947 112.783 101.947C111.183 101.947 110.383 101.822 110.383 101.572V85.2721C110.383 84.6888 110.691 84.3971 111.308 84.3971H116.083C120.466 84.3971 122.658 86.1054 122.658 89.5221C122.658 90.5554 122.458 91.4971 122.058 92.3471C121.658 93.1804 121.091 93.8471 120.358 94.3471L123.508 99.5971C123.374 99.9971 122.941 100.455 122.208 100.972C121.208 101.689 120.383 102.047 119.733 102.047C119.083 102.047 118.599 101.814 118.283 101.347L115.933 95.8721H115.158V101.547ZM115.158 88.8221V92.5721H115.283C116.866 92.5721 117.658 91.9138 117.658 90.5971C117.658 89.9971 117.499 89.5554 117.183 89.2721C116.883 88.9721 116.383 88.8221 115.683 88.8221H115.158ZM134.079 85.2221C134.296 84.6388 135.362 84.3471 137.279 84.3471C137.762 84.3471 138.329 84.3804 138.979 84.4471C139.646 84.5138 139.954 84.5971 139.904 84.6971L134.704 95.1471V101.247C134.704 101.53 134.246 101.73 133.329 101.847C132.862 101.914 132.404 101.947 131.954 101.947C131.504 101.947 131.054 101.922 130.604 101.872C129.687 101.755 129.229 101.547 129.229 101.247V95.2971L123.854 84.7471C123.787 84.6471 124.129 84.5554 124.879 84.4721C125.629 84.3721 126.262 84.3221 126.779 84.3221C128.829 84.3221 129.954 84.6221 130.154 85.2221L131.979 90.3221L134.079 85.2221Z" fill="#FEFEFE"/>
<path d="M47.6389 95.7221H50.6449V92.716H47.6389V95.7221ZM44.1389 95.7221V92.716H41.1328V95.7221H44.1389ZM44.1389 90.7721H41.1328V93.7782H44.1389V90.7721ZM47.6389 90.7721V93.7782H50.6449V90.7721H47.6389ZM48.8889 84.4471L48.6583 81.4499L48.5944 81.4548L48.5307 81.4624L48.8889 84.4471ZM50.1639 84.3971L50.2817 81.3933L50.2228 81.391H50.1639V84.3971ZM51.4389 84.4471L51.797 81.4624L51.6772 81.4481L51.5567 81.4433L51.4389 84.4471ZM49.6828 101.472C49.6828 100.691 49.9949 100.054 50.3575 99.6265C50.6804 99.2462 51.0182 99.0544 51.1761 98.9747C51.4757 98.8234 51.671 98.8076 51.5587 98.8265C51.3934 98.8543 50.9662 98.891 50.1639 98.891V104.903C51.0448 104.903 51.8802 104.869 52.5566 104.755C52.8651 104.703 53.376 104.599 53.886 104.341C54.2882 104.138 55.6949 103.302 55.6949 101.472H49.6828ZM50.1639 98.891C49.3615 98.891 48.9344 98.8543 48.7691 98.8265C48.6568 98.8076 48.852 98.8234 49.1517 98.9747C49.3095 99.0544 49.6474 99.2462 49.9702 99.6265C50.3328 100.054 50.6449 100.691 50.6449 101.472H44.6328C44.6328 103.302 46.0396 104.138 46.4417 104.341C46.9518 104.599 47.4626 104.703 47.7712 104.755C48.4475 104.869 49.2829 104.903 50.1639 104.903V98.891ZM50.6449 101.472V95.7221H44.6328V101.472H50.6449ZM47.6389 92.716H44.1389V98.7282H47.6389V92.716ZM41.1328 95.7221V101.472H47.1449V95.7221H41.1328ZM41.1328 101.472C41.1328 100.691 41.4449 100.054 41.8075 99.6265C42.1304 99.2462 42.4682 99.0544 42.6261 98.9747C42.9257 98.8234 43.121 98.8076 43.0087 98.8265C42.8434 98.8543 42.4162 98.891 41.6139 98.891V104.903C42.4948 104.903 43.3302 104.869 44.0066 104.755C44.3151 104.703 44.826 104.599 45.336 104.341C45.7382 104.138 47.1449 103.302 47.1449 101.472H41.1328ZM41.6139 98.891C40.8115 98.891 40.3844 98.8543 40.2191 98.8265C40.1068 98.8076 40.302 98.8234 40.6017 98.9747C40.7595 99.0544 41.0974 99.2462 41.4202 99.6265C41.7828 100.054 42.0949 100.691 42.0949 101.472H36.0828C36.0828 103.302 37.4896 104.138 37.8917 104.341C38.4018 104.599 38.9126 104.703 39.2212 104.755C39.8975 104.869 40.7329 104.903 41.6139 104.903V98.891ZM42.0949 101.472V84.8971H36.0828V101.472H42.0949ZM42.0949 84.8971C42.0949 85.4995 41.9015 86.0463 41.6059 86.4764C41.3338 86.8724 41.0245 87.1014 40.8376 87.218C40.4993 87.429 40.2527 87.463 40.3321 87.4465C40.4415 87.4237 40.8219 87.3782 41.6139 87.3782V81.366C40.7225 81.366 39.8404 81.408 39.1082 81.5602C38.7667 81.6312 38.2044 81.7746 37.6557 82.1169C37.0729 82.4804 36.0828 83.3729 36.0828 84.8971H42.0949ZM41.6139 87.3782C42.4058 87.3782 42.7862 87.4237 42.8957 87.4465C42.975 87.463 42.7284 87.429 42.3901 87.218C42.2032 87.1014 41.8939 86.8724 41.6218 86.4764C41.3263 86.0463 41.1328 85.4995 41.1328 84.8971H47.1449C47.1449 83.3729 46.1548 82.4804 45.572 82.1169C45.0233 81.7746 44.461 81.6312 44.1196 81.5602C43.3873 81.408 42.5052 81.366 41.6139 81.366V87.3782ZM41.1328 84.8971V90.7721H47.1449V84.8971H41.1328ZM44.1389 93.7782H47.6389V87.766H44.1389V93.7782ZM50.6449 90.7721V84.9471H44.6328V90.7721H50.6449ZM50.6449 84.9471C50.6449 85.8939 50.1875 86.58 49.7988 86.9531C49.4613 87.2771 49.1452 87.4072 49.0678 87.4382C48.9062 87.5028 48.9066 87.4726 49.247 87.4317L48.5307 81.4624C48.0378 81.5216 47.4132 81.6247 46.8349 81.856C46.5492 81.9703 46.0768 82.1921 45.6352 82.6161C45.1423 83.0892 44.6328 83.8836 44.6328 84.9471H50.6449ZM49.1194 87.4443C49.4793 87.4166 49.8274 87.4032 50.1639 87.4032V81.391C49.6671 81.391 49.1651 81.4109 48.6583 81.4499L49.1194 87.4443ZM50.0461 87.4009L51.3211 87.4509L51.5567 81.4433L50.2817 81.3933L50.0461 87.4009ZM51.0807 87.4317C51.4211 87.4726 51.4215 87.5028 51.2599 87.4382C51.1825 87.4072 50.8664 87.2771 50.5289 86.9531C50.1402 86.58 49.6828 85.8939 49.6828 84.9471H55.6949C55.6949 83.8836 55.1854 83.0892 54.6925 82.6161C54.2509 82.1921 53.7785 81.9703 53.4928 81.856C52.9146 81.6247 52.29 81.5216 51.797 81.4624L51.0807 87.4317ZM49.6828 84.9471V101.472H55.6949V84.9471H49.6828ZM57.0777 97.5971V100.603H60.0838V97.5971H57.0777ZM57.0777 88.6971H60.0838V85.691H57.0777V88.6971ZM54.7027 87.6221L51.7269 88.0472L51.731 88.0762L51.7357 88.1051L54.7027 87.6221ZM54.7027 85.4721L51.7357 84.9891L51.731 85.018L51.7269 85.047L54.7027 85.4721ZM64.2777 85.4721L61.3005 85.8875L61.3108 85.9613L61.3248 86.0346L64.2777 85.4721ZM64.2777 87.6221L61.3248 87.0596L61.3108 87.1328L61.3005 87.2067L64.2777 87.6221ZM62.0277 88.6971V85.691H59.0217V88.6971H62.0277ZM62.0277 97.5971H59.0217V100.603H62.0277V97.5971ZM64.3777 98.6721L61.4107 99.1551L61.4172 99.1949L61.4248 99.2346L64.3777 98.6721ZM64.3777 100.822L61.4248 100.26L61.4172 100.299L61.4107 100.339L64.3777 100.822ZM54.7777 100.822L57.755 100.407L57.7447 100.333L57.7307 100.26L54.7777 100.822ZM54.7777 98.6721L57.7307 99.2346L57.7447 99.1613L57.755 99.0875L54.7777 98.6721ZM60.0838 97.5971V88.6971H54.0717V97.5971H60.0838ZM57.0777 85.691H55.3027V91.7032H57.0777V85.691ZM55.3027 85.691C55.9178 85.691 56.4727 85.9012 56.8962 86.2151C57.2788 86.4988 57.4787 86.8084 57.5651 86.9633C57.7186 87.2382 57.7082 87.3756 57.6697 87.1391L51.7357 88.1051C51.8139 88.5853 51.9619 89.2601 52.3153 89.8934C52.6821 90.5506 53.62 91.7032 55.3027 91.7032V85.691ZM57.6786 87.197C57.6494 86.9929 57.6338 86.7768 57.6338 86.5471H51.6217C51.6217 87.0508 51.656 87.5513 51.7269 88.0472L57.6786 87.197ZM57.6338 86.5471C57.6338 86.3174 57.6494 86.1013 57.6786 85.8972L51.7269 85.047C51.656 85.5429 51.6217 86.0434 51.6217 86.5471H57.6338ZM57.6697 85.9551C57.7082 85.7186 57.7186 85.8559 57.5651 86.1309C57.4787 86.2858 57.2788 86.5954 56.8962 86.8791C56.4727 87.193 55.9178 87.4032 55.3027 87.4032V81.391C53.62 81.391 52.6821 82.5436 52.3153 83.2008C51.9619 83.8341 51.8139 84.5089 51.7357 84.9891L57.6697 85.9551ZM55.3027 87.4032H63.7027V81.391H55.3027V87.4032ZM63.7027 87.4032C63.0862 87.4032 62.5219 87.1917 62.0877 86.8641C61.6962 86.5687 61.495 86.2458 61.4083 86.0837C61.2546 85.7964 61.2674 85.6503 61.3005 85.8875L67.255 85.0567C67.1881 84.5772 67.055 83.8936 66.7097 83.248C66.3459 82.5679 65.4057 81.391 63.7027 81.391V87.4032ZM61.3248 86.0346C61.3551 86.1938 61.3717 86.3637 61.3717 86.5471H67.3838C67.3838 85.9972 67.3337 85.4503 67.2307 84.9096L61.3248 86.0346ZM61.3717 86.5471C61.3717 86.7305 61.3551 86.9003 61.3248 87.0596L67.2307 88.1846C67.3337 87.6438 67.3838 87.097 67.3838 86.5471H61.3717ZM61.3005 87.2067C61.2674 87.4439 61.2546 87.2978 61.4083 87.0105C61.495 86.8484 61.6962 86.5254 62.0877 86.2301C62.5219 85.9025 63.0862 85.691 63.7027 85.691V91.7032C65.4057 91.7032 66.3459 90.5263 66.7097 89.8462C67.055 89.2006 67.1881 88.517 67.255 88.0375L61.3005 87.2067ZM63.7027 85.691H62.0277V91.7032H63.7027V85.691ZM59.0217 88.6971V97.5971H65.0338V88.6971H59.0217ZM62.0277 100.603H63.7777V94.591H62.0277V100.603ZM63.7777 100.603C63.1627 100.603 62.6078 100.393 62.1843 100.079C61.8017 99.7954 61.6018 99.4858 61.5153 99.3309C61.3619 99.056 61.3722 98.9186 61.4107 99.1551L67.3447 98.1891C67.2666 97.7089 67.1186 97.0341 66.7651 96.4008C66.3983 95.7436 65.4604 94.591 63.7777 94.591V100.603ZM61.4248 99.2346C61.4551 99.3938 61.4717 99.5637 61.4717 99.7471H67.4838C67.4838 99.1972 67.4337 98.6503 67.3307 98.1096L61.4248 99.2346ZM61.4717 99.7471C61.4717 99.9305 61.4551 100.1 61.4248 100.26L67.3307 101.385C67.4337 100.844 67.4838 100.297 67.4838 99.7471H61.4717ZM61.4107 100.339C61.3722 100.576 61.3619 100.438 61.5153 100.163C61.6018 100.008 61.8017 99.6988 62.1843 99.4151C62.6078 99.1012 63.1627 98.891 63.7777 98.891V104.903C65.4604 104.903 66.3983 103.751 66.7651 103.093C67.1186 102.46 67.2666 101.785 67.3447 101.305L61.4107 100.339ZM63.7777 98.891H55.3527V104.903H63.7777V98.891ZM55.3527 98.891C55.9693 98.891 56.5335 99.1025 56.9678 99.4301C57.3593 99.7254 57.5605 100.048 57.6472 100.211C57.8008 100.498 57.7881 100.644 57.755 100.407L51.8005 101.238C51.8674 101.717 52.0005 102.401 52.3458 103.046C52.7096 103.726 53.6497 104.903 55.3527 104.903V98.891ZM57.7307 100.26C57.7004 100.1 57.6838 99.9305 57.6838 99.7471H51.6717C51.6717 100.297 51.7218 100.844 51.8248 101.385L57.7307 100.26ZM57.6838 99.7471C57.6838 99.5637 57.7004 99.3938 57.7307 99.2346L51.8248 98.1096C51.7218 98.6503 51.6717 99.1972 51.6717 99.7471H57.6838ZM57.755 99.0875C57.7881 98.8503 57.8008 98.9964 57.6472 99.2837C57.5605 99.4458 57.3593 99.7687 56.9678 100.064C56.5335 100.392 55.9693 100.603 55.3527 100.603V94.591C53.6497 94.591 52.7096 95.7679 52.3458 96.448C52.0005 97.0936 51.8674 97.7772 51.8005 98.2567L57.755 99.0875ZM55.3527 100.603H57.0777V94.591H55.3527V100.603ZM67.0455 95.7971L68.9082 93.4377L67.0749 91.9903L65.2195 93.4092L67.0455 95.7971ZM68.6705 96.8221L67.1914 99.4391L67.2033 99.4458L67.2154 99.4525L68.6705 96.8221ZM71.6705 95.9971L69.5449 98.1227L69.5911 98.1689L69.6392 98.213L71.6705 95.9971ZM70.5705 95.3221L69.2946 98.044H69.2946L70.5705 95.3221ZM69.3705 94.7471L67.8967 97.3671L67.9606 97.403L68.0262 97.4358L69.3705 94.7471ZM68.2955 94.0471L66.4627 96.4298L66.5133 96.4687L66.5655 96.5055L68.2955 94.0471ZM67.2955 93.0221L69.7967 91.3546L69.7768 91.3247L69.7561 91.2953L67.2955 93.0221ZM67.9205 85.6971L69.9595 87.906L69.9609 87.9047L67.9205 85.6971ZM75.5455 84.5721L74.7828 87.4798L74.8052 87.4857L74.8277 87.4912L75.5455 84.5721ZM77.1205 85.5721H80.1266V85.452L80.117 85.3324L77.1205 85.5721ZM76.5705 87.9471L79.3469 89.0996L79.3507 89.0904L79.3544 89.0813L76.5705 87.9471ZM75.7955 89.4221L74.4179 92.0939L75.9906 92.9049L77.463 91.9233L75.7955 89.4221ZM72.5955 90.4721L73.9399 87.7834L73.8956 87.7612L73.8505 87.7406L72.5955 90.4721ZM73.1705 90.7471L71.8993 93.4711L71.8993 93.4711L73.1705 90.7471ZM74.0205 91.1721L72.6204 93.8322L72.7024 93.8754L72.7869 93.9134L74.0205 91.1721ZM75.0705 91.7721L73.3771 94.2558L73.4412 94.2995L73.5075 94.3399L75.0705 91.7721ZM76.2955 92.7221L78.3583 90.5355L78.3465 90.5243L78.3345 90.5132L76.2955 92.7221ZM76.1455 100.397L78.4161 102.367L76.1455 100.397ZM71.5955 102.147V105.153H71.6199L71.6444 105.153L71.5955 102.147ZM68.8705 101.897L68.2574 104.84L68.2694 104.842L68.8705 101.897ZM66.7705 100.922L68.6563 98.5811H68.6563L66.7705 100.922ZM66.2455 97.1471L69.0602 98.2026L69.0644 98.1913L69.0686 98.1799L66.2455 97.1471ZM65.1828 98.1565C65.6941 98.5601 66.4092 98.997 67.1914 99.4391L70.1497 94.2051C69.3985 93.7805 69.0303 93.5341 68.9082 93.4377L65.1828 98.1565ZM67.2154 99.4525C68.3228 100.065 69.5638 100.478 70.8955 100.478V94.466C70.8272 94.466 70.5849 94.4458 70.1256 94.1917L67.2154 99.4525ZM70.8955 100.478C71.5539 100.478 72.5991 100.366 73.5319 99.6506C74.6154 98.8191 74.9766 97.63 74.9766 96.6471H68.9644C68.9644 96.4621 68.9945 96.1596 69.1461 95.8105C69.3055 95.4435 69.5583 95.1216 69.8716 94.8811C70.169 94.6529 70.449 94.5522 70.6208 94.5082C70.7886 94.4653 70.8922 94.466 70.8955 94.466V100.478ZM74.9766 96.6471C74.9766 95.4773 74.4637 94.4796 73.7018 93.7812L69.6392 98.213C69.4855 98.0721 69.3045 97.8566 69.1661 97.5568C69.0252 97.2514 68.9644 96.9359 68.9644 96.6471H74.9766ZM73.7961 93.8715C73.2038 93.2792 72.4293 92.8735 71.8464 92.6002L69.2946 98.044C69.4939 98.1373 69.6132 98.2036 69.6733 98.2405C69.7016 98.2579 69.7032 98.2605 69.6856 98.2473C69.6697 98.2353 69.6168 98.1946 69.5449 98.1227L73.7961 93.8715ZM71.8464 92.6002C71.3185 92.3528 70.9464 92.1742 70.7149 92.0584L68.0262 97.4358C68.3279 97.5867 68.7559 97.7914 69.2946 98.044L71.8464 92.6002ZM70.8443 92.1271C70.7088 92.0509 70.4468 91.8852 70.0255 91.5887L66.5655 96.5055C67.0442 96.8423 67.4989 97.1433 67.8967 97.3671L70.8443 92.1271ZM70.1283 91.6644C69.8816 91.4746 69.8025 91.3634 69.7967 91.3546L64.7943 94.6896C65.2551 95.3808 65.8427 95.9529 66.4627 96.4298L70.1283 91.6644ZM69.7561 91.2953C69.5281 90.9703 69.3016 90.4094 69.3016 89.3971H63.2894C63.2894 91.3181 63.7296 93.1739 64.8349 94.7489L69.7561 91.2953ZM69.3016 89.3971C69.3016 88.7744 69.489 88.3403 69.9595 87.906L65.8816 83.4882C64.1854 85.0539 63.2894 87.0865 63.2894 89.3971H69.3016ZM69.9609 87.9047C70.4078 87.4916 71.0659 87.1782 72.2205 87.1782V81.166C69.8418 81.166 67.6332 81.8693 65.8802 83.4895L69.9609 87.9047ZM72.2205 87.1782C73.1987 87.1782 74.0474 87.2869 74.7828 87.4798L76.3082 81.6644C75.0103 81.324 73.6423 81.166 72.2205 81.166V87.1782ZM74.8277 87.4912C75.2048 87.5839 75.2278 87.6346 75.0905 87.5474C74.96 87.4645 74.214 86.9365 74.124 85.8118L80.117 85.3324C79.9937 83.791 78.9685 82.888 78.313 82.4718C77.6507 82.0513 76.9029 81.8103 76.2633 81.653L74.8277 87.4912ZM74.1144 85.5721C74.1144 85.5722 74.1144 85.5723 74.1144 85.5724C74.1144 85.5725 74.1144 85.5726 74.1144 85.5727C74.1144 85.5728 74.1144 85.5729 74.1144 85.573C74.1144 85.5731 74.1144 85.5732 74.1144 85.5733C74.1144 85.5734 74.1144 85.5735 74.1144 85.5736C74.1144 85.5737 74.1144 85.5738 74.1144 85.5739C74.1144 85.5739 74.1144 85.574 74.1144 85.5741C74.1144 85.5742 74.1144 85.5743 74.1144 85.5744C74.1144 85.5745 74.1144 85.5746 74.1144 85.5747C74.1144 85.5748 74.1144 85.5749 74.1144 85.575C74.1144 85.5751 74.1144 85.5752 74.1144 85.5753C74.1144 85.5754 74.1144 85.5755 74.1144 85.5756C74.1144 85.5757 74.1144 85.5758 74.1144 85.5759C74.1144 85.576 74.1144 85.5761 74.1144 85.5762C74.1144 85.5763 74.1144 85.5764 74.1144 85.5765C74.1144 85.5766 74.1144 85.5767 74.1144 85.5768C74.1144 85.5769 74.1144 85.577 74.1144 85.5771C74.1144 85.5772 74.1144 85.5773 74.1144 85.5774C74.1144 85.5775 74.1144 85.5776 74.1144 85.5777C74.1144 85.5778 74.1144 85.5779 74.1144 85.578C74.1144 85.5781 74.1144 85.5781 74.1144 85.5782C74.1144 85.5783 74.1144 85.5784 74.1144 85.5785C74.1144 85.5786 74.1144 85.5787 74.1144 85.5788C74.1144 85.5789 74.1144 85.579 74.1144 85.5791C74.1144 85.5792 74.1144 85.5793 74.1144 85.5794C74.1144 85.5795 74.1144 85.5796 74.1144 85.5797C74.1144 85.5798 74.1144 85.5799 74.1144 85.58C74.1144 85.5801 74.1144 85.5802 74.1144 85.5803C74.1144 85.5804 74.1144 85.5805 74.1144 85.5806C74.1144 85.5807 74.1144 85.5808 74.1144 85.5809C74.1144 85.581 74.1144 85.5811 74.1144 85.5812C74.1144 85.5813 74.1144 85.5814 74.1144 85.5815C74.1144 85.5816 74.1144 85.5817 74.1144 85.5818C74.1144 85.5819 74.1144 85.582 74.1144 85.5821C74.1144 85.5822 74.1144 85.5822 74.1144 85.5823C74.1144 85.5824 74.1144 85.5825 74.1144 85.5826C74.1144 85.5827 74.1144 85.5828 74.1144 85.5829C74.1144 85.583 74.1144 85.5831 74.1144 85.5832C74.1144 85.5833 74.1144 85.5834 74.1144 85.5835C74.1144 85.5836 74.1144 85.5837 74.1144 85.5838C74.1144 85.5839 74.1144 85.584 74.1144 85.5841C74.1144 85.5842 74.1144 85.5843 74.1144 85.5844C74.1144 85.5845 74.1144 85.5846 74.1144 85.5847C74.1144 85.5848 74.1144 85.5849 74.1144 85.585C74.1144 85.5851 74.1144 85.5852 74.1144 85.5853C74.1144 85.5854 74.1144 85.5855 74.1144 85.5856C74.1144 85.5857 74.1144 85.5858 74.1144 85.5859C74.1144 85.586 74.1144 85.5861 74.1144 85.5862C74.1144 85.5863 74.1144 85.5864 74.1144 85.5864C74.1144 85.5865 74.1144 85.5866 74.1144 85.5867C74.1144 85.5868 74.1144 85.5869 74.1144 85.587C74.1144 85.5871 74.1144 85.5872 74.1144 85.5873C74.1144 85.5874 74.1144 85.5875 74.1144 85.5876C74.1144 85.5877 74.1144 85.5878 74.1144 85.5879C74.1144 85.588 74.1144 85.5881 74.1144 85.5882C74.1144 85.5883 74.1144 85.5884 74.1144 85.5885C74.1144 85.5886 74.1144 85.5887 74.1144 85.5888C74.1144 85.5889 74.1144 85.589 74.1144 85.5891C74.1144 85.5892 74.1144 85.5893 74.1144 85.5894C74.1144 85.5895 74.1144 85.5896 74.1144 85.5897C74.1144 85.5898 74.1144 85.5899 74.1144 85.59C74.1144 85.5901 74.1144 85.5902 74.1144 85.5903C74.1144 85.5904 74.1144 85.5905 74.1144 85.5906C74.1144 85.5906 74.1144 85.5907 74.1144 85.5908C74.1144 85.5909 74.1144 85.591 74.1144 85.5911C74.1144 85.5912 74.1144 85.5913 74.1144 85.5914C74.1144 85.5915 74.1144 85.5916 74.1144 85.5917C74.1144 85.5918 74.1144 85.5919 74.1144 85.592C74.1144 85.5921 74.1144 85.5922 74.1144 85.5923C74.1144 85.5924 74.1144 85.5925 74.1144 85.5926C74.1144 85.5927 74.1144 85.5928 74.1144 85.5929C74.1144 85.593 74.1144 85.5931 74.1144 85.5932C74.1144 85.5933 74.1144 85.5934 74.1144 85.5935C74.1144 85.5936 74.1144 85.5937 74.1144 85.5938C74.1144 85.5939 74.1144 85.594 74.1144 85.5941C74.1144 85.5942 74.1144 85.5943 74.1144 85.5944C74.1144 85.5945 74.1144 85.5946 74.1144 85.5947C74.1144 85.5947 74.1144 85.5948 74.1144 85.5949C74.1144 85.595 74.1144 85.5951 74.1144 85.5952C74.1144 85.5953 74.1144 85.5954 74.1144 85.5955C74.1144 85.5956 74.1144 85.5957 74.1144 85.5958C74.1144 85.5959 74.1144 85.596 74.1144 85.5961C74.1144 85.5962 74.1144 85.5963 74.1144 85.5964C74.1144 85.5965 74.1144 85.5966 74.1144 85.5967C74.1144 85.5968 74.1144 85.5969 74.1144 85.597C74.1144 85.5971 74.1144 85.5972 74.1144 85.5973C74.1144 85.5974 74.1144 85.5975 74.1144 85.5976C74.1144 85.5977 74.1144 85.5978 74.1144 85.5979C74.1144 85.598 74.1144 85.5981 74.1144 85.5982C74.1144 85.5983 74.1144 85.5984 74.1144 85.5985C74.1144 85.5986 74.1144 85.5987 74.1144 85.5988C74.1144 85.5989 74.1144 85.5989 74.1144 85.599C74.1144 85.5991 74.1144 85.5992 74.1144 85.5993C74.1144 85.5994 74.1144 85.5995 74.1144 85.5996C74.1144 85.5997 74.1144 85.5998 74.1144 85.5999C74.1144 85.6 74.1144 85.6001 74.1144 85.6002C74.1144 85.6003 74.1144 85.6004 74.1144 85.6005C74.1144 85.6006 74.1144 85.6007 74.1144 85.6008C74.1144 85.6009 74.1144 85.601 74.1144 85.6011C74.1144 85.6012 74.1144 85.6013 74.1144 85.6014C74.1144 85.6015 74.1144 85.6016 74.1144 85.6017C74.1144 85.6018 74.1144 85.6019 74.1144 85.602C74.1144 85.6021 74.1144 85.6022 74.1144 85.6023C74.1144 85.6024 74.1144 85.6025 74.1144 85.6026C74.1144 85.6027 74.1144 85.6028 74.1144 85.6029C74.1144 85.603 74.1144 85.6031 74.1144 85.6031C74.1144 85.6032 74.1144 85.6033 74.1144 85.6034C74.1144 85.6035 74.1144 85.6036 74.1144 85.6037C74.1144 85.6038 74.1144 85.6039 74.1144 85.604C74.1144 85.6041 74.1144 85.6042 74.1144 85.6043C74.1144 85.6044 74.1144 85.6045 74.1144 85.6046C74.1144 85.6047 74.1144 85.6048 74.1144 85.6049C74.1144 85.605 74.1144 85.6051 74.1144 85.6052C74.1144 85.6053 74.1144 85.6054 74.1144 85.6055C74.1144 85.6056 74.1144 85.6057 74.1144 85.6058C74.1144 85.6059 74.1144 85.606 74.1144 85.6061C74.1144 85.6062 74.1144 85.6063 74.1144 85.6064C74.1144 85.6065 74.1144 85.6066 74.1144 85.6067C74.1144 85.6068 74.1144 85.6069 74.1144 85.607C74.1144 85.6071 74.1144 85.6072 74.1144 85.6072C74.1144 85.6073 74.1144 85.6074 74.1144 85.6075C74.1144 85.6076 74.1144 85.6077 74.1144 85.6078C74.1144 85.6079 74.1144 85.608 74.1144 85.6081C74.1144 85.6082 74.1144 85.6083 74.1144 85.6084C74.1144 85.6085 74.1144 85.6086 74.1144 85.6087C74.1144 85.6088 74.1144 85.6089 74.1144 85.609C74.1144 85.6091 74.1144 85.6092 74.1144 85.6093C74.1144 85.6094 74.1144 85.6095 74.1144 85.6096C74.1144 85.6097 74.1144 85.6098 74.1144 85.6099C74.1144 85.61 74.1144 85.6101 74.1144 85.6102C74.1144 85.6103 74.1144 85.6104 74.1144 85.6105C74.1144 85.6106 74.1144 85.6107 74.1144 85.6108C74.1144 85.6109 74.1144 85.611 74.1144 85.6111C74.1144 85.6112 74.1144 85.6113 74.1144 85.6114C74.1144 85.6114 74.1144 85.6115 74.1144 85.6116C74.1144 85.6117 74.1144 85.6118 74.1144 85.6119C74.1144 85.612 74.1144 85.6121 74.1144 85.6122C74.1144 85.6123 74.1144 85.6124 74.1144 85.6125C74.1144 85.6126 74.1144 85.6127 74.1144 85.6128C74.1144 85.6129 74.1144 85.613 74.1144 85.6131C74.1144 85.6132 74.1144 85.6133 74.1144 85.6134C74.1144 85.6135 74.1144 85.6136 74.1144 85.6137C74.1144 85.6138 74.1144 85.6139 74.1144 85.614C74.1144 85.6141 74.1144 85.6142 74.1144 85.6143C74.1144 85.6144 74.1144 85.6145 74.1144 85.6146C74.1144 85.6147 74.1144 85.6148 74.1144 85.6149C74.1144 85.615 74.1144 85.6151 74.1144 85.6152C74.1144 85.6153 74.1144 85.6154 74.1144 85.6155C74.1144 85.6156 74.1144 85.6156 74.1144 85.6157C74.1144 85.6158 74.1144 85.6159 74.1144 85.616C74.1144 85.6161 74.1144 85.6162 74.1144 85.6163C74.1144 85.6164 74.1144 85.6165 74.1144 85.6166C74.1144 85.6167 74.1144 85.6168 74.1144 85.6169C74.1144 85.617 74.1144 85.6171 74.1144 85.6172C74.1144 85.6173 74.1144 85.6174 74.1144 85.6175C74.1144 85.6176 74.1144 85.6177 74.1144 85.6178C74.1144 85.6179 74.1144 85.618 74.1144 85.6181C74.1144 85.6182 74.1144 85.6183 74.1144 85.6184C74.1144 85.6185 74.1144 85.6186 74.1144 85.6187C74.1144 85.6188 74.1144 85.6189 74.1144 85.619C74.1144 85.6191 74.1144 85.6192 74.1144 85.6193C74.1144 85.6194 74.1144 85.6195 74.1144 85.6196C74.1144 85.6197 74.1144 85.6198 74.1144 85.6198C74.1144 85.6199 74.1144 85.62 74.1144 85.6201C74.1144 85.6202 74.1144 85.6203 74.1144 85.6204C74.1144 85.6205 74.1144 85.6206 74.1144 85.6207C74.1144 85.6208 74.1144 85.6209 74.1144 85.621C74.1144 85.6211 74.1144 85.6212 74.1144 85.6213C74.1144 85.6214 74.1144 85.6215 74.1144 85.6216C74.1144 85.6217 74.1144 85.6218 74.1144 85.6219C74.1144 85.622 74.1144 85.6221 74.1144 85.6222C74.1144 85.6223 74.1144 85.6224 74.1144 85.6225C74.1144 85.6226 74.1144 85.6227 74.1144 85.6228C74.1144 85.6229 74.1144 85.623 74.1144 85.6231C74.1144 85.6232 74.1144 85.6233 74.1144 85.6234C74.1144 85.6235 74.1144 85.6236 74.1144 85.6237C74.1144 85.6238 74.1144 85.6239 74.1144 85.6239C74.1144 85.624 74.1144 85.6241 74.1144 85.6242C74.1144 85.6243 74.1144 85.6244 74.1144 85.6245C74.1144 85.6246 74.1144 85.6247 74.1144 85.6248C74.1144 85.6249 74.1144 85.625 74.1144 85.6251C74.1144 85.6252 74.1144 85.6253 74.1144 85.6254C74.1144 85.6255 74.1144 85.6256 74.1144 85.6257C74.1144 85.6258 74.1144 85.6259 74.1144 85.626C74.1144 85.6261 74.1144 85.6262 74.1144 85.6263C74.1144 85.6264 74.1144 85.6265 74.1144 85.6266C74.1144 85.6267 74.1144 85.6268 74.1144 85.6269C74.1144 85.627 74.1144 85.6271 74.1144 85.6272C74.1144 85.6273 74.1144 85.6274 74.1144 85.6275C74.1144 85.6276 74.1144 85.6277 74.1144 85.6278C74.1144 85.6279 74.1144 85.628 74.1144 85.6281C74.1144 85.6281 74.1144 85.6282 74.1144 85.6283C74.1144 85.6284 74.1144 85.6285 74.1144 85.6286C74.1144 85.6287 74.1144 85.6288 74.1144 85.6289C74.1144 85.629 74.1144 85.6291 74.1144 85.6292C74.1144 85.6293 74.1144 85.6294 74.1144 85.6295C74.1144 85.6296 74.1144 85.6297 74.1144 85.6298C74.1144 85.6299 74.1144 85.63 74.1144 85.6301C74.1144 85.6302 74.1144 85.6303 74.1144 85.6304C74.1144 85.6305 74.1144 85.6306 74.1144 85.6307C74.1144 85.6308 74.1144 85.6309 74.1144 85.631C74.1144 85.6311 74.1144 85.6312 74.1144 85.6313C74.1144 85.6314 74.1144 85.6315 74.1144 85.6316C74.1144 85.6317 74.1144 85.6318 74.1144 85.6319C74.1144 85.632 74.1144 85.6321 74.1144 85.6322C74.1144 85.6322 74.1144 85.6323 74.1144 85.6324C74.1144 85.6325 74.1144 85.6326 74.1144 85.6327C74.1144 85.6328 74.1144 85.6329 74.1144 85.633C74.1144 85.6331 74.1144 85.6332 74.1144 85.6333C74.1144 85.6334 74.1144 85.6335 74.1144 85.6336C74.1144 85.6337 74.1144 85.6338 74.1144 85.6339C74.1144 85.634 74.1144 85.6341 74.1144 85.6342C74.1144 85.6343 74.1144 85.6344 74.1144 85.6345C74.1144 85.6346 74.1144 85.6347 74.1144 85.6348C74.1144 85.6349 74.1144 85.635 74.1144 85.6351C74.1144 85.6352 74.1144 85.6353 74.1144 85.6354C74.1144 85.6355 74.1144 85.6356 74.1144 85.6357C74.1144 85.6358 74.1144 85.6359 74.1144 85.636C74.1144 85.6361 74.1144 85.6362 74.1144 85.6363C74.1144 85.6364 74.1144 85.6364 74.1144 85.6365C74.1144 85.6366 74.1144 85.6367 74.1144 85.6368C74.1144 85.6369 74.1144 85.637 74.1144 85.6371C74.1144 85.6372 74.1144 85.6373 74.1144 85.6374C74.1144 85.6375 74.1144 85.6376 74.1144 85.6377C74.1144 85.6378 74.1144 85.6379 74.1144 85.638C74.1144 85.6381 74.1144 85.6382 74.1144 85.6383C74.1144 85.6384 74.1144 85.6385 74.1144 85.6386C74.1144 85.6387 74.1144 85.6388 74.1144 85.6389C74.1144 85.639 74.1144 85.6391 74.1144 85.6392C74.1144 85.6393 74.1144 85.6394 74.1144 85.6395C74.1144 85.6396 74.1144 85.6397 74.1144 85.6398C74.1144 85.6399 74.1144 85.64 74.1144 85.6401C74.1144 85.6402 74.1144 85.6403 74.1144 85.6404C74.1144 85.6405 74.1144 85.6406 74.1144 85.6406C74.1144 85.6407 74.1144 85.6408 74.1144 85.6409C74.1144 85.641 74.1144 85.6411 74.1144 85.6412C74.1144 85.6413 74.1144 85.6414 74.1144 85.6415C74.1144 85.6416 74.1144 85.6417 74.1144 85.6418C74.1144 85.6419 74.1144 85.642 74.1144 85.6421C74.1144 85.6422 74.1144 85.6423 74.1144 85.6424C74.1144 85.6425 74.1144 85.6426 74.1144 85.6427C74.1144 85.6428 74.1144 85.6429 74.1144 85.643C74.1144 85.6431 74.1144 85.6432 74.1144 85.6433C74.1144 85.6434 74.1144 85.6435 74.1144 85.6436C74.1144 85.6437 74.1144 85.6438 74.1144 85.6439C74.1144 85.644 74.1144 85.6441 74.1144 85.6442C74.1144 85.6443 74.1144 85.6444 74.1144 85.6445C74.1144 85.6446 74.1144 85.6447 74.1144 85.6448C74.1144 85.6448 74.1144 85.6449 74.1144 85.645C74.1144 85.6451 74.1144 85.6452 74.1144 85.6453C74.1144 85.6454 74.1144 85.6455 74.1144 85.6456C74.1144 85.6457 74.1144 85.6458 74.1144 85.6459C74.1144 85.646 74.1144 85.6461 74.1144 85.6462C74.1144 85.6463 74.1144 85.6464 74.1144 85.6465C74.1144 85.6466 74.1144 85.6467 74.1144 85.6468C74.1144 85.6469 74.1144 85.647 74.1144 85.6471C74.1144 85.6472 74.1144 85.6473 74.1144 85.6474C74.1144 85.6475 74.1144 85.6476 74.1144 85.6477C74.1144 85.6478 74.1144 85.6479 74.1144 85.648C74.1144 85.6481 74.1144 85.6482 74.1144 85.6483C74.1144 85.6484 74.1144 85.6485 74.1144 85.6486C74.1144 85.6487 74.1144 85.6488 74.1144 85.6489C74.1144 85.6489 74.1144 85.649 74.1144 85.6491C74.1144 85.6492 74.1144 85.6493 74.1144 85.6494C74.1144 85.6495 74.1144 85.6496 74.1144 85.6497C74.1144 85.6498 74.1144 85.6499 74.1144 85.65C74.1144 85.6501 74.1144 85.6502 74.1144 85.6503C74.1144 85.6504 74.1144 85.6505 74.1144 85.6506C74.1144 85.6507 74.1144 85.6508 74.1144 85.6509C74.1144 85.651 74.1144 85.6511 74.1144 85.6512C74.1144 85.6513 74.1144 85.6514 74.1144 85.6515C74.1144 85.6516 74.1144 85.6517 74.1144 85.6518C74.1144 85.6519 74.1144 85.652 74.1144 85.6521C74.1144 85.6522 74.1144 85.6523 74.1144 85.6524C74.1144 85.6525 74.1144 85.6526 74.1144 85.6527C74.1144 85.6528 74.1144 85.6529 74.1144 85.653C74.1144 85.6531 74.1144 85.6531 74.1144 85.6532C74.1144 85.6533 74.1144 85.6534 74.1144 85.6535C74.1144 85.6536 74.1144 85.6537 74.1144 85.6538C74.1144 85.6539 74.1144 85.654 74.1144 85.6541C74.1144 85.6542 74.1144 85.6543 74.1144 85.6544C74.1144 85.6545 74.1144 85.6546 74.1144 85.6547C74.1144 85.6548 74.1144 85.6549 74.1144 85.655C74.1144 85.6551 74.1144 85.6552 74.1144 85.6553C74.1144 85.6554 74.1144 85.6555 74.1144 85.6556C74.1144 85.6557 74.1144 85.6558 74.1144 85.6559C74.1144 85.656 74.1144 85.6561 74.1144 85.6562C74.1144 85.6563 74.1144 85.6564 74.1144 85.6565C74.1144 85.6566 74.1144 85.6567 74.1144 85.6568C74.1144 85.6569 74.1144 85.657 74.1144 85.6571C74.1144 85.6572 74.1144 85.6572 74.1144 85.6573C74.1144 85.6574 74.1144 85.6575 74.1144 85.6576C74.1144 85.6577 74.1144 85.6578 74.1144 85.6579C74.1144 85.658 74.1144 85.6581 74.1144 85.6582C74.1144 85.6583 74.1144 85.6584 74.1144 85.6585C74.1144 85.6586 74.1144 85.6587 74.1144 85.6588C74.1144 85.6589 74.1144 85.659 74.1144 85.6591C74.1144 85.6592 74.1144 85.6593 74.1144 85.6594C74.1144 85.6595 74.1144 85.6596 74.1144 85.6597C74.1144 85.6598 74.1144 85.6599 74.1144 85.66C74.1144 85.6601 74.1144 85.6602 74.1144 85.6603C74.1144 85.6604 74.1144 85.6605 74.1144 85.6606C74.1144 85.6607 74.1144 85.6608 74.1144 85.6609C74.1144 85.661 74.1144 85.6611 74.1144 85.6612C74.1144 85.6613 74.1144 85.6614 74.1144 85.6614C74.1144 85.6615 74.1144 85.6616 74.1144 85.6617C74.1144 85.6618 74.1144 85.6619 74.1144 85.662C74.1144 85.6621 74.1144 85.6622 74.1144 85.6623C74.1144 85.6624 74.1144 85.6625 74.1144 85.6626C74.1144 85.6627 74.1144 85.6628 74.1144 85.6629C74.1144 85.663 74.1144 85.6631 74.1144 85.6632C74.1144 85.6633 74.1144 85.6634 74.1144 85.6635C74.1144 85.6636 74.1144 85.6637 74.1144 85.6638C74.1144 85.6639 74.1144 85.664 74.1144 85.6641C74.1144 85.6642 74.1144 85.6643 74.1144 85.6644C74.1144 85.6645 74.1144 85.6646 74.1144 85.6647C74.1144 85.6648 74.1144 85.6649 74.1144 85.665C74.1144 85.6651 74.1144 85.6652 74.1144 85.6653C74.1144 85.6654 74.1144 85.6655 74.1144 85.6656C74.1144 85.6656 74.1144 85.6657 74.1144 85.6658C74.1144 85.6659 74.1144 85.666 74.1144 85.6661C74.1144 85.6662 74.1144 85.6663 74.1144 85.6664C74.1144 85.6665 74.1144 85.6666 74.1144 85.6667C74.1144 85.6668 74.1144 85.6669 74.1144 85.667C74.1144 85.6671 74.1144 85.6672 74.1144 85.6673C74.1144 85.6674 74.1144 85.6675 74.1144 85.6676C74.1144 85.6677 74.1144 85.6678 74.1144 85.6679C74.1144 85.668 74.1144 85.6681 74.1144 85.6682C74.1144 85.6683 74.1144 85.6684 74.1144 85.6685C74.1144 85.6686 74.1144 85.6687 74.1144 85.6688C74.1144 85.6689 74.1144 85.669 74.1144 85.6691C74.1144 85.6692 74.1144 85.6693 74.1144 85.6694C74.1144 85.6695 74.1144 85.6696 74.1144 85.6697C74.1144 85.6698 74.1144 85.6698 74.1144 85.6699C74.1144 85.67 74.1144 85.6701 74.1144 85.6702C74.1144 85.6703 74.1144 85.6704 74.1144 85.6705C74.1144 85.6706 74.1144 85.6707 74.1144 85.6708C74.1144 85.6709 74.1144 85.671 74.1144 85.6711C74.1144 85.6712 74.1144 85.6713 74.1144 85.6714C74.1144 85.6715 74.1144 85.6716 74.1144 85.6717C74.1144 85.6718 74.1144 85.6719 74.1144 85.672C74.1144 85.6721 74.1144 85.6722 74.1144 85.6723C74.1144 85.6724 74.1144 85.6725 74.1144 85.6726C74.1144 85.6727 74.1144 85.6728 74.1144 85.6729C74.1144 85.673 74.1144 85.6731 74.1144 85.6732C74.1144 85.6733 74.1144 85.6734 74.1144 85.6735C74.1144 85.6736 74.1144 85.6737 74.1144 85.6738C74.1144 85.6739 74.1144 85.6739 74.1144 85.674C74.1144 85.6741 74.1144 85.6742 74.1144 85.6743C74.1144 85.6744 74.1144 85.6745 74.1144 85.6746C74.1144 85.6747 74.1144 85.6748 74.1144 85.6749C74.1144 85.675 74.1144 85.6751 74.1144 85.6752C74.1144 85.6753 74.1144 85.6754 74.1144 85.6755C74.1144 85.6756 74.1144 85.6757 74.1144 85.6758C74.1144 85.6759 74.1144 85.676 74.1144 85.6761C74.1144 85.6762 74.1144 85.6763 74.1144 85.6764C74.1144 85.6765 74.1144 85.6766 74.1144 85.6767C74.1144 85.6768 74.1144 85.6769 74.1144 85.677C74.1144 85.6771 74.1144 85.6772 74.1144 85.6773C74.1144 85.6774 74.1144 85.6775 74.1144 85.6776C74.1144 85.6777 74.1144 85.6778 74.1144 85.6779C74.1144 85.678 74.1144 85.6781 74.1144 85.6781C74.1144 85.6782 74.1144 85.6783 74.1144 85.6784C74.1144 85.6785 74.1144 85.6786 74.1144 85.6787C74.1144 85.6788 74.1144 85.6789 74.1144 85.679C74.1144 85.6791 74.1144 85.6792 74.1144 85.6793C74.1144 85.6794 74.1144 85.6795 74.1144 85.6796C74.1144 85.6797 74.1144 85.6798 74.1144 85.6799C74.1144 85.68 74.1144 85.6801 74.1144 85.6802C74.1144 85.6803 74.1144 85.6804 74.1144 85.6805C74.1144 85.6806 74.1144 85.6807 74.1144 85.6808C74.1144 85.6809 74.1144 85.681 74.1144 85.6811C74.1144 85.6812 74.1144 85.6813 74.1144 85.6814C74.1144 85.6815 74.1144 85.6816 74.1144 85.6817C74.1144 85.6818 74.1144 85.6819 74.1144 85.682C74.1144 85.6821 74.1144 85.6822 74.1144 85.6823C74.1144 85.6823 74.1144 85.6824 74.1144 85.6825C74.1144 85.6826 74.1144 85.6827 74.1144 85.6828C74.1144 85.6829 74.1144 85.683 74.1144 85.6831C74.1144 85.6832 74.1144 85.6833 74.1144 85.6834C74.1144 85.6835 74.1144 85.6836 74.1144 85.6837C74.1144 85.6838 74.1144 85.6839 74.1144 85.684C74.1144 85.6841 74.1144 85.6842 74.1144 85.6843C74.1144 85.6844 74.1144 85.6845 74.1144 85.6846C74.1144 85.6847 74.1144 85.6848 74.1144 85.6849C74.1144 85.685 74.1144 85.6851 74.1144 85.6852C74.1144 85.6853 74.1144 85.6854 74.1144 85.6855C74.1144 85.6856 74.1144 85.6857 74.1144 85.6858C74.1144 85.6859 74.1144 85.686 74.1144 85.6861C74.1144 85.6862 74.1144 85.6863 74.1144 85.6864C74.1144 85.6864 74.1144 85.6865 74.1144 85.6866C74.1144 85.6867 74.1144 85.6868 74.1144 85.6869C74.1144 85.687 74.1144 85.6871 74.1144 85.6872C74.1144 85.6873 74.1144 85.6874 74.1144 85.6875C74.1144 85.6876 74.1144 85.6877 74.1144 85.6878C74.1144 85.6879 74.1144 85.688 74.1144 85.6881C74.1144 85.6882 74.1144 85.6883 74.1144 85.6884C74.1144 85.6885 74.1144 85.6886 74.1144 85.6887C74.1144 85.6888 74.1144 85.6889 74.1144 85.689C74.1144 85.6891 74.1144 85.6892 74.1144 85.6893C74.1144 85.6894 74.1144 85.6895 74.1144 85.6896C74.1144 85.6897 74.1144 85.6898 74.1144 85.6899C74.1144 85.69 74.1144 85.6901 74.1144 85.6902C74.1144 85.6903 74.1144 85.6904 74.1144 85.6905C74.1144 85.6906 74.1144 85.6906 74.1144 85.6907C74.1144 85.6908 74.1144 85.6909 74.1144 85.691C74.1144 85.6911 74.1144 85.6912 74.1144 85.6913C74.1144 85.6914 74.1144 85.6915 74.1144 85.6916C74.1144 85.6917 74.1144 85.6918 74.1144 85.6919C74.1144 85.692 74.1144 85.6921 74.1144 85.6922C74.1144 85.6923 74.1144 85.6924 74.1144 85.6925C74.1144 85.6926 74.1144 85.6927 74.1144 85.6928C74.1144 85.6929 74.1144 85.693 74.1144 85.6931C74.1144 85.6932 74.1144 85.6933 74.1144 85.6934C74.1144 85.6935 74.1144 85.6936 74.1144 85.6937C74.1144 85.6938 74.1144 85.6939 74.1144 85.694C74.1144 85.6941 74.1144 85.6942 74.1144 85.6943C74.1144 85.6944 74.1144 85.6945 74.1144 85.6946C74.1144 85.6947 74.1144 85.6948 74.1144 85.6948C74.1144 85.6949 74.1144 85.695 74.1144 85.6951C74.1144 85.6952 74.1144 85.6953 74.1144 85.6954C74.1144 85.6955 74.1144 85.6956 74.1144 85.6957C74.1144 85.6958 74.1144 85.6959 74.1144 85.696C74.1144 85.6961 74.1144 85.6962 74.1144 85.6963C74.1144 85.6964 74.1144 85.6965 74.1144 85.6966C74.1144 85.6967 74.1144 85.6968 74.1144 85.6969C74.1144 85.697 74.1144 85.6971 74.1144 85.6972C74.1144 85.6973 74.1144 85.6974 74.1144 85.6975C74.1144 85.6976 74.1144 85.6977 74.1144 85.6978C74.1144 85.6979 74.1144 85.698 74.1144 85.6981C74.1144 85.6982 74.1144 85.6983 74.1144 85.6984C74.1144 85.6985 74.1144 85.6986 74.1144 85.6987C74.1144 85.6988 74.1144 85.6989 74.1144 85.6989C74.1144 85.699 74.1144 85.6991 74.1144 85.6992C74.1144 85.6993 74.1144 85.6994 74.1144 85.6995C74.1144 85.6996 74.1144 85.6997 74.1144 85.6998C74.1144 85.6999 74.1144 85.7 74.1144 85.7001C74.1144 85.7002 74.1144 85.7003 74.1144 85.7004C74.1144 85.7005 74.1144 85.7006 74.1144 85.7007C74.1144 85.7008 74.1144 85.7009 74.1144 85.701C74.1144 85.7011 74.1144 85.7012 74.1144 85.7013C74.1144 85.7014 74.1144 85.7015 74.1144 85.7016C74.1144 85.7017 74.1144 85.7018 74.1144 85.7019C74.1144 85.702 74.1144 85.7021 74.1144 85.7022C74.1144 85.7023 74.1144 85.7024 74.1144 85.7025C74.1144 85.7026 74.1144 85.7027 74.1144 85.7028C74.1144 85.7029 74.1144 85.703 74.1144 85.7031C74.1144 85.7031 74.1144 85.7032 74.1144 85.7033C74.1144 85.7034 74.1144 85.7035 74.1144 85.7036C74.1144 85.7037 74.1144 85.7038 74.1144 85.7039C74.1144 85.704 74.1144 85.7041 74.1144 85.7042C74.1144 85.7043 74.1144 85.7044 74.1144 85.7045C74.1144 85.7046 74.1144 85.7047 74.1144 85.7048C74.1144 85.7049 74.1144 85.705 74.1144 85.7051C74.1144 85.7052 74.1144 85.7053 74.1144 85.7054C74.1144 85.7055 74.1144 85.7056 74.1144 85.7057C74.1144 85.7058 74.1144 85.7059 74.1144 85.706C74.1144 85.7061 74.1144 85.7062 74.1144 85.7063C74.1144 85.7064 74.1144 85.7065 74.1144 85.7066C74.1144 85.7067 74.1144 85.7068 74.1144 85.7069C74.1144 85.707 74.1144 85.7071 74.1144 85.7072C74.1144 85.7073 74.1144 85.7073 74.1144 85.7074C74.1144 85.7075 74.1144 85.7076 74.1144 85.7077C74.1144 85.7078 74.1144 85.7079 74.1144 85.708C74.1144 85.7081 74.1144 85.7082 74.1144 85.7083C74.1144 85.7084 74.1144 85.7085 74.1144 85.7086C74.1144 85.7087 74.1144 85.7088 74.1144 85.7089C74.1144 85.709 74.1144 85.7091 74.1144 85.7092C74.1144 85.7093 74.1144 85.7094 74.1144 85.7095C74.1144 85.7096 74.1144 85.7097 74.1144 85.7098C74.1144 85.7099 74.1144 85.71 74.1144 85.7101C74.1144 85.7102 74.1144 85.7103 74.1144 85.7104C74.1144 85.7105 74.1144 85.7106 74.1144 85.7107C74.1144 85.7108 74.1144 85.7109 74.1144 85.711C74.1144 85.7111 74.1144 85.7112 74.1144 85.7113C74.1144 85.7114 74.1144 85.7114 74.1144 85.7115C74.1144 85.7116 74.1144 85.7117 74.1144 85.7118C74.1144 85.7119 74.1144 85.712 74.1144 85.7121C74.1144 85.7122 74.1144 85.7123 74.1144 85.7124C74.1144 85.7125 74.1144 85.7126 74.1144 85.7127C74.1144 85.7128 74.1144 85.7129 74.1144 85.713C74.1144 85.7131 74.1144 85.7132 74.1144 85.7133C74.1144 85.7134 74.1144 85.7135 74.1144 85.7136C74.1144 85.7137 74.1144 85.7138 74.1144 85.7139C74.1144 85.714 74.1144 85.7141 74.1144 85.7142C74.1144 85.7143 74.1144 85.7144 74.1144 85.7145C74.1144 85.7146 74.1144 85.7147 74.1144 85.7148C74.1144 85.7149 74.1144 85.715 74.1144 85.7151C74.1144 85.7152 74.1144 85.7153 74.1144 85.7154C74.1144 85.7155 74.1144 85.7156 74.1144 85.7156C74.1144 85.7157 74.1144 85.7158 74.1144 85.7159C74.1144 85.716 74.1144 85.7161 74.1144 85.7162C74.1144 85.7163 74.1144 85.7164 74.1144 85.7165C74.1144 85.7166 74.1144 85.7167 74.1144 85.7168C74.1144 85.7169 74.1144 85.717 74.1144 85.7171C74.1144 85.7172 74.1144 85.7173 74.1144 85.7174C74.1144 85.7175 74.1144 85.7176 74.1144 85.7177C74.1144 85.7178 74.1144 85.7179 74.1144 85.718C74.1144 85.7181 74.1144 85.7182 74.1144 85.7183C74.1144 85.7184 74.1144 85.7185 74.1144 85.7186C74.1144 85.7187 74.1144 85.7188 74.1144 85.7189C74.1144 85.719 74.1144 85.7191 74.1144 85.7192C74.1144 85.7193 74.1144 85.7194 74.1144 85.7195C74.1144 85.7196 74.1144 85.7197 74.1144 85.7198C74.1144 85.7198 74.1144 85.7199 74.1144 85.72C74.1144 85.7201 74.1144 85.7202 74.1144 85.7203C74.1144 85.7204 74.1144 85.7205 74.1144 85.7206C74.1144 85.7207 74.1144 85.7208 74.1144 85.7209C74.1144 85.721 74.1144 85.7211 74.1144 85.7212C74.1144 85.7213 74.1144 85.7214 74.1144 85.7215C74.1144 85.7216 74.1144 85.7217 74.1144 85.7218C74.1144 85.7219 74.1144 85.722 74.1144 85.7221H80.1266C80.1266 85.722 80.1266 85.7219 80.1266 85.7218C80.1266 85.7217 80.1266 85.7216 80.1266 85.7215C80.1266 85.7214 80.1266 85.7213 80.1266 85.7212C80.1266 85.7211 80.1266 85.721 80.1266 85.7209C80.1266 85.7208 80.1266 85.7207 80.1266 85.7206C80.1266 85.7205 80.1266 85.7204 80.1266 85.7203C80.1266 85.7202 80.1266 85.7201 80.1266 85.72C80.1266 85.7199 80.1266 85.7198 80.1266 85.7198C80.1266 85.7197 80.1266 85.7196 80.1266 85.7195C80.1266 85.7194 80.1266 85.7193 80.1266 85.7192C80.1266 85.7191 80.1266 85.719 80.1266 85.7189C80.1266 85.7188 80.1266 85.7187 80.1266 85.7186C80.1266 85.7185 80.1266 85.7184 80.1266 85.7183C80.1266 85.7182 80.1266 85.7181 80.1266 85.718C80.1266 85.7179 80.1266 85.7178 80.1266 85.7177C80.1266 85.7176 80.1266 85.7175 80.1266 85.7174C80.1266 85.7173 80.1266 85.7172 80.1266 85.7171C80.1266 85.717 80.1266 85.7169 80.1266 85.7168C80.1266 85.7167 80.1266 85.7166 80.1266 85.7165C80.1266 85.7164 80.1266 85.7163 80.1266 85.7162C80.1266 85.7161 80.1266 85.716 80.1266 85.7159C80.1266 85.7158 80.1266 85.7157 80.1266 85.7156C80.1266 85.7156 80.1266 85.7155 80.1266 85.7154C80.1266 85.7153 80.1266 85.7152 80.1266 85.7151C80.1266 85.715 80.1266 85.7149 80.1266 85.7148C80.1266 85.7147 80.1266 85.7146 80.1266 85.7145C80.1266 85.7144 80.1266 85.7143 80.1266 85.7142C80.1266 85.7141 80.1266 85.714 80.1266 85.7139C80.1266 85.7138 80.1266 85.7137 80.1266 85.7136C80.1266 85.7135 80.1266 85.7134 80.1266 85.7133C80.1266 85.7132 80.1266 85.7131 80.1266 85.713C80.1266 85.7129 80.1266 85.7128 80.1266 85.7127C80.1266 85.7126 80.1266 85.7125 80.1266 85.7124C80.1266 85.7123 80.1266 85.7122 80.1266 85.7121C80.1266 85.712 80.1266 85.7119 80.1266 85.7118C80.1266 85.7117 80.1266 85.7116 80.1266 85.7115C80.1266 85.7114 80.1266 85.7114 80.1266 85.7113C80.1266 85.7112 80.1266 85.7111 80.1266 85.711C80.1266 85.7109 80.1266 85.7108 80.1266 85.7107C80.1266 85.7106 80.1266 85.7105 80.1266 85.7104C80.1266 85.7103 80.1266 85.7102 80.1266 85.7101C80.1266 85.71 80.1266 85.7099 80.1266 85.7098C80.1266 85.7097 80.1266 85.7096 80.1266 85.7095C80.1266 85.7094 80.1266 85.7093 80.1266 85.7092C80.1266 85.7091 80.1266 85.709 80.1266 85.7089C80.1266 85.7088 80.1266 85.7087 80.1266 85.7086C80.1266 85.7085 80.1266 85.7084 80.1266 85.7083C80.1266 85.7082 80.1266 85.7081 80.1266 85.708C80.1266 85.7079 80.1266 85.7078 80.1266 85.7077C80.1266 85.7076 80.1266 85.7075 80.1266 85.7074C80.1266 85.7073 80.1266 85.7073 80.1266 85.7072C80.1266 85.7071 80.1266 85.707 80.1266 85.7069C80.1266 85.7068 80.1266 85.7067 80.1266 85.7066C80.1266 85.7065 80.1266 85.7064 80.1266 85.7063C80.1266 85.7062 80.1266 85.7061 80.1266 85.706C80.1266 85.7059 80.1266 85.7058 80.1266 85.7057C80.1266 85.7056 80.1266 85.7055 80.1266 85.7054C80.1266 85.7053 80.1266 85.7052 80.1266 85.7051C80.1266 85.705 80.1266 85.7049 80.1266 85.7048C80.1266 85.7047 80.1266 85.7046 80.1266 85.7045C80.1266 85.7044 80.1266 85.7043 80.1266 85.7042C80.1266 85.7041 80.1266 85.704 80.1266 85.7039C80.1266 85.7038 80.1266 85.7037 80.1266 85.7036C80.1266 85.7035 80.1266 85.7034 80.1266 85.7033C80.1266 85.7032 80.1266 85.7031 80.1266 85.7031C80.1266 85.703 80.1266 85.7029 80.1266 85.7028C80.1266 85.7027 80.1266 85.7026 80.1266 85.7025C80.1266 85.7024 80.1266 85.7023 80.1266 85.7022C80.1266 85.7021 80.1266 85.702 80.1266 85.7019C80.1266 85.7018 80.1266 85.7017 80.1266 85.7016C80.1266 85.7015 80.1266 85.7014 80.1266 85.7013C80.1266 85.7012 80.1266 85.7011 80.1266 85.701C80.1266 85.7009 80.1266 85.7008 80.1266 85.7007C80.1266 85.7006 80.1266 85.7005 80.1266 85.7004C80.1266 85.7003 80.1266 85.7002 80.1266 85.7001C80.1266 85.7 80.1266 85.6999 80.1266 85.6998C80.1266 85.6997 80.1266 85.6996 80.1266 85.6995C80.1266 85.6994 80.1266 85.6993 80.1266 85.6992C80.1266 85.6991 80.1266 85.699 80.1266 85.6989C80.1266 85.6989 80.1266 85.6988 80.1266 85.6987C80.1266 85.6986 80.1266 85.6985 80.1266 85.6984C80.1266 85.6983 80.1266 85.6982 80.1266 85.6981C80.1266 85.698 80.1266 85.6979 80.1266 85.6978C80.1266 85.6977 80.1266 85.6976 80.1266 85.6975C80.1266 85.6974 80.1266 85.6973 80.1266 85.6972C80.1266 85.6971 80.1266 85.697 80.1266 85.6969C80.1266 85.6968 80.1266 85.6967 80.1266 85.6966C80.1266 85.6965 80.1266 85.6964 80.1266 85.6963C80.1266 85.6962 80.1266 85.6961 80.1266 85.696C80.1266 85.6959 80.1266 85.6958 80.1266 85.6957C80.1266 85.6956 80.1266 85.6955 80.1266 85.6954C80.1266 85.6953 80.1266 85.6952 80.1266 85.6951C80.1266 85.695 80.1266 85.6949 80.1266 85.6948C80.1266 85.6948 80.1266 85.6947 80.1266 85.6946C80.1266 85.6945 80.1266 85.6944 80.1266 85.6943C80.1266 85.6942 80.1266 85.6941 80.1266 85.694C80.1266 85.6939 80.1266 85.6938 80.1266 85.6937C80.1266 85.6936 80.1266 85.6935 80.1266 85.6934C80.1266 85.6933 80.1266 85.6932 80.1266 85.6931C80.1266 85.693 80.1266 85.6929 80.1266 85.6928C80.1266 85.6927 80.1266 85.6926 80.1266 85.6925C80.1266 85.6924 80.1266 85.6923 80.1266 85.6922C80.1266 85.6921 80.1266 85.692 80.1266 85.6919C80.1266 85.6918 80.1266 85.6917 80.1266 85.6916C80.1266 85.6915 80.1266 85.6914 80.1266 85.6913C80.1266 85.6912 80.1266 85.6911 80.1266 85.691C80.1266 85.6909 80.1266 85.6908 80.1266 85.6907C80.1266 85.6906 80.1266 85.6906 80.1266 85.6905C80.1266 85.6904 80.1266 85.6903 80.1266 85.6902C80.1266 85.6901 80.1266 85.69 80.1266 85.6899C80.1266 85.6898 80.1266 85.6897 80.1266 85.6896C80.1266 85.6895 80.1266 85.6894 80.1266 85.6893C80.1266 85.6892 80.1266 85.6891 80.1266 85.689C80.1266 85.6889 80.1266 85.6888 80.1266 85.6887C80.1266 85.6886 80.1266 85.6885 80.1266 85.6884C80.1266 85.6883 80.1266 85.6882 80.1266 85.6881C80.1266 85.688 80.1266 85.6879 80.1266 85.6878C80.1266 85.6877 80.1266 85.6876 80.1266 85.6875C80.1266 85.6874 80.1266 85.6873 80.1266 85.6872C80.1266 85.6871 80.1266 85.687 80.1266 85.6869C80.1266 85.6868 80.1266 85.6867 80.1266 85.6866C80.1266 85.6865 80.1266 85.6864 80.1266 85.6864C80.1266 85.6863 80.1266 85.6862 80.1266 85.6861C80.1266 85.686 80.1266 85.6859 80.1266 85.6858C80.1266 85.6857 80.1266 85.6856 80.1266 85.6855C80.1266 85.6854 80.1266 85.6853 80.1266 85.6852C80.1266 85.6851 80.1266 85.685 80.1266 85.6849C80.1266 85.6848 80.1266 85.6847 80.1266 85.6846C80.1266 85.6845 80.1266 85.6844 80.1266 85.6843C80.1266 85.6842 80.1266 85.6841 80.1266 85.684C80.1266 85.6839 80.1266 85.6838 80.1266 85.6837C80.1266 85.6836 80.1266 85.6835 80.1266 85.6834C80.1266 85.6833 80.1266 85.6832 80.1266 85.6831C80.1266 85.683 80.1266 85.6829 80.1266 85.6828C80.1266 85.6827 80.1266 85.6826 80.1266 85.6825C80.1266 85.6824 80.1266 85.6823 80.1266 85.6823C80.1266 85.6822 80.1266 85.6821 80.1266 85.682C80.1266 85.6819 80.1266 85.6818 80.1266 85.6817C80.1266 85.6816 80.1266 85.6815 80.1266 85.6814C80.1266 85.6813 80.1266 85.6812 80.1266 85.6811C80.1266 85.681 80.1266 85.6809 80.1266 85.6808C80.1266 85.6807 80.1266 85.6806 80.1266 85.6805C80.1266 85.6804 80.1266 85.6803 80.1266 85.6802C80.1266 85.6801 80.1266 85.68 80.1266 85.6799C80.1266 85.6798 80.1266 85.6797 80.1266 85.6796C80.1266 85.6795 80.1266 85.6794 80.1266 85.6793C80.1266 85.6792 80.1266 85.6791 80.1266 85.679C80.1266 85.6789 80.1266 85.6788 80.1266 85.6787C80.1266 85.6786 80.1266 85.6785 80.1266 85.6784C80.1266 85.6783 80.1266 85.6782 80.1266 85.6781C80.1266 85.6781 80.1266 85.678 80.1266 85.6779C80.1266 85.6778 80.1266 85.6777 80.1266 85.6776C80.1266 85.6775 80.1266 85.6774 80.1266 85.6773C80.1266 85.6772 80.1266 85.6771 80.1266 85.677C80.1266 85.6769 80.1266 85.6768 80.1266 85.6767C80.1266 85.6766 80.1266 85.6765 80.1266 85.6764C80.1266 85.6763 80.1266 85.6762 80.1266 85.6761C80.1266 85.676 80.1266 85.6759 80.1266 85.6758C80.1266 85.6757 80.1266 85.6756 80.1266 85.6755C80.1266 85.6754 80.1266 85.6753 80.1266 85.6752C80.1266 85.6751 80.1266 85.675 80.1266 85.6749C80.1266 85.6748 80.1266 85.6747 80.1266 85.6746C80.1266 85.6745 80.1266 85.6744 80.1266 85.6743C80.1266 85.6742 80.1266 85.6741 80.1266 85.674C80.1266 85.6739 80.1266 85.6739 80.1266 85.6738C80.1266 85.6737 80.1266 85.6736 80.1266 85.6735C80.1266 85.6734 80.1266 85.6733 80.1266 85.6732C80.1266 85.6731 80.1266 85.673 80.1266 85.6729C80.1266 85.6728 80.1266 85.6727 80.1266 85.6726C80.1266 85.6725 80.1266 85.6724 80.1266 85.6723C80.1266 85.6722 80.1266 85.6721 80.1266 85.672C80.1266 85.6719 80.1266 85.6718 80.1266 85.6717C80.1266 85.6716 80.1266 85.6715 80.1266 85.6714C80.1266 85.6713 80.1266 85.6712 80.1266 85.6711C80.1266 85.671 80.1266 85.6709 80.1266 85.6708C80.1266 85.6707 80.1266 85.6706 80.1266 85.6705C80.1266 85.6704 80.1266 85.6703 80.1266 85.6702C80.1266 85.6701 80.1266 85.67 80.1266 85.6699C80.1266 85.6698 80.1266 85.6698 80.1266 85.6697C80.1266 85.6696 80.1266 85.6695 80.1266 85.6694C80.1266 85.6693 80.1266 85.6692 80.1266 85.6691C80.1266 85.669 80.1266 85.6689 80.1266 85.6688C80.1266 85.6687 80.1266 85.6686 80.1266 85.6685C80.1266 85.6684 80.1266 85.6683 80.1266 85.6682C80.1266 85.6681 80.1266 85.668 80.1266 85.6679C80.1266 85.6678 80.1266 85.6677 80.1266 85.6676C80.1266 85.6675 80.1266 85.6674 80.1266 85.6673C80.1266 85.6672 80.1266 85.6671 80.1266 85.667C80.1266 85.6669 80.1266 85.6668 80.1266 85.6667C80.1266 85.6666 80.1266 85.6665 80.1266 85.6664C80.1266 85.6663 80.1266 85.6662 80.1266 85.6661C80.1266 85.666 80.1266 85.6659 80.1266 85.6658C80.1266 85.6657 80.1266 85.6656 80.1266 85.6656C80.1266 85.6655 80.1266 85.6654 80.1266 85.6653C80.1266 85.6652 80.1266 85.6651 80.1266 85.665C80.1266 85.6649 80.1266 85.6648 80.1266 85.6647C80.1266 85.6646 80.1266 85.6645 80.1266 85.6644C80.1266 85.6643 80.1266 85.6642 80.1266 85.6641C80.1266 85.664 80.1266 85.6639 80.1266 85.6638C80.1266 85.6637 80.1266 85.6636 80.1266 85.6635C80.1266 85.6634 80.1266 85.6633 80.1266 85.6632C80.1266 85.6631 80.1266 85.663 80.1266 85.6629C80.1266 85.6628 80.1266 85.6627 80.1266 85.6626C80.1266 85.6625 80.1266 85.6624 80.1266 85.6623C80.1266 85.6622 80.1266 85.6621 80.1266 85.662C80.1266 85.6619 80.1266 85.6618 80.1266 85.6617C80.1266 85.6616 80.1266 85.6615 80.1266 85.6614C80.1266 85.6614 80.1266 85.6613 80.1266 85.6612C80.1266 85.6611 80.1266 85.661 80.1266 85.6609C80.1266 85.6608 80.1266 85.6607 80.1266 85.6606C80.1266 85.6605 80.1266 85.6604 80.1266 85.6603C80.1266 85.6602 80.1266 85.6601 80.1266 85.66C80.1266 85.6599 80.1266 85.6598 80.1266 85.6597C80.1266 85.6596 80.1266 85.6595 80.1266 85.6594C80.1266 85.6593 80.1266 85.6592 80.1266 85.6591C80.1266 85.659 80.1266 85.6589 80.1266 85.6588C80.1266 85.6587 80.1266 85.6586 80.1266 85.6585C80.1266 85.6584 80.1266 85.6583 80.1266 85.6582C80.1266 85.6581 80.1266 85.658 80.1266 85.6579C80.1266 85.6578 80.1266 85.6577 80.1266 85.6576C80.1266 85.6575 80.1266 85.6574 80.1266 85.6573C80.1266 85.6572 80.1266 85.6572 80.1266 85.6571C80.1266 85.657 80.1266 85.6569 80.1266 85.6568C80.1266 85.6567 80.1266 85.6566 80.1266 85.6565C80.1266 85.6564 80.1266 85.6563 80.1266 85.6562C80.1266 85.6561 80.1266 85.656 80.1266 85.6559C80.1266 85.6558 80.1266 85.6557 80.1266 85.6556C80.1266 85.6555 80.1266 85.6554 80.1266 85.6553C80.1266 85.6552 80.1266 85.6551 80.1266 85.655C80.1266 85.6549 80.1266 85.6548 80.1266 85.6547C80.1266 85.6546 80.1266 85.6545 80.1266 85.6544C80.1266 85.6543 80.1266 85.6542 80.1266 85.6541C80.1266 85.654 80.1266 85.6539 80.1266 85.6538C80.1266 85.6537 80.1266 85.6536 80.1266 85.6535C80.1266 85.6534 80.1266 85.6533 80.1266 85.6532C80.1266 85.6531 80.1266 85.6531 80.1266 85.653C80.1266 85.6529 80.1266 85.6528 80.1266 85.6527C80.1266 85.6526 80.1266 85.6525 80.1266 85.6524C80.1266 85.6523 80.1266 85.6522 80.1266 85.6521C80.1266 85.652 80.1266 85.6519 80.1266 85.6518C80.1266 85.6517 80.1266 85.6516 80.1266 85.6515C80.1266 85.6514 80.1266 85.6513 80.1266 85.6512C80.1266 85.6511 80.1266 85.651 80.1266 85.6509C80.1266 85.6508 80.1266 85.6507 80.1266 85.6506C80.1266 85.6505 80.1266 85.6504 80.1266 85.6503C80.1266 85.6502 80.1266 85.6501 80.1266 85.65C80.1266 85.6499 80.1266 85.6498 80.1266 85.6497C80.1266 85.6496 80.1266 85.6495 80.1266 85.6494C80.1266 85.6493 80.1266 85.6492 80.1266 85.6491C80.1266 85.649 80.1266 85.6489 80.1266 85.6489C80.1266 85.6488 80.1266 85.6487 80.1266 85.6486C80.1266 85.6485 80.1266 85.6484 80.1266 85.6483C80.1266 85.6482 80.1266 85.6481 80.1266 85.648C80.1266 85.6479 80.1266 85.6478 80.1266 85.6477C80.1266 85.6476 80.1266 85.6475 80.1266 85.6474C80.1266 85.6473 80.1266 85.6472 80.1266 85.6471C80.1266 85.647 80.1266 85.6469 80.1266 85.6468C80.1266 85.6467 80.1266 85.6466 80.1266 85.6465C80.1266 85.6464 80.1266 85.6463 80.1266 85.6462C80.1266 85.6461 80.1266 85.646 80.1266 85.6459C80.1266 85.6458 80.1266 85.6457 80.1266 85.6456C80.1266 85.6455 80.1266 85.6454 80.1266 85.6453C80.1266 85.6452 80.1266 85.6451 80.1266 85.645C80.1266 85.6449 80.1266 85.6448 80.1266 85.6448C80.1266 85.6447 80.1266 85.6446 80.1266 85.6445C80.1266 85.6444 80.1266 85.6443 80.1266 85.6442C80.1266 85.6441 80.1266 85.644 80.1266 85.6439C80.1266 85.6438 80.1266 85.6437 80.1266 85.6436C80.1266 85.6435 80.1266 85.6434 80.1266 85.6433C80.1266 85.6432 80.1266 85.6431 80.1266 85.643C80.1266 85.6429 80.1266 85.6428 80.1266 85.6427C80.1266 85.6426 80.1266 85.6425 80.1266 85.6424C80.1266 85.6423 80.1266 85.6422 80.1266 85.6421C80.1266 85.642 80.1266 85.6419 80.1266 85.6418C80.1266 85.6417 80.1266 85.6416 80.1266 85.6415C80.1266 85.6414 80.1266 85.6413 80.1266 85.6412C80.1266 85.6411 80.1266 85.641 80.1266 85.6409C80.1266 85.6408 80.1266 85.6407 80.1266 85.6406C80.1266 85.6406 80.1266 85.6405 80.1266 85.6404C80.1266 85.6403 80.1266 85.6402 80.1266 85.6401C80.1266 85.64 80.1266 85.6399 80.1266 85.6398C80.1266 85.6397 80.1266 85.6396 80.1266 85.6395C80.1266 85.6394 80.1266 85.6393 80.1266 85.6392C80.1266 85.6391 80.1266 85.639 80.1266 85.6389C80.1266 85.6388 80.1266 85.6387 80.1266 85.6386C80.1266 85.6385 80.1266 85.6384 80.1266 85.6383C80.1266 85.6382 80.1266 85.6381 80.1266 85.638C80.1266 85.6379 80.1266 85.6378 80.1266 85.6377C80.1266 85.6376 80.1266 85.6375 80.1266 85.6374C80.1266 85.6373 80.1266 85.6372 80.1266 85.6371C80.1266 85.637 80.1266 85.6369 80.1266 85.6368C80.1266 85.6367 80.1266 85.6366 80.1266 85.6365C80.1266 85.6364 80.1266 85.6364 80.1266 85.6363C80.1266 85.6362 80.1266 85.6361 80.1266 85.636C80.1266 85.6359 80.1266 85.6358 80.1266 85.6357C80.1266 85.6356 80.1266 85.6355 80.1266 85.6354C80.1266 85.6353 80.1266 85.6352 80.1266 85.6351C80.1266 85.635 80.1266 85.6349 80.1266 85.6348C80.1266 85.6347 80.1266 85.6346 80.1266 85.6345C80.1266 85.6344 80.1266 85.6343 80.1266 85.6342C80.1266 85.6341 80.1266 85.634 80.1266 85.6339C80.1266 85.6338 80.1266 85.6337 80.1266 85.6336C80.1266 85.6335 80.1266 85.6334 80.1266 85.6333C80.1266 85.6332 80.1266 85.6331 80.1266 85.633C80.1266 85.6329 80.1266 85.6328 80.1266 85.6327C80.1266 85.6326 80.1266 85.6325 80.1266 85.6324C80.1266 85.6323 80.1266 85.6322 80.1266 85.6322C80.1266 85.6321 80.1266 85.632 80.1266 85.6319C80.1266 85.6318 80.1266 85.6317 80.1266 85.6316C80.1266 85.6315 80.1266 85.6314 80.1266 85.6313C80.1266 85.6312 80.1266 85.6311 80.1266 85.631C80.1266 85.6309 80.1266 85.6308 80.1266 85.6307C80.1266 85.6306 80.1266 85.6305 80.1266 85.6304C80.1266 85.6303 80.1266 85.6302 80.1266 85.6301C80.1266 85.63 80.1266 85.6299 80.1266 85.6298C80.1266 85.6297 80.1266 85.6296 80.1266 85.6295C80.1266 85.6294 80.1266 85.6293 80.1266 85.6292C80.1266 85.6291 80.1266 85.629 80.1266 85.6289C80.1266 85.6288 80.1266 85.6287 80.1266 85.6286C80.1266 85.6285 80.1266 85.6284 80.1266 85.6283C80.1266 85.6282 80.1266 85.6281 80.1266 85.6281C80.1266 85.628 80.1266 85.6279 80.1266 85.6278C80.1266 85.6277 80.1266 85.6276 80.1266 85.6275C80.1266 85.6274 80.1266 85.6273 80.1266 85.6272C80.1266 85.6271 80.1266 85.627 80.1266 85.6269C80.1266 85.6268 80.1266 85.6267 80.1266 85.6266C80.1266 85.6265 80.1266 85.6264 80.1266 85.6263C80.1266 85.6262 80.1266 85.6261 80.1266 85.626C80.1266 85.6259 80.1266 85.6258 80.1266 85.6257C80.1266 85.6256 80.1266 85.6255 80.1266 85.6254C80.1266 85.6253 80.1266 85.6252 80.1266 85.6251C80.1266 85.625 80.1266 85.6249 80.1266 85.6248C80.1266 85.6247 80.1266 85.6246 80.1266 85.6245C80.1266 85.6244 80.1266 85.6243 80.1266 85.6242C80.1266 85.6241 80.1266 85.624 80.1266 85.6239C80.1266 85.6239 80.1266 85.6238 80.1266 85.6237C80.1266 85.6236 80.1266 85.6235 80.1266 85.6234C80.1266 85.6233 80.1266 85.6232 80.1266 85.6231C80.1266 85.623 80.1266 85.6229 80.1266 85.6228C80.1266 85.6227 80.1266 85.6226 80.1266 85.6225C80.1266 85.6224 80.1266 85.6223 80.1266 85.6222C80.1266 85.6221 80.1266 85.622 80.1266 85.6219C80.1266 85.6218 80.1266 85.6217 80.1266 85.6216C80.1266 85.6215 80.1266 85.6214 80.1266 85.6213C80.1266 85.6212 80.1266 85.6211 80.1266 85.621C80.1266 85.6209 80.1266 85.6208 80.1266 85.6207C80.1266 85.6206 80.1266 85.6205 80.1266 85.6204C80.1266 85.6203 80.1266 85.6202 80.1266 85.6201C80.1266 85.62 80.1266 85.6199 80.1266 85.6198C80.1266 85.6198 80.1266 85.6197 80.1266 85.6196C80.1266 85.6195 80.1266 85.6194 80.1266 85.6193C80.1266 85.6192 80.1266 85.6191 80.1266 85.619C80.1266 85.6189 80.1266 85.6188 80.1266 85.6187C80.1266 85.6186 80.1266 85.6185 80.1266 85.6184C80.1266 85.6183 80.1266 85.6182 80.1266 85.6181C80.1266 85.618 80.1266 85.6179 80.1266 85.6178C80.1266 85.6177 80.1266 85.6176 80.1266 85.6175C80.1266 85.6174 80.1266 85.6173 80.1266 85.6172C80.1266 85.6171 80.1266 85.617 80.1266 85.6169C80.1266 85.6168 80.1266 85.6167 80.1266 85.6166C80.1266 85.6165 80.1266 85.6164 80.1266 85.6163C80.1266 85.6162 80.1266 85.6161 80.1266 85.616C80.1266 85.6159 80.1266 85.6158 80.1266 85.6157C80.1266 85.6156 80.1266 85.6156 80.1266 85.6155C80.1266 85.6154 80.1266 85.6153 80.1266 85.6152C80.1266 85.6151 80.1266 85.615 80.1266 85.6149C80.1266 85.6148 80.1266 85.6147 80.1266 85.6146C80.1266 85.6145 80.1266 85.6144 80.1266 85.6143C80.1266 85.6142 80.1266 85.6141 80.1266 85.614C80.1266 85.6139 80.1266 85.6138 80.1266 85.6137C80.1266 85.6136 80.1266 85.6135 80.1266 85.6134C80.1266 85.6133 80.1266 85.6132 80.1266 85.6131C80.1266 85.613 80.1266 85.6129 80.1266 85.6128C80.1266 85.6127 80.1266 85.6126 80.1266 85.6125C80.1266 85.6124 80.1266 85.6123 80.1266 85.6122C80.1266 85.6121 80.1266 85.612 80.1266 85.6119C80.1266 85.6118 80.1266 85.6117 80.1266 85.6116C80.1266 85.6115 80.1266 85.6114 80.1266 85.6114C80.1266 85.6113 80.1266 85.6112 80.1266 85.6111C80.1266 85.611 80.1266 85.6109 80.1266 85.6108C80.1266 85.6107 80.1266 85.6106 80.1266 85.6105C80.1266 85.6104 80.1266 85.6103 80.1266 85.6102C80.1266 85.6101 80.1266 85.61 80.1266 85.6099C80.1266 85.6098 80.1266 85.6097 80.1266 85.6096C80.1266 85.6095 80.1266 85.6094 80.1266 85.6093C80.1266 85.6092 80.1266 85.6091 80.1266 85.609C80.1266 85.6089 80.1266 85.6088 80.1266 85.6087C80.1266 85.6086 80.1266 85.6085 80.1266 85.6084C80.1266 85.6083 80.1266 85.6082 80.1266 85.6081C80.1266 85.608 80.1266 85.6079 80.1266 85.6078C80.1266 85.6077 80.1266 85.6076 80.1266 85.6075C80.1266 85.6074 80.1266 85.6073 80.1266 85.6072C80.1266 85.6072 80.1266 85.6071 80.1266 85.607C80.1266 85.6069 80.1266 85.6068 80.1266 85.6067C80.1266 85.6066 80.1266 85.6065 80.1266 85.6064C80.1266 85.6063 80.1266 85.6062 80.1266 85.6061C80.1266 85.606 80.1266 85.6059 80.1266 85.6058C80.1266 85.6057 80.1266 85.6056 80.1266 85.6055C80.1266 85.6054 80.1266 85.6053 80.1266 85.6052C80.1266 85.6051 80.1266 85.605 80.1266 85.6049C80.1266 85.6048 80.1266 85.6047 80.1266 85.6046C80.1266 85.6045 80.1266 85.6044 80.1266 85.6043C80.1266 85.6042 80.1266 85.6041 80.1266 85.604C80.1266 85.6039 80.1266 85.6038 80.1266 85.6037C80.1266 85.6036 80.1266 85.6035 80.1266 85.6034C80.1266 85.6033 80.1266 85.6032 80.1266 85.6031C80.1266 85.6031 80.1266 85.603 80.1266 85.6029C80.1266 85.6028 80.1266 85.6027 80.1266 85.6026C80.1266 85.6025 80.1266 85.6024 80.1266 85.6023C80.1266 85.6022 80.1266 85.6021 80.1266 85.602C80.1266 85.6019 80.1266 85.6018 80.1266 85.6017C80.1266 85.6016 80.1266 85.6015 80.1266 85.6014C80.1266 85.6013 80.1266 85.6012 80.1266 85.6011C80.1266 85.601 80.1266 85.6009 80.1266 85.6008C80.1266 85.6007 80.1266 85.6006 80.1266 85.6005C80.1266 85.6004 80.1266 85.6003 80.1266 85.6002C80.1266 85.6001 80.1266 85.6 80.1266 85.5999C80.1266 85.5998 80.1266 85.5997 80.1266 85.5996C80.1266 85.5995 80.1266 85.5994 80.1266 85.5993C80.1266 85.5992 80.1266 85.5991 80.1266 85.599C80.1266 85.5989 80.1266 85.5989 80.1266 85.5988C80.1266 85.5987 80.1266 85.5986 80.1266 85.5985C80.1266 85.5984 80.1266 85.5983 80.1266 85.5982C80.1266 85.5981 80.1266 85.598 80.1266 85.5979C80.1266 85.5978 80.1266 85.5977 80.1266 85.5976C80.1266 85.5975 80.1266 85.5974 80.1266 85.5973C80.1266 85.5972 80.1266 85.5971 80.1266 85.597C80.1266 85.5969 80.1266 85.5968 80.1266 85.5967C80.1266 85.5966 80.1266 85.5965 80.1266 85.5964C80.1266 85.5963 80.1266 85.5962 80.1266 85.5961C80.1266 85.596 80.1266 85.5959 80.1266 85.5958C80.1266 85.5957 80.1266 85.5956 80.1266 85.5955C80.1266 85.5954 80.1266 85.5953 80.1266 85.5952C80.1266 85.5951 80.1266 85.595 80.1266 85.5949C80.1266 85.5948 80.1266 85.5947 80.1266 85.5947C80.1266 85.5946 80.1266 85.5945 80.1266 85.5944C80.1266 85.5943 80.1266 85.5942 80.1266 85.5941C80.1266 85.594 80.1266 85.5939 80.1266 85.5938C80.1266 85.5937 80.1266 85.5936 80.1266 85.5935C80.1266 85.5934 80.1266 85.5933 80.1266 85.5932C80.1266 85.5931 80.1266 85.593 80.1266 85.5929C80.1266 85.5928 80.1266 85.5927 80.1266 85.5926C80.1266 85.5925 80.1266 85.5924 80.1266 85.5923C80.1266 85.5922 80.1266 85.5921 80.1266 85.592C80.1266 85.5919 80.1266 85.5918 80.1266 85.5917C80.1266 85.5916 80.1266 85.5915 80.1266 85.5914C80.1266 85.5913 80.1266 85.5912 80.1266 85.5911C80.1266 85.591 80.1266 85.5909 80.1266 85.5908C80.1266 85.5907 80.1266 85.5906 80.1266 85.5906C80.1266 85.5905 80.1266 85.5904 80.1266 85.5903C80.1266 85.5902 80.1266 85.5901 80.1266 85.59C80.1266 85.5899 80.1266 85.5898 80.1266 85.5897C80.1266 85.5896 80.1266 85.5895 80.1266 85.5894C80.1266 85.5893 80.1266 85.5892 80.1266 85.5891C80.1266 85.589 80.1266 85.5889 80.1266 85.5888C80.1266 85.5887 80.1266 85.5886 80.1266 85.5885C80.1266 85.5884 80.1266 85.5883 80.1266 85.5882C80.1266 85.5881 80.1266 85.588 80.1266 85.5879C80.1266 85.5878 80.1266 85.5877 80.1266 85.5876C80.1266 85.5875 80.1266 85.5874 80.1266 85.5873C80.1266 85.5872 80.1266 85.5871 80.1266 85.587C80.1266 85.5869 80.1266 85.5868 80.1266 85.5867C80.1266 85.5866 80.1266 85.5865 80.1266 85.5864C80.1266 85.5864 80.1266 85.5863 80.1266 85.5862C80.1266 85.5861 80.1266 85.586 80.1266 85.5859C80.1266 85.5858 80.1266 85.5857 80.1266 85.5856C80.1266 85.5855 80.1266 85.5854 80.1266 85.5853C80.1266 85.5852 80.1266 85.5851 80.1266 85.585C80.1266 85.5849 80.1266 85.5848 80.1266 85.5847C80.1266 85.5846 80.1266 85.5845 80.1266 85.5844C80.1266 85.5843 80.1266 85.5842 80.1266 85.5841C80.1266 85.584 80.1266 85.5839 80.1266 85.5838C80.1266 85.5837 80.1266 85.5836 80.1266 85.5835C80.1266 85.5834 80.1266 85.5833 80.1266 85.5832C80.1266 85.5831 80.1266 85.583 80.1266 85.5829C80.1266 85.5828 80.1266 85.5827 80.1266 85.5826C80.1266 85.5825 80.1266 85.5824 80.1266 85.5823C80.1266 85.5822 80.1266 85.5822 80.1266 85.5821C80.1266 85.582 80.1266 85.5819 80.1266 85.5818C80.1266 85.5817 80.1266 85.5816 80.1266 85.5815C80.1266 85.5814 80.1266 85.5813 80.1266 85.5812C80.1266 85.5811 80.1266 85.581 80.1266 85.5809C80.1266 85.5808 80.1266 85.5807 80.1266 85.5806C80.1266 85.5805 80.1266 85.5804 80.1266 85.5803C80.1266 85.5802 80.1266 85.5801 80.1266 85.58C80.1266 85.5799 80.1266 85.5798 80.1266 85.5797C80.1266 85.5796 80.1266 85.5795 80.1266 85.5794C80.1266 85.5793 80.1266 85.5792 80.1266 85.5791C80.1266 85.579 80.1266 85.5789 80.1266 85.5788C80.1266 85.5787 80.1266 85.5786 80.1266 85.5785C80.1266 85.5784 80.1266 85.5783 80.1266 85.5782C80.1266 85.5781 80.1266 85.5781 80.1266 85.578C80.1266 85.5779 80.1266 85.5778 80.1266 85.5777C80.1266 85.5776 80.1266 85.5775 80.1266 85.5774C80.1266 85.5773 80.1266 85.5772 80.1266 85.5771C80.1266 85.577 80.1266 85.5769 80.1266 85.5768C80.1266 85.5767 80.1266 85.5766 80.1266 85.5765C80.1266 85.5764 80.1266 85.5763 80.1266 85.5762C80.1266 85.5761 80.1266 85.576 80.1266 85.5759C80.1266 85.5758 80.1266 85.5757 80.1266 85.5756C80.1266 85.5755 80.1266 85.5754 80.1266 85.5753C80.1266 85.5752 80.1266 85.5751 80.1266 85.575C80.1266 85.5749 80.1266 85.5748 80.1266 85.5747C80.1266 85.5746 80.1266 85.5745 80.1266 85.5744C80.1266 85.5743 80.1266 85.5742 80.1266 85.5741C80.1266 85.574 80.1266 85.5739 80.1266 85.5739C80.1266 85.5738 80.1266 85.5737 80.1266 85.5736C80.1266 85.5735 80.1266 85.5734 80.1266 85.5733C80.1266 85.5732 80.1266 85.5731 80.1266 85.573C80.1266 85.5729 80.1266 85.5728 80.1266 85.5727C80.1266 85.5726 80.1266 85.5725 80.1266 85.5724C80.1266 85.5723 80.1266 85.5722 80.1266 85.5721H74.1144ZM74.1144 85.7221C74.1144 85.7091 74.115 85.7914 74.0648 85.9945C74.0157 86.1929 73.9292 86.4629 73.7866 86.8129L79.3544 89.0813C79.7831 88.0291 80.1266 86.869 80.1266 85.7221H74.1144ZM73.7941 86.7946C73.712 86.9924 73.6405 87.1573 73.5792 87.2922C73.517 87.4291 73.4711 87.5222 73.4407 87.5801C73.4335 87.5938 73.4279 87.6041 73.4239 87.6113C73.4199 87.6186 73.4179 87.6221 73.4179 87.622C73.4179 87.6219 73.4186 87.6208 73.4199 87.6186C73.4212 87.6165 73.4233 87.6131 73.4261 87.6087C73.4315 87.6001 73.4409 87.5855 73.4543 87.5662C73.4772 87.533 73.5312 87.4572 73.6166 87.3618C73.6607 87.3125 73.722 87.248 73.8007 87.1764C73.8782 87.1058 73.9872 87.0148 74.128 86.9209L77.463 91.9233C77.997 91.5673 78.3067 91.1197 78.4024 90.9811C78.5482 90.7699 78.6689 90.5555 78.7629 90.3765C78.9535 90.0136 79.1497 89.5745 79.3469 89.0996L73.7941 86.7946ZM77.1732 86.7503C75.8452 86.0656 74.406 85.591 72.9205 85.591V91.6032C73.135 91.6032 73.6125 91.6786 74.4179 92.0939L77.1732 86.7503ZM72.9205 85.591C72.2333 85.591 71.1766 85.6985 70.2266 86.3826C69.0938 87.1981 68.6644 88.4165 68.6644 89.4971H74.6766C74.6766 89.6933 74.6421 90.0087 74.4765 90.3663C74.3035 90.74 74.0394 91.0456 73.7395 91.2616C73.2061 91.6457 72.7744 91.6032 72.9205 91.6032V85.591ZM68.6644 89.4971C68.6644 91.8005 70.5898 92.8587 71.3405 93.2036L73.8505 87.7406C73.7289 87.6847 73.8737 87.7267 74.0826 87.9469C74.3342 88.2121 74.6766 88.7474 74.6766 89.4971H68.6644ZM71.2512 93.1608C71.421 93.2457 71.6416 93.3509 71.8993 93.4711L74.4417 88.023C74.1994 87.91 74.0367 87.8318 73.9399 87.7834L71.2512 93.1608ZM71.8993 93.4711C72.0953 93.5626 72.3345 93.6817 72.6204 93.8322L75.4206 88.512C75.0732 88.3291 74.7457 88.1649 74.4417 88.023L71.8993 93.4711ZM72.7869 93.9134C72.93 93.9778 73.1262 94.0847 73.3771 94.2558L76.7639 89.2884C76.2815 88.9595 75.7777 88.6664 75.2541 88.4308L72.7869 93.9134ZM73.5075 94.3399C73.6773 94.4432 73.9268 94.6266 74.2565 94.931L78.3345 90.5132C77.7975 90.0176 77.2304 89.5676 76.6335 89.2043L73.5075 94.3399ZM74.2327 94.9087C74.4356 95.1001 74.6144 95.3687 74.6144 96.0221H80.6266C80.6266 93.9421 79.9221 92.0107 78.3583 90.5355L74.2327 94.9087ZM74.6144 96.0221C74.6144 97.2251 74.2977 97.9398 73.875 98.4271L78.4161 102.367C79.96 100.588 80.6266 98.3858 80.6266 96.0221H74.6144ZM73.875 98.4271C73.6345 98.7042 73.0687 99.1167 71.5466 99.1414L71.6444 105.153C74.2223 105.111 76.6899 104.357 78.4161 102.367L73.875 98.4271ZM71.5955 99.141C70.7588 99.141 70.0559 99.071 69.4716 98.9517L68.2694 104.842C69.3185 105.057 70.4322 105.153 71.5955 105.153V99.141ZM69.4836 98.9542C69.1205 98.8786 68.8633 98.7478 68.6563 98.5811L64.8847 103.263C65.8777 104.063 67.0205 104.582 68.2574 104.84L69.4836 98.9542ZM68.6563 98.5811C68.627 98.5575 68.6961 98.6059 68.7688 98.7473C68.8467 98.8988 68.8766 99.0562 68.8766 99.1721H62.8644C62.8644 100.889 63.6785 102.291 64.8847 103.263L68.6563 98.5811ZM68.8766 99.1721C68.8766 98.8642 68.9314 98.5461 69.0602 98.2026L63.4308 96.0916C63.0597 97.0814 62.8644 98.1133 62.8644 99.1721H68.8766ZM69.0686 98.1799C69.1088 98.0699 69.1436 97.9862 69.1714 97.9253C69.1995 97.8636 69.2164 97.8342 69.2191 97.8296C69.2225 97.8239 69.203 97.8581 69.1549 97.9164C69.1075 97.9738 69.0159 98.0746 68.8715 98.185L65.2195 93.4092C64.2087 94.1821 63.7024 95.3489 63.4224 96.1143L69.0686 98.1799ZM82.5018 88.9471H85.5078V85.941H82.5018V88.9471ZM78.9018 87.7971L75.9233 88.2033L75.9264 88.2263L75.9299 88.2493L78.9018 87.7971ZM78.9018 85.5471L75.9299 85.0949L75.9264 85.1179L75.9233 85.1409L78.9018 85.5471ZM90.9768 85.5471L93.9553 85.1409L93.9521 85.1179L93.9486 85.0949L90.9768 85.5471ZM90.9768 87.7971L93.9486 88.2493L93.9521 88.2263L93.9553 88.2033L90.9768 87.7971ZM87.4518 88.9471V85.941H84.4457V88.9471H87.4518ZM84.4457 101.497C84.4457 100.872 84.6527 100.311 84.9587 99.8787C85.239 99.4822 85.5543 99.257 85.739 99.1451C86.075 98.9414 86.318 98.9093 86.2377 98.9256C86.1285 98.9476 85.7536 98.991 84.9768 98.991V105.003C85.8499 105.003 86.7126 104.963 87.4283 104.819C87.7605 104.752 88.3129 104.615 88.8551 104.287C89.4178 103.946 90.4578 103.06 90.4578 101.497H84.4457ZM84.9768 98.991C84.1999 98.991 83.8251 98.9476 83.7158 98.9256C83.6355 98.9093 83.8785 98.9414 84.2145 99.1451C84.3992 99.257 84.7145 99.4822 84.9948 99.8787C85.3008 100.311 85.5078 100.872 85.5078 101.497H79.4957C79.4957 103.06 80.5357 103.946 81.0984 104.287C81.6406 104.615 82.193 104.752 82.5252 104.819C83.241 104.963 84.1036 105.003 84.9768 105.003V98.991ZM85.5078 101.497V88.9471H79.4957V101.497H85.5078ZM82.5018 85.941H79.5018V91.9532H82.5018V85.941ZM79.5018 85.941C80.1706 85.941 80.7521 86.1863 81.1728 86.52C81.5476 86.8172 81.7324 87.131 81.8044 87.2691C81.9338 87.5171 81.9151 87.6173 81.8736 87.3449L75.9299 88.2493C76.0051 88.7435 76.1447 89.4187 76.4741 90.0501C76.7925 90.6603 77.714 91.9532 79.5018 91.9532V85.941ZM81.8803 87.3909C81.8493 87.1636 81.8328 86.9244 81.8328 86.6721H75.8207C75.8207 87.1864 75.8543 87.6973 75.9233 88.2033L81.8803 87.3909ZM81.8328 86.6721C81.8328 86.4198 81.8493 86.1806 81.8803 85.9533L75.9233 85.1409C75.8543 85.6469 75.8207 86.1578 75.8207 86.6721H81.8328ZM81.8736 85.9993C81.9151 85.7269 81.9338 85.8271 81.8044 86.0751C81.7324 86.2131 81.5476 86.527 81.1728 86.8242C80.7521 87.1579 80.1706 87.4032 79.5018 87.4032V81.391C77.714 81.391 76.7925 82.6839 76.4741 83.2941C76.1447 83.9255 76.0051 84.6007 75.9299 85.0949L81.8736 85.9993ZM79.5018 87.4032H90.3768V81.391H79.5018V87.4032ZM90.3768 87.4032C89.7079 87.4032 89.1265 87.1579 88.7057 86.8242C88.331 86.527 88.1461 86.2131 88.0741 86.0751C87.9447 85.8271 87.9634 85.7269 88.0049 85.9993L93.9486 85.0949C93.8734 84.6007 93.7338 83.9255 93.4044 83.2941C93.086 82.6839 92.1645 81.391 90.3768 81.391V87.4032ZM87.9983 85.9533C88.0293 86.1806 88.0457 86.4198 88.0457 86.6721H94.0578C94.0578 86.1578 94.0243 85.6469 93.9553 85.1409L87.9983 85.9533ZM88.0457 86.6721C88.0457 86.9244 88.0293 87.1636 87.9983 87.3909L93.9553 88.2033C94.0243 87.6973 94.0578 87.1864 94.0578 86.6721H88.0457ZM88.0049 87.3449C87.9634 87.6173 87.9447 87.5171 88.0741 87.2691C88.1461 87.131 88.331 86.8172 88.7057 86.52C89.1265 86.1863 89.7079 85.941 90.3768 85.941V91.9532C92.1645 91.9532 93.086 90.6603 93.4044 90.0501C93.7338 89.4187 93.8734 88.7435 93.9486 88.2493L88.0049 87.3449ZM90.3768 85.941H87.4518V91.9532H90.3768V85.941ZM84.4457 88.9471V101.497H90.4578V88.9471H84.4457ZM94.4256 99.8471L92.2533 101.925L92.2591 101.931L92.265 101.937L94.4256 99.8471ZM94.4506 86.4471L92.3133 84.3333L92.3074 84.3392L92.3015 84.3452L94.4506 86.4471ZM105.951 86.4221L103.789 88.5114L103.795 88.5174L103.801 88.5234L105.951 86.4221ZM105.901 99.9471L108.014 102.085L108.02 102.079L108.026 102.073L105.901 99.9471ZM98.1506 90.0721L95.7457 88.2685L95.7325 88.2861L95.7195 88.304L98.1506 90.0721ZM98.1256 96.2221L95.6871 97.98L95.697 97.9937L95.707 98.0073L98.1256 96.2221ZM102.201 96.1971L99.789 94.4024L99.7754 94.4207L99.7621 94.4391L102.201 96.1971ZM102.176 90.0471L99.764 91.8417L99.7773 91.8596L99.7908 91.8772L102.176 90.0471ZM100.151 99.141C98.5473 99.141 97.447 98.6469 96.5861 97.757L92.265 101.937C94.3709 104.114 97.0872 105.153 100.151 105.153V99.141ZM96.5979 97.7692C95.8428 96.9798 95.2317 95.6061 95.2317 93.1471H89.2195C89.2195 96.5547 90.075 99.6477 92.2533 101.925L96.5979 97.7692ZM95.2317 93.1471C95.2317 90.6716 95.8504 89.315 96.5997 88.549L92.3015 84.3452C90.0841 86.6125 89.2195 89.7226 89.2195 93.1471H95.2317ZM96.5879 88.5609C97.4631 87.676 98.5888 87.1782 100.226 87.1782V81.166C97.1624 81.166 94.4381 82.1848 92.3133 84.3333L96.5879 88.5609ZM100.226 87.1782C101.897 87.1782 102.984 87.6783 103.789 88.5114L108.112 84.3328C106.017 82.1659 103.287 81.166 100.226 81.166V87.1782ZM103.801 88.5234C104.493 89.2311 105.12 90.588 105.12 93.1971H111.132C111.132 89.7395 110.308 86.5798 108.1 84.3208L103.801 88.5234ZM105.12 93.1971C105.12 95.7674 104.487 97.1091 103.775 97.8215L108.026 102.073C110.281 99.8184 111.132 96.6602 111.132 93.1971H105.12ZM103.787 97.8095C102.94 98.6475 101.818 99.141 100.151 99.141V105.153C103.183 105.153 105.895 104.18 108.014 102.085L103.787 97.8095ZM100.176 85.966C98.2824 85.966 96.769 86.9041 95.7457 88.2685L100.555 91.8757C100.621 91.7889 100.613 91.8296 100.504 91.8886C100.451 91.9172 100.39 91.9418 100.324 91.9581C100.259 91.9743 100.207 91.9782 100.176 91.9782V85.966ZM95.7195 88.304C94.6738 89.7418 94.3445 91.4887 94.3445 93.1721H100.357C100.357 92.1888 100.561 91.8691 100.582 91.8402L95.7195 88.304ZM94.3445 93.1721C94.3445 94.8263 94.6605 96.5561 95.6871 97.98L100.564 94.4641C100.557 94.4548 100.357 94.1512 100.357 93.1721H94.3445ZM95.707 98.0073C96.7611 99.4354 98.3147 100.278 100.151 100.278V94.266C100.154 94.266 100.184 94.2665 100.235 94.2782C100.286 94.2902 100.345 94.3107 100.403 94.3409C100.529 94.4061 100.569 94.4707 100.544 94.4369L95.707 98.0073ZM100.151 100.278C102.011 100.278 103.584 99.419 104.639 97.955L99.7621 94.4391C99.7368 94.4743 99.7771 94.4079 99.9045 94.3411C99.9634 94.3102 100.022 94.2896 100.073 94.2777C100.122 94.2661 100.151 94.266 100.151 94.266V100.278ZM104.612 97.9917C105.68 96.557 106.007 94.799 106.007 93.1221H99.9945C99.9945 93.596 99.9463 93.9227 99.8914 94.134C99.8646 94.237 99.838 94.3055 99.8189 94.347C99.8094 94.3677 99.8018 94.3818 99.7967 94.3903C99.7942 94.3947 99.7922 94.3977 99.791 94.3996C99.7897 94.4015 99.789 94.4024 99.789 94.4024L104.612 97.9917ZM106.007 93.1221C106.007 91.429 105.665 89.6563 104.56 88.2169L99.7908 91.8772C99.791 91.8774 99.7936 91.8809 99.7984 91.8888C99.8033 91.8968 99.8106 91.9099 99.8198 91.9293C99.8383 91.9682 99.8644 92.0333 99.8909 92.1323C99.9455 92.3356 99.9945 92.6545 99.9945 93.1221H106.007ZM104.587 88.2524C103.563 86.8759 102.046 85.966 100.176 85.966V91.9782C100.149 91.9782 100.101 91.975 100.037 91.9595C99.9727 91.9437 99.9092 91.9192 99.8524 91.8887C99.734 91.825 99.7134 91.7737 99.764 91.8417L104.587 88.2524ZM122.058 92.3471L124.768 93.6479L124.773 93.6375L124.778 93.6271L122.058 92.3471ZM120.358 94.3471L118.664 91.8634L116.321 93.4614L117.78 95.8937L120.358 94.3471ZM123.508 99.5971L126.36 100.548L126.797 99.2361L126.085 98.0505L123.508 99.5971ZM122.208 100.972L120.476 98.5147L120.467 98.5217L120.457 98.5287L122.208 100.972ZM118.283 101.347L115.52 102.533L115.634 102.797L115.795 103.035L118.283 101.347ZM115.933 95.8721L118.695 94.6864L117.914 92.866H115.933V95.8721ZM115.158 95.8721V92.866H112.152V95.8721H115.158ZM115.158 88.8221V85.816H112.152V88.8221H115.158ZM115.158 92.5721H112.152V95.5782H115.158V92.5721ZM117.183 89.2721L115.057 91.3977L115.116 91.4567L115.178 91.5123L117.183 89.2721ZM112.152 101.547C112.152 100.764 112.464 100.126 112.828 99.6963C113.152 99.3141 113.493 99.1204 113.654 99.0391C113.96 98.8844 114.165 98.866 114.065 98.8828C113.925 98.9064 113.535 98.941 112.783 98.941V104.953C113.614 104.953 114.412 104.921 115.063 104.811C115.359 104.762 115.861 104.66 116.365 104.405C116.762 104.205 118.164 103.372 118.164 101.547H112.152ZM112.783 98.941C112.019 98.941 111.609 98.9086 111.447 98.8833C111.336 98.8659 111.52 98.879 111.809 99.0143C111.957 99.0836 112.301 99.2621 112.639 99.6316C113.021 100.049 113.389 100.717 113.389 101.572H107.377C107.377 103.511 108.95 104.314 109.257 104.458C109.745 104.687 110.23 104.778 110.519 104.823C111.157 104.923 111.947 104.953 112.783 104.953V98.941ZM113.389 101.572V85.2721H107.377V101.572H113.389ZM113.389 85.2721C113.389 85.4878 113.324 86.1906 112.68 86.7997C112.067 87.3791 111.422 87.4032 111.308 87.4032V81.391C110.576 81.391 109.469 81.5609 108.548 82.432C107.596 83.3328 107.377 84.4731 107.377 85.2721H113.389ZM111.308 87.4032H116.083V81.391H111.308V87.4032ZM116.083 87.4032C117.967 87.4032 118.826 87.7844 119.166 88.0492C119.363 88.2032 119.652 88.5047 119.652 89.5221H125.664C125.664 87.1228 124.856 84.8619 122.862 83.3074C121.01 81.864 118.582 81.391 116.083 81.391V87.4032ZM119.652 89.5221C119.652 90.1577 119.531 90.6561 119.338 91.0671L124.778 93.6271C125.384 92.3381 125.664 90.9532 125.664 89.5221H119.652ZM119.348 91.0463C119.167 91.4234 118.942 91.674 118.664 91.8634L122.051 96.8308C123.24 96.0202 124.149 94.9375 124.768 93.6479L119.348 91.0463ZM117.78 95.8937L120.93 101.144L126.085 98.0505L122.935 92.8005L117.78 95.8937ZM120.656 98.6465C120.722 98.4498 120.799 98.3176 120.843 98.2518C120.887 98.1854 120.913 98.1605 120.898 98.1756C120.885 98.1896 120.847 98.2277 120.774 98.2889C120.701 98.3495 120.604 98.4249 120.476 98.5147L123.939 103.43C124.718 102.881 125.894 101.943 126.36 100.548L120.656 98.6465ZM120.457 98.5287C120.071 98.805 119.803 98.9512 119.641 99.0211C119.471 99.0951 119.52 99.041 119.733 99.041V105.053C121.362 105.053 122.838 104.219 123.959 103.415L120.457 98.5287ZM119.733 99.041C119.766 99.041 119.947 99.0477 120.19 99.165C120.449 99.2901 120.647 99.478 120.77 99.6592L115.795 103.035C116.764 104.462 118.263 105.053 119.733 105.053V99.041ZM121.045 100.161L118.695 94.6864L113.17 97.0578L115.52 102.533L121.045 100.161ZM115.933 92.866H115.158V98.8782H115.933V92.866ZM112.152 95.8721V101.547H118.164V95.8721H112.152ZM112.152 88.8221V92.5721H118.164V88.8221H112.152ZM115.158 95.5782H115.283V89.566H115.158V95.5782ZM115.283 95.5782C116.417 95.5782 117.827 95.3539 118.986 94.3897C120.252 93.3371 120.664 91.8796 120.664 90.5971H114.652C114.652 90.6312 114.646 90.525 114.719 90.3427C114.8 90.142 114.943 89.9326 115.142 89.767C115.51 89.4611 115.732 89.566 115.283 89.566V95.5782ZM120.664 90.5971C120.664 89.5047 120.369 88.0894 119.187 87.0318L115.178 91.5123C114.926 91.2867 114.781 91.0303 114.709 90.8303C114.644 90.6492 114.652 90.5511 114.652 90.5971H120.664ZM119.308 87.1465C118.173 86.0106 116.688 85.816 115.683 85.816V91.8282C115.833 91.8282 115.826 91.846 115.719 91.8139C115.601 91.7785 115.331 91.6716 115.057 91.3977L119.308 87.1465ZM115.683 85.816H115.158V91.8282H115.683V85.816ZM134.079 85.2221L136.859 86.3667L136.879 86.318L136.897 86.2688L134.079 85.2221ZM138.979 84.4471L138.672 87.4375L138.68 87.4382L138.979 84.4471ZM139.904 84.6971L137.215 83.3527L137.213 83.3579L139.904 84.6971ZM134.704 95.1471L132.013 93.8079L131.698 94.4405V95.1471H134.704ZM133.329 101.847L132.949 98.8651L132.927 98.868L132.904 98.8712L133.329 101.847ZM130.604 101.872L130.224 104.854L130.248 104.857L130.272 104.86L130.604 101.872ZM129.229 95.2971H132.235V94.5755L131.907 93.9325L129.229 95.2971ZM123.854 84.7471L126.532 83.3825L126.453 83.2259L126.355 83.0796L123.854 84.7471ZM124.879 84.4721L125.211 87.4598L125.244 87.4561L125.276 87.4518L124.879 84.4721ZM130.154 85.2221L127.302 86.1727L127.313 86.2039L127.324 86.2349L130.154 85.2221ZM131.979 90.3221L129.149 91.3349L131.782 98.6948L134.759 91.4667L131.979 90.3221ZM136.897 86.2688C136.686 86.8378 136.32 87.1693 136.094 87.323C135.89 87.4623 135.764 87.4847 135.834 87.4655C135.891 87.4499 136.034 87.4189 136.293 87.3936C136.547 87.3688 136.872 87.3532 137.279 87.3532V81.341C136.218 81.341 135.162 81.4165 134.249 81.6662C133.485 81.8751 131.898 82.4593 131.261 84.1754L136.897 86.2688ZM137.279 87.3532C137.631 87.3532 138.091 87.3779 138.672 87.4375L139.286 81.4567C138.567 81.383 137.893 81.341 137.279 81.341V87.3532ZM138.68 87.4382C138.987 87.4689 139.024 87.488 138.926 87.4615C138.888 87.4514 138.804 87.4273 138.693 87.3827C138.595 87.3438 138.381 87.2517 138.134 87.0767C137.914 86.9204 137.425 86.5275 137.127 85.808C136.772 84.9469 136.867 84.0498 137.215 83.3528L142.593 86.0414C142.954 85.3193 143.05 84.3978 142.684 83.5128C142.377 82.7693 141.866 82.3529 141.614 82.1737C141.127 81.8278 140.638 81.6966 140.494 81.6576C140.088 81.5478 139.638 81.4919 139.278 81.4559L138.68 87.4382ZM137.213 83.3579L132.013 93.8079L137.395 96.4863L142.595 86.0363L137.213 83.3579ZM131.698 95.1471V101.247H137.71V95.1471H131.698ZM131.698 101.247C131.698 100.415 132.064 99.7689 132.437 99.3755C132.759 99.0352 133.071 98.8923 133.158 98.8544C133.326 98.7813 133.321 98.8178 132.949 98.8651L133.708 104.829C134.254 104.76 134.936 104.638 135.562 104.365C135.997 104.175 137.71 103.321 137.71 101.247H131.698ZM132.904 98.8712C132.571 98.9187 132.255 98.941 131.954 98.941V104.953C132.553 104.953 133.153 104.909 133.754 104.823L132.904 98.8712ZM131.954 98.941C131.615 98.941 131.276 98.9222 130.936 98.8844L130.272 104.86C130.831 104.922 131.392 104.953 131.954 104.953V98.941ZM130.983 98.8901C130.619 98.8437 130.632 98.8076 130.817 98.8917C130.916 98.9368 131.23 99.0899 131.547 99.4419C131.913 99.8474 132.235 100.474 132.235 101.247H126.223C126.223 103.247 127.813 104.13 128.329 104.365C128.972 104.657 129.673 104.784 130.224 104.854L130.983 98.8901ZM132.235 101.247V95.2971H126.223V101.247H132.235ZM131.907 93.9325L126.532 83.3825L121.175 86.1117L126.55 96.6617L131.907 93.9325ZM126.355 83.0796C126.783 83.7215 127.048 84.7001 126.675 85.7325C126.375 86.5628 125.807 86.9953 125.599 87.1398C125.349 87.3146 125.133 87.4037 125.047 87.4375C124.943 87.4781 124.867 87.4992 124.839 87.5067C124.776 87.5237 124.857 87.4991 125.211 87.4598L124.547 81.4844C124.15 81.5285 123.686 81.5914 123.281 81.7C123.148 81.7356 122.653 81.8652 122.162 82.2075C121.92 82.376 121.33 82.8326 121.021 83.6875C120.639 84.7443 120.908 85.7477 121.353 86.4146L126.355 83.0796ZM125.276 87.4518C125.949 87.3621 126.441 87.3282 126.779 87.3282V81.316C126.084 81.316 125.309 81.3821 124.482 81.4924L125.276 87.4518ZM126.779 87.3282C127.222 87.3282 127.579 87.3445 127.86 87.3711C128.147 87.3982 128.312 87.4321 128.386 87.4517C128.475 87.4756 128.351 87.4572 128.141 87.315C127.909 87.1569 127.511 86.7985 127.302 86.1727L133.006 84.2715C132.393 82.432 130.679 81.8411 129.935 81.6425C128.998 81.3927 127.899 81.316 126.779 81.316V87.3282ZM127.324 86.2349L129.149 91.3349L134.809 89.3093L132.984 84.2093L127.324 86.2349ZM134.759 91.4667L136.859 86.3667L131.299 84.0775L129.199 89.1775L134.759 91.4667Z" fill="black" mask="url(#path-7-outside-1_65_1016)"/>
</g>
<path d="M100.189 3.32407C99.9105 2.9486 99.4228 2.79395 98.979 2.94048L49.0628 19.4218C48.6011 19.5742 48.2976 20.0155 48.3205 20.5012L49.2689 40.6571C49.2794 40.8796 49.3582 41.0934 49.4945 41.2695L75.5791 74.9422C75.8467 75.2877 76.2958 75.4385 76.7177 75.3245L126.753 61.808C127.225 61.6804 127.553 61.2518 127.553 60.7624V54.597C127.553 54.2726 127.408 53.9652 127.157 53.7595L121.625 49.2233V48.828L126.703 47.7109C127.199 47.6016 127.553 47.1616 127.553 46.6531V40.6062C127.553 40.374 127.479 40.1479 127.34 39.9614L100.189 3.32407Z" fill="#1D50B3" stroke="black" stroke-width="2.16613" stroke-linejoin="round"/>
<path d="M80.8154 69.4633V60.3686L120.539 47.9835V57.8228L80.8154 69.4633Z" fill="#A0DDF3"/>
<mask id="mask1_65_1016" style="mask-type:alpha" maskUnits="userSpaceOnUse" x="49" y="3" width="78" height="72">
<path d="M99.3186 3.96893L49.4023 20.4502L50.3508 40.6062L76.4353 74.279L126.47 60.7624V54.597L120.542 49.7358V47.9573L126.47 46.6531V40.6062L99.3186 3.96893Z" fill="#1D50B3"/>
</mask>
<g mask="url(#mask1_65_1016)">
<path d="M76.5342 56.8027V74.4289" stroke="#225AC0" stroke-width="0.541533"/>
<path d="M99.1742 3.0448L48.9673 19.7796L76.1938 56.8727C76.3327 57.0619 76.5776 57.1401 76.8004 57.0664L128.108 40.0996L99.1742 3.0448Z" fill="#3683F7"/>
</g>
<path d="M119.634 1.98L120.375 2.31436L119.634 1.98L116.02 9.98219L108.018 13.5963C106.956 14.076 106.956 15.5843 108.018 16.064L108.353 15.3237L108.018 16.064L116.02 19.6782L119.634 27.6803C120.114 28.7424 121.622 28.7424 122.102 27.6803L125.716 19.6782L133.718 16.064C134.781 15.5843 134.781 14.076 133.718 13.5963L125.716 9.98218L122.102 1.98C121.622 0.917895 120.114 0.917904 119.634 1.98ZM125.758 19.5849C125.758 19.5852 125.758 19.5854 125.758 19.5856L125.758 19.5849ZM125.624 19.72C125.624 19.7201 125.623 19.7202 125.623 19.7203L125.624 19.72Z" fill="#FFFF33" stroke="black" stroke-width="1.6246"/>
<path d="M53.6652 43.9966L54.2822 44.2752L53.6652 43.9966L50.6626 50.6449L44.0143 53.6475L44.2929 54.2645L44.0143 53.6475C43.0584 54.0793 43.0584 55.4367 44.0143 55.8684L44.2929 55.2515L44.0143 55.8684L50.6626 58.8711L53.6652 65.5194C54.097 66.4753 55.4544 66.4753 55.8861 65.5194L58.8888 58.8711L65.5371 55.8684C66.493 55.4367 66.493 54.0793 65.5371 53.6475L58.8888 50.6449L55.8861 43.9966L55.2692 44.2752L55.8861 43.9966C55.4544 43.0407 54.097 43.0407 53.6652 43.9966Z" fill="#FFFF33" stroke="black" stroke-width="1.35383"/>
<defs>
<filter id="filter0_d_65_1016" x="0.059082" y="28.8298" width="170.576" height="98.4135" filterUnits="userSpaceOnUse" color-interpolation-filters="sRGB">
<feFlood flood-opacity="0" result="BackgroundImageFix"/>
<feColorMatrix in="SourceAlpha" type="matrix" values="0 0 0 0 0 0 0 0 0 0 0 0 0 0 0 0 0 0 127 0" result="hardAlpha"/>
<feOffset dy="7.51517"/>
<feComposite in2="hardAlpha" operator="out"/>
<feColorMatrix type="matrix" values="0 0 0 0 0 0 0 0 0 0 0 0 0 0 0 0 0 0 0.5 0"/>
<feBlend mode="normal" in2="BackgroundImageFix" result="effect1_dropShadow_65_1016"/>
<feBlend mode="normal" in="SourceGraphic" in2="effect1_dropShadow_65_1016" result="shape"/>
</filter>
<filter id="filter1_d_65_1016" x="36.083" y="81.166" width="106.833" height="25.7908" filterUnits="userSpaceOnUse" color-interpolation-filters="sRGB">
<feFlood flood-opacity="0" result="BackgroundImageFix"/>
<feColorMatrix in="SourceAlpha" type="matrix" values="0 0 0 0 0 0 0 0 0 0 0 0 0 0 0 0 0 0 127 0" result="hardAlpha"/>
<feOffset dy="1.80364"/>
<feComposite in2="hardAlpha" operator="out"/>
<feColorMatrix type="matrix" values="0 0 0 0 0 0 0 0 0 0 0 0 0 0 0 0 0 0 1 0"/>
<feBlend mode="normal" in2="BackgroundImageFix" result="effect1_dropShadow_65_1016"/>
<feBlend mode="normal" in="SourceGraphic" in2="effect1_dropShadow_65_1016" result="shape"/>
</filter>
</defs>
</svg>
