<svg width="227" height="149" viewBox="0 0 227 149" fill="none" xmlns="http://www.w3.org/2000/svg">
<g filter="url(#filter0_d_65_1013)">
<path d="M15.0421 54.6275C15.2605 52.5661 17.0026 51.0039 19.0755 51.0106L220.543 51.6552C222.939 51.6629 224.803 53.7413 224.55 56.1243L215.936 137.413C215.718 139.474 213.975 141.036 211.903 141.03L10.4353 140.385C8.03896 140.377 6.17517 138.299 6.4277 135.916L15.0421 54.6275Z" fill="#353C52"/>
<path d="M19.0788 49.9998C16.4876 49.9915 14.31 51.9442 14.0369 54.521L5.42257 135.809C5.1069 138.788 7.43665 141.386 10.432 141.396L211.899 142.04C214.49 142.049 216.668 140.096 216.941 137.519L225.556 56.2308C225.871 53.2521 223.541 50.6541 220.546 50.6445L19.0788 49.9998Z" stroke="black" stroke-width="2.02151"/>
</g>
<mask id="mask0_65_1013" style="mask-type:alpha" maskUnits="userSpaceOnUse" x="6" y="51" width="219" height="91">
<path d="M15.0421 54.6275C15.2605 52.5661 17.0026 51.0039 19.0755 51.0106L220.543 51.6552C222.939 51.6629 224.803 53.7413 224.55 56.1243L215.936 137.413C215.718 139.474 213.975 141.036 211.903 141.03L10.4353 140.385C8.03896 140.377 6.17517 138.299 6.4277 135.916L15.0421 54.6275Z" fill="#353C52"/>
</mask>
<g mask="url(#mask0_65_1013)">
<rect x="-6.10449" y="25.3196" width="245.811" height="30.5379" fill="#6E5F84"/>
<rect x="-8.72998" y="135.543" width="245.811" height="30.5379" fill="#232736"/>
<rect x="210.963" y="47.6371" width="21.4194" height="22.4163" transform="rotate(-47.3701 210.963 47.6371)" fill="#826F9D"/>
</g>
<path d="M25.8392 96.6108C24.2971 96.6059 22.997 97.759 22.8178 99.2906L19.6283 126.546C19.4179 128.344 20.8199 129.925 22.6304 129.93L206.801 130.52C208.343 130.525 209.643 129.372 209.823 127.84L213.012 100.585C213.222 98.7866 211.82 97.2059 210.01 97.2001L25.8392 96.6108Z" fill="#2A3147" stroke="black" stroke-width="2.02151"/>
<mask id="mask1_65_1013" style="mask-type:alpha" maskUnits="userSpaceOnUse" x="20" y="97" width="193" height="33">
<path d="M23.8202 99.4102C23.9397 98.3891 24.8065 97.6203 25.8345 97.6236L210.005 98.213C211.212 98.2168 212.147 99.2706 212.007 100.469L208.817 127.725C208.698 128.746 207.831 129.514 206.803 129.511L22.6321 128.922C21.4252 128.918 20.4905 127.864 20.6308 126.665L23.8202 99.4102Z" fill="#212121"/>
</mask>
<g mask="url(#mask1_65_1013)">
<rect x="13.2739" y="94.1221" width="208.804" height="22.7558" fill="#21273A"/>
</g>
<path d="M24.8402 96.6075C23.2592 96.6024 21.9396 97.813 21.8087 99.3886L19.5431 126.647C19.3965 128.411 20.7854 129.924 22.5553 129.93L150.68 130.34C152.261 130.345 153.581 129.135 153.712 127.559L155.977 100.301C156.124 98.5371 154.735 97.0231 152.965 97.0175L24.8402 96.6075Z" fill="#F07527" stroke="black" stroke-width="2.02151"/>
<mask id="mask2_65_1013" style="mask-type:alpha" maskUnits="userSpaceOnUse" x="20" y="97" width="135" height="33">
<path d="M22.8145 99.4723C22.9018 98.4219 23.7815 97.6149 24.8355 97.6182L152.96 98.0282C154.14 98.032 155.066 99.0413 154.968 100.217L152.703 127.475C152.616 128.526 151.736 129.333 150.682 129.329L22.557 128.919C21.3771 128.916 20.4512 127.906 20.5489 126.73L22.8145 99.4723Z" fill="#FEE746"/>
</mask>
<g mask="url(#mask2_65_1013)">
<rect x="13.2749" y="94.1199" width="150.934" height="18.5233" fill="#FEE746"/>
</g>
<g filter="url(#filter1_d_65_1013)">
<mask id="path-13-outside-1_65_1013" maskUnits="userSpaceOnUse" x="72.9504" y="100.727" width="121.083" height="26.3871" fill="black">
<rect fill="white" x="72.9504" y="100.727" width="121.083" height="26.3871"/>
<path d="M83.6036 121.349C83.6027 121.624 82.7775 121.758 81.128 121.753C79.4946 121.748 78.6784 121.608 78.6792 121.333L78.7175 109.374L76.0976 109.39C75.6124 109.388 75.3723 108.611 75.3773 107.058C75.379 106.525 75.4292 106.007 75.5278 105.506C75.6426 105.005 75.8294 104.755 76.0881 104.756L82.7348 104.777C83.0098 104.778 83.2279 104.844 83.3892 104.974C83.5667 105.087 83.6552 105.233 83.6546 105.411L83.6036 121.349ZM92.7044 122.033C90.6829 122.026 89.0276 121.277 87.7386 119.785C86.4658 118.293 85.8339 116.116 85.8431 113.254C85.8523 110.391 86.506 108.234 87.8045 106.783C89.1029 105.315 90.771 104.585 92.8087 104.591C94.8625 104.598 96.5178 105.331 97.7746 106.791C99.0314 108.25 99.6551 110.443 99.6457 113.37C99.6363 116.298 98.9825 118.479 97.6841 119.914C96.4019 121.333 94.742 122.039 92.7044 122.033ZM92.7453 109.249C92.1307 109.247 91.604 109.601 91.1651 110.311C90.7424 111.005 90.529 111.999 90.5248 113.293C90.5207 114.587 90.7196 115.582 91.1217 116.278C91.54 116.959 92.0726 117.3 92.7195 117.302C93.3825 117.305 93.9173 116.959 94.3239 116.264C94.7466 115.57 94.96 114.576 94.9641 113.283C94.9683 111.989 94.7531 110.994 94.3187 110.297C93.9005 109.6 93.376 109.251 92.7453 109.249ZM109.242 121.431C109.242 121.706 108.416 121.84 106.767 121.835C105.133 121.83 104.317 121.69 104.318 121.415L104.356 109.456L101.736 109.472C101.251 109.47 101.011 108.693 101.016 107.14C101.018 106.607 101.068 106.089 101.167 105.588C101.281 105.087 101.468 104.837 101.727 104.838L108.374 104.86C108.649 104.86 108.867 104.926 109.028 105.056C109.206 105.169 109.294 105.315 109.293 105.493L109.242 121.431ZM121.018 104.9C121.325 104.901 121.477 105.573 121.473 106.915C121.471 107.335 121.429 107.837 121.347 108.418C121.28 108.984 121.15 109.267 120.956 109.266L116.225 109.251L116.195 111.022L116.996 111.024C118.726 111.03 120.01 111.535 120.848 112.541C121.702 113.546 122.126 114.874 122.121 116.523C122.116 118.173 121.529 119.521 120.362 120.569C119.194 121.6 117.696 122.113 115.869 122.107C114.041 122.101 112.708 121.838 111.869 121.318C111.74 121.107 111.676 120.784 111.678 120.347C111.679 119.894 111.746 119.264 111.878 118.455C112.01 117.631 112.189 117.219 112.416 117.22C112.432 117.22 112.48 117.252 112.561 117.317C113.708 117.79 114.58 118.027 115.178 118.029C115.793 118.031 116.295 117.871 116.684 117.549C117.089 117.211 117.293 116.783 117.295 116.265C117.299 114.971 116.605 114.322 115.215 114.318L113.128 114.335C112.966 114.367 112.805 114.302 112.644 114.14C112.483 113.961 112.402 113.735 112.403 113.46L112.428 105.867C112.43 105.204 112.673 104.873 113.159 104.875L121.018 104.9ZM134.934 103.125C135.015 102.947 135.169 102.859 135.396 102.86C135.638 102.861 135.889 102.918 136.147 103.032C136.745 103.309 137.132 103.633 137.308 104.006C137.373 104.119 137.405 104.225 137.404 104.322C137.404 104.419 137.388 104.5 137.355 104.564L125.964 124.201C125.866 124.363 125.696 124.443 125.453 124.442C125.211 124.441 124.969 124.384 124.726 124.27C124.113 123.977 123.718 123.652 123.541 123.296C123.493 123.199 123.469 123.102 123.469 123.004C123.469 122.924 123.494 122.843 123.542 122.762L134.934 103.125ZM146.161 121.549C146.16 121.824 145.335 121.959 143.685 121.953C142.052 121.948 141.236 121.808 141.237 121.533L141.275 109.574L138.655 109.59C138.17 109.588 137.93 108.811 137.935 107.259C137.936 106.725 137.986 106.208 138.085 105.707C138.2 105.206 138.387 104.956 138.645 104.956L145.292 104.978C145.567 104.979 145.785 105.044 145.947 105.174C146.124 105.288 146.213 105.433 146.212 105.611L146.161 121.549ZM157.922 109.676C157.276 109.318 156.525 109.137 155.667 109.135C154.163 109.13 153.303 110.098 153.087 112.037C153.929 111.798 154.826 111.679 155.781 111.682C157.414 111.687 158.609 112.12 159.367 112.979C160.14 113.823 160.525 114.98 160.52 116.452C160.514 118.231 159.96 119.644 158.857 120.692C157.754 121.723 156.264 122.236 154.388 122.23C152.512 122.224 151.043 121.54 149.98 120.178C148.917 118.8 148.39 116.85 148.398 114.327C148.407 111.384 149.078 109.057 150.409 107.347C151.757 105.621 153.498 104.761 155.633 104.768C158.059 104.776 159.27 105.273 159.267 106.26C159.265 106.971 159.036 107.73 158.58 108.538C158.418 108.893 158.198 109.272 157.922 109.676ZM156.323 116.463C156.325 115.962 156.173 115.557 155.866 115.248C155.56 114.924 155.092 114.761 154.461 114.759C153.846 114.757 153.377 114.869 153.053 115.094C153.036 115.304 153.027 115.539 153.026 115.797C153.025 116.056 153.049 116.38 153.096 116.768C153.159 117.14 153.32 117.513 153.578 117.885C153.851 118.242 154.207 118.421 154.643 118.422C155.759 118.426 156.319 117.773 156.323 116.463ZM169.36 122.278C167.339 122.272 165.684 121.522 164.395 120.03C163.122 118.538 162.49 116.361 162.499 113.499C162.508 110.636 163.162 108.48 164.46 107.028C165.759 105.561 167.427 104.83 169.465 104.837C171.519 104.843 173.174 105.576 174.431 107.036C175.687 108.495 176.311 110.689 176.302 113.616C176.292 116.543 175.638 118.724 174.34 120.159C173.058 121.578 171.398 122.285 169.36 122.278ZM169.401 109.494C168.787 109.492 168.26 109.846 167.821 110.556C167.398 111.25 167.185 112.244 167.181 113.538C167.177 114.832 167.376 115.827 167.778 116.524C168.196 117.204 168.729 117.546 169.375 117.548C170.039 117.55 170.573 117.204 170.98 116.51C171.403 115.816 171.616 114.822 171.62 113.528C171.624 112.234 171.409 111.239 170.975 110.542C170.556 109.845 170.032 109.496 169.401 109.494ZM184.999 122.328C182.977 122.322 181.322 121.572 180.033 120.08C178.76 118.589 178.128 116.411 178.138 113.549C178.147 110.686 178.801 108.53 180.099 107.078C181.397 105.611 183.065 104.88 185.103 104.887C187.157 104.893 188.812 105.626 190.069 107.086C191.326 108.545 191.95 110.739 191.94 113.666C191.931 116.593 191.277 118.774 189.979 120.209C188.696 121.628 187.036 122.335 184.999 122.328ZM185.04 109.544C184.425 109.542 183.898 109.896 183.46 110.606C183.037 111.3 182.823 112.294 182.819 113.588C182.815 114.882 183.014 115.877 183.416 116.574C183.834 117.254 184.367 117.596 185.014 117.598C185.677 117.6 186.212 117.254 186.618 116.56C187.041 115.866 187.254 114.872 187.259 113.578C187.263 112.284 187.048 111.289 186.613 110.592C186.195 109.895 185.67 109.546 185.04 109.544Z"/>
</mask>
<path d="M83.6036 121.349C83.6027 121.624 82.7775 121.758 81.128 121.753C79.4946 121.748 78.6784 121.608 78.6792 121.333L78.7175 109.374L76.0976 109.39C75.6124 109.388 75.3723 108.611 75.3773 107.058C75.379 106.525 75.4292 106.007 75.5278 105.506C75.6426 105.005 75.8294 104.755 76.0881 104.756L82.7348 104.777C83.0098 104.778 83.2279 104.844 83.3892 104.974C83.5667 105.087 83.6552 105.233 83.6546 105.411L83.6036 121.349ZM92.7044 122.033C90.6829 122.026 89.0276 121.277 87.7386 119.785C86.4658 118.293 85.8339 116.116 85.8431 113.254C85.8523 110.391 86.506 108.234 87.8045 106.783C89.1029 105.315 90.771 104.585 92.8087 104.591C94.8625 104.598 96.5178 105.331 97.7746 106.791C99.0314 108.25 99.6551 110.443 99.6457 113.37C99.6363 116.298 98.9825 118.479 97.6841 119.914C96.4019 121.333 94.742 122.039 92.7044 122.033ZM92.7453 109.249C92.1307 109.247 91.604 109.601 91.1651 110.311C90.7424 111.005 90.529 111.999 90.5248 113.293C90.5207 114.587 90.7196 115.582 91.1217 116.278C91.54 116.959 92.0726 117.3 92.7195 117.302C93.3825 117.305 93.9173 116.959 94.3239 116.264C94.7466 115.57 94.96 114.576 94.9641 113.283C94.9683 111.989 94.7531 110.994 94.3187 110.297C93.9005 109.6 93.376 109.251 92.7453 109.249ZM109.242 121.431C109.242 121.706 108.416 121.84 106.767 121.835C105.133 121.83 104.317 121.69 104.318 121.415L104.356 109.456L101.736 109.472C101.251 109.47 101.011 108.693 101.016 107.14C101.018 106.607 101.068 106.089 101.167 105.588C101.281 105.087 101.468 104.837 101.727 104.838L108.374 104.86C108.649 104.86 108.867 104.926 109.028 105.056C109.206 105.169 109.294 105.315 109.293 105.493L109.242 121.431ZM121.018 104.9C121.325 104.901 121.477 105.573 121.473 106.915C121.471 107.335 121.429 107.837 121.347 108.418C121.28 108.984 121.15 109.267 120.956 109.266L116.225 109.251L116.195 111.022L116.996 111.024C118.726 111.03 120.01 111.535 120.848 112.541C121.702 113.546 122.126 114.874 122.121 116.523C122.116 118.173 121.529 119.521 120.362 120.569C119.194 121.6 117.696 122.113 115.869 122.107C114.041 122.101 112.708 121.838 111.869 121.318C111.74 121.107 111.676 120.784 111.678 120.347C111.679 119.894 111.746 119.264 111.878 118.455C112.01 117.631 112.189 117.219 112.416 117.22C112.432 117.22 112.48 117.252 112.561 117.317C113.708 117.79 114.58 118.027 115.178 118.029C115.793 118.031 116.295 117.871 116.684 117.549C117.089 117.211 117.293 116.783 117.295 116.265C117.299 114.971 116.605 114.322 115.215 114.318L113.128 114.335C112.966 114.367 112.805 114.302 112.644 114.14C112.483 113.961 112.402 113.735 112.403 113.46L112.428 105.867C112.43 105.204 112.673 104.873 113.159 104.875L121.018 104.9ZM134.934 103.125C135.015 102.947 135.169 102.859 135.396 102.86C135.638 102.861 135.889 102.918 136.147 103.032C136.745 103.309 137.132 103.633 137.308 104.006C137.373 104.119 137.405 104.225 137.404 104.322C137.404 104.419 137.388 104.5 137.355 104.564L125.964 124.201C125.866 124.363 125.696 124.443 125.453 124.442C125.211 124.441 124.969 124.384 124.726 124.27C124.113 123.977 123.718 123.652 123.541 123.296C123.493 123.199 123.469 123.102 123.469 123.004C123.469 122.924 123.494 122.843 123.542 122.762L134.934 103.125ZM146.161 121.549C146.16 121.824 145.335 121.959 143.685 121.953C142.052 121.948 141.236 121.808 141.237 121.533L141.275 109.574L138.655 109.59C138.17 109.588 137.93 108.811 137.935 107.259C137.936 106.725 137.986 106.208 138.085 105.707C138.2 105.206 138.387 104.956 138.645 104.956L145.292 104.978C145.567 104.979 145.785 105.044 145.947 105.174C146.124 105.288 146.213 105.433 146.212 105.611L146.161 121.549ZM157.922 109.676C157.276 109.318 156.525 109.137 155.667 109.135C154.163 109.13 153.303 110.098 153.087 112.037C153.929 111.798 154.826 111.679 155.781 111.682C157.414 111.687 158.609 112.12 159.367 112.979C160.14 113.823 160.525 114.98 160.52 116.452C160.514 118.231 159.96 119.644 158.857 120.692C157.754 121.723 156.264 122.236 154.388 122.23C152.512 122.224 151.043 121.54 149.98 120.178C148.917 118.8 148.39 116.85 148.398 114.327C148.407 111.384 149.078 109.057 150.409 107.347C151.757 105.621 153.498 104.761 155.633 104.768C158.059 104.776 159.27 105.273 159.267 106.26C159.265 106.971 159.036 107.73 158.58 108.538C158.418 108.893 158.198 109.272 157.922 109.676ZM156.323 116.463C156.325 115.962 156.173 115.557 155.866 115.248C155.56 114.924 155.092 114.761 154.461 114.759C153.846 114.757 153.377 114.869 153.053 115.094C153.036 115.304 153.027 115.539 153.026 115.797C153.025 116.056 153.049 116.38 153.096 116.768C153.159 117.14 153.32 117.513 153.578 117.885C153.851 118.242 154.207 118.421 154.643 118.422C155.759 118.426 156.319 117.773 156.323 116.463ZM169.36 122.278C167.339 122.272 165.684 121.522 164.395 120.03C163.122 118.538 162.49 116.361 162.499 113.499C162.508 110.636 163.162 108.48 164.46 107.028C165.759 105.561 167.427 104.83 169.465 104.837C171.519 104.843 173.174 105.576 174.431 107.036C175.687 108.495 176.311 110.689 176.302 113.616C176.292 116.543 175.638 118.724 174.34 120.159C173.058 121.578 171.398 122.285 169.36 122.278ZM169.401 109.494C168.787 109.492 168.26 109.846 167.821 110.556C167.398 111.25 167.185 112.244 167.181 113.538C167.177 114.832 167.376 115.827 167.778 116.524C168.196 117.204 168.729 117.546 169.375 117.548C170.039 117.55 170.573 117.204 170.98 116.51C171.403 115.816 171.616 114.822 171.62 113.528C171.624 112.234 171.409 111.239 170.975 110.542C170.556 109.845 170.032 109.496 169.401 109.494ZM184.999 122.328C182.977 122.322 181.322 121.572 180.033 120.08C178.76 118.589 178.128 116.411 178.138 113.549C178.147 110.686 178.801 108.53 180.099 107.078C181.397 105.611 183.065 104.88 185.103 104.887C187.157 104.893 188.812 105.626 190.069 107.086C191.326 108.545 191.95 110.739 191.94 113.666C191.931 116.593 191.277 118.774 189.979 120.209C188.696 121.628 187.036 122.335 184.999 122.328ZM185.04 109.544C184.425 109.542 183.898 109.896 183.46 110.606C183.037 111.3 182.823 112.294 182.819 113.588C182.815 114.882 183.014 115.877 183.416 116.574C183.834 117.254 184.367 117.596 185.014 117.598C185.677 117.6 186.212 117.254 186.618 116.56C187.041 115.866 187.254 114.872 187.259 113.578C187.263 112.284 187.048 111.289 186.613 110.592C186.195 109.895 185.67 109.546 185.04 109.544Z" fill="white"/>
<path d="M78.7175 109.374L80.3347 109.379L78.7077 107.756L78.7175 109.374ZM76.0976 109.39L76.0924 111.007L76.1074 111.007L76.0976 109.39ZM75.5278 105.506L73.9514 105.145L73.941 105.194L75.5278 105.506ZM83.3892 104.974L82.3749 106.233L82.5166 106.335L83.3892 104.974ZM81.9864 121.343C81.9877 120.934 82.1546 120.604 82.3401 120.389C82.5039 120.199 82.6689 120.11 82.7298 120.08C82.8435 120.023 82.8775 120.035 82.7233 120.06C82.4469 120.105 81.937 120.138 81.1332 120.136L81.1228 123.37C81.9685 123.373 82.6959 123.342 83.2448 123.252C83.5032 123.21 83.8467 123.136 84.167 122.977C84.4243 122.85 85.2175 122.377 85.2208 121.354L81.9864 121.343ZM81.1332 120.136C80.3376 120.133 79.835 120.097 79.5643 120.05C79.413 120.024 79.4498 120.014 79.5654 120.073C79.6274 120.104 79.7919 120.195 79.9535 120.387C80.1366 120.604 80.2977 120.933 80.2964 121.338L77.062 121.328C77.0588 122.343 77.8368 122.822 78.0982 122.955C78.4176 123.118 78.7604 123.194 79.0172 123.238C79.5628 123.332 80.285 123.368 81.1228 123.37L81.1332 120.136ZM80.2964 121.338L80.3347 109.379L77.1003 109.369L77.062 121.328L80.2964 121.338ZM78.7077 107.756L76.0878 107.772L76.1074 111.007L78.7273 110.991L78.7077 107.756ZM76.1027 107.772C76.2648 107.773 76.4381 107.807 76.6042 107.884C76.767 107.959 76.8849 108.057 76.963 108.141C77.1031 108.291 77.1213 108.401 77.0988 108.328C77.0809 108.27 77.0514 108.142 77.0285 107.915C77.0062 107.694 76.9934 107.413 76.9945 107.064L73.7601 107.053C73.7574 107.873 73.8143 108.654 74.0085 109.283C74.175 109.822 74.7149 111.002 76.0924 111.007L76.1027 107.772ZM76.9945 107.064C76.9959 106.628 77.0367 106.214 77.1145 105.819L73.941 105.194C73.8216 105.801 73.7621 106.421 73.7601 107.053L76.9945 107.064ZM77.1041 105.868C77.1397 105.712 77.1507 105.776 77.0497 105.911C76.9902 105.991 76.8783 106.113 76.6971 106.214C76.5066 106.321 76.2925 106.374 76.083 106.373L76.0933 103.139C75.3438 103.137 74.787 103.535 74.4583 103.975C74.1705 104.361 74.0307 104.799 73.9514 105.145L77.1041 105.868ZM76.083 106.373L82.7297 106.395L82.74 103.16L76.0933 103.139L76.083 106.373ZM82.7297 106.395C82.7579 106.395 82.5812 106.399 82.3749 106.233L84.4035 103.714C83.8746 103.288 83.2616 103.162 82.74 103.16L82.7297 106.395ZM82.5166 106.335C82.4457 106.29 82.3164 106.189 82.2061 106.007C82.0892 105.815 82.0368 105.601 82.0374 105.406L85.2718 105.416C85.2745 104.576 84.8045 103.96 84.2618 103.612L82.5166 106.335ZM82.0374 105.406L81.9864 121.343L85.2208 121.354L85.2718 105.416L82.0374 105.406ZM87.7386 119.785L86.5083 120.835L86.5149 120.842L87.7386 119.785ZM87.8045 106.783L89.0098 107.861L89.0156 107.855L87.8045 106.783ZM97.7746 106.791L96.5491 107.846L97.7746 106.791ZM97.6841 119.914L96.4848 118.829L96.4841 118.83L97.6841 119.914ZM91.1651 110.311L89.7894 109.461L89.7839 109.47L91.1651 110.311ZM91.1217 116.278L89.721 117.087L89.7439 117.125L91.1217 116.278ZM94.3239 116.264L92.9426 115.423L92.9284 115.447L94.3239 116.264ZM94.3187 110.297L92.9321 111.129L92.9464 111.152L94.3187 110.297ZM92.7095 120.416C91.1426 120.411 89.9366 119.855 88.9623 118.728L86.5149 120.842C88.1186 122.699 90.2232 123.642 92.6992 123.65L92.7095 120.416ZM88.9689 118.735C88.0404 117.647 87.4518 115.908 87.4603 113.259L84.2259 113.248C84.2161 116.324 84.8911 118.939 86.5083 120.835L88.9689 118.735ZM87.4603 113.259C87.4688 110.61 88.0758 108.905 89.0097 107.861L86.5992 105.705C84.9363 107.563 84.2357 110.172 84.2259 113.248L87.4603 113.259ZM89.0156 107.855C89.9922 106.751 91.2097 106.203 92.8035 106.209L92.8139 102.974C90.3323 102.966 88.2137 103.88 86.5933 105.711L89.0156 107.855ZM92.8035 106.209C94.4237 106.214 95.6207 106.768 96.5491 107.846L99.0001 105.735C97.415 103.894 95.3014 102.982 92.8139 102.974L92.8035 106.209ZM96.5491 107.846C97.4486 108.89 98.0372 110.633 98.0285 113.365L101.263 113.376C101.273 110.254 100.614 107.61 99.0001 105.735L96.5491 107.846ZM98.0285 113.365C98.0198 116.092 97.4069 117.81 96.4848 118.829L98.8834 120.999C100.558 119.148 101.253 116.504 101.263 113.376L98.0285 113.365ZM96.4841 118.83C95.5318 119.884 94.322 120.421 92.7095 120.416L92.6992 123.65C95.1621 123.658 97.272 122.782 98.884 120.998L96.4841 118.83ZM92.7504 107.632C91.38 107.627 90.4055 108.464 89.7894 109.461L92.5407 111.161C92.6756 110.943 92.7694 110.87 92.7916 110.855C92.8004 110.849 92.7952 110.854 92.7776 110.859C92.7597 110.865 92.745 110.866 92.7401 110.866L92.7504 107.632ZM89.7839 109.47C89.1422 110.524 88.9122 111.857 88.9076 113.288L92.142 113.298C92.1457 112.141 92.3426 111.487 92.5463 111.152L89.7839 109.47ZM88.9076 113.288C88.9031 114.71 89.1143 116.036 89.721 117.087L92.5224 115.47C92.3249 115.128 92.1383 114.463 92.142 113.298L88.9076 113.288ZM89.7439 117.125C90.376 118.154 91.3707 118.915 92.7143 118.92L92.7247 115.685C92.7061 115.685 92.7025 115.683 92.7078 115.685C92.7134 115.686 92.7143 115.688 92.7075 115.683C92.6928 115.674 92.6137 115.617 92.4995 115.432L89.7439 117.125ZM92.7143 118.92C94.0844 118.924 95.0946 118.148 95.7193 117.082L92.9284 115.447C92.8201 115.632 92.7462 115.682 92.7394 115.687C92.7363 115.689 92.7399 115.686 92.7465 115.684C92.7526 115.683 92.7475 115.685 92.7247 115.685L92.7143 118.92ZM95.7051 117.106C96.3468 116.052 96.5767 114.718 96.5813 113.288L93.3469 113.278C93.3432 114.435 93.1463 115.089 92.9426 115.423L95.7051 117.106ZM96.5813 113.288C96.5859 111.85 96.3541 110.505 95.691 109.441L92.9464 111.152C93.1521 111.482 93.3506 112.128 93.3469 113.278L96.5813 113.288ZM95.7053 109.465C95.0917 108.442 94.1117 107.636 92.7504 107.632L92.7401 110.866C92.7471 110.866 92.7409 110.867 92.7277 110.863C92.7146 110.859 92.7096 110.855 92.7151 110.858C92.729 110.867 92.8119 110.929 92.9321 111.129L95.7053 109.465ZM104.356 109.456L105.974 109.461L104.347 107.839L104.356 109.456ZM101.736 109.472L101.731 111.089L101.746 111.089L101.736 109.472ZM101.167 105.588L99.5903 105.227L99.5799 105.276L101.167 105.588ZM109.028 105.056L108.014 106.315L108.155 106.417L109.028 105.056ZM107.625 121.426C107.627 121.016 107.793 120.686 107.979 120.471C108.143 120.281 108.308 120.192 108.369 120.162C108.482 120.105 108.516 120.117 108.362 120.142C108.086 120.187 107.576 120.221 106.772 120.218L106.762 123.452C107.607 123.455 108.335 123.424 108.884 123.334C109.142 123.292 109.486 123.218 109.806 123.059C110.063 122.932 110.856 122.459 110.86 121.436L107.625 121.426ZM106.772 120.218C105.976 120.215 105.474 120.179 105.203 120.132C105.052 120.106 105.089 120.096 105.204 120.155C105.266 120.186 105.431 120.277 105.592 120.469C105.775 120.686 105.937 121.015 105.935 121.42L102.701 121.41C102.698 122.425 103.476 122.904 103.737 123.037C104.056 123.2 104.399 123.276 104.656 123.32C105.202 123.414 105.924 123.45 106.762 123.452L106.772 120.218ZM105.935 121.42L105.974 109.461L102.739 109.451L102.701 121.41L105.935 121.42ZM104.347 107.839L101.727 107.854L101.746 111.089L104.366 111.073L104.347 107.839ZM101.742 107.854C101.904 107.855 102.077 107.889 102.243 107.966C102.406 108.041 102.524 108.139 102.602 108.223C102.742 108.373 102.76 108.483 102.738 108.41C102.72 108.352 102.69 108.224 102.667 107.997C102.645 107.776 102.632 107.495 102.633 107.146L99.3989 107.135C99.3963 107.955 99.4531 108.737 99.6473 109.365C99.8138 109.904 100.354 111.084 101.731 111.089L101.742 107.854ZM102.633 107.146C102.635 106.711 102.676 106.296 102.753 105.901L99.5799 105.276C99.4605 105.883 99.401 106.503 99.3989 107.135L102.633 107.146ZM102.743 105.95C102.779 105.795 102.79 105.858 102.689 105.993C102.629 106.073 102.517 106.195 102.336 106.296C102.145 106.403 101.931 106.456 101.722 106.455L101.732 103.221C100.983 103.219 100.426 103.617 100.097 104.057C99.8093 104.443 99.6695 104.881 99.5903 105.227L102.743 105.95ZM101.722 106.455L108.369 106.477L108.379 103.242L101.732 103.221L101.722 106.455ZM108.369 106.477C108.397 106.477 108.22 106.481 108.014 106.315L110.042 103.796C109.513 103.37 108.9 103.244 108.379 103.242L108.369 106.477ZM108.155 106.417C108.085 106.372 107.955 106.271 107.845 106.089C107.728 105.897 107.676 105.683 107.676 105.488L110.911 105.498C110.913 104.658 110.443 104.042 109.901 103.694L108.155 106.417ZM107.676 105.488L107.625 121.426L110.86 121.436L110.911 105.498L107.676 105.488ZM121.347 108.418L119.745 108.191L119.74 108.23L121.347 108.418ZM116.225 109.251L116.231 107.634L114.608 109.224L116.225 109.251ZM116.195 111.022L114.578 110.995L116.19 112.639L116.195 111.022ZM120.848 112.541L119.606 113.576L119.616 113.588L120.848 112.541ZM120.362 120.569L121.432 121.781L121.441 121.773L120.362 120.569ZM111.869 121.318L110.489 122.161L111.017 122.692L111.869 121.318ZM111.878 118.455L113.474 118.716L113.475 118.711L111.878 118.455ZM112.561 117.317L111.547 118.577L111.945 118.813L112.561 117.317ZM116.684 117.549L117.715 118.795L117.72 118.791L116.684 117.549ZM115.215 114.318L115.22 112.701L115.201 112.701L115.215 114.318ZM113.128 114.335L113.115 112.718L112.816 112.749L113.128 114.335ZM112.644 114.14L111.444 115.224L111.497 115.28L112.644 114.14ZM121.013 106.517C120.739 106.516 120.48 106.436 120.266 106.301C120.065 106.175 119.946 106.029 119.883 105.938C119.773 105.776 119.765 105.673 119.785 105.76C119.819 105.913 119.858 106.268 119.855 106.91L123.09 106.92C123.092 106.219 123.057 105.567 122.94 105.049C122.884 104.8 122.78 104.445 122.555 104.115C122.306 103.749 121.799 103.285 121.023 103.283L121.013 106.517ZM119.855 106.91C119.854 107.233 119.821 107.656 119.745 108.191L122.948 108.646C123.037 108.017 123.088 107.438 123.09 106.92L119.855 106.91ZM119.74 108.23C119.713 108.459 119.688 108.47 119.73 108.378C119.754 108.326 119.837 108.16 120.028 107.993C120.249 107.801 120.575 107.648 120.961 107.649L120.951 110.883C122.014 110.887 122.514 110.066 122.668 109.732C122.84 109.357 122.913 108.943 122.953 108.607L119.74 108.23ZM120.961 107.649L116.231 107.634L116.22 110.868L120.951 110.883L120.961 107.649ZM114.608 109.224L114.578 110.995L117.812 111.049L117.842 109.278L114.608 109.224ZM116.19 112.639L116.991 112.642L117.001 109.407L116.201 109.405L116.19 112.639ZM116.991 112.642C118.407 112.646 119.166 113.048 119.606 113.576L122.091 111.506C120.855 110.023 119.045 109.414 117.001 109.407L116.991 112.642ZM119.616 113.588C120.162 114.231 120.508 115.154 120.504 116.518L123.738 116.528C123.745 114.593 123.242 112.861 122.081 111.494L119.616 113.588ZM120.504 116.518C120.5 117.737 120.089 118.64 119.282 119.365L121.441 121.773C122.969 120.402 123.732 118.609 123.738 116.528L120.504 116.518ZM119.291 119.357C118.47 120.081 117.378 120.494 115.874 120.49L115.864 123.724C118.015 123.731 119.917 123.119 121.432 121.781L119.291 119.357ZM115.874 120.49C114.129 120.484 113.169 120.221 112.721 119.943L111.017 122.692C112.247 123.455 113.954 123.718 115.864 123.724L115.874 120.49ZM113.249 120.475C113.281 120.528 113.298 120.57 113.306 120.591C113.314 120.612 113.314 120.618 113.311 120.605C113.309 120.592 113.304 120.565 113.301 120.521C113.297 120.478 113.295 120.422 113.295 120.352L110.061 120.342C110.059 120.878 110.125 121.566 110.489 122.161L113.249 120.475ZM113.295 120.352C113.296 120.027 113.347 119.496 113.474 118.716L110.282 118.195C110.145 119.032 110.062 119.761 110.061 120.342L113.295 120.352ZM113.475 118.711C113.502 118.538 113.53 118.406 113.554 118.309C113.58 118.208 113.596 118.17 113.594 118.174C113.593 118.177 113.581 118.204 113.556 118.244C113.532 118.284 113.484 118.353 113.406 118.433C113.24 118.601 112.9 118.839 112.41 118.837L112.421 115.603C111.818 115.601 111.371 115.89 111.103 116.161C110.857 116.41 110.713 116.688 110.628 116.883C110.457 117.278 110.354 117.747 110.281 118.2L113.475 118.711ZM112.41 118.837C112.168 118.836 111.984 118.78 111.907 118.754C111.815 118.723 111.745 118.69 111.706 118.67C111.629 118.632 111.577 118.597 111.563 118.587C111.529 118.565 111.519 118.555 111.547 118.577L113.575 116.058C113.522 116.015 113.447 115.956 113.365 115.902C113.327 115.876 113.254 115.829 113.162 115.782C113.141 115.771 112.837 115.604 112.421 115.603L112.41 118.837ZM111.945 118.813C113.122 119.298 114.241 119.643 115.173 119.646L115.184 116.412C114.919 116.411 114.293 116.282 113.177 115.822L111.945 118.813ZM115.173 119.646C116.081 119.649 116.975 119.407 117.715 118.795L115.653 116.303C115.614 116.335 115.505 116.413 115.184 116.412L115.173 119.646ZM117.72 118.791C118.484 118.153 118.909 117.277 118.912 116.27L115.677 116.26C115.677 116.272 115.677 116.28 115.676 116.286C115.676 116.291 115.675 116.293 115.675 116.294C115.675 116.294 115.675 116.292 115.676 116.289C115.677 116.286 115.679 116.283 115.68 116.28C115.684 116.272 115.686 116.269 115.684 116.272C115.682 116.275 115.671 116.288 115.648 116.307L117.72 118.791ZM118.912 116.27C118.915 115.343 118.663 114.358 117.883 113.627C117.125 112.918 116.137 112.704 115.22 112.701L115.209 115.935C115.683 115.937 115.737 116.049 115.672 115.989C115.641 115.959 115.636 115.936 115.643 115.956C115.653 115.986 115.678 116.077 115.677 116.26L118.912 116.27ZM115.201 112.701L113.115 112.718L113.142 115.953L115.228 115.935L115.201 112.701ZM112.816 112.749C113.061 112.701 113.298 112.733 113.491 112.811C113.666 112.882 113.763 112.972 113.791 113L111.497 115.28C111.878 115.664 112.557 116.096 113.44 115.922L112.816 112.749ZM113.844 113.056C113.906 113.125 113.956 113.209 113.988 113.297C114.017 113.382 114.021 113.443 114.021 113.465L110.786 113.455C110.784 114.07 110.974 114.704 111.444 115.224L113.844 113.056ZM114.021 113.465L114.045 105.872L110.81 105.862L110.786 113.455L114.021 113.465ZM114.045 105.872C114.045 105.69 114.087 105.846 113.914 106.081C113.815 106.215 113.674 106.334 113.506 106.41C113.346 106.482 113.215 106.492 113.153 106.492L113.164 103.258C112.511 103.256 111.795 103.503 111.31 104.163C110.894 104.728 110.812 105.381 110.81 105.862L114.045 105.872ZM113.153 106.492L121.013 106.517L121.023 103.283L113.164 103.258L113.153 106.492ZM134.934 103.125L136.333 103.937L136.404 103.799L134.934 103.125ZM136.147 103.032L136.827 101.565L136.8 101.552L136.147 103.032ZM137.308 104.006L135.847 104.699L135.902 104.804L137.308 104.006ZM137.355 104.564L138.754 105.376L138.799 105.292L137.355 104.564ZM125.964 124.201L127.348 125.038L127.363 125.013L125.964 124.201ZM124.726 124.27L124.029 125.729L124.038 125.733L124.726 124.27ZM123.541 123.296L122.092 124.014L123.541 123.296ZM123.542 122.762L124.927 123.599L124.941 123.574L123.542 122.762ZM136.404 103.799C136.319 103.984 136.16 104.187 135.916 104.328C135.687 104.459 135.485 104.477 135.391 104.477L135.401 101.243C135.08 101.242 134.687 101.303 134.305 101.523C133.906 101.752 133.63 102.089 133.464 102.451L136.404 103.799ZM135.391 104.477C135.376 104.477 135.407 104.473 135.494 104.512L136.8 101.552C136.371 101.363 135.9 101.244 135.401 101.243L135.391 104.477ZM135.467 104.499C135.673 104.595 135.789 104.674 135.846 104.722C135.901 104.768 135.878 104.765 135.847 104.699L138.77 103.313C138.359 102.447 137.575 101.911 136.827 101.565L135.467 104.499ZM135.902 104.804C135.873 104.754 135.786 104.581 135.787 104.317L139.022 104.327C139.023 103.868 138.872 103.485 138.715 103.208L135.902 104.804ZM135.787 104.317C135.787 104.244 135.799 104.059 135.911 103.836L138.799 105.292C138.977 104.94 139.021 104.593 139.022 104.327L135.787 104.317ZM135.956 103.753L124.565 123.39L127.363 125.013L138.754 105.376L135.956 103.753ZM124.58 123.365C124.695 123.174 124.869 123.016 125.072 122.92C125.258 122.832 125.407 122.825 125.459 122.825L125.448 126.059C126.073 126.061 126.871 125.826 127.348 125.038L124.58 123.365ZM125.459 122.825C125.464 122.825 125.466 122.826 125.462 122.825C125.458 122.824 125.442 122.82 125.415 122.807L124.038 125.733C124.471 125.937 124.946 126.058 125.448 126.059L125.459 122.825ZM125.423 122.811C125.198 122.703 125.066 122.614 124.996 122.557C124.927 122.5 124.952 122.501 124.99 122.577L122.092 124.014C122.509 124.855 123.299 125.38 124.029 125.729L125.423 122.811ZM124.99 122.577C125.04 122.678 125.087 122.827 125.086 123.01L121.852 122.999C121.851 123.376 121.946 123.719 122.092 124.014L124.99 122.577ZM125.086 123.01C125.085 123.268 125.004 123.471 124.927 123.599L122.158 121.926C121.984 122.215 121.853 122.58 121.852 122.999L125.086 123.01ZM124.941 123.574L136.333 103.937L133.535 102.314L122.144 121.951L124.941 123.574ZM141.275 109.574L142.892 109.579L141.265 107.957L141.275 109.574ZM138.655 109.59L138.65 111.207L138.665 111.207L138.655 109.59ZM138.085 105.707L136.509 105.345L136.498 105.394L138.085 105.707ZM145.947 105.174L144.932 106.433L145.074 106.535L145.947 105.174ZM144.544 121.544C144.545 121.134 144.712 120.804 144.897 120.589C145.061 120.399 145.226 120.31 145.287 120.28C145.401 120.224 145.435 120.235 145.281 120.26C145.004 120.305 144.494 120.339 143.69 120.336L143.68 123.571C144.526 123.573 145.253 123.542 145.802 123.452C146.061 123.41 146.404 123.336 146.724 123.178C146.982 123.05 147.775 122.578 147.778 121.554L144.544 121.544ZM143.69 120.336C142.895 120.334 142.392 120.297 142.122 120.25C141.97 120.224 142.007 120.214 142.123 120.273C142.185 120.304 142.349 120.396 142.511 120.587C142.694 120.804 142.855 121.133 142.854 121.538L139.619 121.528C139.616 122.543 140.394 123.022 140.656 123.155C140.975 123.318 141.318 123.394 141.575 123.438C142.12 123.532 142.842 123.568 143.68 123.571L143.69 120.336ZM142.854 121.538L142.892 109.579L139.658 109.569L139.619 121.528L142.854 121.538ZM141.265 107.957L138.645 107.973L138.665 111.207L141.285 111.191L141.265 107.957ZM138.66 107.973C138.822 107.973 138.995 108.008 139.162 108.084C139.324 108.159 139.442 108.257 139.52 108.341C139.66 108.491 139.679 108.601 139.656 108.528C139.638 108.471 139.609 108.342 139.586 108.115C139.564 107.894 139.551 107.613 139.552 107.264L136.317 107.253C136.315 108.073 136.372 108.855 136.566 109.483C136.732 110.022 137.272 111.203 138.65 111.207L138.66 107.973ZM139.552 107.264C139.553 106.829 139.594 106.414 139.672 106.019L136.498 105.394C136.379 106.001 136.319 106.621 136.317 107.253L139.552 107.264ZM139.661 106.068C139.697 105.913 139.708 105.976 139.607 106.111C139.547 106.191 139.436 106.313 139.254 106.414C139.064 106.521 138.85 106.574 138.64 106.574L138.651 103.339C137.901 103.337 137.344 103.735 137.016 104.176C136.728 104.561 136.588 105 136.509 105.345L139.661 106.068ZM138.64 106.574L145.287 106.595L145.297 103.36L138.651 103.339L138.64 106.574ZM145.287 106.595C145.315 106.595 145.138 106.599 144.932 106.433L146.961 103.914C146.432 103.488 145.819 103.362 145.297 103.36L145.287 106.595ZM145.074 106.535C145.003 106.49 144.874 106.389 144.763 106.207C144.646 106.015 144.594 105.801 144.595 105.606L147.829 105.616C147.832 104.776 147.362 104.16 146.819 103.812L145.074 106.535ZM144.595 105.606L144.544 121.544L147.778 121.554L147.829 105.616L144.595 105.606ZM157.922 109.676L157.138 111.09L159.256 110.589L157.922 109.676ZM153.087 112.037L151.48 111.858L153.53 113.593L153.087 112.037ZM159.367 112.979L158.153 114.049L158.175 114.073L159.367 112.979ZM158.857 120.692L159.961 121.873L159.971 121.865L158.857 120.692ZM149.98 120.178L148.699 121.166L148.705 121.173L149.98 120.178ZM150.409 107.347L149.134 106.352L149.133 106.353L150.409 107.347ZM158.58 108.538L157.172 107.743L157.11 107.864L158.58 108.538ZM155.866 115.248L154.69 116.359L154.719 116.388L155.866 115.248ZM153.053 115.094L152.13 113.766L151.441 114.965L153.053 115.094ZM153.096 116.768L151.491 116.963L151.502 117.04L153.096 116.768ZM153.578 117.885L152.247 118.805L152.295 118.87L153.578 117.885ZM158.706 108.261C157.786 107.751 156.758 107.521 155.673 107.518L155.662 110.752C156.291 110.754 156.766 110.884 157.138 111.09L158.706 108.261ZM155.673 107.518C154.54 107.514 153.475 107.895 152.686 108.782C151.947 109.614 151.607 110.715 151.48 111.858L154.694 112.217C154.783 111.42 154.982 111.068 155.103 110.931C155.174 110.851 155.291 110.751 155.662 110.752L155.673 107.518ZM153.53 113.593C154.213 113.398 154.959 113.297 155.775 113.299L155.786 110.065C154.694 110.062 153.644 110.197 152.644 110.482L153.53 113.593ZM155.775 113.299C157.149 113.304 157.814 113.663 158.153 114.049L160.58 111.91C159.405 110.576 157.679 110.071 155.786 110.065L155.775 113.299ZM158.175 114.073C158.602 114.538 158.907 115.262 158.903 116.447L162.137 116.457C162.143 114.699 161.679 113.107 160.559 111.886L158.175 114.073ZM158.903 116.447C158.898 117.865 158.472 118.827 157.743 119.519L159.971 121.865C161.448 120.461 162.13 118.596 162.137 116.457L158.903 116.447ZM157.752 119.511C157.019 120.197 155.962 120.618 154.394 120.613L154.383 123.847C156.566 123.854 158.489 123.25 159.961 121.873L157.752 119.511ZM154.394 120.613C152.965 120.608 151.984 120.117 151.255 119.183L148.705 121.173C150.102 122.963 152.06 123.84 154.383 123.847L154.394 120.613ZM151.26 119.191C150.496 118.2 150.007 116.652 150.015 114.332L146.78 114.322C146.772 117.048 147.338 119.401 148.699 121.166L151.26 119.191ZM150.015 114.332C150.024 111.62 150.641 109.682 151.685 108.341L149.133 106.353C147.514 108.432 146.791 111.147 146.78 114.322L150.015 114.332ZM151.684 108.342C152.733 106.998 154.008 106.38 155.628 106.385L155.638 103.151C152.989 103.142 150.781 104.244 149.134 106.352L151.684 108.342ZM155.628 106.385C156.779 106.389 157.435 106.515 157.747 106.643C157.888 106.701 157.858 106.719 157.788 106.633C157.695 106.519 157.649 106.369 157.65 106.254L160.884 106.265C160.886 105.657 160.691 105.075 160.296 104.59C159.923 104.133 159.44 103.841 158.975 103.651C158.075 103.281 156.913 103.155 155.638 103.151L155.628 106.385ZM157.65 106.254C157.649 106.618 157.531 107.106 157.172 107.743L159.989 109.332C160.54 108.355 160.881 107.324 160.884 106.265L157.65 106.254ZM157.11 107.864C156.994 108.118 156.824 108.417 156.587 108.762L159.256 110.589C159.572 110.128 159.841 109.668 160.05 109.212L157.11 107.864ZM157.94 116.468C157.943 115.609 157.669 114.768 157.013 114.109L154.719 116.388C154.718 116.387 154.713 116.381 154.707 116.373C154.701 116.364 154.698 116.356 154.697 116.353C154.694 116.345 154.706 116.373 154.706 116.458L157.94 116.468ZM157.042 114.138C156.324 113.377 155.353 113.144 154.466 113.142L154.456 116.376C154.638 116.377 154.727 116.401 154.753 116.41C154.77 116.416 154.734 116.405 154.69 116.359L157.042 114.138ZM154.466 113.142C153.691 113.139 152.839 113.273 152.13 113.766L153.976 116.422C153.94 116.447 153.942 116.434 154.022 116.414C154.104 116.395 154.243 116.375 154.456 116.376L154.466 113.142ZM151.441 114.965C151.42 115.224 151.41 115.501 151.409 115.792L154.643 115.803C154.644 115.576 154.652 115.384 154.665 115.223L151.441 114.965ZM151.409 115.792C151.408 116.143 151.439 116.538 151.491 116.963L154.701 116.572C154.658 116.221 154.643 115.97 154.643 115.803L151.409 115.792ZM151.502 117.04C151.612 117.686 151.882 118.276 152.247 118.805L154.908 116.966C154.758 116.749 154.707 116.594 154.69 116.496L151.502 117.04ZM152.295 118.87C152.863 119.61 153.683 120.037 154.638 120.04L154.648 116.805C154.656 116.805 154.709 116.809 154.777 116.843C154.843 116.876 154.869 116.911 154.86 116.901L152.295 118.87ZM154.638 120.04C155.519 120.042 156.453 119.775 157.128 118.988C157.76 118.251 157.938 117.315 157.94 116.468L154.706 116.458C154.705 116.676 154.681 116.807 154.662 116.875C154.643 116.939 154.636 116.925 154.672 116.883C154.714 116.834 154.764 116.805 154.791 116.794C154.809 116.787 154.773 116.806 154.648 116.805L154.638 120.04ZM164.395 120.03L163.164 121.08L163.171 121.088L164.395 120.03ZM164.46 107.028L165.666 108.106L165.672 108.1L164.46 107.028ZM174.431 107.036L173.205 108.091L174.431 107.036ZM174.34 120.159L173.141 119.074L173.14 119.075L174.34 120.159ZM167.821 110.556L166.445 109.706L166.44 109.715L167.821 110.556ZM167.778 116.524L166.377 117.332L166.4 117.371L167.778 116.524ZM170.98 116.51L169.599 115.669L169.584 115.692L170.98 116.51ZM170.975 110.542L169.588 111.375L169.602 111.398L170.975 110.542ZM169.366 120.661C167.799 120.656 166.593 120.101 165.618 118.973L163.171 121.088C164.775 122.944 166.879 123.887 169.355 123.895L169.366 120.661ZM165.625 118.981C164.696 117.892 164.108 116.154 164.116 113.504L160.882 113.494C160.872 116.569 161.547 119.185 163.164 121.08L165.625 118.981ZM164.116 113.504C164.125 110.855 164.732 109.15 165.666 108.106L163.255 105.95C161.592 107.809 160.892 110.417 160.882 113.494L164.116 113.504ZM165.672 108.1C166.648 106.996 167.866 106.449 169.459 106.454L169.47 103.219C166.988 103.212 164.87 104.125 163.249 105.957L165.672 108.1ZM169.459 106.454C171.08 106.459 172.277 107.013 173.205 108.091L175.656 105.981C174.071 104.14 171.957 103.227 169.47 103.219L169.459 106.454ZM173.205 108.091C174.105 109.136 174.693 110.878 174.684 113.611L177.919 113.621C177.929 110.499 177.27 107.855 175.656 105.981L173.205 108.091ZM174.684 113.611C174.676 116.337 174.063 118.055 173.141 119.074L175.539 121.244C177.214 119.393 177.909 116.749 177.919 113.621L174.684 113.611ZM173.14 119.075C172.188 120.129 170.978 120.666 169.366 120.661L169.355 123.895C171.818 123.903 173.928 123.028 175.54 121.243L173.14 119.075ZM169.406 107.877C168.036 107.872 167.061 108.709 166.445 109.706L169.197 111.407C169.332 111.188 169.425 111.115 169.448 111.1C169.456 111.094 169.451 111.099 169.434 111.105C169.416 111.11 169.401 111.111 169.396 111.111L169.406 107.877ZM166.44 109.715C165.798 110.769 165.568 112.103 165.564 113.533L168.798 113.543C168.802 112.386 168.999 111.732 169.202 111.398L166.44 109.715ZM165.564 113.533C165.559 114.956 165.77 116.281 166.377 117.332L169.178 115.715C168.981 115.373 168.794 114.708 168.798 113.543L165.564 113.533ZM166.4 117.371C167.032 118.399 168.027 119.161 169.37 119.165L169.381 115.931C169.362 115.93 169.358 115.928 169.364 115.93C169.369 115.931 169.37 115.933 169.363 115.929C169.349 115.919 169.27 115.863 169.155 115.677L166.4 117.371ZM169.37 119.165C170.74 119.169 171.751 118.394 172.375 117.327L169.584 115.692C169.476 115.877 169.402 115.928 169.395 115.932C169.392 115.934 169.396 115.932 169.402 115.93C169.409 115.928 169.404 115.931 169.381 115.931L169.37 119.165ZM172.361 117.351C173.003 116.297 173.233 114.963 173.237 113.533L170.003 113.523C169.999 114.68 169.802 115.334 169.599 115.669L172.361 117.351ZM173.237 113.533C173.242 112.095 173.01 110.75 172.347 109.687L169.602 111.398C169.808 111.728 170.007 112.373 170.003 113.523L173.237 113.533ZM172.361 109.71C171.748 108.688 170.768 107.881 169.406 107.877L169.396 111.111C169.403 111.111 169.397 111.112 169.384 111.108C169.371 111.104 169.366 111.1 169.371 111.104C169.385 111.113 169.468 111.174 169.588 111.375L172.361 109.71ZM180.033 120.08L178.803 121.13L178.809 121.138L180.033 120.08ZM180.099 107.078L181.304 108.156L181.31 108.15L180.099 107.078ZM190.069 107.086L188.844 108.141L190.069 107.086ZM189.979 120.209L188.779 119.124L188.779 119.125L189.979 120.209ZM183.46 110.606L182.084 109.756L182.078 109.765L183.46 110.606ZM183.416 116.574L182.016 117.382L182.038 117.421L183.416 116.574ZM186.618 116.56L185.237 115.719L185.223 115.742L186.618 116.56ZM186.613 110.592L185.227 111.425L185.241 111.448L186.613 110.592ZM185.004 120.711C183.437 120.706 182.231 120.151 181.257 119.023L178.809 121.138C180.413 122.994 182.518 123.937 184.994 123.945L185.004 120.711ZM181.263 119.031C180.335 117.942 179.746 116.204 179.755 113.554L176.52 113.544C176.511 116.619 177.186 119.235 178.803 121.13L181.263 119.031ZM179.755 113.554C179.763 110.905 180.37 109.2 181.304 108.156L178.894 106C177.231 107.859 176.53 110.467 176.52 113.544L179.755 113.554ZM181.31 108.15C182.287 107.046 183.504 106.499 185.098 106.504L185.108 103.27C182.627 103.262 180.508 104.175 178.888 106.007L181.31 108.15ZM185.098 106.504C186.718 106.509 187.915 107.063 188.844 108.141L191.295 106.031C189.709 104.19 187.596 103.277 185.108 103.27L185.098 106.504ZM188.844 108.141C189.743 109.186 190.332 110.928 190.323 113.661L193.557 113.671C193.567 110.55 192.909 107.905 191.295 106.031L188.844 108.141ZM190.323 113.661C190.314 116.387 189.701 118.105 188.779 119.124L191.178 121.294C192.852 119.443 193.547 116.799 193.557 113.671L190.323 113.661ZM188.779 119.125C187.826 120.179 186.616 120.716 185.004 120.711L184.994 123.945C187.457 123.953 189.567 123.078 191.179 121.293L188.779 119.125ZM185.045 107.927C183.674 107.923 182.7 108.759 182.084 109.756L184.835 111.457C184.97 111.238 185.064 111.165 185.086 111.15C185.095 111.144 185.09 111.149 185.072 111.155C185.054 111.16 185.039 111.161 185.035 111.161L185.045 107.927ZM182.078 109.765C181.437 110.819 181.207 112.153 181.202 113.583L184.436 113.593C184.44 112.436 184.637 111.782 184.841 111.448L182.078 109.765ZM181.202 113.583C181.198 115.006 181.409 116.331 182.016 117.382L184.817 115.765C184.619 115.423 184.433 114.758 184.436 113.593L181.202 113.583ZM182.038 117.421C182.67 118.449 183.665 119.211 185.009 119.215L185.019 115.981C185.001 115.981 184.997 115.978 185.002 115.98C185.008 115.981 185.009 115.983 185.002 115.979C184.987 115.969 184.908 115.913 184.794 115.727L182.038 117.421ZM185.009 119.215C186.379 119.219 187.389 118.444 188.014 117.377L185.223 115.742C185.115 115.927 185.041 115.978 185.034 115.982C185.031 115.984 185.034 115.982 185.041 115.98C185.047 115.978 185.042 115.981 185.019 115.981L185.009 119.215ZM188 117.401C188.641 116.347 188.871 115.013 188.876 113.583L185.641 113.573C185.638 114.73 185.441 115.384 185.237 115.719L188 117.401ZM188.876 113.583C188.88 112.145 188.649 110.8 187.986 109.737L185.241 111.448C185.447 111.778 185.645 112.423 185.641 113.573L188.876 113.583ZM188 109.76C187.386 108.738 186.406 107.931 185.045 107.927L185.035 111.161C185.042 111.161 185.035 111.162 185.022 111.158C185.009 111.154 185.004 111.15 185.01 111.154C185.023 111.163 185.106 111.224 185.227 111.425L188 109.76Z" fill="black" mask="url(#path-13-outside-1_65_1013)"/>
</g>
<g filter="url(#filter2_d_65_1013)">
<path fill-rule="evenodd" clip-rule="evenodd" d="M41.0751 95.6117C40.9229 97.1979 39.4996 98.3589 37.896 98.2051C36.4526 98.0665 35.3552 96.9098 35.2614 95.5234L17.7526 97.2671C14.4198 97.5991 11.9983 100.569 12.3442 103.9L14.6234 125.853C14.9693 129.184 17.9515 131.616 21.2844 131.284L39.5182 129.468C39.3306 129.037 39.2466 128.555 39.2946 128.055C39.4468 126.469 40.8701 125.308 42.4736 125.461C44.0772 125.615 45.2537 127.026 45.1015 128.612C45.0916 128.715 45.0763 128.817 45.0558 128.916L54.7388 127.952C58.0717 127.62 60.4931 124.65 60.1472 121.319L57.868 99.3664C57.5221 96.0349 54.5399 93.6034 51.2071 93.9353L41.0616 94.9457C41.0914 95.162 41.0968 95.3851 41.0751 95.6117Z" fill="white"/>
<path d="M35.2614 95.5234L35.8665 95.4824C35.8554 95.3186 35.7784 95.1663 35.653 95.0603C35.5277 94.9543 35.3647 94.9036 35.2013 94.9199L35.2614 95.5234ZM17.7526 97.2671L17.6925 96.6637L17.7526 97.2671ZM12.3442 103.9L12.9474 103.838L12.3442 103.9ZM14.6234 125.853L14.0202 125.915L14.6234 125.853ZM21.2844 131.284L21.3445 131.887L21.3445 131.887L21.2844 131.284ZM39.5182 129.468L39.5783 130.071C39.7712 130.052 39.9433 129.942 40.0413 129.775C40.1394 129.608 40.1517 129.404 40.0743 129.226L39.5182 129.468ZM45.0558 128.916L44.4618 128.795C44.423 128.983 44.4764 129.179 44.6055 129.323C44.7346 129.466 44.9241 129.539 45.116 129.52L45.0558 128.916ZM54.7388 127.952L54.6787 127.349L54.7388 127.952ZM60.1472 121.319L60.7504 121.256L60.1472 121.319ZM57.868 99.3664L58.4712 99.3038L57.868 99.3664ZM51.2071 93.9353L51.147 93.3318L51.147 93.3318L51.2071 93.9353ZM41.0616 94.9457L41.0015 94.3422C40.8374 94.3586 40.6871 94.441 40.5851 94.5705C40.4831 94.7 40.4383 94.8654 40.4608 95.0287L41.0616 94.9457ZM37.8381 98.8087C39.7688 98.994 41.494 97.5954 41.6788 95.6696L40.4714 95.5538C40.3518 96.8003 39.2303 97.7239 37.954 97.6014L37.8381 98.8087ZM34.6564 95.5643C34.7702 97.247 36.0992 98.6419 37.8381 98.8087L37.954 97.6014C36.8061 97.4912 35.9403 96.5727 35.8665 95.4824L34.6564 95.5643ZM17.8127 97.8706L35.3215 96.1268L35.2013 94.9199L17.6925 96.6637L17.8127 97.8706ZM12.9474 103.838C12.6362 100.84 14.8141 98.1692 17.8127 97.8706L17.6925 96.6637C14.0254 97.0289 11.3604 100.297 11.741 103.963L12.9474 103.838ZM15.2266 125.79L12.9474 103.838L11.741 103.963L14.0202 125.915L15.2266 125.79ZM21.2243 130.68C18.2237 130.979 15.538 128.789 15.2266 125.79L14.0202 125.915C14.4006 129.579 17.6793 132.252 21.3445 131.887L21.2243 130.68ZM39.4581 128.864L21.2243 130.68L21.3445 131.887L39.5783 130.071L39.4581 128.864ZM40.0743 129.226C39.9266 128.886 39.8604 128.507 39.8983 128.113L38.6909 127.997C38.6329 128.602 38.7346 129.187 38.9622 129.71L40.0743 129.226ZM39.8983 128.113C40.0179 126.866 41.1394 125.943 42.4157 126.065L42.5316 124.858C40.6009 124.672 38.8757 126.071 38.6909 127.997L39.8983 128.113ZM42.4157 126.065C43.6921 126.188 44.6174 127.308 44.4978 128.554L45.7052 128.67C45.89 126.744 44.4623 125.043 42.5316 124.858L42.4157 126.065ZM44.4978 128.554C44.49 128.636 44.4779 128.716 44.4618 128.795L45.6499 129.038C45.6747 128.918 45.6932 128.795 45.7052 128.67L44.4978 128.554ZM54.6787 127.349L44.9957 128.313L45.116 129.52L54.7989 128.556L54.6787 127.349ZM59.544 121.382C59.8552 124.379 57.6773 127.05 54.6787 127.349L54.7989 128.556C58.466 128.19 61.131 124.922 60.7504 121.256L59.544 121.382ZM57.2648 99.429L59.544 121.382L60.7504 121.256L58.4712 99.3038L57.2648 99.429ZM51.2672 94.5388C54.2677 94.2399 56.9534 96.4297 57.2648 99.429L58.4712 99.3038C58.0909 95.6402 54.8121 92.9668 51.147 93.3318L51.2672 94.5388ZM41.1217 95.5492L51.2672 94.5388L51.147 93.3318L41.0015 94.3422L41.1217 95.5492ZM41.6788 95.6696C41.705 95.3957 41.6986 95.1254 41.6623 94.8627L40.4608 95.0287C40.4843 95.1987 40.4886 95.3744 40.4714 95.5538L41.6788 95.6696Z" fill="black"/>
</g>
<path d="M29.4473 103.914C29.6108 103.327 30.7522 102.917 32.8716 102.686C33.4155 102.626 34.0864 102.6 34.8844 102.608C35.6991 102.594 36.1106 102.625 36.1188 102.7L32.4016 112.958L38.3723 121.728C38.4389 121.815 38.0459 121.953 37.1934 122.142C36.3389 122.311 35.6115 122.429 35.0113 122.494C32.6294 122.755 31.291 122.579 30.9961 121.966L28.298 116.823L26.9916 122.575C26.8615 123.121 25.6899 123.515 23.4767 123.757C22.9328 123.816 22.2535 123.853 21.4388 123.866C20.6241 123.879 20.2471 123.816 20.3078 123.677L23.6311 113.462L18.0573 104.677C17.9908 104.59 18.366 104.463 19.183 104.298C20.0168 104.112 20.7243 103.987 21.3058 103.923C23.669 103.664 25 103.86 25.299 104.511L27.7575 109.025L29.4473 103.914ZM43.8656 121.554C42.1588 121.74 41.2849 121.646 41.2439 121.271L39.2484 103.041C39.1786 102.403 39.4345 102.053 40.0159 101.989L44.9673 101.447C47.7431 101.143 49.8032 101.497 51.1475 102.507C52.5106 103.516 53.3112 105.108 53.5494 107.283C53.7464 109.084 53.3457 110.798 52.3471 112.426C51.8478 113.24 51.0601 113.933 49.984 114.507C48.908 115.08 47.6197 115.449 46.1193 115.613L46.6705 120.649C46.6951 120.874 46.3562 121.072 45.6538 121.244C44.9681 121.395 44.372 121.498 43.8656 121.554ZM45.1093 106.385L45.5958 110.83L45.9615 110.79C46.618 110.718 47.1487 110.452 47.5536 109.99C47.9586 109.528 48.12 108.922 48.0379 108.171C47.9558 107.421 47.7379 106.904 47.3841 106.62C47.0491 106.334 46.4878 106.234 45.7001 106.321L45.1093 106.385Z" fill="black"/>
<mask id="mask3_65_1013" style="mask-type:alpha" maskUnits="userSpaceOnUse" x="2" y="3" width="151" height="88">
<path fill-rule="evenodd" clip-rule="evenodd" d="M13.9534 13.005L91.9749 6.60717C92.3876 9.0035 94.4721 10.8301 96.9875 10.8382C99.7976 10.8472 102.084 8.58321 102.107 5.77634L135.462 3.04123C142.138 2.49377 147.994 7.46217 148.541 14.1385L152.916 67.4827C153.463 74.159 148.495 80.015 141.818 80.5625L108.694 83.2787C108.268 80.8983 106.191 79.0881 103.687 79.0801C100.888 79.0711 98.6078 81.3174 98.5679 84.1091L20.3102 90.5263C13.6339 91.0737 7.77791 86.1053 7.23045 79.429L2.85617 26.0848C2.30871 19.4085 7.27711 13.5525 13.9534 13.005ZM99.2223 37.106C102.041 37.1151 104.333 34.8376 104.342 32.0192C104.351 29.2009 102.073 26.9088 99.2549 26.8998C96.4365 26.8908 94.1445 29.1682 94.1355 31.9866C94.1264 34.805 96.4039 37.097 99.2223 37.106ZM106.642 57.8705C106.633 60.6889 104.341 62.9664 101.522 62.9573C98.7037 62.9483 96.4263 60.6563 96.4353 57.8379C96.4443 55.0195 98.7364 52.742 101.555 52.7511C104.373 52.7601 106.651 55.0521 106.642 57.8705Z" fill="#F7AD2A"/>
</mask>
<g mask="url(#mask3_65_1013)">
<path d="M2.85602 26.085C2.30855 19.4087 7.27696 13.5527 13.9533 13.0053L135.461 3.04148C142.138 2.49402 147.994 7.46242 148.541 14.1387L152.915 67.4829C153.463 74.1592 148.494 80.0153 141.818 80.5627L20.3101 90.5265C13.6338 91.074 7.77775 86.1056 7.23029 79.4293L2.85602 26.085Z" fill="#F7AD2A"/>
<path d="M13.8707 11.9979C6.63799 12.591 1.25556 18.935 1.84864 26.1676L6.22291 79.5119C6.816 86.7445 13.16 92.127 20.3927 91.5339L141.901 81.5701C149.133 80.977 154.516 74.633 153.923 67.4003L149.549 14.0561C148.955 6.82346 142.611 1.44102 135.379 2.0341L13.8707 11.9979Z" stroke="black" stroke-opacity="0.36" stroke-width="2.02151"/>
<mask id="mask4_65_1013" style="mask-type:alpha" maskUnits="userSpaceOnUse" x="2" y="2" width="151" height="89">
<path d="M2.85699 26.0833C2.30953 19.407 7.27793 13.551 13.9542 13.0035L135.462 3.03977C142.139 2.49231 147.995 7.46071 148.542 14.137L152.916 67.4812C153.464 74.1575 148.495 80.0136 141.819 80.561L20.311 90.5248C13.6347 91.0723 7.77873 86.1039 7.23127 79.4276L2.85699 26.0833Z" fill="white"/>
</mask>
<g mask="url(#mask4_65_1013)">
<path d="M140.855 12.4666L10.0355 23.47L-4.53418 10.0508L149.956 -1.56134L140.855 12.4666Z" fill="white"/>
<path d="M16.8226 80.2978L144.004 71.5144L160.849 82.536L5.29672 94.4152L16.8226 80.2978Z" fill="#E76A25"/>
</g>
<path d="M6.52483 25.6595C6.18454 21.6547 9.15522 18.1323 13.16 17.792L136.632 7.30072C140.637 6.96043 144.16 9.93111 144.5 13.9359L149.138 68.5257C149.479 72.5305 146.508 76.0529 142.503 76.3932L19.0307 86.8845C15.0259 87.2248 11.5035 84.2541 11.1633 80.2493L6.52483 25.6595Z" fill="#FFF326"/>
<mask id="mask5_65_1013" style="mask-type:alpha" maskUnits="userSpaceOnUse" x="6" y="7" width="144" height="80">
<path d="M6.52483 25.6586C6.18454 21.6538 9.15522 18.1314 13.16 17.7912L136.632 7.29986C140.637 6.95958 144.16 9.93025 144.5 13.935L149.138 68.5249C149.479 72.5297 146.508 76.052 142.503 76.3923L19.0307 86.8836C15.0259 87.2239 11.5035 84.2532 11.1633 80.2484L6.52483 25.6586Z" fill="#FFF326"/>
</mask>
<g mask="url(#mask5_65_1013)">
<path d="M153.629 62.3524L6.01758 43.8065L9.81951 93.8014L155.053 84.4839L153.629 62.3524Z" fill="#FCDC15"/>
</g>
<rect x="115.523" y="12.2191" width="24.3858" height="6.48936" transform="rotate(-4.77038 115.523 12.2191)" fill="#17130E"/>
<rect x="116.33" y="21.8845" width="24.3858" height="2.97305" transform="rotate(-4.77038 116.33 21.8845)" fill="#17130E"/>
<rect x="118.425" y="47.0033" width="24.3858" height="2.97305" transform="rotate(-4.77038 118.425 47.0033)" fill="#17130E"/>
<rect x="120.527" y="72.1854" width="24.3858" height="2.97305" transform="rotate(-4.77038 120.527 72.1854)" fill="#E35A3D"/>
<rect x="118.94" y="53.1666" width="24.3858" height="5.88095" transform="rotate(-4.77038 118.94 53.1666)" fill="#17130E"/>
<rect x="119.72" y="62.5043" width="24.3858" height="5.88095" transform="rotate(-4.77038 119.72 62.5043)" fill="#17130E"/>
<rect x="117.138" y="31.5755" width="24.3858" height="11.8211" transform="rotate(-4.77038 117.138 31.5755)" fill="#17130E"/>
</g>
<mask id="path-34-outside-2_65_1013" maskUnits="userSpaceOnUse" x="-0.185059" y="0" width="156" height="93" fill="black">
<rect fill="white" x="-0.185059" width="156" height="93"/>
<path fill-rule="evenodd" clip-rule="evenodd" d="M13.9534 13.005L91.9749 6.60717C92.3876 9.0035 94.4721 10.8301 96.9875 10.8382C99.7976 10.8472 102.084 8.58321 102.107 5.77634L135.462 3.04123C142.138 2.49377 147.994 7.46217 148.541 14.1385L152.916 67.4827C153.463 74.159 148.495 80.015 141.818 80.5625L108.694 83.2787C108.268 80.8983 106.191 79.0881 103.687 79.0801C100.888 79.0711 98.6078 81.3174 98.5679 84.1091L20.3102 90.5263C13.6339 91.0737 7.77791 86.1053 7.23045 79.429L2.85617 26.0848C2.30871 19.4085 7.27711 13.5525 13.9534 13.005ZM99.2223 37.106C102.041 37.1151 104.333 34.8376 104.342 32.0192C104.351 29.2009 102.073 26.9088 99.2549 26.8998C96.4365 26.8908 94.1445 29.1682 94.1355 31.9866C94.1264 34.805 96.4039 37.097 99.2223 37.106ZM106.642 57.8705C106.633 60.6889 104.341 62.9664 101.522 62.9573C98.7037 62.9483 96.4263 60.6563 96.4353 57.8379C96.4443 55.0195 98.7364 52.742 101.555 52.7511C104.373 52.7601 106.651 55.0521 106.642 57.8705Z"/>
</mask>
<path d="M91.9749 6.60717L93.9671 6.2641L93.6532 4.44125L91.8097 4.59242L91.9749 6.60717ZM13.9534 13.005L14.1186 15.0198L13.9534 13.005ZM96.9875 10.8382L96.981 12.8597L96.9875 10.8382ZM102.107 5.77634L101.942 3.76159L100.1 3.9126L100.085 5.7602L102.107 5.77634ZM135.462 3.04123L135.296 1.02648L135.462 3.04123ZM148.541 14.1385L150.556 13.9733V13.9733L148.541 14.1385ZM152.916 67.4827L150.901 67.6479L152.916 67.4827ZM141.818 80.5625L141.984 82.5772L141.818 80.5625ZM108.694 83.2787L106.704 83.6347L107.027 85.4437L108.859 85.2935L108.694 83.2787ZM103.687 79.0801L103.68 81.1016L103.687 79.0801ZM98.5679 84.1091L98.7331 86.1238L100.563 85.9738L100.589 84.138L98.5679 84.1091ZM20.3102 90.5263L20.145 88.5115L20.3102 90.5263ZM7.23045 79.429L9.2452 79.2638L7.23045 79.429ZM2.85617 26.0848L0.84142 26.25L2.85617 26.0848ZM99.2223 37.106L99.2158 39.1276L99.2223 37.106ZM99.2549 26.8998L99.2614 24.8783L99.2549 26.8998ZM101.522 62.9573L101.516 64.9788L101.522 62.9573ZM106.642 57.8705L108.663 57.877L106.642 57.8705ZM101.555 52.7511L101.561 50.7296L101.555 52.7511ZM91.8097 4.59242L13.7882 10.9903L14.1186 15.0198L92.1401 8.62193L91.8097 4.59242ZM96.994 8.81669C95.4771 8.81184 94.216 7.70977 93.9671 6.2641L89.9827 6.95025C90.5591 10.2972 93.4671 12.8485 96.981 12.8597L96.994 8.81669ZM100.085 5.7602C100.072 7.45495 98.6908 8.82212 96.994 8.81669L96.981 12.8597C100.904 12.8723 104.097 9.71146 104.128 5.79249L100.085 5.7602ZM135.296 1.02648L101.942 3.76159L102.272 7.7911L135.627 5.05598L135.296 1.02648ZM150.556 13.9733C149.917 6.18425 143.085 0.387773 135.296 1.02648L135.627 5.05598C141.19 4.59976 146.07 8.7401 146.527 14.3037L150.556 13.9733ZM154.93 67.3175L150.556 13.9733L146.527 14.3037L150.901 67.6479L154.93 67.3175ZM141.984 82.5772C149.773 81.9385 155.569 75.1065 154.93 67.3175L150.901 67.6479C151.357 73.2115 147.217 78.0915 141.653 78.5477L141.984 82.5772ZM108.859 85.2935L141.984 82.5772L141.653 78.5477L108.529 81.264L108.859 85.2935ZM103.68 81.1016C105.19 81.1064 106.447 82.1985 106.704 83.6347L110.684 82.9228C110.089 79.5982 107.191 77.0698 103.693 77.0586L103.68 81.1016ZM100.589 84.138C100.613 82.4527 101.99 81.0962 103.68 81.1016L103.693 77.0586C99.7853 77.0461 96.6023 80.1822 96.5466 84.0801L100.589 84.138ZM20.4754 92.541L98.7331 86.1238L98.4027 82.0943L20.145 88.5115L20.4754 92.541ZM5.21569 79.5942C5.8544 87.3832 12.6864 93.1797 20.4754 92.541L20.145 88.5115C14.5814 88.9677 9.70142 84.8274 9.2452 79.2638L5.21569 79.5942ZM0.84142 26.25L5.21569 79.5942L9.2452 79.2638L4.87092 25.9196L0.84142 26.25ZM13.7882 10.9903C5.99918 11.629 0.202714 18.461 0.84142 26.25L4.87092 25.9196C4.4147 20.356 8.55504 15.476 14.1186 15.0198L13.7882 10.9903ZM102.32 32.0128C102.315 33.7147 100.931 35.09 99.2287 35.0845L99.2158 39.1276C103.151 39.1401 106.351 35.9605 106.363 32.0257L102.32 32.0128ZM99.2485 28.9213C100.95 28.9267 102.326 30.3108 102.32 32.0128L106.363 32.0257C106.376 28.0909 103.196 24.8909 99.2614 24.8783L99.2485 28.9213ZM96.157 31.993C96.1624 30.2911 97.5465 28.9158 99.2485 28.9213L99.2614 24.8783C95.3266 24.8657 92.1265 28.0453 92.114 31.9801L96.157 31.993ZM99.2287 35.0845C97.5268 35.0791 96.1515 33.695 96.157 31.993L92.114 31.9801C92.1014 35.9149 95.281 39.115 99.2158 39.1276L99.2287 35.0845ZM101.516 64.9788C105.45 64.9914 108.651 61.8118 108.663 57.877L104.62 57.8641C104.615 59.566 103.231 60.9413 101.529 60.9358L101.516 64.9788ZM94.4138 57.8314C94.4012 61.7662 97.5808 64.9663 101.516 64.9788L101.529 60.9358C99.8267 60.9304 98.4514 59.5463 98.4568 57.8443L94.4138 57.8314ZM101.561 50.7296C97.6264 50.717 94.4264 53.8966 94.4138 57.8314L98.4568 57.8443C98.4623 56.1424 99.8464 54.7671 101.548 54.7726L101.561 50.7296ZM108.663 57.877C108.676 53.9422 105.496 50.7422 101.561 50.7296L101.548 54.7726C103.25 54.778 104.626 56.1621 104.62 57.8641L108.663 57.877Z" fill="black" mask="url(#path-34-outside-2_65_1013)"/>
<path d="M37.7251 36.87L43.42 41.7808" stroke="black" stroke-width="5.25594" stroke-linecap="round"/>
<path d="M57.3559 35.7463L52.3492 41.2191" stroke="black" stroke-width="5.25594" stroke-linecap="round"/>
<circle cx="31.3272" cy="53.1721" r="11.4278" transform="rotate(0.183346 31.3272 53.1721)" fill="black"/>
<circle cx="66.6978" cy="49.8746" r="11.4278" transform="rotate(0.183346 66.6978 49.8746)" fill="black"/>
<path d="M49.4244 55.905C49.5605 55.6251 49.9486 55.5976 50.1229 55.8554L55.8322 64.301C56.0065 64.5588 55.8364 64.9087 55.5259 64.9307L45.3572 65.6523C45.0467 65.6744 44.8288 65.3521 44.965 65.0722L49.4244 55.905Z" fill="black"/>
<mask id="mask6_65_1013" style="mask-type:alpha" maskUnits="userSpaceOnUse" x="2" y="3" width="151" height="88">
<path fill-rule="evenodd" clip-rule="evenodd" d="M13.9534 13.005L91.9749 6.60717C92.3876 9.0035 94.4721 10.8301 96.9875 10.8382C99.7976 10.8472 102.084 8.58321 102.107 5.77634L135.462 3.04123C142.138 2.49377 147.994 7.46217 148.541 14.1385L152.916 67.4827C153.463 74.159 148.495 80.015 141.818 80.5625L108.694 83.2787C108.268 80.8983 106.191 79.0881 103.687 79.0801C100.888 79.0711 98.6078 81.3174 98.5679 84.1091L20.3102 90.5263C13.6339 91.0737 7.77791 86.1053 7.23045 79.429L2.85617 26.0848C2.30871 19.4085 7.27711 13.5525 13.9534 13.005ZM99.2223 37.106C102.041 37.1151 104.333 34.8376 104.342 32.0192C104.351 29.2009 102.073 26.9088 99.2549 26.8998C96.4365 26.8908 94.1445 29.1682 94.1355 31.9866C94.1264 34.805 96.4039 37.097 99.2223 37.106ZM106.642 57.8705C106.633 60.6889 104.341 62.9664 101.522 62.9573C98.7037 62.9483 96.4263 60.6563 96.4353 57.8379C96.4443 55.0195 98.7364 52.742 101.555 52.7511C104.373 52.7601 106.651 55.0521 106.642 57.8705Z" fill="#F7AD2A"/>
</mask>
<g mask="url(#mask6_65_1013)">
<path fill-rule="evenodd" clip-rule="evenodd" d="M106.756 5.76533C106.738 11.1515 102.358 15.504 96.9719 15.4867C91.5857 15.4695 87.2333 11.0891 87.2505 5.70291C87.2678 0.316705 91.6481 -4.03571 97.0343 -4.01847C102.421 -4.00124 106.773 0.379121 106.756 5.76533ZM96.9868 10.8373C99.8052 10.8463 102.097 8.56884 102.106 5.75045C102.115 2.93207 99.8378 0.640003 97.0195 0.630984C94.2011 0.621965 91.909 2.89941 91.9 5.71779C91.891 8.53618 94.1684 10.8282 96.9868 10.8373Z" fill="white"/>
<path fill-rule="evenodd" clip-rule="evenodd" d="M108.992 32.0325C108.974 37.4188 104.594 41.7712 99.2078 41.7539C93.8215 41.7367 89.4691 37.3563 89.4864 31.9701C89.5036 26.5839 93.884 22.2315 99.2702 22.2487C104.656 22.266 109.009 26.6463 108.992 32.0325ZM99.2226 37.1045C102.041 37.1135 104.333 34.8361 104.342 32.0177C104.351 29.1993 102.074 26.9072 99.2553 26.8982C96.4369 26.8892 94.1448 29.1666 94.1358 31.985C94.1268 34.8034 96.4043 37.0955 99.2226 37.1045Z" fill="#F7CE21"/>
<mask id="mask7_65_1013" style="mask-type:alpha" maskUnits="userSpaceOnUse" x="89" y="22" width="20" height="20">
<path fill-rule="evenodd" clip-rule="evenodd" d="M108.991 32.0332C108.973 37.4194 104.593 41.7718 99.2068 41.7545C93.8206 41.7373 89.4682 37.3569 89.4854 31.9707C89.5026 26.5845 93.883 22.2321 99.2692 22.2493C104.655 22.2666 109.008 26.6469 108.991 32.0332ZM99.2217 37.1051C102.04 37.1141 104.332 34.8367 104.341 32.0183C104.35 29.1999 102.073 26.9078 99.2543 26.8988C96.4359 26.8898 94.1439 29.1672 94.1349 31.9856C94.1258 34.804 96.4033 37.0961 99.2217 37.1051Z" fill="#F7CE21"/>
</mask>
<g mask="url(#mask7_65_1013)">
<path d="M99.0774 31.5025L87.6768 36.2582L88.6446 44.577L111.314 43.2124V36.2582L99.0774 31.5025Z" fill="#FFFFE4"/>
</g>
<path fill-rule="evenodd" clip-rule="evenodd" d="M111.289 57.8835C111.272 63.2697 106.892 67.6221 101.506 67.6049C96.1194 67.5876 91.767 63.2073 91.7842 57.8211C91.8015 52.4349 96.1818 48.0825 101.568 48.0997C106.954 48.1169 111.307 52.4973 111.289 57.8835ZM101.52 62.9554C104.339 62.9644 106.631 60.687 106.64 57.8686C106.649 55.0502 104.372 52.7582 101.553 52.7491C98.7348 52.7401 96.4427 55.0176 96.4337 57.836C96.4247 60.6543 98.7021 62.9464 101.52 62.9554Z" fill="#F6AD29"/>
<mask id="mask8_65_1013" style="mask-type:alpha" maskUnits="userSpaceOnUse" x="91" y="48" width="21" height="20">
<path fill-rule="evenodd" clip-rule="evenodd" d="M111.289 57.8828C111.272 63.269 106.892 67.6214 101.506 67.6042C96.1194 67.5869 91.767 63.2066 91.7842 57.8203C91.8015 52.4341 96.1818 48.0817 101.568 48.099C106.954 48.1162 111.307 52.4966 111.289 57.8828ZM101.52 62.9547C104.339 62.9637 106.631 60.6863 106.64 57.8679C106.649 55.0495 104.372 52.7574 101.553 52.7484C98.7348 52.7394 96.4427 55.0168 96.4337 57.8352C96.4247 60.6536 98.7021 62.9457 101.52 62.9547Z" fill="#F6AD29"/>
</mask>
<g mask="url(#mask8_65_1013)">
<path d="M100.192 57.0874L88.7725 61.4258L89.7403 69.7446L112.41 68.38V61.0527L100.192 57.0874Z" fill="#FEF769"/>
</g>
<path fill-rule="evenodd" clip-rule="evenodd" d="M113.422 84.2135C113.405 89.5997 109.025 93.9521 103.638 93.9348C98.2522 93.9176 93.8998 89.5372 93.917 84.151C93.9343 78.7648 98.3146 74.4124 103.701 74.4296C109.087 74.4469 113.439 78.8272 113.422 84.2135ZM103.653 89.2854C106.472 89.2944 108.764 87.017 108.773 84.1986C108.782 81.3802 106.504 79.0881 103.686 79.0791C100.868 79.0701 98.5755 81.3475 98.5665 84.1659C98.5575 86.9843 100.835 89.2764 103.653 89.2854Z" fill="#E76A25"/>
</g>
<circle cx="189.451" cy="53.2741" r="28.8138" fill="#1F2535" stroke="black" stroke-width="2.42582"/>
<mask id="mask9_65_1013" style="mask-type:alpha" maskUnits="userSpaceOnUse" x="161" y="25" width="57" height="56">
<circle cx="189.451" cy="53.2741" r="27.6009" fill="#1F2535"/>
</mask>
<g mask="url(#mask9_65_1013)">
<circle cx="189.452" cy="56.9521" r="25.6941" fill="#2A3147"/>
</g>
<g filter="url(#filter3_d_65_1013)">
<mask id="path-53-outside-3_65_1013" maskUnits="userSpaceOnUse" x="168.236" y="36.6577" width="42" height="32" fill="black">
<rect fill="white" x="168.236" y="36.6577" width="42" height="32"/>
<path d="M183.918 65.0048C183.918 65.4401 182.613 65.6577 180.001 65.6577C177.415 65.6577 176.121 65.4401 176.121 65.0048V46.0692L171.973 46.1077C171.205 46.1077 170.821 44.8786 170.821 42.4204C170.821 41.5754 170.898 40.756 171.051 39.9623C171.231 39.1685 171.525 38.7716 171.935 38.7716H182.459C182.894 38.7716 183.24 38.874 183.496 39.0788C183.778 39.2581 183.918 39.4885 183.918 39.7702V65.0048ZM196.949 66.0418C193.748 66.0418 191.123 64.8639 189.075 62.5082C187.052 60.1525 186.04 56.7085 186.04 52.1762C186.04 47.644 187.065 44.2256 189.113 41.9211C191.162 39.591 193.799 38.4259 197.025 38.4259C200.277 38.4259 202.902 39.5782 204.899 41.8827C206.896 44.1872 207.895 47.6568 207.895 52.2915C207.895 56.9261 206.871 60.3829 204.822 62.6618C202.8 64.9151 200.175 66.0418 196.949 66.0418ZM196.949 45.8004C195.976 45.8004 195.143 46.3637 194.452 47.4904C193.786 48.5914 193.453 50.1662 193.453 52.2146C193.453 54.2631 193.773 55.8379 194.414 56.9389C195.079 58.0144 195.924 58.5521 196.949 58.5521C197.998 58.5521 198.843 58.0016 199.484 56.9005C200.149 55.7995 200.482 54.2247 200.482 52.1762C200.482 50.1278 200.137 48.553 199.445 47.452C198.779 46.3509 197.947 45.8004 196.949 45.8004Z"/>
</mask>
<path d="M183.918 65.0048C183.918 65.4401 182.613 65.6577 180.001 65.6577C177.415 65.6577 176.121 65.4401 176.121 65.0048V46.0692L171.973 46.1077C171.205 46.1077 170.821 44.8786 170.821 42.4204C170.821 41.5754 170.898 40.756 171.051 39.9623C171.231 39.1685 171.525 38.7716 171.935 38.7716H182.459C182.894 38.7716 183.24 38.874 183.496 39.0788C183.778 39.2581 183.918 39.4885 183.918 39.7702V65.0048ZM196.949 66.0418C193.748 66.0418 191.123 64.8639 189.075 62.5082C187.052 60.1525 186.04 56.7085 186.04 52.1762C186.04 47.644 187.065 44.2256 189.113 41.9211C191.162 39.591 193.799 38.4259 197.025 38.4259C200.277 38.4259 202.902 39.5782 204.899 41.8827C206.896 44.1872 207.895 47.6568 207.895 52.2915C207.895 56.9261 206.871 60.3829 204.822 62.6618C202.8 64.9151 200.175 66.0418 196.949 66.0418ZM196.949 45.8004C195.976 45.8004 195.143 46.3637 194.452 47.4904C193.786 48.5914 193.453 50.1662 193.453 52.2146C193.453 54.2631 193.773 55.8379 194.414 56.9389C195.079 58.0144 195.924 58.5521 196.949 58.5521C197.998 58.5521 198.843 58.0016 199.484 56.9005C200.149 55.7995 200.482 54.2247 200.482 52.1762C200.482 50.1278 200.137 48.553 199.445 47.452C198.779 46.3509 197.947 45.8004 196.949 45.8004Z" fill="white"/>
<path d="M176.121 46.0692H177.739V44.437L176.106 44.4521L176.121 46.0692ZM171.973 46.1077V47.7249H171.981L171.988 47.7248L171.973 46.1077ZM171.051 39.9623L169.474 39.606L169.468 39.6304L169.464 39.6549L171.051 39.9623ZM183.496 39.0788L182.486 40.3417L182.554 40.3963L182.628 40.4432L183.496 39.0788ZM182.301 65.0048C182.301 64.6151 182.459 64.3035 182.629 64.1053C182.777 63.9326 182.92 63.8593 182.95 63.844C183.004 63.8172 182.948 63.8535 182.673 63.8993C182.156 63.9854 181.286 64.0405 180.001 64.0405V67.2749C181.328 67.2749 182.416 67.2212 183.205 67.0897C183.583 67.0266 184.017 66.9269 184.397 66.7369C184.714 66.5784 185.536 66.0684 185.536 65.0048H182.301ZM180.001 64.0405C178.729 64.0405 177.869 63.9854 177.36 63.8997C177.089 63.8542 177.037 63.8185 177.093 63.8468C177.125 63.8632 177.268 63.9376 177.415 64.1113C177.584 64.3103 177.739 64.6199 177.739 65.0048H174.504C174.504 66.0601 175.314 66.5718 175.635 66.734C176.014 66.9256 176.447 67.026 176.823 67.0893C177.607 67.2212 178.686 67.2749 180.001 67.2749V64.0405ZM177.739 65.0048V46.0692H174.504V65.0048H177.739ZM176.106 44.4521L171.958 44.4905L171.988 47.7248L176.136 47.6864L176.106 44.4521ZM171.973 44.4904C172.274 44.4904 172.52 44.6336 172.649 44.7711C172.736 44.8644 172.711 44.8896 172.653 44.7035C172.536 44.3288 172.438 43.606 172.438 42.4204H169.204C169.204 43.693 169.299 44.8139 169.565 45.6682C169.804 46.4328 170.454 47.7249 171.973 47.7249V44.4904ZM172.438 42.4204C172.438 41.6739 172.506 40.9576 172.639 40.2696L169.464 39.6549C169.29 40.5544 169.204 41.4769 169.204 42.4204H172.438ZM172.629 40.3185C172.66 40.1815 172.689 40.0919 172.71 40.0392C172.732 39.9843 172.736 39.992 172.706 40.0329C172.673 40.0762 172.592 40.1712 172.443 40.2548C172.285 40.3438 172.107 40.3888 171.935 40.3888V37.1544C171.11 37.1544 170.49 37.5914 170.108 38.1056C169.767 38.565 169.585 39.1138 169.474 39.606L172.629 40.3185ZM171.935 40.3888H182.459V37.1544H171.935V40.3888ZM182.459 40.3888C182.552 40.3888 182.589 40.4 182.585 40.399C182.583 40.3982 182.571 40.3944 182.552 40.3847C182.532 40.3749 182.51 40.3608 182.486 40.3417L184.506 37.816C183.882 37.3163 183.141 37.1544 182.459 37.1544V40.3888ZM182.628 40.4432C182.609 40.4311 182.518 40.3684 182.433 40.2294C182.341 40.0795 182.301 39.9136 182.301 39.7702H185.536C185.536 38.8261 185.012 38.1266 184.364 37.7145L182.628 40.4432ZM182.301 39.7702V65.0048H185.536V39.7702H182.301ZM189.075 62.5082L187.848 63.5618L187.854 63.5694L189.075 62.5082ZM189.113 41.9211L190.322 42.9955L190.328 42.9889L189.113 41.9211ZM204.899 41.8827L203.677 42.9418L203.677 42.9419L204.899 41.8827ZM204.822 62.6618L203.62 61.5807L203.619 61.5815L204.822 62.6618ZM194.452 47.4904L193.074 46.6445L193.068 46.6536L194.452 47.4904ZM194.414 56.9389L193.016 57.7518L193.027 57.7711L193.039 57.7902L194.414 56.9389ZM199.484 56.9005L198.1 56.0637L198.092 56.0756L198.085 56.0877L199.484 56.9005ZM199.445 47.452L198.061 48.2887L198.068 48.3004L198.076 48.3119L199.445 47.452ZM196.949 64.4246C194.202 64.4246 192.028 63.4394 190.295 61.447L187.854 63.5694C190.219 66.2884 193.293 67.659 196.949 67.659V64.4246ZM190.302 61.4546C188.624 59.5014 187.658 56.4955 187.658 52.1762H184.423C184.423 56.9214 185.479 60.8035 187.848 63.5618L190.302 61.4546ZM187.658 52.1762C187.658 47.8578 188.637 44.8914 190.322 42.9955L187.904 40.8467C185.493 43.5598 184.423 47.4302 184.423 52.1762H187.658ZM190.328 42.9889C192.056 41.0236 194.243 40.0431 197.025 40.0431V36.8087C193.355 36.8087 190.268 38.1584 187.899 40.8533L190.328 42.9889ZM197.025 40.0431C199.844 40.0431 202.009 41.0176 203.677 42.9418L206.121 40.8235C203.794 38.1387 200.711 36.8087 197.025 36.8087V40.0431ZM203.677 42.9419C205.316 44.8327 206.278 47.8511 206.278 52.2915H209.512C209.512 47.4625 208.477 43.5418 206.121 40.8235L203.677 42.9419ZM206.278 52.2915C206.278 56.7253 205.293 59.7189 203.62 61.5807L206.025 63.7429C208.449 61.0469 209.512 57.1269 209.512 52.2915H206.278ZM203.619 61.5815C201.925 63.4687 199.75 64.4246 196.949 64.4246V67.659C200.6 67.659 203.674 66.3616 206.026 63.7422L203.619 61.5815ZM196.949 44.1832C195.22 44.1832 193.941 45.2307 193.074 46.6445L195.83 48.3362C196.346 47.4968 196.731 47.4176 196.949 47.4176V44.1832ZM193.068 46.6536C192.185 48.1149 191.836 50.0297 191.836 52.2146H195.071C195.071 50.3027 195.388 49.0679 195.836 48.3271L193.068 46.6536ZM191.836 52.2146C191.836 54.3922 192.17 56.2968 193.016 57.7518L195.812 56.1261C195.377 55.3789 195.071 54.134 195.071 52.2146H191.836ZM193.039 57.7902C193.919 59.2127 195.228 60.1693 196.949 60.1693V56.9349C196.621 56.9349 196.24 56.8161 195.789 56.0877L193.039 57.7902ZM196.949 60.1693C198.705 60.1693 200.024 59.1877 200.882 57.7134L198.085 56.0877C197.662 56.8155 197.291 56.9349 196.949 56.9349V60.1693ZM200.867 57.7373C201.751 56.276 202.099 54.3612 202.099 52.1762H198.865C198.865 54.0882 198.548 55.323 198.1 56.0637L200.867 57.7373ZM202.099 52.1762C202.099 49.9837 201.736 48.0591 200.815 46.592L198.076 48.3119C198.537 49.0469 198.865 50.2718 198.865 52.1762H202.099ZM200.829 46.6152C199.967 45.1894 198.678 44.1832 196.949 44.1832V47.4176C197.217 47.4176 197.592 47.5125 198.061 48.2887L200.829 46.6152Z" fill="black" mask="url(#path-53-outside-3_65_1013)"/>
</g>
<defs>
<filter id="filter0_d_65_1013" x="4.38281" y="48.989" width="222.212" height="99.116" filterUnits="userSpaceOnUse" color-interpolation-filters="sRGB">
<feFlood flood-opacity="0" result="BackgroundImageFix"/>
<feColorMatrix in="SourceAlpha" type="matrix" values="0 0 0 0 0 0 0 0 0 0 0 0 0 0 0 0 0 0 127 0" result="hardAlpha"/>
<feOffset dy="5.05378"/>
<feComposite in2="hardAlpha" operator="out"/>
<feColorMatrix type="matrix" values="0 0 0 0 0 0 0 0 0 0 0 0 0 0 0 0 0 0 0.5 0"/>
<feBlend mode="normal" in2="BackgroundImageFix" result="effect1_dropShadow_65_1013"/>
<feBlend mode="normal" in="SourceGraphic" in2="effect1_dropShadow_65_1013" result="shape"/>
</filter>
<filter id="filter1_d_65_1013" x="73.7598" y="101.243" width="119.798" height="26.434" filterUnits="userSpaceOnUse" color-interpolation-filters="sRGB">
<feFlood flood-opacity="0" result="BackgroundImageFix"/>
<feColorMatrix in="SourceAlpha" type="matrix" values="0 0 0 0 0 0 0 0 0 0 0 0 0 0 0 0 0 0 127 0" result="hardAlpha"/>
<feOffset dy="1.61721"/>
<feComposite in2="hardAlpha" operator="out"/>
<feColorMatrix type="matrix" values="0 0 0 0 0 0 0 0 0 0 0 0 0 0 0 0 0 0 0.8 0"/>
<feBlend mode="normal" in2="BackgroundImageFix" result="effect1_dropShadow_65_1013"/>
<feBlend mode="normal" in="SourceGraphic" in2="effect1_dropShadow_65_1013" result="shape"/>
</filter>
<filter id="filter2_d_65_1013" x="11.7046" y="93.2985" width="49.082" height="40.6437" filterUnits="userSpaceOnUse" color-interpolation-filters="sRGB">
<feFlood flood-opacity="0" result="BackgroundImageFix"/>
<feColorMatrix in="SourceAlpha" type="matrix" values="0 0 0 0 0 0 0 0 0 0 0 0 0 0 0 0 0 0 127 0" result="hardAlpha"/>
<feOffset dy="2.02151"/>
<feComposite in2="hardAlpha" operator="out"/>
<feColorMatrix type="matrix" values="0 0 0 0 0 0 0 0 0 0 0 0 0 0 0 0 0 0 0.8 0"/>
<feBlend mode="normal" in2="BackgroundImageFix" result="effect1_dropShadow_65_1013"/>
<feBlend mode="normal" in="SourceGraphic" in2="effect1_dropShadow_65_1013" result="shape"/>
</filter>
<filter id="filter3_d_65_1013" x="169.204" y="36.8087" width="40.3086" height="34.8934" filterUnits="userSpaceOnUse" color-interpolation-filters="sRGB">
<feFlood flood-opacity="0" result="BackgroundImageFix"/>
<feColorMatrix in="SourceAlpha" type="matrix" values="0 0 0 0 0 0 0 0 0 0 0 0 0 0 0 0 0 0 127 0" result="hardAlpha"/>
<feOffset dy="4.04303"/>
<feComposite in2="hardAlpha" operator="out"/>
<feColorMatrix type="matrix" values="0 0 0 0 0 0 0 0 0 0 0 0 0 0 0 0 0 0 1 0"/>
<feBlend mode="normal" in2="BackgroundImageFix" result="effect1_dropShadow_65_1013"/>
<feBlend mode="normal" in="SourceGraphic" in2="effect1_dropShadow_65_1013" result="shape"/>
</filter>
</defs>
</svg>
