<svg width="189" height="129" viewBox="0 0 189 129" fill="none" xmlns="http://www.w3.org/2000/svg">
<g filter="url(#filter0_d_65_1015)">
<path d="M27.5818 37.2535C27.7859 34.7576 29.8712 32.8359 32.3755 32.8359H181.162C183.973 32.8359 186.185 35.2361 185.956 38.0377L179.8 113.304C179.596 115.8 177.51 117.722 175.006 117.722H26.2192C23.4082 117.722 21.1963 115.322 21.4255 112.52L27.5818 37.2535Z" fill="#343B50"/>
<path d="M181.162 31.3329H32.3755C29.0886 31.3329 26.3517 33.8551 26.0837 37.131L19.9274 112.398C19.6267 116.075 22.5298 119.225 26.2192 119.225H175.006C178.293 119.225 181.03 116.703 181.298 113.427L187.454 38.1603C187.755 34.4832 184.852 31.3329 181.162 31.3329Z" stroke="black" stroke-width="3.00607"/>
</g>
<mask id="mask0_65_1015" style="mask-type:alpha" maskUnits="userSpaceOnUse" x="21" y="32" width="165" height="86">
<path d="M27.5818 37.2535C27.7859 34.7576 29.8712 32.8359 32.3755 32.8359H181.162C183.973 32.8359 186.185 35.2361 185.956 38.0377L179.8 113.304C179.596 115.8 177.51 117.722 175.006 117.722H26.2192C23.4082 117.722 21.1963 115.322 21.4255 112.52L27.5818 37.2535Z" fill="#343B50"/>
</mask>
<g mask="url(#mask0_65_1015)">
<rect x="15.4897" y="14.4938" width="185.886" height="24.69" fill="#5E5576"/>
<rect x="15.5986" y="109.335" width="185.886" height="24.69" fill="#272C3D"/>
<path d="M191.635 54.0714L171.281 32.0015H191.635V54.0714Z" fill="#766C92"/>
</g>
<g filter="url(#filter1_d_65_1015)">
<mask id="path-7-outside-1_65_1015" maskUnits="userSpaceOnUse" x="62.1826" y="81.8971" width="84" height="29" fill="black">
<rect fill="white" x="62.1826" y="81.8971" width="84" height="29"/>
<path d="M82.1589 106.236C82.1589 106.657 81.217 106.867 79.3332 106.867C77.4494 106.867 76.4273 106.717 76.267 106.416L71.2469 97.0372V106.386C71.2469 106.747 70.315 106.927 68.4512 106.927C66.6075 106.927 65.6857 106.747 65.6857 106.386V86.2755C65.6857 85.9749 66.4772 85.8246 68.0604 85.8246C68.6817 85.8246 69.4032 85.8847 70.2248 86.0049C71.0665 86.1051 71.5775 86.3055 71.7579 86.6061L76.5676 95.8648V86.4258C76.5676 86.045 77.4995 85.8546 79.3633 85.8546C81.227 85.8546 82.1589 86.045 82.1589 86.4258V106.236ZM95.2484 94.2115C95.6292 94.2115 95.8196 94.9129 95.8196 96.3157C95.8196 96.7366 95.7695 97.2376 95.6693 97.8188C95.5891 98.3799 95.4288 98.6605 95.1883 98.6605H91.3706V101.667H96.9018C97.2425 101.667 97.4729 102.107 97.5932 102.989C97.6533 103.37 97.6834 103.781 97.6834 104.222C97.6834 104.643 97.6232 105.194 97.503 105.875C97.3827 106.556 97.1823 106.897 96.9018 106.897H86.621C85.8595 106.897 85.4787 106.586 85.4787 105.965V86.6362C85.4787 86.1152 85.7092 85.8546 86.1701 85.8546H96.9318C97.3527 85.8546 97.5631 86.7464 97.5631 88.53C97.5631 90.2936 97.3527 91.1754 96.9318 91.1754H91.3706V94.2115H95.2484ZM99.7324 86.1552C99.6723 85.9348 100.684 85.8246 102.769 85.8246C105.073 85.8246 106.256 86.0149 106.316 86.3957L107.789 99.0513L110.975 86.2454C111.075 85.9448 111.857 85.7945 113.32 85.7945C114.783 85.7945 115.564 85.9348 115.665 86.2154L118.791 99.1114L120.534 86.3356C120.574 86.1152 121.035 85.9648 121.917 85.8847C122.799 85.8045 123.51 85.7644 124.051 85.7644C126.156 85.7644 127.178 85.9047 127.118 86.1853L123.48 106.116C123.4 106.416 122.829 106.637 121.767 106.777C120.705 106.917 119.843 106.987 119.182 106.987C116.697 106.987 115.394 106.707 115.274 106.146L113.23 97.8789L111.005 106.116C110.925 106.476 110.224 106.737 108.901 106.897C108.22 106.957 107.538 106.987 106.857 106.987L104.933 106.897C103.61 106.757 102.909 106.506 102.829 106.146L99.7324 86.1552ZM130.338 99.5623C130.719 99.8629 131.37 100.274 132.292 100.795C133.234 101.316 134.126 101.576 134.967 101.576C135.829 101.576 136.26 101.246 136.26 100.584C136.26 100.284 136.14 100.023 135.899 99.8028C135.659 99.5623 135.218 99.2917 134.576 98.9911C133.935 98.6905 133.454 98.4601 133.134 98.2997C132.813 98.1194 132.382 97.8388 131.841 97.458C131.32 97.0572 130.919 96.6464 130.639 96.2256C129.837 95.0833 129.436 93.6303 129.436 91.8668C129.436 90.1032 130.087 88.6202 131.39 87.4178C132.713 86.1953 134.436 85.5841 136.56 85.5841C138.003 85.5841 139.336 85.7444 140.559 86.0651C141.781 86.3657 142.412 86.7665 142.452 87.2675C142.452 87.3276 142.452 87.3877 142.452 87.4478C142.452 88.1493 142.232 89.0411 141.791 90.1232C141.35 91.1854 141.04 91.7766 140.859 91.8968C139.577 91.2355 138.424 90.9048 137.402 90.9048C136.4 90.9048 135.899 91.2655 135.899 91.987C135.899 92.4279 136.27 92.8187 137.011 93.1594C137.172 93.2395 137.402 93.3498 137.703 93.49C138.003 93.6303 138.344 93.8007 138.725 94.0011C139.126 94.1814 139.547 94.4219 139.987 94.7225C140.448 95.0031 140.939 95.3839 141.46 95.8648C142.523 96.8669 143.054 98.1895 143.054 99.8328C143.054 101.977 142.462 103.731 141.28 105.093C140.098 106.456 138.274 107.158 135.809 107.198C134.607 107.198 133.514 107.097 132.532 106.897C131.57 106.697 130.729 106.306 130.007 105.725C129.286 105.144 128.925 104.442 128.925 103.62C128.925 102.799 129.075 101.987 129.376 101.186C129.677 100.364 129.997 99.8228 130.338 99.5623Z"/>
</mask>
<path d="M82.1589 106.236C82.1589 106.657 81.217 106.867 79.3332 106.867C77.4494 106.867 76.4273 106.717 76.267 106.416L71.2469 97.0372V106.386C71.2469 106.747 70.315 106.927 68.4512 106.927C66.6075 106.927 65.6857 106.747 65.6857 106.386V86.2755C65.6857 85.9749 66.4772 85.8246 68.0604 85.8246C68.6817 85.8246 69.4032 85.8847 70.2248 86.0049C71.0665 86.1051 71.5775 86.3055 71.7579 86.6061L76.5676 95.8648V86.4258C76.5676 86.045 77.4995 85.8546 79.3633 85.8546C81.227 85.8546 82.1589 86.045 82.1589 86.4258V106.236ZM95.2484 94.2115C95.6292 94.2115 95.8196 94.9129 95.8196 96.3157C95.8196 96.7366 95.7695 97.2376 95.6693 97.8188C95.5891 98.3799 95.4288 98.6605 95.1883 98.6605H91.3706V101.667H96.9018C97.2425 101.667 97.4729 102.107 97.5932 102.989C97.6533 103.37 97.6834 103.781 97.6834 104.222C97.6834 104.643 97.6232 105.194 97.503 105.875C97.3827 106.556 97.1823 106.897 96.9018 106.897H86.621C85.8595 106.897 85.4787 106.586 85.4787 105.965V86.6362C85.4787 86.1152 85.7092 85.8546 86.1701 85.8546H96.9318C97.3527 85.8546 97.5631 86.7464 97.5631 88.53C97.5631 90.2936 97.3527 91.1754 96.9318 91.1754H91.3706V94.2115H95.2484ZM99.7324 86.1552C99.6723 85.9348 100.684 85.8246 102.769 85.8246C105.073 85.8246 106.256 86.0149 106.316 86.3957L107.789 99.0513L110.975 86.2454C111.075 85.9448 111.857 85.7945 113.32 85.7945C114.783 85.7945 115.564 85.9348 115.665 86.2154L118.791 99.1114L120.534 86.3356C120.574 86.1152 121.035 85.9648 121.917 85.8847C122.799 85.8045 123.51 85.7644 124.051 85.7644C126.156 85.7644 127.178 85.9047 127.118 86.1853L123.48 106.116C123.4 106.416 122.829 106.637 121.767 106.777C120.705 106.917 119.843 106.987 119.182 106.987C116.697 106.987 115.394 106.707 115.274 106.146L113.23 97.8789L111.005 106.116C110.925 106.476 110.224 106.737 108.901 106.897C108.22 106.957 107.538 106.987 106.857 106.987L104.933 106.897C103.61 106.757 102.909 106.506 102.829 106.146L99.7324 86.1552ZM130.338 99.5623C130.719 99.8629 131.37 100.274 132.292 100.795C133.234 101.316 134.126 101.576 134.967 101.576C135.829 101.576 136.26 101.246 136.26 100.584C136.26 100.284 136.14 100.023 135.899 99.8028C135.659 99.5623 135.218 99.2917 134.576 98.9911C133.935 98.6905 133.454 98.4601 133.134 98.2997C132.813 98.1194 132.382 97.8388 131.841 97.458C131.32 97.0572 130.919 96.6464 130.639 96.2256C129.837 95.0833 129.436 93.6303 129.436 91.8668C129.436 90.1032 130.087 88.6202 131.39 87.4178C132.713 86.1953 134.436 85.5841 136.56 85.5841C138.003 85.5841 139.336 85.7444 140.559 86.0651C141.781 86.3657 142.412 86.7665 142.452 87.2675C142.452 87.3276 142.452 87.3877 142.452 87.4478C142.452 88.1493 142.232 89.0411 141.791 90.1232C141.35 91.1854 141.04 91.7766 140.859 91.8968C139.577 91.2355 138.424 90.9048 137.402 90.9048C136.4 90.9048 135.899 91.2655 135.899 91.987C135.899 92.4279 136.27 92.8187 137.011 93.1594C137.172 93.2395 137.402 93.3498 137.703 93.49C138.003 93.6303 138.344 93.8007 138.725 94.0011C139.126 94.1814 139.547 94.4219 139.987 94.7225C140.448 95.0031 140.939 95.3839 141.46 95.8648C142.523 96.8669 143.054 98.1895 143.054 99.8328C143.054 101.977 142.462 103.731 141.28 105.093C140.098 106.456 138.274 107.158 135.809 107.198C134.607 107.198 133.514 107.097 132.532 106.897C131.57 106.697 130.729 106.306 130.007 105.725C129.286 105.144 128.925 104.442 128.925 103.62C128.925 102.799 129.075 101.987 129.376 101.186C129.677 100.364 129.997 99.8228 130.338 99.5623Z" fill="#FEFEFE"/>
<path d="M76.267 106.416L78.9194 105.002L78.9173 104.998L76.267 106.416ZM71.2469 97.0372L73.8972 95.6186L68.2408 97.0372H71.2469ZM70.2248 86.0049L69.7895 88.9793L69.8294 88.9852L69.8695 88.9899L70.2248 86.0049ZM71.7579 86.6061L74.4255 85.2204L74.383 85.1386L74.3356 85.0595L71.7579 86.6061ZM76.5676 95.8648L73.9 97.2506L79.5737 95.8648H76.5676ZM79.1528 106.236C79.1528 105.692 79.315 105.182 79.5822 104.764C79.8313 104.375 80.1216 104.14 80.3087 104.015C80.6438 103.79 80.8879 103.755 80.7971 103.775C80.6587 103.806 80.2211 103.861 79.3332 103.861V109.873C80.3291 109.873 81.3044 109.822 82.1079 109.643C82.488 109.558 83.0853 109.391 83.6559 109.009C84.2875 108.586 85.165 107.674 85.165 106.236H79.1528ZM79.3332 103.861C78.4395 103.861 77.8849 103.823 77.5912 103.78C77.4346 103.757 77.4759 103.75 77.62 103.805C77.6966 103.834 77.8757 103.908 78.0914 104.059C78.304 104.208 78.6533 104.503 78.9194 105.002L73.6146 107.831C74.1874 108.905 75.1649 109.303 75.4777 109.422C75.9174 109.59 76.3619 109.676 76.7164 109.728C77.4447 109.835 78.3431 109.873 79.3332 109.873V103.861ZM78.9173 104.998L73.8972 95.6186L68.5966 98.4558L73.6167 107.835L78.9173 104.998ZM68.2408 97.0372V106.386H74.2529V97.0372H68.2408ZM68.2408 106.386C68.2408 105.732 68.4674 105.157 68.7846 104.728C69.0727 104.337 69.3899 104.124 69.5627 104.023C69.8782 103.84 70.091 103.818 69.9767 103.841C69.8022 103.874 69.3373 103.921 68.4512 103.921V109.933C69.429 109.933 70.3619 109.89 71.1192 109.743C71.4709 109.675 72.0331 109.541 72.5816 109.222C73.127 108.906 74.2529 108.02 74.2529 106.386H68.2408ZM68.4512 103.921C67.5758 103.921 67.1208 103.874 66.9542 103.842C66.8443 103.82 67.0615 103.843 67.3802 104.03C67.555 104.133 67.871 104.349 68.1566 104.74C68.4705 105.17 68.6917 105.74 68.6917 106.386H62.6796C62.6796 108.003 63.7845 108.891 64.3368 109.215C64.8859 109.538 65.4488 109.673 65.7998 109.742C66.5551 109.89 67.483 109.933 68.4512 109.933V103.921ZM68.6917 106.386V86.2755H62.6796V106.386H68.6917ZM68.6917 86.2755C68.6917 86.9525 68.4527 87.5413 68.1249 87.9771C67.8276 88.3721 67.501 88.5882 67.3219 88.6902C66.9923 88.878 66.7579 88.9062 66.8401 88.8906C66.9497 88.8698 67.3137 88.8306 68.0604 88.8306V82.8185C67.224 82.8185 66.4006 82.8545 65.7186 82.984C65.405 83.0435 64.8738 83.1657 64.3462 83.4662C63.8336 83.7582 62.6796 84.6279 62.6796 86.2755H68.6917ZM68.0604 88.8306C68.4969 88.8306 69.0673 88.8736 69.7895 88.9793L70.6601 83.0305C69.739 82.8957 68.8665 82.8185 68.0604 82.8185V88.8306ZM69.8695 88.9899C70.1579 89.0243 70.217 89.0584 70.1419 89.029C70.0966 89.0112 69.965 88.9555 69.7967 88.8336C69.6246 88.7089 69.3839 88.4923 69.1802 88.1527L74.3356 85.0595C73.7586 84.0979 72.8827 83.6459 72.3368 83.4318C71.7507 83.202 71.1335 83.0858 70.5802 83.0199L69.8695 88.9899ZM69.0903 87.9919L73.9 97.2506L79.2352 94.4791L74.4255 85.2204L69.0903 87.9919ZM79.5737 95.8648V86.4258H73.5615V95.8648H79.5737ZM79.5737 86.4258C79.5737 87.037 79.3736 87.5872 79.0748 88.0145C78.8008 88.4064 78.4925 88.629 78.3132 88.7389C77.9888 88.9377 77.7632 88.9641 77.8682 88.9426C78.0278 88.91 78.4801 88.8607 79.3633 88.8607V82.8486C78.3826 82.8486 77.4371 82.8944 76.6648 83.0522C76.3039 83.1259 75.7288 83.2713 75.1715 83.6129C74.5881 83.9705 73.5615 84.8681 73.5615 86.4258H79.5737ZM79.3633 88.8607C80.2464 88.8607 80.6987 88.91 80.8583 88.9426C80.9633 88.9641 80.7377 88.9377 80.4133 88.7389C80.234 88.629 79.9257 88.4064 79.6517 88.0145C79.3529 87.5872 79.1528 87.037 79.1528 86.4258H85.165C85.165 84.8681 84.1384 83.9705 83.555 83.6129C82.9977 83.2713 82.4226 83.1259 82.0617 83.0522C81.2894 82.8944 80.3439 82.8486 79.3633 82.8486V88.8607ZM79.1528 86.4258V106.236H85.165V86.4258H79.1528ZM95.6693 97.8188L92.7069 97.308L92.6996 97.3507L92.6934 97.3936L95.6693 97.8188ZM91.3706 98.6605V95.6544H88.3645V98.6605H91.3706ZM91.3706 101.667H88.3645V104.673H91.3706V101.667ZM97.5932 102.989L94.6147 103.395L94.619 103.427L94.6239 103.458L97.5932 102.989ZM97.503 105.875L94.5427 105.353L94.5427 105.353L97.503 105.875ZM91.3706 91.1754V88.1693H88.3645V91.1754H91.3706ZM91.3706 94.2115H88.3645V97.2176H91.3706V94.2115ZM95.2484 97.2176C94.814 97.2176 94.3774 97.1125 93.9822 96.9045C93.6009 96.7038 93.337 96.4495 93.1673 96.2411C92.8602 95.8639 92.7792 95.5378 92.7757 95.525C92.7636 95.4802 92.8135 95.6822 92.8135 96.3157H98.8257C98.8257 95.5464 98.7804 94.6963 98.5779 93.9501C98.4792 93.5866 98.2792 92.9974 97.8293 92.4449C97.3062 91.8025 96.4209 91.2054 95.2484 91.2054V97.2176ZM92.8135 96.3157C92.8135 96.5127 92.7886 96.8341 92.7069 97.308L98.6316 98.3295C98.7503 97.6411 98.8257 96.9605 98.8257 96.3157H92.8135ZM92.6934 97.3936C92.6727 97.5386 92.6798 97.3071 92.8789 96.9586C92.9915 96.7617 93.2194 96.4324 93.6298 96.1452C94.0757 95.8331 94.6204 95.6544 95.1883 95.6544V101.667C96.7515 101.667 97.6928 100.652 98.0989 99.9415C98.4584 99.3124 98.5857 98.6601 98.6451 98.2439L92.6934 97.3936ZM95.1883 95.6544H91.3706V101.667H95.1883V95.6544ZM88.3645 98.6605V101.667H94.3767V98.6605H88.3645ZM91.3706 104.673H96.9018V98.6605H91.3706V104.673ZM96.9018 104.673C96.2815 104.673 95.7214 104.454 95.2998 104.129C94.923 103.838 94.738 103.527 94.6661 103.39C94.5403 103.149 94.5705 103.072 94.6147 103.395L100.572 102.583C100.496 102.025 100.35 101.286 99.9942 100.605C99.6277 99.9035 98.6696 98.6605 96.9018 98.6605V104.673ZM94.6239 103.458C94.6563 103.664 94.6773 103.916 94.6773 104.222H100.689C100.689 103.646 100.65 103.076 100.562 102.52L94.6239 103.458ZM94.6773 104.222C94.6773 104.392 94.6492 104.749 94.5427 105.353L100.463 106.397C100.597 105.638 100.689 104.893 100.689 104.222H94.6773ZM94.5427 105.353C94.5053 105.564 94.5021 105.405 94.6715 105.117C94.7673 104.955 94.9758 104.652 95.3596 104.38C95.7803 104.082 96.3169 103.891 96.9018 103.891V109.903C98.5156 109.903 99.4586 108.837 99.8535 108.166C100.223 107.537 100.38 106.867 100.463 106.397L94.5427 105.353ZM96.9018 103.891H86.621V109.903H96.9018V103.891ZM86.621 103.891C86.6252 103.891 86.7345 103.89 86.9101 103.938C87.0921 103.988 87.3737 104.098 87.6645 104.335C88.353 104.897 88.4848 105.632 88.4848 105.965H82.4727C82.4727 106.919 82.7948 108.121 83.8641 108.993C84.8163 109.77 85.9086 109.903 86.621 109.903V103.891ZM88.4848 105.965V86.6362H82.4727V105.965H88.4848ZM88.4848 86.6362C88.4848 86.7545 88.4666 87.4048 87.9031 88.0418C87.2774 88.7491 86.5051 88.8607 86.1701 88.8607V82.8486C85.3742 82.8486 84.2562 83.0905 83.4 84.0583C82.6061 84.9558 82.4727 85.9968 82.4727 86.6362H88.4848ZM86.1701 88.8607H96.9318V82.8486H86.1701V88.8607ZM96.9318 88.8607C96.4225 88.8607 95.9351 88.7175 95.5229 88.4679C95.1346 88.2328 94.8916 87.9524 94.7545 87.7586C94.5089 87.4118 94.4637 87.1468 94.4796 87.2138C94.5023 87.3103 94.557 87.6957 94.557 88.53H100.569C100.569 87.5807 100.519 86.6284 100.331 85.8331C100.242 85.4543 100.065 84.8549 99.6616 84.285C99.205 83.6401 98.295 82.8486 96.9318 82.8486V88.8607ZM94.557 88.53C94.557 89.3536 94.5023 89.7283 94.4813 89.8163C94.4665 89.8784 94.5139 89.6092 94.7638 89.2602C94.9033 89.0652 95.148 88.7869 95.5358 88.5548C95.9466 88.3089 96.4294 88.1693 96.9318 88.1693V94.1814C98.2797 94.1814 99.1891 93.4068 99.6523 92.7599C100.06 92.1904 100.239 91.5906 100.329 91.2118C100.519 90.4179 100.569 89.4701 100.569 88.53H94.557ZM96.9318 88.1693H91.3706V94.1814H96.9318V88.1693ZM88.3645 91.1754V94.2115H94.3767V91.1754H88.3645ZM91.3706 97.2176H95.2484V91.2054H91.3706V97.2176ZM99.7324 86.1552L102.703 85.6951L102.677 85.5277L102.633 85.3643L99.7324 86.1552ZM106.316 86.3957L109.302 86.0482L109.295 85.9874L109.285 85.9269L106.316 86.3957ZM107.789 99.0513L104.803 99.3988L110.706 99.7771L107.789 99.0513ZM110.975 86.2454L108.123 85.2948L108.086 85.4059L108.058 85.5196L110.975 86.2454ZM115.665 86.2154L118.586 85.5071L118.549 85.3533L118.496 85.2043L115.665 86.2154ZM118.791 99.1114L115.869 99.8196L121.769 99.5179L118.791 99.1114ZM120.534 86.3356L117.577 85.7979L117.565 85.8633L117.556 85.9291L120.534 86.3356ZM121.917 85.8847L121.645 82.891L121.645 82.891L121.917 85.8847ZM127.118 86.1853L124.178 85.5554L124.169 85.6004L124.16 85.6456L127.118 86.1853ZM123.48 106.116L126.385 106.89L126.416 106.774L126.438 106.655L123.48 106.116ZM121.767 106.777L121.373 103.797L121.373 103.797L121.767 106.777ZM115.274 106.146L118.213 105.516L118.203 105.47L118.192 105.424L115.274 106.146ZM113.23 97.8789L116.148 97.1573L113.358 85.8746L110.328 97.0951L113.23 97.8789ZM111.005 106.116L108.103 105.332L108.085 105.397L108.071 105.463L111.005 106.116ZM108.901 106.897L109.165 109.892L109.214 109.887L109.263 109.881L108.901 106.897ZM106.857 106.987L106.716 109.99L106.786 109.993H106.857V106.987ZM104.933 106.897L104.616 109.886L104.704 109.896L104.792 109.9L104.933 106.897ZM102.829 106.146L99.858 106.606L99.873 106.702L99.8942 106.798L102.829 106.146ZM102.633 85.3643C102.784 85.9186 102.776 86.5357 102.564 87.1273C102.366 87.6823 102.045 88.0582 101.805 88.2815C101.374 88.6806 100.95 88.8241 100.875 88.8502C100.658 88.9253 100.565 88.9182 100.772 88.8956C101.108 88.859 101.747 88.8306 102.769 88.8306V82.8185C101.705 82.8185 100.797 82.8452 100.121 82.9188C99.8221 82.9514 99.3562 83.0132 98.902 83.1709C98.7079 83.2384 98.1978 83.4266 97.7157 83.874C97.1047 84.4408 96.4544 85.5607 96.8323 86.9462L102.633 85.3643ZM102.769 88.8306C103.879 88.8306 104.557 88.879 104.906 88.9352C105.102 88.9667 105.015 88.9738 104.805 88.8772C104.694 88.8261 104.425 88.6907 104.139 88.411C103.83 88.1092 103.462 87.594 103.346 86.8645L109.285 85.9269C109.023 84.2669 107.69 83.5865 107.316 83.4145C106.795 83.1751 106.257 83.0632 105.862 82.9995C105.028 82.8653 103.963 82.8185 102.769 82.8185V88.8306ZM103.33 86.7432L104.803 99.3988L110.775 98.7037L109.302 86.0482L103.33 86.7432ZM110.706 99.7771L113.892 86.9713L108.058 85.5196L104.872 98.3254L110.706 99.7771ZM113.827 87.196C113.494 88.1954 112.755 88.6179 112.547 88.7246C112.299 88.8513 112.14 88.8715 112.204 88.8592C112.313 88.8383 112.649 88.8006 113.32 88.8006V82.7884C112.528 82.7884 111.741 82.8259 111.069 82.9553C110.742 83.0181 110.278 83.1322 109.809 83.3717C109.38 83.5911 108.507 84.1451 108.123 85.2948L113.827 87.196ZM113.32 88.8006C113.995 88.8006 114.346 88.8358 114.472 88.8585C114.546 88.8717 114.402 88.8565 114.167 88.7442C114.041 88.684 113.817 88.5624 113.575 88.3429C113.325 88.1156 113.021 87.7509 112.834 87.2264L118.496 85.2043C118.076 84.0291 117.147 83.5048 116.756 83.3183C116.301 83.1008 115.851 82.9978 115.534 82.9409C114.879 82.8234 114.108 82.7884 113.32 82.7884V88.8006ZM112.743 86.9236L115.869 99.8196L121.712 98.4032L118.586 85.5071L112.743 86.9236ZM121.769 99.5179L123.513 86.7421L117.556 85.9291L115.812 98.7049L121.769 99.5179ZM123.492 86.8733C123.32 87.8219 122.741 88.3705 122.432 88.5998C122.132 88.8217 121.883 88.9021 121.842 88.9155C121.751 88.9453 121.821 88.9119 122.189 88.8784L121.645 82.891C121.132 82.9376 120.531 83.0194 119.978 83.1996C119.707 83.2881 119.28 83.4525 118.855 83.767C118.42 84.089 117.769 84.7391 117.577 85.7979L123.492 86.8733ZM122.189 88.8784C123.03 88.802 123.64 88.7705 124.051 88.7705V82.7584C123.381 82.7584 122.568 82.807 121.645 82.891L122.189 88.8784ZM124.051 88.7705C125.077 88.7705 125.689 88.8068 125.987 88.8478C126.179 88.8741 126.029 88.875 125.755 88.7552C125.629 88.7002 125.203 88.5053 124.807 88.043C124.589 87.7888 124.36 87.4288 124.226 86.9602C124.088 86.4793 124.084 85.9954 124.178 85.5554L130.057 86.8152C130.288 85.7374 129.92 84.7701 129.372 84.1303C128.923 83.6067 128.411 83.3547 128.165 83.2471C127.651 83.0222 127.124 82.9354 126.805 82.8915C126.081 82.7922 125.13 82.7584 124.051 82.7584V88.7705ZM124.16 85.6456L120.523 105.576L126.438 106.655L130.075 86.725L124.16 85.6456ZM120.576 105.341C120.769 104.615 121.199 104.179 121.45 103.979C121.693 103.784 121.886 103.711 121.909 103.702C121.951 103.686 121.816 103.738 121.373 103.797L122.16 109.757C122.78 109.675 123.461 109.547 124.074 109.311C124.458 109.162 125.938 108.566 126.385 106.89L120.576 105.341ZM121.373 103.797C120.372 103.929 119.656 103.981 119.182 103.981V109.993C120.03 109.993 121.037 109.905 122.16 109.757L121.373 103.797ZM119.182 103.981C118.003 103.981 117.31 103.911 116.974 103.838C116.796 103.8 116.898 103.798 117.116 103.927C117.337 104.057 118.002 104.529 118.213 105.516L112.334 106.775C112.606 108.043 113.478 108.76 114.055 109.101C114.629 109.44 115.235 109.614 115.708 109.716C116.675 109.924 117.875 109.993 119.182 109.993V103.981ZM118.192 105.424L116.148 97.1573L110.311 98.6005L112.356 106.867L118.192 105.424ZM110.328 97.0951L108.103 105.332L113.907 106.899L116.132 98.6627L110.328 97.0951ZM108.071 105.463C108.245 104.679 108.705 104.215 108.958 104.014C109.088 103.911 109.197 103.848 109.26 103.815C109.324 103.781 109.366 103.766 109.372 103.763C109.38 103.76 109.321 103.782 109.164 103.815C109.014 103.846 108.808 103.88 108.539 103.913L109.263 109.881C110.007 109.791 110.786 109.652 111.466 109.399C111.805 109.273 112.262 109.068 112.699 108.72C113.147 108.364 113.725 107.733 113.94 106.768L108.071 105.463ZM108.637 103.903C108.043 103.955 107.45 103.981 106.857 103.981V109.993C107.627 109.993 108.396 109.959 109.165 109.892L108.637 103.903ZM106.998 103.985L105.074 103.894L104.792 109.9L106.716 109.99L106.998 103.985ZM105.25 103.908C104.981 103.879 104.777 103.849 104.627 103.82C104.472 103.79 104.415 103.769 104.426 103.773C104.434 103.776 104.478 103.792 104.545 103.826C104.61 103.859 104.723 103.923 104.857 104.028C105.12 104.233 105.587 104.702 105.763 105.493L99.8942 106.798C100.11 107.77 100.695 108.405 101.153 108.763C101.598 109.111 102.061 109.313 102.404 109.435C103.089 109.679 103.872 109.807 104.616 109.886L105.25 103.908ZM105.799 105.685L102.703 85.6951L96.7618 86.6153L99.858 106.606L105.799 105.685ZM130.338 99.5623L132.201 97.2029L130.367 95.7555L128.512 97.1744L130.338 99.5623ZM132.292 100.795L130.813 103.412L130.825 103.419L130.837 103.425L132.292 100.795ZM135.899 99.8028L133.774 101.928L133.82 101.975L133.868 102.019L135.899 99.8028ZM134.576 98.9911L133.301 101.713L133.301 101.713L134.576 98.9911ZM133.134 98.2997L131.66 100.92L131.724 100.956L131.789 100.988L133.134 98.2997ZM131.841 97.458L130.008 99.8407L130.059 99.8797L130.111 99.9164L131.841 97.458ZM130.639 96.2256L133.14 94.5581L133.12 94.5282L133.099 94.4988L130.639 96.2256ZM131.39 87.4178L133.429 89.6266L133.43 89.6254L131.39 87.4178ZM140.559 86.0651L139.796 88.9728L139.818 88.9786L139.841 88.9842L140.559 86.0651ZM142.452 87.2675H145.458V87.1474L145.449 87.0278L142.452 87.2675ZM141.791 90.1232L144.567 91.2757L144.571 91.2666L144.575 91.2574L141.791 90.1232ZM140.859 91.8968L139.482 94.5686L141.054 95.3796L142.527 94.398L140.859 91.8968ZM137.011 93.1594L138.356 90.4707L138.311 90.4485L138.266 90.4278L137.011 93.1594ZM137.703 93.49L136.432 96.2141L136.432 96.2141L137.703 93.49ZM138.725 94.0011L137.325 96.6612L137.407 96.7043L137.491 96.7424L138.725 94.0011ZM139.987 94.7225L138.294 97.2062L138.358 97.2499L138.424 97.2903L139.987 94.7225ZM141.46 95.8648L143.523 93.6782L143.511 93.667L143.499 93.656L141.46 95.8648ZM141.28 105.093L143.551 107.063L143.551 107.063L141.28 105.093ZM135.809 107.198V110.204H135.833L135.858 110.203L135.809 107.198ZM132.532 106.897L131.919 109.84L131.931 109.842L132.532 106.897ZM130.007 105.725L131.893 103.384L131.893 103.384L130.007 105.725ZM129.376 101.186L132.191 102.241L132.195 102.23L132.199 102.218L129.376 101.186ZM128.475 101.922C129.051 102.376 129.875 102.882 130.813 103.412L133.771 98.1778C132.865 97.6655 132.387 97.3499 132.201 97.2029L128.475 101.922ZM130.837 103.425C132.103 104.125 133.494 104.582 134.967 104.582V98.5703C134.757 98.5703 134.365 98.5062 133.747 98.1644L130.837 103.425ZM134.967 104.582C135.698 104.582 136.798 104.457 137.767 103.713C138.887 102.854 139.266 101.623 139.266 100.584H133.254C133.254 100.427 133.279 100.149 133.422 99.8208C133.572 99.4747 133.811 99.1702 134.107 98.9436C134.645 98.5306 135.098 98.5703 134.967 98.5703V104.582ZM139.266 100.584C139.266 99.364 138.733 98.3224 137.93 97.5868L133.868 102.019C133.734 101.896 133.569 101.701 133.44 101.423C133.309 101.14 133.254 100.848 133.254 100.584H139.266ZM138.025 97.6772C137.392 97.0444 136.543 96.5931 135.852 96.2693L133.301 101.713C133.554 101.832 133.719 101.922 133.816 101.982C133.863 102.01 133.881 102.024 133.878 102.022C133.876 102.02 133.835 101.99 133.774 101.928L138.025 97.6772ZM135.852 96.2693C135.217 95.9712 134.763 95.7538 134.478 95.611L131.789 100.988C132.145 101.166 132.654 101.41 133.301 101.713L135.852 96.2693ZM134.607 95.6797C134.418 95.5732 134.083 95.3603 133.571 94.9997L130.111 99.9164C130.681 100.317 131.208 100.666 131.66 100.92L134.607 95.6797ZM133.674 95.0754C133.339 94.8181 133.193 94.6377 133.14 94.5581L128.137 97.893C128.645 98.6551 129.3 99.2964 130.008 99.8407L133.674 95.0754ZM133.099 94.4988C132.736 93.9815 132.442 93.1759 132.442 91.8668H126.43C126.43 94.0847 126.938 96.185 128.178 97.9523L133.099 94.4988ZM132.442 91.8668C132.442 90.9472 132.739 90.2634 133.429 89.6266L129.351 85.2089C127.436 86.977 126.43 89.2592 126.43 91.8668H132.442ZM133.43 89.6254C134.1 89.0065 135.048 88.5901 136.56 88.5901V82.578C133.824 82.578 131.325 83.3841 129.35 85.2102L133.43 89.6254ZM136.56 88.5901C137.782 88.5901 138.855 88.7259 139.796 88.9728L141.321 83.1573C139.818 82.7629 138.225 82.578 136.56 82.578V88.5901ZM139.841 88.9842C140.321 89.1022 140.422 89.1823 140.338 89.1289C140.282 89.0936 140.095 88.9666 139.9 88.7056C139.688 88.4204 139.496 88.0101 139.456 87.5072L145.449 87.0278C145.322 85.4442 144.269 84.5033 143.56 84.0534C142.845 83.5991 142.019 83.3285 141.276 83.1459L139.841 88.9842ZM139.446 87.2675C139.446 87.2676 139.446 87.2677 139.446 87.2678C139.446 87.2679 139.446 87.2681 139.446 87.2682C139.446 87.2683 139.446 87.2684 139.446 87.2685C139.446 87.2687 139.446 87.2688 139.446 87.2689C139.446 87.269 139.446 87.2691 139.446 87.2692C139.446 87.2694 139.446 87.2695 139.446 87.2696C139.446 87.2697 139.446 87.2698 139.446 87.2699C139.446 87.2701 139.446 87.2702 139.446 87.2703C139.446 87.2704 139.446 87.2705 139.446 87.2706C139.446 87.2708 139.446 87.2709 139.446 87.271C139.446 87.2711 139.446 87.2712 139.446 87.2714C139.446 87.2715 139.446 87.2716 139.446 87.2717C139.446 87.2718 139.446 87.2719 139.446 87.2721C139.446 87.2722 139.446 87.2723 139.446 87.2724C139.446 87.2725 139.446 87.2726 139.446 87.2728C139.446 87.2729 139.446 87.273 139.446 87.2731C139.446 87.2732 139.446 87.2733 139.446 87.2735C139.446 87.2736 139.446 87.2737 139.446 87.2738C139.446 87.2739 139.446 87.2741 139.446 87.2742C139.446 87.2743 139.446 87.2744 139.446 87.2745C139.446 87.2746 139.446 87.2748 139.446 87.2749C139.446 87.275 139.446 87.2751 139.446 87.2752C139.446 87.2753 139.446 87.2755 139.446 87.2756C139.446 87.2757 139.446 87.2758 139.446 87.2759C139.446 87.276 139.446 87.2762 139.446 87.2763C139.446 87.2764 139.446 87.2765 139.446 87.2766C139.446 87.2768 139.446 87.2769 139.446 87.277C139.446 87.2771 139.446 87.2772 139.446 87.2773C139.446 87.2775 139.446 87.2776 139.446 87.2777C139.446 87.2778 139.446 87.2779 139.446 87.278C139.446 87.2782 139.446 87.2783 139.446 87.2784C139.446 87.2785 139.446 87.2786 139.446 87.2787C139.446 87.2789 139.446 87.279 139.446 87.2791C139.446 87.2792 139.446 87.2793 139.446 87.2795C139.446 87.2796 139.446 87.2797 139.446 87.2798C139.446 87.2799 139.446 87.28 139.446 87.2802C139.446 87.2803 139.446 87.2804 139.446 87.2805C139.446 87.2806 139.446 87.2807 139.446 87.2809C139.446 87.281 139.446 87.2811 139.446 87.2812C139.446 87.2813 139.446 87.2814 139.446 87.2816C139.446 87.2817 139.446 87.2818 139.446 87.2819C139.446 87.282 139.446 87.2822 139.446 87.2823C139.446 87.2824 139.446 87.2825 139.446 87.2826C139.446 87.2827 139.446 87.2829 139.446 87.283C139.446 87.2831 139.446 87.2832 139.446 87.2833C139.446 87.2834 139.446 87.2836 139.446 87.2837C139.446 87.2838 139.446 87.2839 139.446 87.284C139.446 87.2842 139.446 87.2843 139.446 87.2844C139.446 87.2845 139.446 87.2846 139.446 87.2847C139.446 87.2849 139.446 87.285 139.446 87.2851C139.446 87.2852 139.446 87.2853 139.446 87.2854C139.446 87.2856 139.446 87.2857 139.446 87.2858C139.446 87.2859 139.446 87.286 139.446 87.2861C139.446 87.2863 139.446 87.2864 139.446 87.2865C139.446 87.2866 139.446 87.2867 139.446 87.2869C139.446 87.287 139.446 87.2871 139.446 87.2872C139.446 87.2873 139.446 87.2874 139.446 87.2876C139.446 87.2877 139.446 87.2878 139.446 87.2879C139.446 87.288 139.446 87.2881 139.446 87.2883C139.446 87.2884 139.446 87.2885 139.446 87.2886C139.446 87.2887 139.446 87.2888 139.446 87.289C139.446 87.2891 139.446 87.2892 139.446 87.2893C139.446 87.2894 139.446 87.2896 139.446 87.2897C139.446 87.2898 139.446 87.2899 139.446 87.29C139.446 87.2901 139.446 87.2903 139.446 87.2904C139.446 87.2905 139.446 87.2906 139.446 87.2907C139.446 87.2908 139.446 87.291 139.446 87.2911C139.446 87.2912 139.446 87.2913 139.446 87.2914C139.446 87.2915 139.446 87.2917 139.446 87.2918C139.446 87.2919 139.446 87.292 139.446 87.2921C139.446 87.2923 139.446 87.2924 139.446 87.2925C139.446 87.2926 139.446 87.2927 139.446 87.2928C139.446 87.293 139.446 87.2931 139.446 87.2932C139.446 87.2933 139.446 87.2934 139.446 87.2935C139.446 87.2937 139.446 87.2938 139.446 87.2939C139.446 87.294 139.446 87.2941 139.446 87.2942C139.446 87.2944 139.446 87.2945 139.446 87.2946C139.446 87.2947 139.446 87.2948 139.446 87.295C139.446 87.2951 139.446 87.2952 139.446 87.2953C139.446 87.2954 139.446 87.2955 139.446 87.2957C139.446 87.2958 139.446 87.2959 139.446 87.296C139.446 87.2961 139.446 87.2962 139.446 87.2964C139.446 87.2965 139.446 87.2966 139.446 87.2967C139.446 87.2968 139.446 87.2969 139.446 87.2971C139.446 87.2972 139.446 87.2973 139.446 87.2974C139.446 87.2975 139.446 87.2977 139.446 87.2978C139.446 87.2979 139.446 87.298 139.446 87.2981C139.446 87.2982 139.446 87.2984 139.446 87.2985C139.446 87.2986 139.446 87.2987 139.446 87.2988C139.446 87.2989 139.446 87.2991 139.446 87.2992C139.446 87.2993 139.446 87.2994 139.446 87.2995C139.446 87.2997 139.446 87.2998 139.446 87.2999C139.446 87.3 139.446 87.3001 139.446 87.3002C139.446 87.3004 139.446 87.3005 139.446 87.3006C139.446 87.3007 139.446 87.3008 139.446 87.3009C139.446 87.3011 139.446 87.3012 139.446 87.3013C139.446 87.3014 139.446 87.3015 139.446 87.3016C139.446 87.3018 139.446 87.3019 139.446 87.302C139.446 87.3021 139.446 87.3022 139.446 87.3024C139.446 87.3025 139.446 87.3026 139.446 87.3027C139.446 87.3028 139.446 87.3029 139.446 87.3031C139.446 87.3032 139.446 87.3033 139.446 87.3034C139.446 87.3035 139.446 87.3036 139.446 87.3038C139.446 87.3039 139.446 87.304 139.446 87.3041C139.446 87.3042 139.446 87.3043 139.446 87.3045C139.446 87.3046 139.446 87.3047 139.446 87.3048C139.446 87.3049 139.446 87.3051 139.446 87.3052C139.446 87.3053 139.446 87.3054 139.446 87.3055C139.446 87.3056 139.446 87.3058 139.446 87.3059C139.446 87.306 139.446 87.3061 139.446 87.3062C139.446 87.3063 139.446 87.3065 139.446 87.3066C139.446 87.3067 139.446 87.3068 139.446 87.3069C139.446 87.307 139.446 87.3072 139.446 87.3073C139.446 87.3074 139.446 87.3075 139.446 87.3076C139.446 87.3078 139.446 87.3079 139.446 87.308C139.446 87.3081 139.446 87.3082 139.446 87.3083C139.446 87.3085 139.446 87.3086 139.446 87.3087C139.446 87.3088 139.446 87.3089 139.446 87.309C139.446 87.3092 139.446 87.3093 139.446 87.3094C139.446 87.3095 139.446 87.3096 139.446 87.3097C139.446 87.3099 139.446 87.31 139.446 87.3101C139.446 87.3102 139.446 87.3103 139.446 87.3105C139.446 87.3106 139.446 87.3107 139.446 87.3108C139.446 87.3109 139.446 87.311 139.446 87.3112C139.446 87.3113 139.446 87.3114 139.446 87.3115C139.446 87.3116 139.446 87.3117 139.446 87.3119C139.446 87.312 139.446 87.3121 139.446 87.3122C139.446 87.3123 139.446 87.3125 139.446 87.3126C139.446 87.3127 139.446 87.3128 139.446 87.3129C139.446 87.313 139.446 87.3132 139.446 87.3133C139.446 87.3134 139.446 87.3135 139.446 87.3136C139.446 87.3137 139.446 87.3139 139.446 87.314C139.446 87.3141 139.446 87.3142 139.446 87.3143C139.446 87.3144 139.446 87.3146 139.446 87.3147C139.446 87.3148 139.446 87.3149 139.446 87.315C139.446 87.3152 139.446 87.3153 139.446 87.3154C139.446 87.3155 139.446 87.3156 139.446 87.3157C139.446 87.3159 139.446 87.316 139.446 87.3161C139.446 87.3162 139.446 87.3163 139.446 87.3164C139.446 87.3166 139.446 87.3167 139.446 87.3168C139.446 87.3169 139.446 87.317 139.446 87.3171C139.446 87.3173 139.446 87.3174 139.446 87.3175C139.446 87.3176 139.446 87.3177 139.446 87.3179C139.446 87.318 139.446 87.3181 139.446 87.3182C139.446 87.3183 139.446 87.3184 139.446 87.3186C139.446 87.3187 139.446 87.3188 139.446 87.3189C139.446 87.319 139.446 87.3191 139.446 87.3193C139.446 87.3194 139.446 87.3195 139.446 87.3196C139.446 87.3197 139.446 87.3198 139.446 87.32C139.446 87.3201 139.446 87.3202 139.446 87.3203C139.446 87.3204 139.446 87.3206 139.446 87.3207C139.446 87.3208 139.446 87.3209 139.446 87.321C139.446 87.3211 139.446 87.3213 139.446 87.3214C139.446 87.3215 139.446 87.3216 139.446 87.3217C139.446 87.3218 139.446 87.322 139.446 87.3221C139.446 87.3222 139.446 87.3223 139.446 87.3224C139.446 87.3225 139.446 87.3227 139.446 87.3228C139.446 87.3229 139.446 87.323 139.446 87.3231C139.446 87.3233 139.446 87.3234 139.446 87.3235C139.446 87.3236 139.446 87.3237 139.446 87.3238C139.446 87.324 139.446 87.3241 139.446 87.3242C139.446 87.3243 139.446 87.3244 139.446 87.3245C139.446 87.3247 139.446 87.3248 139.446 87.3249C139.446 87.325 139.446 87.3251 139.446 87.3252C139.446 87.3254 139.446 87.3255 139.446 87.3256C139.446 87.3257 139.446 87.3258 139.446 87.326C139.446 87.3261 139.446 87.3262 139.446 87.3263C139.446 87.3264 139.446 87.3265 139.446 87.3267C139.446 87.3268 139.446 87.3269 139.446 87.327C139.446 87.3271 139.446 87.3272 139.446 87.3274C139.446 87.3275 139.446 87.3276 139.446 87.3277C139.446 87.3278 139.446 87.328 139.446 87.3281C139.446 87.3282 139.446 87.3283 139.446 87.3284C139.446 87.3285 139.446 87.3287 139.446 87.3288C139.446 87.3289 139.446 87.329 139.446 87.3291C139.446 87.3292 139.446 87.3294 139.446 87.3295C139.446 87.3296 139.446 87.3297 139.446 87.3298C139.446 87.3299 139.446 87.3301 139.446 87.3302C139.446 87.3303 139.446 87.3304 139.446 87.3305C139.446 87.3307 139.446 87.3308 139.446 87.3309C139.446 87.331 139.446 87.3311 139.446 87.3312C139.446 87.3314 139.446 87.3315 139.446 87.3316C139.446 87.3317 139.446 87.3318 139.446 87.3319C139.446 87.3321 139.446 87.3322 139.446 87.3323C139.446 87.3324 139.446 87.3325 139.446 87.3326C139.446 87.3328 139.446 87.3329 139.446 87.333C139.446 87.3331 139.446 87.3332 139.446 87.3334C139.446 87.3335 139.446 87.3336 139.446 87.3337C139.446 87.3338 139.446 87.3339 139.446 87.3341C139.446 87.3342 139.446 87.3343 139.446 87.3344C139.446 87.3345 139.446 87.3346 139.446 87.3348C139.446 87.3349 139.446 87.335 139.446 87.3351C139.446 87.3352 139.446 87.3353 139.446 87.3355C139.446 87.3356 139.446 87.3357 139.446 87.3358C139.446 87.3359 139.446 87.3361 139.446 87.3362C139.446 87.3363 139.446 87.3364 139.446 87.3365C139.446 87.3366 139.446 87.3368 139.446 87.3369C139.446 87.337 139.446 87.3371 139.446 87.3372C139.446 87.3373 139.446 87.3375 139.446 87.3376C139.446 87.3377 139.446 87.3378 139.446 87.3379C139.446 87.338 139.446 87.3382 139.446 87.3383C139.446 87.3384 139.446 87.3385 139.446 87.3386C139.446 87.3388 139.446 87.3389 139.446 87.339C139.446 87.3391 139.446 87.3392 139.446 87.3393C139.446 87.3395 139.446 87.3396 139.446 87.3397C139.446 87.3398 139.446 87.3399 139.446 87.34C139.446 87.3402 139.446 87.3403 139.446 87.3404C139.446 87.3405 139.446 87.3406 139.446 87.3407C139.446 87.3409 139.446 87.341 139.446 87.3411C139.446 87.3412 139.446 87.3413 139.446 87.3415C139.446 87.3416 139.446 87.3417 139.446 87.3418C139.446 87.3419 139.446 87.342 139.446 87.3422C139.446 87.3423 139.446 87.3424 139.446 87.3425C139.446 87.3426 139.446 87.3427 139.446 87.3429C139.446 87.343 139.446 87.3431 139.446 87.3432C139.446 87.3433 139.446 87.3435 139.446 87.3436C139.446 87.3437 139.446 87.3438 139.446 87.3439C139.446 87.344 139.446 87.3442 139.446 87.3443C139.446 87.3444 139.446 87.3445 139.446 87.3446C139.446 87.3447 139.446 87.3449 139.446 87.345C139.446 87.3451 139.446 87.3452 139.446 87.3453C139.446 87.3454 139.446 87.3456 139.446 87.3457C139.446 87.3458 139.446 87.3459 139.446 87.346C139.446 87.3462 139.446 87.3463 139.446 87.3464C139.446 87.3465 139.446 87.3466 139.446 87.3467C139.446 87.3469 139.446 87.347 139.446 87.3471C139.446 87.3472 139.446 87.3473 139.446 87.3474C139.446 87.3476 139.446 87.3477 139.446 87.3478C139.446 87.3479 139.446 87.348 139.446 87.3481C139.446 87.3483 139.446 87.3484 139.446 87.3485C139.446 87.3486 139.446 87.3487 139.446 87.3489C139.446 87.349 139.446 87.3491 139.446 87.3492C139.446 87.3493 139.446 87.3494 139.446 87.3496C139.446 87.3497 139.446 87.3498 139.446 87.3499C139.446 87.35 139.446 87.3501 139.446 87.3503C139.446 87.3504 139.446 87.3505 139.446 87.3506C139.446 87.3507 139.446 87.3508 139.446 87.351C139.446 87.3511 139.446 87.3512 139.446 87.3513C139.446 87.3514 139.446 87.3516 139.446 87.3517C139.446 87.3518 139.446 87.3519 139.446 87.352C139.446 87.3521 139.446 87.3523 139.446 87.3524C139.446 87.3525 139.446 87.3526 139.446 87.3527C139.446 87.3528 139.446 87.353 139.446 87.3531C139.446 87.3532 139.446 87.3533 139.446 87.3534C139.446 87.3535 139.446 87.3537 139.446 87.3538C139.446 87.3539 139.446 87.354 139.446 87.3541C139.446 87.3543 139.446 87.3544 139.446 87.3545C139.446 87.3546 139.446 87.3547 139.446 87.3548C139.446 87.355 139.446 87.3551 139.446 87.3552C139.446 87.3553 139.446 87.3554 139.446 87.3555C139.446 87.3557 139.446 87.3558 139.446 87.3559C139.446 87.356 139.446 87.3561 139.446 87.3562C139.446 87.3564 139.446 87.3565 139.446 87.3566C139.446 87.3567 139.446 87.3568 139.446 87.357C139.446 87.3571 139.446 87.3572 139.446 87.3573C139.446 87.3574 139.446 87.3575 139.446 87.3577C139.446 87.3578 139.446 87.3579 139.446 87.358C139.446 87.3581 139.446 87.3582 139.446 87.3584C139.446 87.3585 139.446 87.3586 139.446 87.3587C139.446 87.3588 139.446 87.359 139.446 87.3591C139.446 87.3592 139.446 87.3593 139.446 87.3594C139.446 87.3595 139.446 87.3597 139.446 87.3598C139.446 87.3599 139.446 87.36 139.446 87.3601C139.446 87.3602 139.446 87.3604 139.446 87.3605C139.446 87.3606 139.446 87.3607 139.446 87.3608C139.446 87.3609 139.446 87.3611 139.446 87.3612C139.446 87.3613 139.446 87.3614 139.446 87.3615C139.446 87.3617 139.446 87.3618 139.446 87.3619C139.446 87.362 139.446 87.3621 139.446 87.3622C139.446 87.3624 139.446 87.3625 139.446 87.3626C139.446 87.3627 139.446 87.3628 139.446 87.3629C139.446 87.3631 139.446 87.3632 139.446 87.3633C139.446 87.3634 139.446 87.3635 139.446 87.3636C139.446 87.3638 139.446 87.3639 139.446 87.364C139.446 87.3641 139.446 87.3642 139.446 87.3644C139.446 87.3645 139.446 87.3646 139.446 87.3647C139.446 87.3648 139.446 87.3649 139.446 87.3651C139.446 87.3652 139.446 87.3653 139.446 87.3654C139.446 87.3655 139.446 87.3656 139.446 87.3658C139.446 87.3659 139.446 87.366 139.446 87.3661C139.446 87.3662 139.446 87.3663 139.446 87.3665C139.446 87.3666 139.446 87.3667 139.446 87.3668C139.446 87.3669 139.446 87.3671 139.446 87.3672C139.446 87.3673 139.446 87.3674 139.446 87.3675C139.446 87.3676 139.446 87.3678 139.446 87.3679C139.446 87.368 139.446 87.3681 139.446 87.3682C139.446 87.3683 139.446 87.3685 139.446 87.3686C139.446 87.3687 139.446 87.3688 139.446 87.3689C139.446 87.369 139.446 87.3692 139.446 87.3693C139.446 87.3694 139.446 87.3695 139.446 87.3696C139.446 87.3698 139.446 87.3699 139.446 87.37C139.446 87.3701 139.446 87.3702 139.446 87.3703C139.446 87.3705 139.446 87.3706 139.446 87.3707C139.446 87.3708 139.446 87.3709 139.446 87.371C139.446 87.3712 139.446 87.3713 139.446 87.3714C139.446 87.3715 139.446 87.3716 139.446 87.3717C139.446 87.3719 139.446 87.372 139.446 87.3721C139.446 87.3722 139.446 87.3723 139.446 87.3725C139.446 87.3726 139.446 87.3727 139.446 87.3728C139.446 87.3729 139.446 87.373 139.446 87.3732C139.446 87.3733 139.446 87.3734 139.446 87.3735C139.446 87.3736 139.446 87.3737 139.446 87.3739C139.446 87.374 139.446 87.3741 139.446 87.3742C139.446 87.3743 139.446 87.3745 139.446 87.3746C139.446 87.3747 139.446 87.3748 139.446 87.3749C139.446 87.375 139.446 87.3752 139.446 87.3753C139.446 87.3754 139.446 87.3755 139.446 87.3756C139.446 87.3757 139.446 87.3759 139.446 87.376C139.446 87.3761 139.446 87.3762 139.446 87.3763C139.446 87.3764 139.446 87.3766 139.446 87.3767C139.446 87.3768 139.446 87.3769 139.446 87.377C139.446 87.3772 139.446 87.3773 139.446 87.3774C139.446 87.3775 139.446 87.3776 139.446 87.3777C139.446 87.3779 139.446 87.378 139.446 87.3781C139.446 87.3782 139.446 87.3783 139.446 87.3784C139.446 87.3786 139.446 87.3787 139.446 87.3788C139.446 87.3789 139.446 87.379 139.446 87.3791C139.446 87.3793 139.446 87.3794 139.446 87.3795C139.446 87.3796 139.446 87.3797 139.446 87.3799C139.446 87.38 139.446 87.3801 139.446 87.3802C139.446 87.3803 139.446 87.3804 139.446 87.3806C139.446 87.3807 139.446 87.3808 139.446 87.3809C139.446 87.381 139.446 87.3811 139.446 87.3813C139.446 87.3814 139.446 87.3815 139.446 87.3816C139.446 87.3817 139.446 87.3818 139.446 87.382C139.446 87.3821 139.446 87.3822 139.446 87.3823C139.446 87.3824 139.446 87.3826 139.446 87.3827C139.446 87.3828 139.446 87.3829 139.446 87.383C139.446 87.3831 139.446 87.3833 139.446 87.3834C139.446 87.3835 139.446 87.3836 139.446 87.3837C139.446 87.3838 139.446 87.384 139.446 87.3841C139.446 87.3842 139.446 87.3843 139.446 87.3844C139.446 87.3845 139.446 87.3847 139.446 87.3848C139.446 87.3849 139.446 87.385 139.446 87.3851C139.446 87.3853 139.446 87.3854 139.446 87.3855C139.446 87.3856 139.446 87.3857 139.446 87.3858C139.446 87.386 139.446 87.3861 139.446 87.3862C139.446 87.3863 139.446 87.3864 139.446 87.3865C139.446 87.3867 139.446 87.3868 139.446 87.3869C139.446 87.387 139.446 87.3871 139.446 87.3873C139.446 87.3874 139.446 87.3875 139.446 87.3876C139.446 87.3877 139.446 87.3878 139.446 87.388C139.446 87.3881 139.446 87.3882 139.446 87.3883C139.446 87.3884 139.446 87.3885 139.446 87.3887C139.446 87.3888 139.446 87.3889 139.446 87.389C139.446 87.3891 139.446 87.3892 139.446 87.3894C139.446 87.3895 139.446 87.3896 139.446 87.3897C139.446 87.3898 139.446 87.39 139.446 87.3901C139.446 87.3902 139.446 87.3903 139.446 87.3904C139.446 87.3905 139.446 87.3907 139.446 87.3908C139.446 87.3909 139.446 87.391 139.446 87.3911C139.446 87.3912 139.446 87.3914 139.446 87.3915C139.446 87.3916 139.446 87.3917 139.446 87.3918C139.446 87.3919 139.446 87.3921 139.446 87.3922C139.446 87.3923 139.446 87.3924 139.446 87.3925C139.446 87.3927 139.446 87.3928 139.446 87.3929C139.446 87.393 139.446 87.3931 139.446 87.3932C139.446 87.3934 139.446 87.3935 139.446 87.3936C139.446 87.3937 139.446 87.3938 139.446 87.3939C139.446 87.3941 139.446 87.3942 139.446 87.3943C139.446 87.3944 139.446 87.3945 139.446 87.3946C139.446 87.3948 139.446 87.3949 139.446 87.395C139.446 87.3951 139.446 87.3952 139.446 87.3954C139.446 87.3955 139.446 87.3956 139.446 87.3957C139.446 87.3958 139.446 87.3959 139.446 87.3961C139.446 87.3962 139.446 87.3963 139.446 87.3964C139.446 87.3965 139.446 87.3966 139.446 87.3968C139.446 87.3969 139.446 87.397 139.446 87.3971C139.446 87.3972 139.446 87.3973 139.446 87.3975C139.446 87.3976 139.446 87.3977 139.446 87.3978C139.446 87.3979 139.446 87.3981 139.446 87.3982C139.446 87.3983 139.446 87.3984 139.446 87.3985C139.446 87.3986 139.446 87.3988 139.446 87.3989C139.446 87.399 139.446 87.3991 139.446 87.3992C139.446 87.3993 139.446 87.3995 139.446 87.3996C139.446 87.3997 139.446 87.3998 139.446 87.3999C139.446 87.4 139.446 87.4002 139.446 87.4003C139.446 87.4004 139.446 87.4005 139.446 87.4006C139.446 87.4008 139.446 87.4009 139.446 87.401C139.446 87.4011 139.446 87.4012 139.446 87.4013C139.446 87.4015 139.446 87.4016 139.446 87.4017C139.446 87.4018 139.446 87.4019 139.446 87.402C139.446 87.4022 139.446 87.4023 139.446 87.4024C139.446 87.4025 139.446 87.4026 139.446 87.4028C139.446 87.4029 139.446 87.403 139.446 87.4031C139.446 87.4032 139.446 87.4033 139.446 87.4035C139.446 87.4036 139.446 87.4037 139.446 87.4038C139.446 87.4039 139.446 87.404 139.446 87.4042C139.446 87.4043 139.446 87.4044 139.446 87.4045C139.446 87.4046 139.446 87.4047 139.446 87.4049C139.446 87.405 139.446 87.4051 139.446 87.4052C139.446 87.4053 139.446 87.4055 139.446 87.4056C139.446 87.4057 139.446 87.4058 139.446 87.4059C139.446 87.406 139.446 87.4062 139.446 87.4063C139.446 87.4064 139.446 87.4065 139.446 87.4066C139.446 87.4067 139.446 87.4069 139.446 87.407C139.446 87.4071 139.446 87.4072 139.446 87.4073C139.446 87.4074 139.446 87.4076 139.446 87.4077C139.446 87.4078 139.446 87.4079 139.446 87.408C139.446 87.4082 139.446 87.4083 139.446 87.4084C139.446 87.4085 139.446 87.4086 139.446 87.4087C139.446 87.4089 139.446 87.409 139.446 87.4091C139.446 87.4092 139.446 87.4093 139.446 87.4094C139.446 87.4096 139.446 87.4097 139.446 87.4098C139.446 87.4099 139.446 87.41 139.446 87.4101C139.446 87.4103 139.446 87.4104 139.446 87.4105C139.446 87.4106 139.446 87.4107 139.446 87.4109C139.446 87.411 139.446 87.4111 139.446 87.4112C139.446 87.4113 139.446 87.4114 139.446 87.4116C139.446 87.4117 139.446 87.4118 139.446 87.4119C139.446 87.412 139.446 87.4121 139.446 87.4123C139.446 87.4124 139.446 87.4125 139.446 87.4126C139.446 87.4127 139.446 87.4128 139.446 87.413C139.446 87.4131 139.446 87.4132 139.446 87.4133C139.446 87.4134 139.446 87.4136 139.446 87.4137C139.446 87.4138 139.446 87.4139 139.446 87.414C139.446 87.4141 139.446 87.4143 139.446 87.4144C139.446 87.4145 139.446 87.4146 139.446 87.4147C139.446 87.4148 139.446 87.415 139.446 87.4151C139.446 87.4152 139.446 87.4153 139.446 87.4154C139.446 87.4155 139.446 87.4157 139.446 87.4158C139.446 87.4159 139.446 87.416 139.446 87.4161C139.446 87.4163 139.446 87.4164 139.446 87.4165C139.446 87.4166 139.446 87.4167 139.446 87.4168C139.446 87.417 139.446 87.4171 139.446 87.4172C139.446 87.4173 139.446 87.4174 139.446 87.4175C139.446 87.4177 139.446 87.4178 139.446 87.4179C139.446 87.418 139.446 87.4181 139.446 87.4183C139.446 87.4184 139.446 87.4185 139.446 87.4186C139.446 87.4187 139.446 87.4188 139.446 87.419C139.446 87.4191 139.446 87.4192 139.446 87.4193C139.446 87.4194 139.446 87.4195 139.446 87.4197C139.446 87.4198 139.446 87.4199 139.446 87.42C139.446 87.4201 139.446 87.4202 139.446 87.4204C139.446 87.4205 139.446 87.4206 139.446 87.4207C139.446 87.4208 139.446 87.421 139.446 87.4211C139.446 87.4212 139.446 87.4213 139.446 87.4214C139.446 87.4215 139.446 87.4217 139.446 87.4218C139.446 87.4219 139.446 87.422 139.446 87.4221C139.446 87.4222 139.446 87.4224 139.446 87.4225C139.446 87.4226 139.446 87.4227 139.446 87.4228C139.446 87.4229 139.446 87.4231 139.446 87.4232C139.446 87.4233 139.446 87.4234 139.446 87.4235C139.446 87.4237 139.446 87.4238 139.446 87.4239C139.446 87.424 139.446 87.4241 139.446 87.4242C139.446 87.4244 139.446 87.4245 139.446 87.4246C139.446 87.4247 139.446 87.4248 139.446 87.4249C139.446 87.4251 139.446 87.4252 139.446 87.4253C139.446 87.4254 139.446 87.4255 139.446 87.4256C139.446 87.4258 139.446 87.4259 139.446 87.426C139.446 87.4261 139.446 87.4262 139.446 87.4264C139.446 87.4265 139.446 87.4266 139.446 87.4267C139.446 87.4268 139.446 87.4269 139.446 87.4271C139.446 87.4272 139.446 87.4273 139.446 87.4274C139.446 87.4275 139.446 87.4276 139.446 87.4278C139.446 87.4279 139.446 87.428 139.446 87.4281C139.446 87.4282 139.446 87.4283 139.446 87.4285C139.446 87.4286 139.446 87.4287 139.446 87.4288C139.446 87.4289 139.446 87.4291 139.446 87.4292C139.446 87.4293 139.446 87.4294 139.446 87.4295C139.446 87.4296 139.446 87.4298 139.446 87.4299C139.446 87.43 139.446 87.4301 139.446 87.4302C139.446 87.4303 139.446 87.4305 139.446 87.4306C139.446 87.4307 139.446 87.4308 139.446 87.4309C139.446 87.431 139.446 87.4312 139.446 87.4313C139.446 87.4314 139.446 87.4315 139.446 87.4316C139.446 87.4318 139.446 87.4319 139.446 87.432C139.446 87.4321 139.446 87.4322 139.446 87.4323C139.446 87.4325 139.446 87.4326 139.446 87.4327C139.446 87.4328 139.446 87.4329 139.446 87.433C139.446 87.4332 139.446 87.4333 139.446 87.4334C139.446 87.4335 139.446 87.4336 139.446 87.4338C139.446 87.4339 139.446 87.434 139.446 87.4341C139.446 87.4342 139.446 87.4343 139.446 87.4345C139.446 87.4346 139.446 87.4347 139.446 87.4348C139.446 87.4349 139.446 87.435 139.446 87.4352C139.446 87.4353 139.446 87.4354 139.446 87.4355C139.446 87.4356 139.446 87.4357 139.446 87.4359C139.446 87.436 139.446 87.4361 139.446 87.4362C139.446 87.4363 139.446 87.4365 139.446 87.4366C139.446 87.4367 139.446 87.4368 139.446 87.4369C139.446 87.437 139.446 87.4372 139.446 87.4373C139.446 87.4374 139.446 87.4375 139.446 87.4376C139.446 87.4377 139.446 87.4379 139.446 87.438C139.446 87.4381 139.446 87.4382 139.446 87.4383C139.446 87.4384 139.446 87.4386 139.446 87.4387C139.446 87.4388 139.446 87.4389 139.446 87.439C139.446 87.4392 139.446 87.4393 139.446 87.4394C139.446 87.4395 139.446 87.4396 139.446 87.4397C139.446 87.4399 139.446 87.44 139.446 87.4401C139.446 87.4402 139.446 87.4403 139.446 87.4404C139.446 87.4406 139.446 87.4407 139.446 87.4408C139.446 87.4409 139.446 87.441 139.446 87.4411C139.446 87.4413 139.446 87.4414 139.446 87.4415C139.446 87.4416 139.446 87.4417 139.446 87.4419C139.446 87.442 139.446 87.4421 139.446 87.4422C139.446 87.4423 139.446 87.4424 139.446 87.4426C139.446 87.4427 139.446 87.4428 139.446 87.4429C139.446 87.443 139.446 87.4431 139.446 87.4433C139.446 87.4434 139.446 87.4435 139.446 87.4436C139.446 87.4437 139.446 87.4438 139.446 87.444C139.446 87.4441 139.446 87.4442 139.446 87.4443C139.446 87.4444 139.446 87.4446 139.446 87.4447C139.446 87.4448 139.446 87.4449 139.446 87.445C139.446 87.4451 139.446 87.4453 139.446 87.4454C139.446 87.4455 139.446 87.4456 139.446 87.4457C139.446 87.4458 139.446 87.446 139.446 87.4461C139.446 87.4462 139.446 87.4463 139.446 87.4464C139.446 87.4465 139.446 87.4467 139.446 87.4468C139.446 87.4469 139.446 87.447 139.446 87.4471C139.446 87.4473 139.446 87.4474 139.446 87.4475C139.446 87.4476 139.446 87.4477 139.446 87.4478H145.458C145.458 87.4477 145.458 87.4476 145.458 87.4475C145.458 87.4474 145.458 87.4473 145.458 87.4471C145.458 87.447 145.458 87.4469 145.458 87.4468C145.458 87.4467 145.458 87.4465 145.458 87.4464C145.458 87.4463 145.458 87.4462 145.458 87.4461C145.458 87.446 145.458 87.4458 145.458 87.4457C145.458 87.4456 145.458 87.4455 145.458 87.4454C145.458 87.4453 145.458 87.4451 145.458 87.445C145.458 87.4449 145.458 87.4448 145.458 87.4447C145.458 87.4446 145.458 87.4444 145.458 87.4443C145.458 87.4442 145.458 87.4441 145.458 87.444C145.458 87.4438 145.458 87.4437 145.458 87.4436C145.458 87.4435 145.458 87.4434 145.458 87.4433C145.458 87.4431 145.458 87.443 145.458 87.4429C145.458 87.4428 145.458 87.4427 145.458 87.4426C145.458 87.4424 145.458 87.4423 145.458 87.4422C145.458 87.4421 145.458 87.442 145.458 87.4419C145.458 87.4417 145.458 87.4416 145.458 87.4415C145.458 87.4414 145.458 87.4413 145.458 87.4411C145.458 87.441 145.458 87.4409 145.458 87.4408C145.458 87.4407 145.458 87.4406 145.458 87.4404C145.458 87.4403 145.458 87.4402 145.458 87.4401C145.458 87.44 145.458 87.4399 145.458 87.4397C145.458 87.4396 145.458 87.4395 145.458 87.4394C145.458 87.4393 145.458 87.4392 145.458 87.439C145.458 87.4389 145.458 87.4388 145.458 87.4387C145.458 87.4386 145.458 87.4384 145.458 87.4383C145.458 87.4382 145.458 87.4381 145.458 87.438C145.458 87.4379 145.458 87.4377 145.458 87.4376C145.458 87.4375 145.458 87.4374 145.458 87.4373C145.458 87.4372 145.458 87.437 145.458 87.4369C145.458 87.4368 145.458 87.4367 145.458 87.4366C145.458 87.4365 145.458 87.4363 145.458 87.4362C145.458 87.4361 145.458 87.436 145.458 87.4359C145.458 87.4357 145.458 87.4356 145.458 87.4355C145.458 87.4354 145.458 87.4353 145.458 87.4352C145.458 87.435 145.458 87.4349 145.458 87.4348C145.458 87.4347 145.458 87.4346 145.458 87.4345C145.458 87.4343 145.458 87.4342 145.458 87.4341C145.458 87.434 145.458 87.4339 145.458 87.4338C145.458 87.4336 145.458 87.4335 145.458 87.4334C145.458 87.4333 145.458 87.4332 145.458 87.433C145.458 87.4329 145.458 87.4328 145.458 87.4327C145.458 87.4326 145.458 87.4325 145.458 87.4323C145.458 87.4322 145.458 87.4321 145.458 87.432C145.458 87.4319 145.458 87.4318 145.458 87.4316C145.458 87.4315 145.458 87.4314 145.458 87.4313C145.458 87.4312 145.458 87.431 145.458 87.4309C145.458 87.4308 145.458 87.4307 145.458 87.4306C145.458 87.4305 145.458 87.4303 145.458 87.4302C145.458 87.4301 145.458 87.43 145.458 87.4299C145.458 87.4298 145.458 87.4296 145.458 87.4295C145.458 87.4294 145.458 87.4293 145.458 87.4292C145.458 87.4291 145.458 87.4289 145.458 87.4288C145.458 87.4287 145.458 87.4286 145.458 87.4285C145.458 87.4283 145.458 87.4282 145.458 87.4281C145.458 87.428 145.458 87.4279 145.458 87.4278C145.458 87.4276 145.458 87.4275 145.458 87.4274C145.458 87.4273 145.458 87.4272 145.458 87.4271C145.458 87.4269 145.458 87.4268 145.458 87.4267C145.458 87.4266 145.458 87.4265 145.458 87.4264C145.458 87.4262 145.458 87.4261 145.458 87.426C145.458 87.4259 145.458 87.4258 145.458 87.4256C145.458 87.4255 145.458 87.4254 145.458 87.4253C145.458 87.4252 145.458 87.4251 145.458 87.4249C145.458 87.4248 145.458 87.4247 145.458 87.4246C145.458 87.4245 145.458 87.4244 145.458 87.4242C145.458 87.4241 145.458 87.424 145.458 87.4239C145.458 87.4238 145.458 87.4237 145.458 87.4235C145.458 87.4234 145.458 87.4233 145.458 87.4232C145.458 87.4231 145.458 87.4229 145.458 87.4228C145.458 87.4227 145.458 87.4226 145.458 87.4225C145.458 87.4224 145.458 87.4222 145.458 87.4221C145.458 87.422 145.458 87.4219 145.458 87.4218C145.458 87.4217 145.458 87.4215 145.458 87.4214C145.458 87.4213 145.458 87.4212 145.458 87.4211C145.458 87.421 145.458 87.4208 145.458 87.4207C145.458 87.4206 145.458 87.4205 145.458 87.4204C145.458 87.4202 145.458 87.4201 145.458 87.42C145.458 87.4199 145.458 87.4198 145.458 87.4197C145.458 87.4195 145.458 87.4194 145.458 87.4193C145.458 87.4192 145.458 87.4191 145.458 87.419C145.458 87.4188 145.458 87.4187 145.458 87.4186C145.458 87.4185 145.458 87.4184 145.458 87.4183C145.458 87.4181 145.458 87.418 145.458 87.4179C145.458 87.4178 145.458 87.4177 145.458 87.4175C145.458 87.4174 145.458 87.4173 145.458 87.4172C145.458 87.4171 145.458 87.417 145.458 87.4168C145.458 87.4167 145.458 87.4166 145.458 87.4165C145.458 87.4164 145.458 87.4163 145.458 87.4161C145.458 87.416 145.458 87.4159 145.458 87.4158C145.458 87.4157 145.458 87.4155 145.458 87.4154C145.458 87.4153 145.458 87.4152 145.458 87.4151C145.458 87.415 145.458 87.4148 145.458 87.4147C145.458 87.4146 145.458 87.4145 145.458 87.4144C145.458 87.4143 145.458 87.4141 145.458 87.414C145.458 87.4139 145.458 87.4138 145.458 87.4137C145.458 87.4136 145.458 87.4134 145.458 87.4133C145.458 87.4132 145.458 87.4131 145.458 87.413C145.458 87.4128 145.458 87.4127 145.458 87.4126C145.458 87.4125 145.458 87.4124 145.458 87.4123C145.458 87.4121 145.458 87.412 145.458 87.4119C145.458 87.4118 145.458 87.4117 145.458 87.4116C145.458 87.4114 145.458 87.4113 145.458 87.4112C145.458 87.4111 145.458 87.411 145.458 87.4109C145.458 87.4107 145.458 87.4106 145.458 87.4105C145.458 87.4104 145.458 87.4103 145.458 87.4101C145.458 87.41 145.458 87.4099 145.458 87.4098C145.458 87.4097 145.458 87.4096 145.458 87.4094C145.458 87.4093 145.458 87.4092 145.458 87.4091C145.458 87.409 145.458 87.4089 145.458 87.4087C145.458 87.4086 145.458 87.4085 145.458 87.4084C145.458 87.4083 145.458 87.4082 145.458 87.408C145.458 87.4079 145.458 87.4078 145.458 87.4077C145.458 87.4076 145.458 87.4074 145.458 87.4073C145.458 87.4072 145.458 87.4071 145.458 87.407C145.458 87.4069 145.458 87.4067 145.458 87.4066C145.458 87.4065 145.458 87.4064 145.458 87.4063C145.458 87.4062 145.458 87.406 145.458 87.4059C145.458 87.4058 145.458 87.4057 145.458 87.4056C145.458 87.4055 145.458 87.4053 145.458 87.4052C145.458 87.4051 145.458 87.405 145.458 87.4049C145.458 87.4047 145.458 87.4046 145.458 87.4045C145.458 87.4044 145.458 87.4043 145.458 87.4042C145.458 87.404 145.458 87.4039 145.458 87.4038C145.458 87.4037 145.458 87.4036 145.458 87.4035C145.458 87.4033 145.458 87.4032 145.458 87.4031C145.458 87.403 145.458 87.4029 145.458 87.4028C145.458 87.4026 145.458 87.4025 145.458 87.4024C145.458 87.4023 145.458 87.4022 145.458 87.402C145.458 87.4019 145.458 87.4018 145.458 87.4017C145.458 87.4016 145.458 87.4015 145.458 87.4013C145.458 87.4012 145.458 87.4011 145.458 87.401C145.458 87.4009 145.458 87.4008 145.458 87.4006C145.458 87.4005 145.458 87.4004 145.458 87.4003C145.458 87.4002 145.458 87.4 145.458 87.3999C145.458 87.3998 145.458 87.3997 145.458 87.3996C145.458 87.3995 145.458 87.3993 145.458 87.3992C145.458 87.3991 145.458 87.399 145.458 87.3989C145.458 87.3988 145.458 87.3986 145.458 87.3985C145.458 87.3984 145.458 87.3983 145.458 87.3982C145.458 87.3981 145.458 87.3979 145.458 87.3978C145.458 87.3977 145.458 87.3976 145.458 87.3975C145.458 87.3973 145.458 87.3972 145.458 87.3971C145.458 87.397 145.458 87.3969 145.458 87.3968C145.458 87.3966 145.458 87.3965 145.458 87.3964C145.458 87.3963 145.458 87.3962 145.458 87.3961C145.458 87.3959 145.458 87.3958 145.458 87.3957C145.458 87.3956 145.458 87.3955 145.458 87.3954C145.458 87.3952 145.458 87.3951 145.458 87.395C145.458 87.3949 145.458 87.3948 145.458 87.3946C145.458 87.3945 145.458 87.3944 145.458 87.3943C145.458 87.3942 145.458 87.3941 145.458 87.3939C145.458 87.3938 145.458 87.3937 145.458 87.3936C145.458 87.3935 145.458 87.3934 145.458 87.3932C145.458 87.3931 145.458 87.393 145.458 87.3929C145.458 87.3928 145.458 87.3927 145.458 87.3925C145.458 87.3924 145.458 87.3923 145.458 87.3922C145.458 87.3921 145.458 87.3919 145.458 87.3918C145.458 87.3917 145.458 87.3916 145.458 87.3915C145.458 87.3914 145.458 87.3912 145.458 87.3911C145.458 87.391 145.458 87.3909 145.458 87.3908C145.458 87.3907 145.458 87.3905 145.458 87.3904C145.458 87.3903 145.458 87.3902 145.458 87.3901C145.458 87.39 145.458 87.3898 145.458 87.3897C145.458 87.3896 145.458 87.3895 145.458 87.3894C145.458 87.3892 145.458 87.3891 145.458 87.389C145.458 87.3889 145.458 87.3888 145.458 87.3887C145.458 87.3885 145.458 87.3884 145.458 87.3883C145.458 87.3882 145.458 87.3881 145.458 87.388C145.458 87.3878 145.458 87.3877 145.458 87.3876C145.458 87.3875 145.458 87.3874 145.458 87.3873C145.458 87.3871 145.458 87.387 145.458 87.3869C145.458 87.3868 145.458 87.3867 145.458 87.3865C145.458 87.3864 145.458 87.3863 145.458 87.3862C145.458 87.3861 145.458 87.386 145.458 87.3858C145.458 87.3857 145.458 87.3856 145.458 87.3855C145.458 87.3854 145.458 87.3853 145.458 87.3851C145.458 87.385 145.458 87.3849 145.458 87.3848C145.458 87.3847 145.458 87.3845 145.458 87.3844C145.458 87.3843 145.458 87.3842 145.458 87.3841C145.458 87.384 145.458 87.3838 145.458 87.3837C145.458 87.3836 145.458 87.3835 145.458 87.3834C145.458 87.3833 145.458 87.3831 145.458 87.383C145.458 87.3829 145.458 87.3828 145.458 87.3827C145.458 87.3826 145.458 87.3824 145.458 87.3823C145.458 87.3822 145.458 87.3821 145.458 87.382C145.458 87.3818 145.458 87.3817 145.458 87.3816C145.458 87.3815 145.458 87.3814 145.458 87.3813C145.458 87.3811 145.458 87.381 145.458 87.3809C145.458 87.3808 145.458 87.3807 145.458 87.3806C145.458 87.3804 145.458 87.3803 145.458 87.3802C145.458 87.3801 145.458 87.38 145.458 87.3799C145.458 87.3797 145.458 87.3796 145.458 87.3795C145.458 87.3794 145.458 87.3793 145.458 87.3791C145.458 87.379 145.458 87.3789 145.458 87.3788C145.458 87.3787 145.458 87.3786 145.458 87.3784C145.458 87.3783 145.458 87.3782 145.458 87.3781C145.458 87.378 145.458 87.3779 145.458 87.3777C145.458 87.3776 145.458 87.3775 145.458 87.3774C145.458 87.3773 145.458 87.3772 145.458 87.377C145.458 87.3769 145.458 87.3768 145.458 87.3767C145.458 87.3766 145.458 87.3764 145.458 87.3763C145.458 87.3762 145.458 87.3761 145.458 87.376C145.458 87.3759 145.458 87.3757 145.458 87.3756C145.458 87.3755 145.458 87.3754 145.458 87.3753C145.458 87.3752 145.458 87.375 145.458 87.3749C145.458 87.3748 145.458 87.3747 145.458 87.3746C145.458 87.3745 145.458 87.3743 145.458 87.3742C145.458 87.3741 145.458 87.374 145.458 87.3739C145.458 87.3737 145.458 87.3736 145.458 87.3735C145.458 87.3734 145.458 87.3733 145.458 87.3732C145.458 87.373 145.458 87.3729 145.458 87.3728C145.458 87.3727 145.458 87.3726 145.458 87.3725C145.458 87.3723 145.458 87.3722 145.458 87.3721C145.458 87.372 145.458 87.3719 145.458 87.3717C145.458 87.3716 145.458 87.3715 145.458 87.3714C145.458 87.3713 145.458 87.3712 145.458 87.371C145.458 87.3709 145.458 87.3708 145.458 87.3707C145.458 87.3706 145.458 87.3705 145.458 87.3703C145.458 87.3702 145.458 87.3701 145.458 87.37C145.458 87.3699 145.458 87.3698 145.458 87.3696C145.458 87.3695 145.458 87.3694 145.458 87.3693C145.458 87.3692 145.458 87.369 145.458 87.3689C145.458 87.3688 145.458 87.3687 145.458 87.3686C145.458 87.3685 145.458 87.3683 145.458 87.3682C145.458 87.3681 145.458 87.368 145.458 87.3679C145.458 87.3678 145.458 87.3676 145.458 87.3675C145.458 87.3674 145.458 87.3673 145.458 87.3672C145.458 87.3671 145.458 87.3669 145.458 87.3668C145.458 87.3667 145.458 87.3666 145.458 87.3665C145.458 87.3663 145.458 87.3662 145.458 87.3661C145.458 87.366 145.458 87.3659 145.458 87.3658C145.458 87.3656 145.458 87.3655 145.458 87.3654C145.458 87.3653 145.458 87.3652 145.458 87.3651C145.458 87.3649 145.458 87.3648 145.458 87.3647C145.458 87.3646 145.458 87.3645 145.458 87.3644C145.458 87.3642 145.458 87.3641 145.458 87.364C145.458 87.3639 145.458 87.3638 145.458 87.3636C145.458 87.3635 145.458 87.3634 145.458 87.3633C145.458 87.3632 145.458 87.3631 145.458 87.3629C145.458 87.3628 145.458 87.3627 145.458 87.3626C145.458 87.3625 145.458 87.3624 145.458 87.3622C145.458 87.3621 145.458 87.362 145.458 87.3619C145.458 87.3618 145.458 87.3617 145.458 87.3615C145.458 87.3614 145.458 87.3613 145.458 87.3612C145.458 87.3611 145.458 87.3609 145.458 87.3608C145.458 87.3607 145.458 87.3606 145.458 87.3605C145.458 87.3604 145.458 87.3602 145.458 87.3601C145.458 87.36 145.458 87.3599 145.458 87.3598C145.458 87.3597 145.458 87.3595 145.458 87.3594C145.458 87.3593 145.458 87.3592 145.458 87.3591C145.458 87.359 145.458 87.3588 145.458 87.3587C145.458 87.3586 145.458 87.3585 145.458 87.3584C145.458 87.3582 145.458 87.3581 145.458 87.358C145.458 87.3579 145.458 87.3578 145.458 87.3577C145.458 87.3575 145.458 87.3574 145.458 87.3573C145.458 87.3572 145.458 87.3571 145.458 87.357C145.458 87.3568 145.458 87.3567 145.458 87.3566C145.458 87.3565 145.458 87.3564 145.458 87.3562C145.458 87.3561 145.458 87.356 145.458 87.3559C145.458 87.3558 145.458 87.3557 145.458 87.3555C145.458 87.3554 145.458 87.3553 145.458 87.3552C145.458 87.3551 145.458 87.355 145.458 87.3548C145.458 87.3547 145.458 87.3546 145.458 87.3545C145.458 87.3544 145.458 87.3543 145.458 87.3541C145.458 87.354 145.458 87.3539 145.458 87.3538C145.458 87.3537 145.458 87.3535 145.458 87.3534C145.458 87.3533 145.458 87.3532 145.458 87.3531C145.458 87.353 145.458 87.3528 145.458 87.3527C145.458 87.3526 145.458 87.3525 145.458 87.3524C145.458 87.3523 145.458 87.3521 145.458 87.352C145.458 87.3519 145.458 87.3518 145.458 87.3517C145.458 87.3516 145.458 87.3514 145.458 87.3513C145.458 87.3512 145.458 87.3511 145.458 87.351C145.458 87.3508 145.458 87.3507 145.458 87.3506C145.458 87.3505 145.458 87.3504 145.458 87.3503C145.458 87.3501 145.458 87.35 145.458 87.3499C145.458 87.3498 145.458 87.3497 145.458 87.3496C145.458 87.3494 145.458 87.3493 145.458 87.3492C145.458 87.3491 145.458 87.349 145.458 87.3489C145.458 87.3487 145.458 87.3486 145.458 87.3485C145.458 87.3484 145.458 87.3483 145.458 87.3481C145.458 87.348 145.458 87.3479 145.458 87.3478C145.458 87.3477 145.458 87.3476 145.458 87.3474C145.458 87.3473 145.458 87.3472 145.458 87.3471C145.458 87.347 145.458 87.3469 145.458 87.3467C145.458 87.3466 145.458 87.3465 145.458 87.3464C145.458 87.3463 145.458 87.3462 145.458 87.346C145.458 87.3459 145.458 87.3458 145.458 87.3457C145.458 87.3456 145.458 87.3454 145.458 87.3453C145.458 87.3452 145.458 87.3451 145.458 87.345C145.458 87.3449 145.458 87.3447 145.458 87.3446C145.458 87.3445 145.458 87.3444 145.458 87.3443C145.458 87.3442 145.458 87.344 145.458 87.3439C145.458 87.3438 145.458 87.3437 145.458 87.3436C145.458 87.3435 145.458 87.3433 145.458 87.3432C145.458 87.3431 145.458 87.343 145.458 87.3429C145.458 87.3427 145.458 87.3426 145.458 87.3425C145.458 87.3424 145.458 87.3423 145.458 87.3422C145.458 87.342 145.458 87.3419 145.458 87.3418C145.458 87.3417 145.458 87.3416 145.458 87.3415C145.458 87.3413 145.458 87.3412 145.458 87.3411C145.458 87.341 145.458 87.3409 145.458 87.3407C145.458 87.3406 145.458 87.3405 145.458 87.3404C145.458 87.3403 145.458 87.3402 145.458 87.34C145.458 87.3399 145.458 87.3398 145.458 87.3397C145.458 87.3396 145.458 87.3395 145.458 87.3393C145.458 87.3392 145.458 87.3391 145.458 87.339C145.458 87.3389 145.458 87.3388 145.458 87.3386C145.458 87.3385 145.458 87.3384 145.458 87.3383C145.458 87.3382 145.458 87.338 145.458 87.3379C145.458 87.3378 145.458 87.3377 145.458 87.3376C145.458 87.3375 145.458 87.3373 145.458 87.3372C145.458 87.3371 145.458 87.337 145.458 87.3369C145.458 87.3368 145.458 87.3366 145.458 87.3365C145.458 87.3364 145.458 87.3363 145.458 87.3362C145.458 87.3361 145.458 87.3359 145.458 87.3358C145.458 87.3357 145.458 87.3356 145.458 87.3355C145.458 87.3353 145.458 87.3352 145.458 87.3351C145.458 87.335 145.458 87.3349 145.458 87.3348C145.458 87.3346 145.458 87.3345 145.458 87.3344C145.458 87.3343 145.458 87.3342 145.458 87.3341C145.458 87.3339 145.458 87.3338 145.458 87.3337C145.458 87.3336 145.458 87.3335 145.458 87.3334C145.458 87.3332 145.458 87.3331 145.458 87.333C145.458 87.3329 145.458 87.3328 145.458 87.3326C145.458 87.3325 145.458 87.3324 145.458 87.3323C145.458 87.3322 145.458 87.3321 145.458 87.3319C145.458 87.3318 145.458 87.3317 145.458 87.3316C145.458 87.3315 145.458 87.3314 145.458 87.3312C145.458 87.3311 145.458 87.331 145.458 87.3309C145.458 87.3308 145.458 87.3307 145.458 87.3305C145.458 87.3304 145.458 87.3303 145.458 87.3302C145.458 87.3301 145.458 87.3299 145.458 87.3298C145.458 87.3297 145.458 87.3296 145.458 87.3295C145.458 87.3294 145.458 87.3292 145.458 87.3291C145.458 87.329 145.458 87.3289 145.458 87.3288C145.458 87.3287 145.458 87.3285 145.458 87.3284C145.458 87.3283 145.458 87.3282 145.458 87.3281C145.458 87.328 145.458 87.3278 145.458 87.3277C145.458 87.3276 145.458 87.3275 145.458 87.3274C145.458 87.3272 145.458 87.3271 145.458 87.327C145.458 87.3269 145.458 87.3268 145.458 87.3267C145.458 87.3265 145.458 87.3264 145.458 87.3263C145.458 87.3262 145.458 87.3261 145.458 87.326C145.458 87.3258 145.458 87.3257 145.458 87.3256C145.458 87.3255 145.458 87.3254 145.458 87.3252C145.458 87.3251 145.458 87.325 145.458 87.3249C145.458 87.3248 145.458 87.3247 145.458 87.3245C145.458 87.3244 145.458 87.3243 145.458 87.3242C145.458 87.3241 145.458 87.324 145.458 87.3238C145.458 87.3237 145.458 87.3236 145.458 87.3235C145.458 87.3234 145.458 87.3233 145.458 87.3231C145.458 87.323 145.458 87.3229 145.458 87.3228C145.458 87.3227 145.458 87.3225 145.458 87.3224C145.458 87.3223 145.458 87.3222 145.458 87.3221C145.458 87.322 145.458 87.3218 145.458 87.3217C145.458 87.3216 145.458 87.3215 145.458 87.3214C145.458 87.3213 145.458 87.3211 145.458 87.321C145.458 87.3209 145.458 87.3208 145.458 87.3207C145.458 87.3206 145.458 87.3204 145.458 87.3203C145.458 87.3202 145.458 87.3201 145.458 87.32C145.458 87.3198 145.458 87.3197 145.458 87.3196C145.458 87.3195 145.458 87.3194 145.458 87.3193C145.458 87.3191 145.458 87.319 145.458 87.3189C145.458 87.3188 145.458 87.3187 145.458 87.3186C145.458 87.3184 145.458 87.3183 145.458 87.3182C145.458 87.3181 145.458 87.318 145.458 87.3179C145.458 87.3177 145.458 87.3176 145.458 87.3175C145.458 87.3174 145.458 87.3173 145.458 87.3171C145.458 87.317 145.458 87.3169 145.458 87.3168C145.458 87.3167 145.458 87.3166 145.458 87.3164C145.458 87.3163 145.458 87.3162 145.458 87.3161C145.458 87.316 145.458 87.3159 145.458 87.3157C145.458 87.3156 145.458 87.3155 145.458 87.3154C145.458 87.3153 145.458 87.3152 145.458 87.315C145.458 87.3149 145.458 87.3148 145.458 87.3147C145.458 87.3146 145.458 87.3144 145.458 87.3143C145.458 87.3142 145.458 87.3141 145.458 87.314C145.458 87.3139 145.458 87.3137 145.458 87.3136C145.458 87.3135 145.458 87.3134 145.458 87.3133C145.458 87.3132 145.458 87.313 145.458 87.3129C145.458 87.3128 145.458 87.3127 145.458 87.3126C145.458 87.3125 145.458 87.3123 145.458 87.3122C145.458 87.3121 145.458 87.312 145.458 87.3119C145.458 87.3117 145.458 87.3116 145.458 87.3115C145.458 87.3114 145.458 87.3113 145.458 87.3112C145.458 87.311 145.458 87.3109 145.458 87.3108C145.458 87.3107 145.458 87.3106 145.458 87.3105C145.458 87.3103 145.458 87.3102 145.458 87.3101C145.458 87.31 145.458 87.3099 145.458 87.3097C145.458 87.3096 145.458 87.3095 145.458 87.3094C145.458 87.3093 145.458 87.3092 145.458 87.309C145.458 87.3089 145.458 87.3088 145.458 87.3087C145.458 87.3086 145.458 87.3085 145.458 87.3083C145.458 87.3082 145.458 87.3081 145.458 87.308C145.458 87.3079 145.458 87.3078 145.458 87.3076C145.458 87.3075 145.458 87.3074 145.458 87.3073C145.458 87.3072 145.458 87.307 145.458 87.3069C145.458 87.3068 145.458 87.3067 145.458 87.3066C145.458 87.3065 145.458 87.3063 145.458 87.3062C145.458 87.3061 145.458 87.306 145.458 87.3059C145.458 87.3058 145.458 87.3056 145.458 87.3055C145.458 87.3054 145.458 87.3053 145.458 87.3052C145.458 87.3051 145.458 87.3049 145.458 87.3048C145.458 87.3047 145.458 87.3046 145.458 87.3045C145.458 87.3043 145.458 87.3042 145.458 87.3041C145.458 87.304 145.458 87.3039 145.458 87.3038C145.458 87.3036 145.458 87.3035 145.458 87.3034C145.458 87.3033 145.458 87.3032 145.458 87.3031C145.458 87.3029 145.458 87.3028 145.458 87.3027C145.458 87.3026 145.458 87.3025 145.458 87.3024C145.458 87.3022 145.458 87.3021 145.458 87.302C145.458 87.3019 145.458 87.3018 145.458 87.3016C145.458 87.3015 145.458 87.3014 145.458 87.3013C145.458 87.3012 145.458 87.3011 145.458 87.3009C145.458 87.3008 145.458 87.3007 145.458 87.3006C145.458 87.3005 145.458 87.3004 145.458 87.3002C145.458 87.3001 145.458 87.3 145.458 87.2999C145.458 87.2998 145.458 87.2997 145.458 87.2995C145.458 87.2994 145.458 87.2993 145.458 87.2992C145.458 87.2991 145.458 87.2989 145.458 87.2988C145.458 87.2987 145.458 87.2986 145.458 87.2985C145.458 87.2984 145.458 87.2982 145.458 87.2981C145.458 87.298 145.458 87.2979 145.458 87.2978C145.458 87.2977 145.458 87.2975 145.458 87.2974C145.458 87.2973 145.458 87.2972 145.458 87.2971C145.458 87.2969 145.458 87.2968 145.458 87.2967C145.458 87.2966 145.458 87.2965 145.458 87.2964C145.458 87.2962 145.458 87.2961 145.458 87.296C145.458 87.2959 145.458 87.2958 145.458 87.2957C145.458 87.2955 145.458 87.2954 145.458 87.2953C145.458 87.2952 145.458 87.2951 145.458 87.295C145.458 87.2948 145.458 87.2947 145.458 87.2946C145.458 87.2945 145.458 87.2944 145.458 87.2942C145.458 87.2941 145.458 87.294 145.458 87.2939C145.458 87.2938 145.458 87.2937 145.458 87.2935C145.458 87.2934 145.458 87.2933 145.458 87.2932C145.458 87.2931 145.458 87.293 145.458 87.2928C145.458 87.2927 145.458 87.2926 145.458 87.2925C145.458 87.2924 145.458 87.2923 145.458 87.2921C145.458 87.292 145.458 87.2919 145.458 87.2918C145.458 87.2917 145.458 87.2915 145.458 87.2914C145.458 87.2913 145.458 87.2912 145.458 87.2911C145.458 87.291 145.458 87.2908 145.458 87.2907C145.458 87.2906 145.458 87.2905 145.458 87.2904C145.458 87.2903 145.458 87.2901 145.458 87.29C145.458 87.2899 145.458 87.2898 145.458 87.2897C145.458 87.2896 145.458 87.2894 145.458 87.2893C145.458 87.2892 145.458 87.2891 145.458 87.289C145.458 87.2888 145.458 87.2887 145.458 87.2886C145.458 87.2885 145.458 87.2884 145.458 87.2883C145.458 87.2881 145.458 87.288 145.458 87.2879C145.458 87.2878 145.458 87.2877 145.458 87.2876C145.458 87.2874 145.458 87.2873 145.458 87.2872C145.458 87.2871 145.458 87.287 145.458 87.2869C145.458 87.2867 145.458 87.2866 145.458 87.2865C145.458 87.2864 145.458 87.2863 145.458 87.2861C145.458 87.286 145.458 87.2859 145.458 87.2858C145.458 87.2857 145.458 87.2856 145.458 87.2854C145.458 87.2853 145.458 87.2852 145.458 87.2851C145.458 87.285 145.458 87.2849 145.458 87.2847C145.458 87.2846 145.458 87.2845 145.458 87.2844C145.458 87.2843 145.458 87.2842 145.458 87.284C145.458 87.2839 145.458 87.2838 145.458 87.2837C145.458 87.2836 145.458 87.2834 145.458 87.2833C145.458 87.2832 145.458 87.2831 145.458 87.283C145.458 87.2829 145.458 87.2827 145.458 87.2826C145.458 87.2825 145.458 87.2824 145.458 87.2823C145.458 87.2822 145.458 87.282 145.458 87.2819C145.458 87.2818 145.458 87.2817 145.458 87.2816C145.458 87.2814 145.458 87.2813 145.458 87.2812C145.458 87.2811 145.458 87.281 145.458 87.2809C145.458 87.2807 145.458 87.2806 145.458 87.2805C145.458 87.2804 145.458 87.2803 145.458 87.2802C145.458 87.28 145.458 87.2799 145.458 87.2798C145.458 87.2797 145.458 87.2796 145.458 87.2795C145.458 87.2793 145.458 87.2792 145.458 87.2791C145.458 87.279 145.458 87.2789 145.458 87.2787C145.458 87.2786 145.458 87.2785 145.458 87.2784C145.458 87.2783 145.458 87.2782 145.458 87.278C145.458 87.2779 145.458 87.2778 145.458 87.2777C145.458 87.2776 145.458 87.2775 145.458 87.2773C145.458 87.2772 145.458 87.2771 145.458 87.277C145.458 87.2769 145.458 87.2768 145.458 87.2766C145.458 87.2765 145.458 87.2764 145.458 87.2763C145.458 87.2762 145.458 87.276 145.458 87.2759C145.458 87.2758 145.458 87.2757 145.458 87.2756C145.458 87.2755 145.458 87.2753 145.458 87.2752C145.458 87.2751 145.458 87.275 145.458 87.2749C145.458 87.2748 145.458 87.2746 145.458 87.2745C145.458 87.2744 145.458 87.2743 145.458 87.2742C145.458 87.2741 145.458 87.2739 145.458 87.2738C145.458 87.2737 145.458 87.2736 145.458 87.2735C145.458 87.2733 145.458 87.2732 145.458 87.2731C145.458 87.273 145.458 87.2729 145.458 87.2728C145.458 87.2726 145.458 87.2725 145.458 87.2724C145.458 87.2723 145.458 87.2722 145.458 87.2721C145.458 87.2719 145.458 87.2718 145.458 87.2717C145.458 87.2716 145.458 87.2715 145.458 87.2714C145.458 87.2712 145.458 87.2711 145.458 87.271C145.458 87.2709 145.458 87.2708 145.458 87.2706C145.458 87.2705 145.458 87.2704 145.458 87.2703C145.458 87.2702 145.458 87.2701 145.458 87.2699C145.458 87.2698 145.458 87.2697 145.458 87.2696C145.458 87.2695 145.458 87.2694 145.458 87.2692C145.458 87.2691 145.458 87.269 145.458 87.2689C145.458 87.2688 145.458 87.2687 145.458 87.2685C145.458 87.2684 145.458 87.2683 145.458 87.2682C145.458 87.2681 145.458 87.2679 145.458 87.2678C145.458 87.2677 145.458 87.2676 145.458 87.2675H139.446ZM139.446 87.4478C139.446 87.5857 139.386 88.0591 139.007 88.9891L144.575 91.2574C145.078 90.0231 145.458 88.7128 145.458 87.4478H139.446ZM139.015 88.9708C138.914 89.2133 138.825 89.4179 138.748 89.5876C138.67 89.7593 138.61 89.8822 138.566 89.965C138.518 90.0569 138.511 90.0592 138.545 90.0109C138.563 89.9852 138.612 89.9157 138.693 89.8252C138.735 89.7784 138.794 89.7161 138.87 89.6464C138.946 89.5777 139.053 89.4882 139.192 89.3956L142.527 94.398C143.068 94.0369 143.387 93.5794 143.493 93.4258C143.649 93.1996 143.781 92.9652 143.889 92.7614C144.105 92.3488 144.333 91.8401 144.567 91.2757L139.015 88.9708ZM142.237 89.225C140.693 88.429 139.06 87.8988 137.402 87.8988V93.9109C137.789 93.9109 138.46 94.042 139.482 94.5686L142.237 89.225ZM137.402 87.8988C136.631 87.8988 135.511 88.0214 134.518 88.7358C133.344 89.5818 132.893 90.8456 132.893 91.987H138.905C138.905 92.1529 138.876 92.4417 138.721 92.7765C138.559 93.1274 138.31 93.4141 138.031 93.6149C137.54 93.9686 137.172 93.9109 137.402 93.9109V87.8988ZM132.893 91.987C132.893 94.3646 134.881 95.4887 135.756 95.8909L138.266 90.4278C138.082 90.3433 138.18 90.3545 138.358 90.5418C138.578 90.7742 138.905 91.2744 138.905 91.987H132.893ZM135.667 95.8481C135.864 95.9465 136.123 96.0702 136.432 96.2141L138.974 90.766C138.681 90.6293 138.48 90.5326 138.356 90.4707L135.667 95.8481ZM136.432 96.2141C136.678 96.3292 136.975 96.477 137.325 96.6612L140.125 91.3409C139.713 91.1244 139.329 90.9315 138.974 90.766L136.432 96.2141ZM137.491 96.7424C137.702 96.8371 137.969 96.9846 138.294 97.2062L141.681 92.2388C141.124 91.8593 140.549 91.5257 139.958 91.2598L137.491 96.7424ZM138.424 97.2903C138.672 97.4409 139.004 97.6884 139.421 98.0737L143.499 93.656C142.875 93.0793 142.225 92.5653 141.55 92.1547L138.424 97.2903ZM139.398 98.0514C139.779 98.4115 140.048 98.9028 140.048 99.8328H146.06C146.06 97.4762 145.266 95.3222 143.523 93.6782L139.398 98.0514ZM140.048 99.8328C140.048 101.397 139.631 102.407 139.009 103.123L143.551 107.063C145.294 105.055 146.06 102.558 146.06 99.8328H140.048ZM139.009 103.123C138.57 103.63 137.697 104.161 135.76 104.192L135.858 110.203C138.851 110.155 141.625 109.282 143.551 107.063L139.009 103.123ZM135.809 104.192C134.77 104.192 133.883 104.105 133.133 103.952L131.931 109.842C133.146 110.09 134.443 110.204 135.809 110.204V104.192ZM133.145 103.954C132.62 103.845 132.221 103.648 131.893 103.384L128.121 108.066C129.236 108.963 130.52 109.549 131.919 109.84L133.145 103.954ZM131.893 103.384C131.803 103.311 131.827 103.306 131.869 103.388C131.889 103.427 131.906 103.473 131.918 103.521C131.929 103.569 131.931 103.604 131.931 103.62H125.919C125.919 105.475 126.794 106.996 128.121 108.066L131.893 103.384ZM131.931 103.62C131.931 103.174 132.011 102.72 132.191 102.241L126.561 100.13C126.14 101.255 125.919 102.423 125.919 103.62H131.931ZM132.199 102.218C132.252 102.074 132.3 101.959 132.34 101.869C132.382 101.779 132.412 101.723 132.428 101.696C132.445 101.668 132.439 101.682 132.405 101.723C132.371 101.764 132.294 101.851 132.164 101.95L128.512 97.1744C127.444 97.9912 126.884 99.2491 126.553 100.153L132.199 102.218Z" fill="black" mask="url(#path-7-outside-1_65_1015)"/>
</g>
<g filter="url(#filter2_d_65_1015)">
<path d="M88.4544 2.42372C87.7326 2.14999 86.9208 2.46762 86.5763 3.15852L65.2965 45.8445C65.1926 46.0528 65.1386 46.2823 65.1386 46.5151V54.2273C65.1386 55.0654 65.6359 55.8236 66.4046 56.1574L115.607 77.5246C118.822 78.9208 122.575 77.9092 124.653 75.0865L141.952 51.5861C142.387 50.9949 142.331 50.1757 141.82 49.6487L137.767 45.4687C137.637 45.3344 137.482 45.2255 137.312 45.1478L132.995 43.177L142.04 27.638C142.367 27.0766 142.296 26.3688 141.865 25.8833L137.811 21.3234C137.65 21.1422 137.448 21.0026 137.221 20.9166L88.4544 2.42372Z" fill="#8EE0F6" stroke="black" stroke-width="3.00607" stroke-linejoin="round"/>
<mask id="mask1_65_1015" style="mask-type:alpha" maskUnits="userSpaceOnUse" x="66" y="3" width="75" height="74">
<path d="M136.688 22.322L87.9215 3.8291L66.6416 46.5151V54.2273C66.6416 54.4668 66.7837 54.6834 67.0033 54.7788L116.206 76.146C118.778 77.2629 121.78 76.4536 123.442 74.1955L140.741 50.695L136.688 46.5151L130.861 43.8551L140.741 26.8818L136.688 22.322Z" fill="#8EE0F6"/>
</mask>
<g mask="url(#mask1_65_1015)">
<path d="M117.856 66.7424L130.868 43.8445L137.166 45.9427L122.242 69.0884C119.93 72.5565 115.825 71.0992 117.856 66.7424Z" fill="#1450AF"/>
<path fill-rule="evenodd" clip-rule="evenodd" d="M66.6416 46.5247L111.546 66.387L137.571 21.1897L87.9869 2.27911L66.6416 46.5247ZM88.6524 12.4202L78.7873 33.6212L97.1328 41.7554L109.68 21.1601L88.6524 12.4202ZM75.335 43.4745L77.3158 38.5603L114.892 51.9703L111.92 57.1839L75.335 43.4745ZM106.587 36.0651L104.459 40.3936L118.369 46.4366L120.525 42.3744L106.587 36.0651ZM109.52 30.7105L111.061 26.6755L127.103 31.619L124.559 36.2855L109.52 30.7105ZM90.6071 22.2107H86.0284L86.681 27.1347L84.3079 31.8808L88.9352 32.8893L91.3427 36.1845L95.3426 32.8893L100.089 32.2961L99.2676 27.3568L101.575 22.2107H97.063L94.0374 18.2356L90.6071 22.2107Z" fill="white"/>
</g>
</g>
<g filter="url(#filter3_di_65_1015)">
<circle cx="29.205" cy="35.3688" r="27.3012" fill="#02DA07"/>
<circle cx="29.205" cy="35.3688" r="28.203" stroke="black" stroke-width="1.80364"/>
</g>
<g filter="url(#filter4_d_65_1015)">
<mask id="path-15-outside-2_65_1015" maskUnits="userSpaceOnUse" x="21.2124" y="19.3458" width="16" height="29" fill="black">
<rect fill="white" x="21.2124" y="19.3458" width="16" height="29"/>
<path d="M35.227 45.7326C35.227 46.1414 34.0006 46.3458 31.5476 46.3458C29.1187 46.3458 27.9043 46.1414 27.9043 45.7326V27.9487L24.0084 27.9848C23.2869 27.9848 22.9262 26.8304 22.9262 24.5218C22.9262 23.7282 22.9984 22.9586 23.1426 22.2131C23.311 21.4676 23.5875 21.0949 23.9723 21.0949H33.8563C34.2651 21.0949 34.5897 21.1911 34.8302 21.3834C35.0948 21.5518 35.227 21.7682 35.227 22.0328V45.7326Z"/>
</mask>
<path d="M35.227 45.7326C35.227 46.1414 34.0006 46.3458 31.5476 46.3458C29.1187 46.3458 27.9043 46.1414 27.9043 45.7326V27.9487L24.0084 27.9848C23.2869 27.9848 22.9262 26.8304 22.9262 24.5218C22.9262 23.7282 22.9984 22.9586 23.1426 22.2131C23.311 21.4676 23.5875 21.0949 23.9723 21.0949H33.8563C34.2651 21.0949 34.5897 21.1911 34.8302 21.3834C35.0948 21.5518 35.227 21.7682 35.227 22.0328V45.7326Z" fill="white"/>
<path d="M27.9043 27.9487H29.4073V26.4317L27.8903 26.4457L27.9043 27.9487ZM24.0084 27.9848L24.0084 29.4879L24.0223 29.4877L24.0084 27.9848ZM23.1426 22.2131L21.6765 21.8821L21.6714 21.9047L21.667 21.9275L23.1426 22.2131ZM34.8302 21.3834L33.8913 22.5571L33.9547 22.6079L34.0233 22.6515L34.8302 21.3834ZM33.724 45.7326C33.724 45.3709 33.8709 45.0819 34.0284 44.8982C34.1656 44.7381 34.2971 44.6704 34.3249 44.6565C34.373 44.6325 34.3183 44.6669 34.0601 44.7099C33.5734 44.791 32.7546 44.8428 31.5476 44.8428V47.8489C32.7935 47.8489 33.8145 47.7984 34.5543 47.6751C34.9093 47.6159 35.3146 47.5226 35.6692 47.3452C35.9654 47.1971 36.7301 46.7222 36.7301 45.7326H33.724ZM31.5476 44.8428C30.3528 44.8428 29.544 44.791 29.0646 44.7103C28.81 44.6675 28.7588 44.6336 28.8094 44.6592C28.8388 44.674 28.9705 44.7428 29.1071 44.9037C29.2636 45.0881 29.4073 45.3754 29.4073 45.7326H26.4012C26.4012 46.7144 27.1542 47.1909 27.4545 47.3426C27.8087 47.5214 28.2129 47.6153 28.5656 47.6747C29.3006 47.7984 30.3135 47.8489 31.5476 47.8489V44.8428ZM29.4073 45.7326V27.9487H26.4012V45.7326H29.4073ZM27.8903 26.4457L23.9945 26.4818L24.0223 29.4877L27.9182 29.4517L27.8903 26.4457ZM24.0084 26.4817C24.2861 26.4817 24.5131 26.6141 24.6315 26.7403C24.7113 26.8256 24.6864 26.8467 24.6314 26.6707C24.5207 26.3164 24.4292 25.6357 24.4292 24.5218H21.4232C21.4232 25.7165 21.5121 26.7673 21.7621 27.5673C21.9861 28.284 22.5928 29.4878 24.0084 29.4878V26.4817ZM24.4292 24.5218C24.4292 23.8197 24.493 23.146 24.6183 22.4987L21.667 21.9275C21.5037 22.7713 21.4232 23.6366 21.4232 24.5218H24.4292ZM24.6088 22.5442C24.6379 22.415 24.6657 22.33 24.6858 22.2795C24.7066 22.2271 24.7109 22.233 24.6834 22.27C24.6543 22.3093 24.5792 22.3968 24.442 22.4741C24.2962 22.5563 24.131 22.5979 23.9723 22.5979V19.5918C23.2036 19.5918 22.6253 19.999 22.2692 20.4789C21.951 20.9077 21.7807 21.4207 21.6765 21.8821L24.6088 22.5442ZM23.9723 22.5979H33.8563V19.5918H23.9723V22.5979ZM33.8563 22.5979C33.945 22.5979 33.9809 22.6086 33.9794 22.6081C33.9779 22.6077 33.9674 22.6044 33.9505 22.5958C33.9334 22.5871 33.9129 22.5744 33.8913 22.5571L35.7692 20.2098C35.1862 19.7434 34.4943 19.5918 33.8563 19.5918V22.5979ZM34.0233 22.6515C34.0069 22.6411 33.9236 22.5838 33.8453 22.4558C33.7609 22.3176 33.724 22.1646 33.724 22.0328H36.7301C36.7301 21.1525 36.2418 20.5001 35.6372 20.1154L34.0233 22.6515ZM33.724 22.0328V45.7326H36.7301V22.0328H33.724Z" fill="black" mask="url(#path-15-outside-2_65_1015)"/>
</g>
<defs>
<filter id="filter0_d_65_1015" x="18.4028" y="29.8298" width="170.576" height="98.4135" filterUnits="userSpaceOnUse" color-interpolation-filters="sRGB">
<feFlood flood-opacity="0" result="BackgroundImageFix"/>
<feColorMatrix in="SourceAlpha" type="matrix" values="0 0 0 0 0 0 0 0 0 0 0 0 0 0 0 0 0 0 127 0" result="hardAlpha"/>
<feOffset dy="7.51517"/>
<feComposite in2="hardAlpha" operator="out"/>
<feColorMatrix type="matrix" values="0 0 0 0 0 0 0 0 0 0 0 0 0 0 0 0 0 0 0.5 0"/>
<feBlend mode="normal" in2="BackgroundImageFix" result="effect1_dropShadow_65_1015"/>
<feBlend mode="normal" in="SourceGraphic" in2="effect1_dropShadow_65_1015" result="shape"/>
</filter>
<filter id="filter1_d_65_1015" x="62.6797" y="82.578" width="83.3799" height="29.4294" filterUnits="userSpaceOnUse" color-interpolation-filters="sRGB">
<feFlood flood-opacity="0" result="BackgroundImageFix"/>
<feColorMatrix in="SourceAlpha" type="matrix" values="0 0 0 0 0 0 0 0 0 0 0 0 0 0 0 0 0 0 127 0" result="hardAlpha"/>
<feOffset dy="1.80364"/>
<feComposite in2="hardAlpha" operator="out"/>
<feColorMatrix type="matrix" values="0 0 0 0 0 0 0 0 0 0 0 0 0 0 0 0 0 0 1 0"/>
<feBlend mode="normal" in2="BackgroundImageFix" result="effect1_dropShadow_65_1015"/>
<feBlend mode="normal" in="SourceGraphic" in2="effect1_dropShadow_65_1015" result="shape"/>
</filter>
<filter id="filter2_d_65_1015" x="63.6357" y="0.82251" width="81.6148" height="81.8339" filterUnits="userSpaceOnUse" color-interpolation-filters="sRGB">
<feFlood flood-opacity="0" result="BackgroundImageFix"/>
<feColorMatrix in="SourceAlpha" type="matrix" values="0 0 0 0 0 0 0 0 0 0 0 0 0 0 0 0 0 0 127 0" result="hardAlpha"/>
<feOffset dx="1.50303" dy="3.00607"/>
<feComposite in2="hardAlpha" operator="out"/>
<feColorMatrix type="matrix" values="0 0 0 0 0 0 0 0 0 0 0 0 0 0 0 0 0 0 1 0"/>
<feBlend mode="normal" in2="BackgroundImageFix" result="effect1_dropShadow_65_1015"/>
<feBlend mode="normal" in="SourceGraphic" in2="effect1_dropShadow_65_1015" result="shape"/>
</filter>
<filter id="filter3_di_65_1015" x="0.100098" y="6.26392" width="58.21" height="60.314" filterUnits="userSpaceOnUse" color-interpolation-filters="sRGB">
<feFlood flood-opacity="0" result="BackgroundImageFix"/>
<feColorMatrix in="SourceAlpha" type="matrix" values="0 0 0 0 0 0 0 0 0 0 0 0 0 0 0 0 0 0 127 0" result="hardAlpha"/>
<feOffset dy="2.10425"/>
<feComposite in2="hardAlpha" operator="out"/>
<feColorMatrix type="matrix" values="0 0 0 0 0 0 0 0 0 0 0 0 0 0 0 0 0 0 1 0"/>
<feBlend mode="normal" in2="BackgroundImageFix" result="effect1_dropShadow_65_1015"/>
<feBlend mode="normal" in="SourceGraphic" in2="effect1_dropShadow_65_1015" result="shape"/>
<feColorMatrix in="SourceAlpha" type="matrix" values="0 0 0 0 0 0 0 0 0 0 0 0 0 0 0 0 0 0 127 0" result="hardAlpha"/>
<feOffset dx="-0.601213" dy="6.01213"/>
<feComposite in2="hardAlpha" operator="arithmetic" k2="-1" k3="1"/>
<feColorMatrix type="matrix" values="0 0 0 0 0.0156863 0 0 0 0 1 0 0 0 0 0.0196078 0 0 0 1 0"/>
<feBlend mode="normal" in2="shape" result="effect2_innerShadow_65_1015"/>
</filter>
<filter id="filter4_d_65_1015" x="21.4233" y="19.5919" width="15.3066" height="31.8643" filterUnits="userSpaceOnUse" color-interpolation-filters="sRGB">
<feFlood flood-opacity="0" result="BackgroundImageFix"/>
<feColorMatrix in="SourceAlpha" type="matrix" values="0 0 0 0 0 0 0 0 0 0 0 0 0 0 0 0 0 0 127 0" result="hardAlpha"/>
<feOffset dy="3.60728"/>
<feComposite in2="hardAlpha" operator="out"/>
<feColorMatrix type="matrix" values="0 0 0 0 0 0 0 0 0 0 0 0 0 0 0 0 0 0 1 0"/>
<feBlend mode="normal" in2="BackgroundImageFix" result="effect1_dropShadow_65_1015"/>
<feBlend mode="normal" in="SourceGraphic" in2="effect1_dropShadow_65_1015" result="shape"/>
</filter>
</defs>
</svg>
