<svg width="642" height="63" viewBox="0 0 642 63" fill="none" xmlns="http://www.w3.org/2000/svg">
<path d="M8.8166 18.25C6.48327 18.25 4.57494 17.4833 3.0916 15.95C1.62493 14.4167 0.891602 12.1833 0.891602 9.25C0.891602 6.3 1.63327 4.06667 3.1166 2.55C4.6166 1.03333 6.5416 0.274999 8.8916 0.274999C11.2583 0.274999 13.1666 1.025 14.6166 2.525C16.0666 4.00833 16.7916 6.26667 16.7916 9.3C16.7916 12.3167 16.0499 14.5667 14.5666 16.05C13.0833 17.5167 11.1666 18.25 8.8166 18.25ZM8.8416 5.075C8.0416 5.075 7.3666 5.44167 6.8166 6.175C6.28327 6.90833 6.0166 7.94167 6.0166 9.275C6.0166 10.5917 6.27494 11.6083 6.7916 12.325C7.30827 13.025 7.98327 13.375 8.8166 13.375C9.6666 13.375 10.3499 13.0167 10.8666 12.3C11.3999 11.5833 11.6666 10.5583 11.6666 9.225C11.6666 7.89167 11.3916 6.86667 10.8416 6.15C10.3083 5.43333 9.6416 5.075 8.8416 5.075ZM23.7738 17.85C23.7738 17.9667 23.1738 18.025 21.9738 18.025C20.3072 17.975 19.4738 17.8833 19.4738 17.75V9.65H18.8238C18.3905 9.65 18.1072 9.28333 17.9738 8.55C17.9405 8.33333 17.9238 8.11667 17.9238 7.9C17.9238 7.38333 18.0238 6.86667 18.2238 6.35C18.5238 5.61667 18.9905 5.25 19.6238 5.25C20.2572 5.25 20.8238 5.4 21.3238 5.7C21.8238 6 22.1572 6.3 22.3238 6.6C23.3738 5.7 24.6238 5.25 26.0738 5.25C27.5238 5.25 28.5738 5.64167 29.2238 6.425C29.8738 7.20833 30.1988 8.49167 30.1988 10.275V17.775C30.1988 17.975 29.4822 18.075 28.0488 18.075C26.6322 18.075 25.9238 17.975 25.9238 17.775V10.55C25.9238 9.71667 25.6322 9.3 25.0488 9.3C24.8822 9.3 24.6488 9.375 24.3488 9.525C24.0488 9.65833 23.8572 9.75833 23.7738 9.825V17.85ZM36.2934 11.8C36.2934 13.4333 36.91 14.25 38.1434 14.25C38.9434 14.25 39.61 14.0917 40.1434 13.775C40.3934 13.775 40.5934 14.2083 40.7434 15.075C40.91 15.925 40.9934 16.5083 40.9934 16.825C40.9934 17.125 40.9517 17.325 40.8684 17.425C39.985 17.975 38.7767 18.25 37.2434 18.25C35.71 18.25 34.4017 17.6833 33.3184 16.55C32.2517 15.4 31.7184 13.8417 31.7184 11.875C31.7184 9.89167 32.2434 8.29167 33.2934 7.075C34.36 5.85833 35.7684 5.25 37.5184 5.25C39.285 5.25 40.51 5.675 41.1934 6.525C41.3434 6.70833 41.4184 6.98333 41.4184 7.35C41.4184 7.7 41.3517 8.13333 41.2184 8.65C40.9184 9.71667 40.5267 10.3333 40.0434 10.5C39.9767 10.5167 39.8767 10.525 39.7434 10.525C39.6267 10.525 39.4767 10.425 39.2934 10.225C38.6434 9.575 38.1184 9.25 37.7184 9.25C37.335 9.25 37.0017 9.45 36.7184 9.85C36.435 10.25 36.2934 10.9 36.2934 11.8ZM52.1141 17.325C51.0641 17.9417 49.7141 18.25 48.0641 18.25C46.4141 18.25 45.0224 17.6917 43.8891 16.575C42.7557 15.4417 42.1891 13.8833 42.1891 11.9C42.1891 9.9 42.7307 8.29167 43.8141 7.075C44.9141 5.85833 46.2974 5.25 47.9641 5.25C49.6307 5.25 50.9141 5.675 51.8141 6.525C52.7307 7.375 53.1891 8.40833 53.1891 9.625C53.1891 12.325 51.6391 13.675 48.5391 13.675H46.8141C46.8141 14.175 46.9474 14.525 47.2141 14.725C47.4974 14.9083 47.9057 15 48.4391 15C49.6057 15 50.7141 14.7333 51.7641 14.2C51.7807 14.1833 51.8557 14.3 51.9891 14.55C52.3891 15.2667 52.5891 15.875 52.5891 16.375C52.5891 16.8583 52.4307 17.175 52.1141 17.325ZM48.9891 10.1C48.9891 9.4 48.6474 9.05 47.9641 9.05C47.6474 9.05 47.3724 9.15 47.1391 9.35C46.9224 9.53333 46.8141 9.80833 46.8141 10.175V10.95H48.1641C48.7141 10.95 48.9891 10.6667 48.9891 10.1ZM58.4092 5.625C58.4092 5.44167 59.1675 5.35 60.6842 5.35C62.2175 5.35 63.0092 5.43333 63.0592 5.6L64.8592 11.5L66.5842 5.55C66.6508 5.41667 67.1675 5.35 68.1342 5.35C70.3508 5.35 71.4092 5.45833 71.3092 5.675L65.4342 22.4C65.4175 22.5 64.9592 22.55 64.0592 22.55C63.1758 22.55 62.3508 22.5167 61.5842 22.45C60.8175 22.4 60.4508 22.3333 60.4842 22.25L62.6592 17L58.4092 5.625ZM73.6619 16.525C72.6286 15.375 72.1119 13.7833 72.1119 11.75C72.1119 9.71667 72.6286 8.125 73.6619 6.975C74.7119 5.825 76.1202 5.25 77.8869 5.25C79.6536 5.25 81.0536 5.825 82.0869 6.975C83.1202 8.125 83.6369 9.71667 83.6369 11.75C83.6369 13.7833 83.1202 15.375 82.0869 16.525C81.0536 17.675 79.6536 18.25 77.8869 18.25C76.1202 18.25 74.7119 17.675 73.6619 16.525ZM77.8869 9.425C76.9536 9.425 76.4869 10.1917 76.4869 11.725C76.4869 13.2583 76.9536 14.025 77.8869 14.025C78.8369 14.025 79.3119 13.2583 79.3119 11.725C79.3119 10.1917 78.8369 9.425 77.8869 9.425ZM85.1543 5.65C85.1543 5.46667 85.871 5.375 87.3043 5.375C88.7376 5.375 89.4543 5.46667 89.4543 5.65V12.95C89.4543 13.7833 89.721 14.2 90.2543 14.2C90.6543 14.2 91.1043 14.025 91.6043 13.675V5.65C91.6043 5.48333 92.3126 5.4 93.7293 5.4C95.146 5.4 95.8543 5.48333 95.8543 5.65V13.85H96.5043C97.071 13.85 97.3543 14.3917 97.3543 15.475C97.3543 16.025 97.2376 16.5833 97.0043 17.15C96.671 17.8833 96.221 18.25 95.6543 18.25C94.5376 18.25 93.7126 17.7917 93.1793 16.875L93.1543 16.9C92.1376 17.8 91.046 18.25 89.8793 18.25C88.2626 18.25 87.071 17.85 86.3043 17.05C85.5376 16.2333 85.1543 14.8917 85.1543 13.025V5.65ZM107.44 11.8C107.44 13.4333 108.057 14.25 109.29 14.25C110.09 14.25 110.757 14.0917 111.29 13.775C111.54 13.775 111.74 14.2083 111.89 15.075C112.057 15.925 112.14 16.5083 112.14 16.825C112.14 17.125 112.098 17.325 112.015 17.425C111.132 17.975 109.923 18.25 108.39 18.25C106.857 18.25 105.548 17.6833 104.465 16.55C103.398 15.4 102.865 13.8417 102.865 11.875C102.865 9.89167 103.39 8.29167 104.44 7.075C105.507 5.85833 106.915 5.25 108.665 5.25C110.432 5.25 111.657 5.675 112.34 6.525C112.49 6.70833 112.565 6.98333 112.565 7.35C112.565 7.7 112.498 8.13333 112.365 8.65C112.065 9.71667 111.673 10.3333 111.19 10.5C111.123 10.5167 111.023 10.525 110.89 10.525C110.773 10.525 110.623 10.425 110.44 10.225C109.79 9.575 109.265 9.25 108.865 9.25C108.482 9.25 108.148 9.45 107.865 9.85C107.582 10.25 107.44 10.9 107.44 11.8ZM114.886 16.525C113.852 15.375 113.336 13.7833 113.336 11.75C113.336 9.71667 113.852 8.125 114.886 6.975C115.936 5.825 117.344 5.25 119.111 5.25C120.877 5.25 122.277 5.825 123.311 6.975C124.344 8.125 124.861 9.71667 124.861 11.75C124.861 13.7833 124.344 15.375 123.311 16.525C122.277 17.675 120.877 18.25 119.111 18.25C117.344 18.25 115.936 17.675 114.886 16.525ZM119.111 9.425C118.177 9.425 117.711 10.1917 117.711 11.725C117.711 13.2583 118.177 14.025 119.111 14.025C120.061 14.025 120.536 13.2583 120.536 11.725C120.536 10.1917 120.061 9.425 119.111 9.425ZM131.728 17.85C131.728 17.9667 131.128 18.025 129.928 18.025C128.261 17.975 127.428 17.8833 127.428 17.75V9.65H126.778C126.345 9.65 126.061 9.28333 125.928 8.55C125.895 8.33333 125.878 8.11667 125.878 7.9C125.878 7.38333 125.978 6.86667 126.178 6.35C126.478 5.61667 126.945 5.25 127.578 5.25C128.211 5.25 128.778 5.4 129.278 5.7C129.778 6 130.111 6.3 130.278 6.6C131.328 5.7 132.578 5.25 134.028 5.25C135.478 5.25 136.528 5.64167 137.178 6.425C137.828 7.20833 138.153 8.49167 138.153 10.275V17.775C138.153 17.975 137.436 18.075 136.003 18.075C134.586 18.075 133.878 17.975 133.878 17.775V10.55C133.878 9.71667 133.586 9.3 133.003 9.3C132.836 9.3 132.603 9.375 132.303 9.525C132.003 9.65833 131.811 9.75833 131.728 9.825V17.85ZM141.122 8.825H139.897C139.647 8.825 139.522 8.275 139.522 7.175C139.522 6.05833 139.647 5.5 139.897 5.5H141.122V4.95C141.122 3.18333 141.489 1.96667 142.222 1.3C142.972 0.616665 144.014 0.274999 145.347 0.274999C146.681 0.274999 147.856 0.516666 148.872 1C149.006 1.05 149.072 1.23333 149.072 1.55C149.072 1.85 148.931 2.34167 148.647 3.025C148.364 3.70833 148.122 4.1 147.922 4.2C147.356 3.85 146.772 3.675 146.172 3.675C145.522 3.675 145.197 4.10833 145.197 4.975V5.5H147.272C147.572 5.5 147.722 6.03333 147.722 7.1C147.722 8.26667 147.531 8.85 147.147 8.85H145.547V17.7C145.547 17.9 144.806 18 143.322 18C141.856 18 141.122 17.9 141.122 17.7V8.825ZM153.972 17.85C153.972 17.9833 153.206 18.05 151.672 18.05C150.156 18.05 149.397 17.9917 149.397 17.875V5.6C149.397 5.48333 150.156 5.425 151.672 5.425C153.206 5.425 153.972 5.475 153.972 5.575V17.85ZM153.972 4.1C153.972 4.21667 153.206 4.275 151.672 4.275C150.156 4.275 149.397 4.225 149.397 4.125V0.524998C149.397 0.358332 150.156 0.274999 151.672 0.274999C153.206 0.274999 153.972 0.324999 153.972 0.425V4.1ZM161.583 17.975C161.583 18.0917 160.825 18.15 159.308 18.15C157.792 18.1167 157.033 18.05 157.033 17.95V9.65H156.358C156.092 9.65 155.875 9.49167 155.708 9.175C155.558 8.84167 155.483 8.43333 155.483 7.95C155.483 6.15 156.017 5.25 157.083 5.25C157.833 5.25 158.458 5.48333 158.958 5.95C159.458 6.4 159.708 6.91667 159.708 7.5C160.058 6.81667 160.525 6.275 161.108 5.875C161.708 5.45833 162.317 5.25 162.933 5.25C163.9 5.25 164.483 5.5 164.683 6C164.733 6.13333 164.758 6.33333 164.758 6.6C164.758 6.85 164.675 7.30833 164.508 7.975C164.358 8.64167 164.2 9.125 164.033 9.425C163.867 9.725 163.767 9.875 163.733 9.875C163.7 9.875 163.542 9.81667 163.258 9.7C162.992 9.56667 162.75 9.5 162.533 9.5C161.9 9.5 161.583 10 161.583 11V17.975ZM177.221 17.875C177.221 17.9917 176.504 18.05 175.071 18.05C173.654 18.05 172.946 17.975 172.946 17.825V10.55C172.946 9.71667 172.671 9.3 172.121 9.3C171.837 9.3 171.462 9.48333 170.996 9.85V17.85C170.996 18.0167 170.279 18.1 168.846 18.1C167.429 18.1 166.721 18.0083 166.721 17.825V9.65H166.096C165.546 9.65 165.271 9.075 165.271 7.925C165.271 7.40833 165.371 6.88333 165.571 6.35C165.837 5.61667 166.271 5.25 166.871 5.25C167.471 5.25 168.046 5.40833 168.596 5.725C169.162 6.04167 169.504 6.34167 169.621 6.625C170.654 5.70833 171.796 5.25 173.046 5.25C174.312 5.25 175.329 5.64167 176.096 6.425C176.996 5.64167 178.079 5.25 179.346 5.25C182.096 5.25 183.471 6.925 183.471 10.275V17.875C183.471 17.9917 182.754 18.05 181.321 18.05C179.904 18.05 179.196 17.975 179.196 17.825V10.55C179.196 9.71667 178.921 9.3 178.371 9.3C178.071 9.3 177.687 9.48333 177.221 9.85V17.875ZM187.348 14.3C187.448 14.0333 188.156 13.9 189.473 13.9C190.789 13.9 191.448 14.075 191.448 14.425L191.398 16.55L189.948 19.95C189.731 20.4333 189.056 20.675 187.923 20.675C186.806 20.675 186.098 20.4917 185.798 20.125C185.731 20.0417 185.698 19.9583 185.698 19.875C185.698 19.8083 185.706 19.7417 185.723 19.675L187.248 16.575L187.348 14.3ZM196.677 5.625C196.677 5.44167 197.435 5.35 198.952 5.35C200.485 5.35 201.277 5.43333 201.327 5.6L203.127 11.5L204.852 5.55C204.918 5.41667 205.435 5.35 206.402 5.35C208.618 5.35 209.677 5.45833 209.577 5.675L203.702 22.4C203.685 22.5 203.227 22.55 202.327 22.55C201.443 22.55 200.618 22.5167 199.852 22.45C199.085 22.4 198.718 22.3333 198.752 22.25L200.927 17L196.677 5.625ZM211.929 16.525C210.896 15.375 210.379 13.7833 210.379 11.75C210.379 9.71667 210.896 8.125 211.929 6.975C212.979 5.825 214.388 5.25 216.154 5.25C217.921 5.25 219.321 5.825 220.354 6.975C221.388 8.125 221.904 9.71667 221.904 11.75C221.904 13.7833 221.388 15.375 220.354 16.525C219.321 17.675 217.921 18.25 216.154 18.25C214.388 18.25 212.979 17.675 211.929 16.525ZM216.154 9.425C215.221 9.425 214.754 10.1917 214.754 11.725C214.754 13.2583 215.221 14.025 216.154 14.025C217.104 14.025 217.579 13.2583 217.579 11.725C217.579 10.1917 217.104 9.425 216.154 9.425ZM223.422 5.65C223.422 5.46667 224.139 5.375 225.572 5.375C227.005 5.375 227.722 5.46667 227.722 5.65V12.95C227.722 13.7833 227.989 14.2 228.522 14.2C228.922 14.2 229.372 14.025 229.872 13.675V5.65C229.872 5.48333 230.58 5.4 231.997 5.4C233.414 5.4 234.122 5.48333 234.122 5.65V13.85H234.772C235.339 13.85 235.622 14.3917 235.622 15.475C235.622 16.025 235.505 16.5833 235.272 17.15C234.939 17.8833 234.489 18.25 233.922 18.25C232.805 18.25 231.98 17.7917 231.447 16.875L231.422 16.9C230.405 17.8 229.314 18.25 228.147 18.25C226.53 18.25 225.339 17.85 224.572 17.05C223.805 16.2333 223.422 14.8917 223.422 13.025V5.65ZM242.496 17.975C242.496 18.0917 241.737 18.15 240.221 18.15C238.704 18.1167 237.946 18.05 237.946 17.95V9.65H237.271C237.004 9.65 236.787 9.49167 236.621 9.175C236.471 8.84167 236.396 8.43333 236.396 7.95C236.396 6.15 236.929 5.25 237.996 5.25C238.746 5.25 239.371 5.48333 239.871 5.95C240.371 6.4 240.621 6.91667 240.621 7.5C240.971 6.81667 241.437 6.275 242.021 5.875C242.621 5.45833 243.229 5.25 243.846 5.25C244.812 5.25 245.396 5.5 245.596 6C245.646 6.13333 245.671 6.33333 245.671 6.6C245.671 6.85 245.587 7.30833 245.421 7.975C245.271 8.64167 245.112 9.125 244.946 9.425C244.779 9.725 244.679 9.875 244.646 9.875C244.612 9.875 244.454 9.81667 244.171 9.7C243.904 9.56667 243.662 9.5 243.446 9.5C242.812 9.5 242.496 10 242.496 11V17.975ZM252.37 8.825H251.145C250.895 8.825 250.77 8.275 250.77 7.175C250.77 6.05833 250.895 5.5 251.145 5.5H252.37V4.95C252.37 3.18333 252.736 1.96667 253.47 1.3C254.22 0.616665 255.261 0.274999 256.595 0.274999C257.928 0.274999 259.103 0.516666 260.12 1C260.253 1.05 260.32 1.23333 260.32 1.55C260.32 1.85 260.178 2.34167 259.895 3.025C259.611 3.70833 259.37 4.1 259.17 4.2C258.603 3.85 258.02 3.675 257.42 3.675C256.77 3.675 256.445 4.10833 256.445 4.975V5.5H258.52C258.82 5.5 258.97 6.03333 258.97 7.1C258.97 8.26667 258.778 8.85 258.395 8.85H256.795V17.7C256.795 17.9 256.053 18 254.57 18C253.103 18 252.37 17.9 252.37 17.7V8.825ZM259.885 5.65C259.885 5.46667 260.601 5.375 262.035 5.375C263.468 5.375 264.185 5.46667 264.185 5.65V12.95C264.185 13.7833 264.451 14.2 264.985 14.2C265.385 14.2 265.835 14.025 266.335 13.675V5.65C266.335 5.48333 267.043 5.4 268.46 5.4C269.876 5.4 270.585 5.48333 270.585 5.65V13.85H271.235C271.801 13.85 272.085 14.3917 272.085 15.475C272.085 16.025 271.968 16.5833 271.735 17.15C271.401 17.8833 270.951 18.25 270.385 18.25C269.268 18.25 268.443 17.7917 267.91 16.875L267.885 16.9C266.868 17.8 265.776 18.25 264.61 18.25C262.993 18.25 261.801 17.85 261.035 17.05C260.268 16.2333 259.885 14.8917 259.885 13.025V5.65ZM278.708 17.85C278.708 17.9667 278.108 18.025 276.908 18.025C275.242 17.975 274.408 17.8833 274.408 17.75V9.65H273.758C273.325 9.65 273.042 9.28333 272.908 8.55C272.875 8.33333 272.858 8.11667 272.858 7.9C272.858 7.38333 272.958 6.86667 273.158 6.35C273.458 5.61667 273.925 5.25 274.558 5.25C275.192 5.25 275.758 5.4 276.258 5.7C276.758 6 277.092 6.3 277.258 6.6C278.308 5.7 279.558 5.25 281.008 5.25C282.458 5.25 283.508 5.64167 284.158 6.425C284.808 7.20833 285.133 8.49167 285.133 10.275V17.775C285.133 17.975 284.417 18.075 282.983 18.075C281.567 18.075 280.858 17.975 280.858 17.775V10.55C280.858 9.71667 280.567 9.3 279.983 9.3C279.817 9.3 279.583 9.375 279.283 9.525C278.983 9.65833 278.792 9.75833 278.708 9.825V17.85ZM293.453 0.65C293.453 0.399999 294.111 0.274999 295.428 0.274999C295.878 0.274999 296.395 0.308332 296.978 0.374999C297.578 0.424999 297.878 0.499999 297.878 0.599999V13.775H298.753C299.17 13.775 299.445 14.15 299.578 14.9C299.611 15.1167 299.628 15.4167 299.628 15.8C299.628 16.1667 299.511 16.6167 299.278 17.15C298.945 17.8833 298.411 18.25 297.678 18.25C297.128 18.25 296.636 18.1417 296.203 17.925C295.786 17.7083 295.503 17.4833 295.353 17.25L295.128 16.925C294.211 17.8083 293.061 18.25 291.678 18.25C290.295 18.25 289.111 17.675 288.128 16.525C287.145 15.375 286.653 13.775 286.653 11.725C286.653 9.65833 287.17 8.06667 288.203 6.95C289.236 5.81667 290.528 5.25 292.078 5.25C292.528 5.25 292.986 5.3 293.453 5.4V0.65ZM292.628 9.25C291.695 9.25 291.228 10.0917 291.228 11.775C291.228 12.625 291.361 13.2417 291.628 13.625C291.895 13.9917 292.186 14.175 292.503 14.175C292.836 14.175 293.153 14.0333 293.453 13.75V9.5C293.17 9.33333 292.895 9.25 292.628 9.25ZM301.664 13.5C303.014 14.3167 304.08 14.725 304.864 14.725C305.364 14.725 305.614 14.55 305.614 14.2C305.614 13.95 305.18 13.625 304.314 13.225C302.23 12.375 301.189 10.9833 301.189 9.05C301.189 7.81667 301.639 6.875 302.539 6.225C303.439 5.575 304.514 5.25 305.764 5.25C307.03 5.25 308.097 5.38333 308.964 5.65C309.847 5.91667 310.289 6.26667 310.289 6.7C310.289 7.06667 310.105 7.55 309.739 8.15C309.389 8.75 309.147 9.075 309.014 9.125C308.297 8.725 307.522 8.525 306.689 8.525C306.239 8.525 306.014 8.68333 306.014 9C306.014 9.2 306.097 9.375 306.264 9.525C306.447 9.65833 306.772 9.83333 307.239 10.05C307.705 10.25 308.089 10.4333 308.389 10.6C308.705 10.7667 309.055 11 309.439 11.3C310.239 11.9333 310.639 12.7583 310.639 13.775C310.639 15.1083 310.197 16.1917 309.314 17.025C308.43 17.8417 307.097 18.25 305.314 18.25C304.13 18.25 303.055 18.05 302.089 17.65C301.122 17.25 300.639 16.7 300.639 16C300.639 15.5333 300.747 15.0417 300.964 14.525C301.197 14.0083 301.43 13.6667 301.664 13.5ZM329.83 5.625C329.83 5.475 330.289 5.4 331.205 5.4C333.272 5.4 334.289 5.46667 334.255 5.6L331.805 17.75C331.755 18.0167 330.83 18.15 329.03 18.15C327.23 18.15 326.305 18.0167 326.255 17.75L325.23 12.15L323.955 17.75C323.905 18 322.947 18.125 321.08 18.125C319.23 18.125 318.28 17.975 318.23 17.675L316.005 5.5C315.955 5.4 316.672 5.35 318.155 5.35C319.622 5.36667 320.355 5.4 320.355 5.45L321.505 13.9L323.58 5.55C323.614 5.45 324.164 5.4 325.23 5.4C326.297 5.4 326.847 5.45 326.88 5.55L328.93 13.8L329.83 5.625ZM340.104 17.85C340.104 17.9833 339.338 18.05 337.804 18.05C336.288 18.05 335.529 17.9917 335.529 17.875V5.6C335.529 5.48333 336.288 5.425 337.804 5.425C339.338 5.425 340.104 5.475 340.104 5.575V17.85ZM340.104 4.1C340.104 4.21667 339.338 4.275 337.804 4.275C336.288 4.275 335.529 4.225 335.529 4.125V0.524998C335.529 0.358332 336.288 0.274999 337.804 0.274999C339.338 0.274999 340.104 0.324999 340.104 0.425V4.1ZM346.79 17.8C346.79 17.95 345.94 18.025 344.24 18.025C342.907 18.0083 342.24 17.9417 342.24 17.825V0.799999C342.24 0.55 343.049 0.425 344.665 0.425C346.082 0.474999 346.79 0.558332 346.79 0.675V17.8ZM353.477 17.8C353.477 17.95 352.627 18.025 350.927 18.025C349.593 18.0083 348.927 17.9417 348.927 17.825V0.799999C348.927 0.55 349.735 0.425 351.352 0.425C352.768 0.474999 353.477 0.558332 353.477 0.675V17.8ZM360.325 0.574999C360.325 0.374999 361.042 0.274999 362.475 0.274999C363.925 0.274999 364.65 0.383332 364.65 0.599999V5.45C365.367 5.31667 365.875 5.25 366.175 5.25C369.675 5.25 371.425 7.25833 371.425 11.275C371.425 13.5083 370.884 15.2333 369.8 16.45C368.734 17.65 367.209 18.25 365.225 18.25C363.259 18.25 361.625 17.8083 360.325 16.925V0.574999ZM365.475 9.15C365.192 9.15 364.917 9.24167 364.65 9.425V14.2C364.884 14.3 365.125 14.35 365.375 14.35C365.642 14.35 365.909 14.25 366.175 14.05C366.642 13.7167 366.875 12.9417 366.875 11.725C366.875 10.0083 366.409 9.15 365.475 9.15ZM382.513 17.325C381.463 17.9417 380.113 18.25 378.463 18.25C376.813 18.25 375.422 17.6917 374.288 16.575C373.155 15.4417 372.588 13.8833 372.588 11.9C372.588 9.9 373.13 8.29167 374.213 7.075C375.313 5.85833 376.697 5.25 378.363 5.25C380.03 5.25 381.313 5.675 382.213 6.525C383.13 7.375 383.588 8.40833 383.588 9.625C383.588 12.325 382.038 13.675 378.938 13.675H377.213C377.213 14.175 377.347 14.525 377.613 14.725C377.897 14.9083 378.305 15 378.838 15C380.005 15 381.113 14.7333 382.163 14.2C382.18 14.1833 382.255 14.3 382.388 14.55C382.788 15.2667 382.988 15.875 382.988 16.375C382.988 16.8583 382.83 17.175 382.513 17.325ZM379.388 10.1C379.388 9.4 379.047 9.05 378.363 9.05C378.047 9.05 377.772 9.15 377.538 9.35C377.322 9.53333 377.213 9.80833 377.213 10.175V10.95H378.563C379.113 10.95 379.388 10.6667 379.388 10.1ZM391.259 8.925C390.792 8.09167 390.559 7.41667 390.559 6.9C390.559 6.36667 390.7 6.025 390.984 5.875C391.934 5.45833 393.234 5.25 394.884 5.25C396.55 5.25 397.725 5.64167 398.409 6.425C399.092 7.19167 399.434 8.33333 399.434 9.85V13.8H400.284C400.567 13.8 400.784 13.9667 400.934 14.3C401.1 14.6333 401.184 15.0917 401.184 15.675C401.184 16.2583 401.034 16.8333 400.734 17.4C400.45 17.9667 400.059 18.25 399.559 18.25C398.659 18.25 397.934 18.0083 397.384 17.525C397.134 17.325 396.942 17.0833 396.809 16.8C396.042 17.7667 394.85 18.25 393.234 18.25C392.017 18.25 390.992 17.8167 390.159 16.95C389.325 16.0833 388.909 15.0583 388.909 13.875C388.909 11.1583 390.534 9.8 393.784 9.8H395.159V9.55C395.159 9.11667 395.084 8.84167 394.934 8.725C394.8 8.59167 394.475 8.525 393.959 8.525C393.325 8.525 392.425 8.65833 391.259 8.925ZM393.259 13.525C393.259 13.8917 393.359 14.175 393.559 14.375C393.759 14.5583 394.009 14.65 394.309 14.65C394.625 14.65 394.909 14.525 395.159 14.275V12.35H394.459C393.659 12.35 393.259 12.7417 393.259 13.525ZM407.024 17.8C407.024 17.95 406.174 18.025 404.474 18.025C403.14 18.0083 402.474 17.9417 402.474 17.825V0.799999C402.474 0.55 403.282 0.425 404.899 0.425C406.315 0.474999 407.024 0.558332 407.024 0.675V17.8ZM413.71 17.8C413.71 17.95 412.86 18.025 411.16 18.025C409.827 18.0083 409.16 17.9417 409.16 17.825V0.799999C409.16 0.55 409.968 0.425 411.585 0.425C413.002 0.474999 413.71 0.558332 413.71 0.675V17.8ZM416.922 16.525C415.888 15.375 415.372 13.7833 415.372 11.75C415.372 9.71667 415.888 8.125 416.922 6.975C417.972 5.825 419.38 5.25 421.147 5.25C422.913 5.25 424.313 5.825 425.347 6.975C426.38 8.125 426.897 9.71667 426.897 11.75C426.897 13.7833 426.38 15.375 425.347 16.525C424.313 17.675 422.913 18.25 421.147 18.25C419.38 18.25 417.972 17.675 416.922 16.525ZM421.147 9.425C420.213 9.425 419.747 10.1917 419.747 11.725C419.747 13.2583 420.213 14.025 421.147 14.025C422.097 14.025 422.572 13.2583 422.572 11.725C422.572 10.1917 422.097 9.425 421.147 9.425ZM432.639 11.8C432.639 13.4333 433.256 14.25 434.489 14.25C435.289 14.25 435.956 14.0917 436.489 13.775C436.739 13.775 436.939 14.2083 437.089 15.075C437.256 15.925 437.339 16.5083 437.339 16.825C437.339 17.125 437.297 17.325 437.214 17.425C436.331 17.975 435.122 18.25 433.589 18.25C432.056 18.25 430.747 17.6833 429.664 16.55C428.597 15.4 428.064 13.8417 428.064 11.875C428.064 9.89167 428.589 8.29167 429.639 7.075C430.706 5.85833 432.114 5.25 433.864 5.25C435.631 5.25 436.856 5.675 437.539 6.525C437.689 6.70833 437.764 6.98333 437.764 7.35C437.764 7.7 437.697 8.13333 437.564 8.65C437.264 9.71667 436.872 10.3333 436.389 10.5C436.322 10.5167 436.222 10.525 436.089 10.525C435.972 10.525 435.822 10.425 435.639 10.225C434.989 9.575 434.464 9.25 434.064 9.25C433.681 9.25 433.347 9.45 433.064 9.85C432.781 10.25 432.639 10.9 432.639 11.8ZM440.585 8.925C440.118 8.09167 439.885 7.41667 439.885 6.9C439.885 6.36667 440.026 6.025 440.31 5.875C441.26 5.45833 442.56 5.25 444.21 5.25C445.876 5.25 447.051 5.64167 447.735 6.425C448.418 7.19167 448.76 8.33333 448.76 9.85V13.8H449.61C449.893 13.8 450.11 13.9667 450.26 14.3C450.426 14.6333 450.51 15.0917 450.51 15.675C450.51 16.2583 450.36 16.8333 450.06 17.4C449.776 17.9667 449.385 18.25 448.885 18.25C447.985 18.25 447.26 18.0083 446.71 17.525C446.46 17.325 446.268 17.0833 446.135 16.8C445.368 17.7667 444.176 18.25 442.56 18.25C441.343 18.25 440.318 17.8167 439.485 16.95C438.651 16.0833 438.235 15.0583 438.235 13.875C438.235 11.1583 439.86 9.8 443.11 9.8H444.485V9.55C444.485 9.11667 444.41 8.84167 444.26 8.725C444.126 8.59167 443.801 8.525 443.285 8.525C442.651 8.525 441.751 8.65833 440.585 8.925ZM442.585 13.525C442.585 13.8917 442.685 14.175 442.885 14.375C443.085 14.5583 443.335 14.65 443.635 14.65C443.951 14.65 444.235 14.525 444.485 14.275V12.35H443.785C442.985 12.35 442.585 12.7417 442.585 13.525ZM457.55 17.85C457.55 18.05 456.85 18.15 455.45 18.15C453.783 18.0833 452.95 17.975 452.95 17.825V8.975H451.675C451.341 8.975 451.175 8.4 451.175 7.25C451.175 6.95 451.2 6.58333 451.25 6.15C451.316 5.71667 451.441 5.5 451.625 5.5H452.95V3.3C452.95 2.96667 453.65 2.8 455.05 2.8C456.466 2.8 457.175 2.93333 457.175 3.2V4.8L457.2 5.5H459.325C459.608 5.5 459.75 6.08333 459.75 7.25C459.75 8.41667 459.608 9 459.325 9H457.55V17.85ZM470.329 17.325C469.279 17.9417 467.929 18.25 466.279 18.25C464.629 18.25 463.237 17.6917 462.104 16.575C460.971 15.4417 460.404 13.8833 460.404 11.9C460.404 9.9 460.946 8.29167 462.029 7.075C463.129 5.85833 464.512 5.25 466.179 5.25C467.846 5.25 469.129 5.675 470.029 6.525C470.946 7.375 471.404 8.40833 471.404 9.625C471.404 12.325 469.854 13.675 466.754 13.675H465.029C465.029 14.175 465.162 14.525 465.429 14.725C465.712 14.9083 466.121 15 466.654 15C467.821 15 468.929 14.7333 469.979 14.2C469.996 14.1833 470.071 14.3 470.204 14.55C470.604 15.2667 470.804 15.875 470.804 16.375C470.804 16.8583 470.646 17.175 470.329 17.325ZM467.204 10.1C467.204 9.4 466.862 9.05 466.179 9.05C465.862 9.05 465.587 9.15 465.354 9.35C465.137 9.53333 465.029 9.80833 465.029 10.175V10.95H466.379C466.929 10.95 467.204 10.6667 467.204 10.1ZM479.237 0.65C479.237 0.399999 479.895 0.274999 481.212 0.274999C481.662 0.274999 482.179 0.308332 482.762 0.374999C483.362 0.424999 483.662 0.499999 483.662 0.599999V13.775H484.537C484.954 13.775 485.229 14.15 485.362 14.9C485.395 15.1167 485.412 15.4167 485.412 15.8C485.412 16.1667 485.295 16.6167 485.062 17.15C484.729 17.8833 484.195 18.25 483.462 18.25C482.912 18.25 482.42 18.1417 481.987 17.925C481.57 17.7083 481.287 17.4833 481.137 17.25L480.912 16.925C479.995 17.8083 478.845 18.25 477.462 18.25C476.079 18.25 474.895 17.675 473.912 16.525C472.929 15.375 472.437 13.775 472.437 11.725C472.437 9.65833 472.954 8.06667 473.987 6.95C475.02 5.81667 476.312 5.25 477.862 5.25C478.312 5.25 478.77 5.3 479.237 5.4V0.65ZM478.412 9.25C477.479 9.25 477.012 10.0917 477.012 11.775C477.012 12.625 477.145 13.2417 477.412 13.625C477.679 13.9917 477.97 14.175 478.287 14.175C478.62 14.175 478.937 14.0333 479.237 13.75V9.5C478.954 9.33333 478.679 9.25 478.412 9.25ZM493.085 8.925C492.618 8.09167 492.385 7.41667 492.385 6.9C492.385 6.36667 492.526 6.025 492.81 5.875C493.76 5.45833 495.06 5.25 496.71 5.25C498.376 5.25 499.551 5.64167 500.235 6.425C500.918 7.19167 501.26 8.33333 501.26 9.85V13.8H502.11C502.393 13.8 502.61 13.9667 502.76 14.3C502.926 14.6333 503.01 15.0917 503.01 15.675C503.01 16.2583 502.86 16.8333 502.56 17.4C502.276 17.9667 501.885 18.25 501.385 18.25C500.485 18.25 499.76 18.0083 499.21 17.525C498.96 17.325 498.768 17.0833 498.635 16.8C497.868 17.7667 496.676 18.25 495.06 18.25C493.843 18.25 492.818 17.8167 491.985 16.95C491.151 16.0833 490.735 15.0583 490.735 13.875C490.735 11.1583 492.36 9.8 495.61 9.8H496.985V9.55C496.985 9.11667 496.91 8.84167 496.76 8.725C496.626 8.59167 496.301 8.525 495.785 8.525C495.151 8.525 494.251 8.65833 493.085 8.925ZM495.085 13.525C495.085 13.8917 495.185 14.175 495.385 14.375C495.585 14.5583 495.835 14.65 496.135 14.65C496.451 14.65 496.735 14.525 496.985 14.275V12.35H496.285C495.485 12.35 495.085 12.7417 495.085 13.525ZM504.175 5.65C504.175 5.46667 504.891 5.375 506.325 5.375C507.758 5.375 508.475 5.46667 508.475 5.65V12.95C508.475 13.7833 508.741 14.2 509.275 14.2C509.675 14.2 510.125 14.025 510.625 13.675V5.65C510.625 5.48333 511.333 5.4 512.75 5.4C514.166 5.4 514.875 5.48333 514.875 5.65V13.85H515.525C516.091 13.85 516.375 14.3917 516.375 15.475C516.375 16.025 516.258 16.5833 516.025 17.15C515.691 17.8833 515.241 18.25 514.675 18.25C513.558 18.25 512.733 17.7917 512.2 16.875L512.175 16.9C511.158 17.8 510.066 18.25 508.9 18.25C507.283 18.25 506.091 17.85 505.325 17.05C504.558 16.2333 504.175 14.8917 504.175 13.025V5.65ZM523.523 17.85C523.523 18.05 522.823 18.15 521.423 18.15C519.757 18.0833 518.923 17.975 518.923 17.825V8.975H517.648C517.315 8.975 517.148 8.4 517.148 7.25C517.148 6.95 517.173 6.58333 517.223 6.15C517.29 5.71667 517.415 5.5 517.598 5.5H518.923V3.3C518.923 2.96667 519.623 2.8 521.023 2.8C522.44 2.8 523.148 2.93333 523.148 3.2V4.8L523.173 5.5H525.298C525.582 5.5 525.723 6.08333 525.723 7.25C525.723 8.41667 525.582 9 525.298 9H523.523V17.85ZM527.928 16.525C526.894 15.375 526.378 13.7833 526.378 11.75C526.378 9.71667 526.894 8.125 527.928 6.975C528.978 5.825 530.386 5.25 532.153 5.25C533.919 5.25 535.319 5.825 536.353 6.975C537.386 8.125 537.903 9.71667 537.903 11.75C537.903 13.7833 537.386 15.375 536.353 16.525C535.319 17.675 533.919 18.25 532.153 18.25C530.386 18.25 528.978 17.675 527.928 16.525ZM532.153 9.425C531.219 9.425 530.753 10.1917 530.753 11.725C530.753 13.2583 531.219 14.025 532.153 14.025C533.103 14.025 533.578 13.2583 533.578 11.725C533.578 10.1917 533.103 9.425 532.153 9.425ZM550.87 17.875C550.87 17.9917 550.153 18.05 548.72 18.05C547.303 18.05 546.595 17.975 546.595 17.825V10.55C546.595 9.71667 546.32 9.3 545.77 9.3C545.487 9.3 545.112 9.48333 544.645 9.85V17.85C544.645 18.0167 543.928 18.1 542.495 18.1C541.078 18.1 540.37 18.0083 540.37 17.825V9.65H539.745C539.195 9.65 538.92 9.075 538.92 7.925C538.92 7.40833 539.02 6.88333 539.22 6.35C539.487 5.61667 539.92 5.25 540.52 5.25C541.12 5.25 541.695 5.40833 542.245 5.725C542.812 6.04167 543.153 6.34167 543.27 6.625C544.303 5.70833 545.445 5.25 546.695 5.25C547.962 5.25 548.978 5.64167 549.745 6.425C550.645 5.64167 551.728 5.25 552.995 5.25C555.745 5.25 557.12 6.925 557.12 10.275V17.875C557.12 17.9917 556.403 18.05 554.97 18.05C553.553 18.05 552.845 17.975 552.845 17.825V10.55C552.845 9.71667 552.57 9.3 552.02 9.3C551.72 9.3 551.337 9.48333 550.87 9.85V17.875ZM560.697 8.925C560.23 8.09167 559.997 7.41667 559.997 6.9C559.997 6.36667 560.139 6.025 560.422 5.875C561.372 5.45833 562.672 5.25 564.322 5.25C565.989 5.25 567.164 5.64167 567.847 6.425C568.53 7.19167 568.872 8.33333 568.872 9.85V13.8H569.722C570.005 13.8 570.222 13.9667 570.372 14.3C570.539 14.6333 570.622 15.0917 570.622 15.675C570.622 16.2583 570.472 16.8333 570.172 17.4C569.889 17.9667 569.497 18.25 568.997 18.25C568.097 18.25 567.372 18.0083 566.822 17.525C566.572 17.325 566.38 17.0833 566.247 16.8C565.48 17.7667 564.289 18.25 562.672 18.25C561.455 18.25 560.43 17.8167 559.597 16.95C558.764 16.0833 558.347 15.0583 558.347 13.875C558.347 11.1583 559.972 9.8 563.222 9.8H564.597V9.55C564.597 9.11667 564.522 8.84167 564.372 8.725C564.239 8.59167 563.914 8.525 563.397 8.525C562.764 8.525 561.864 8.65833 560.697 8.925ZM562.697 13.525C562.697 13.8917 562.797 14.175 562.997 14.375C563.197 14.5583 563.447 14.65 563.747 14.65C564.064 14.65 564.347 14.525 564.597 14.275V12.35H563.897C563.097 12.35 562.697 12.7417 562.697 13.525ZM577.662 17.85C577.662 18.05 576.962 18.15 575.562 18.15C573.895 18.0833 573.062 17.975 573.062 17.825V8.975H571.787C571.454 8.975 571.287 8.4 571.287 7.25C571.287 6.95 571.312 6.58333 571.362 6.15C571.429 5.71667 571.554 5.5 571.737 5.5H573.062V3.3C573.062 2.96667 573.762 2.8 575.162 2.8C576.579 2.8 577.287 2.93333 577.287 3.2V4.8L577.312 5.5H579.437C579.72 5.5 579.862 6.08333 579.862 7.25C579.862 8.41667 579.72 9 579.437 9H577.662V17.85ZM585.566 17.85C585.566 17.9833 584.8 18.05 583.266 18.05C581.75 18.05 580.991 17.9917 580.991 17.875V5.6C580.991 5.48333 581.75 5.425 583.266 5.425C584.8 5.425 585.566 5.475 585.566 5.575V17.85ZM585.566 4.1C585.566 4.21667 584.8 4.275 583.266 4.275C581.75 4.275 580.991 4.225 580.991 4.125V0.524998C580.991 0.358332 581.75 0.274999 583.266 0.274999C584.8 0.274999 585.566 0.324999 585.566 0.425V4.1ZM591.802 11.8C591.802 13.4333 592.419 14.25 593.652 14.25C594.452 14.25 595.119 14.0917 595.652 13.775C595.902 13.775 596.102 14.2083 596.252 15.075C596.419 15.925 596.502 16.5083 596.502 16.825C596.502 17.125 596.46 17.325 596.377 17.425C595.494 17.975 594.285 18.25 592.752 18.25C591.219 18.25 589.91 17.6833 588.827 16.55C587.76 15.4 587.227 13.8417 587.227 11.875C587.227 9.89167 587.752 8.29167 588.802 7.075C589.869 5.85833 591.277 5.25 593.027 5.25C594.794 5.25 596.019 5.675 596.702 6.525C596.852 6.70833 596.927 6.98333 596.927 7.35C596.927 7.7 596.86 8.13333 596.727 8.65C596.427 9.71667 596.035 10.3333 595.552 10.5C595.485 10.5167 595.385 10.525 595.252 10.525C595.135 10.525 594.985 10.425 594.802 10.225C594.152 9.575 593.627 9.25 593.227 9.25C592.844 9.25 592.51 9.45 592.227 9.85C591.944 10.25 591.802 10.9 591.802 11.8ZM599.748 8.925C599.281 8.09167 599.048 7.41667 599.048 6.9C599.048 6.36667 599.19 6.025 599.473 5.875C600.423 5.45833 601.723 5.25 603.373 5.25C605.04 5.25 606.215 5.64167 606.898 6.425C607.581 7.19167 607.923 8.33333 607.923 9.85V13.8H608.773C609.056 13.8 609.273 13.9667 609.423 14.3C609.59 14.6333 609.673 15.0917 609.673 15.675C609.673 16.2583 609.523 16.8333 609.223 17.4C608.94 17.9667 608.548 18.25 608.048 18.25C607.148 18.25 606.423 18.0083 605.873 17.525C605.623 17.325 605.431 17.0833 605.298 16.8C604.531 17.7667 603.34 18.25 601.723 18.25C600.506 18.25 599.481 17.8167 598.648 16.95C597.815 16.0833 597.398 15.0583 597.398 13.875C597.398 11.1583 599.023 9.8 602.273 9.8H603.648V9.55C603.648 9.11667 603.573 8.84167 603.423 8.725C603.29 8.59167 602.965 8.525 602.448 8.525C601.815 8.525 600.915 8.65833 599.748 8.925ZM601.748 13.525C601.748 13.8917 601.848 14.175 602.048 14.375C602.248 14.5583 602.498 14.65 602.798 14.65C603.115 14.65 603.398 14.525 603.648 14.275V12.35H602.948C602.148 12.35 601.748 12.7417 601.748 13.525ZM615.513 17.8C615.513 17.95 614.663 18.025 612.963 18.025C611.63 18.0083 610.963 17.9417 610.963 17.825V0.799999C610.963 0.55 611.771 0.425 613.388 0.425C614.805 0.474999 615.513 0.558332 615.513 0.675V17.8ZM622.199 17.8C622.199 17.95 621.349 18.025 619.649 18.025C618.316 18.0083 617.649 17.9417 617.649 17.825V0.799999C617.649 0.55 618.458 0.425 620.074 0.425C621.491 0.474999 622.199 0.558332 622.199 0.675V17.8ZM623.461 5.625C623.461 5.44167 624.219 5.35 625.736 5.35C627.269 5.35 628.061 5.43333 628.111 5.6L629.911 11.5L631.636 5.55C631.703 5.41667 632.219 5.35 633.186 5.35C635.403 5.35 636.461 5.45833 636.361 5.675L630.486 22.4C630.469 22.5 630.011 22.55 629.111 22.55C628.228 22.55 627.403 22.5167 626.636 22.45C625.869 22.4 625.503 22.3333 625.536 22.25L627.711 17L623.461 5.625ZM641.739 18.075C641.739 18.1917 640.947 18.25 639.364 18.25C637.797 18.25 637.014 18.2 637.014 18.1V13.6C637.014 13.45 637.797 13.375 639.364 13.375C640.947 13.375 641.739 13.4167 641.739 13.5V18.075ZM25.5501 57.45C25.5501 57.8 24.7668 57.975 23.2001 57.975C21.6334 57.975 20.7834 57.85 20.6501 57.6L16.4751 49.8V57.575C16.4751 57.875 15.7001 58.025 14.1501 58.025C12.6168 58.025 11.8501 57.875 11.8501 57.575V40.85C11.8501 40.6 12.5084 40.475 13.8251 40.475C14.3418 40.475 14.9418 40.525 15.6251 40.625C16.3251 40.7083 16.7501 40.875 16.9001 41.125L20.9001 48.825V40.975C20.9001 40.6583 21.6751 40.5 23.2251 40.5C24.7751 40.5 25.5501 40.6583 25.5501 40.975V57.45ZM28.886 56.525C27.8527 55.375 27.336 53.7833 27.336 51.75C27.336 49.7167 27.8527 48.125 28.886 46.975C29.936 45.825 31.3444 45.25 33.111 45.25C34.8777 45.25 36.2777 45.825 37.311 46.975C38.3444 48.125 38.861 49.7167 38.861 51.75C38.861 53.7833 38.3444 55.375 37.311 56.525C36.2777 57.675 34.8777 58.25 33.111 58.25C31.3444 58.25 29.936 57.675 28.886 56.525ZM33.111 49.425C32.1777 49.425 31.711 50.1917 31.711 51.725C31.711 53.2583 32.1777 54.025 33.111 54.025C34.061 54.025 34.536 53.2583 34.536 51.725C34.536 50.1917 34.061 49.425 33.111 49.425ZM54.5403 57.325C53.4903 57.9417 52.1403 58.25 50.4903 58.25C48.8403 58.25 47.4487 57.6917 46.3153 56.575C45.182 55.4417 44.6153 53.8833 44.6153 51.9C44.6153 49.9 45.157 48.2917 46.2403 47.075C47.3403 45.8583 48.7237 45.25 50.3903 45.25C52.057 45.25 53.3403 45.675 54.2403 46.525C55.157 47.375 55.6153 48.4083 55.6153 49.625C55.6153 52.325 54.0653 53.675 50.9653 53.675H49.2403C49.2403 54.175 49.3737 54.525 49.6403 54.725C49.9237 54.9083 50.332 55 50.8653 55C52.032 55 53.1403 54.7333 54.1903 54.2C54.207 54.1833 54.282 54.3 54.4153 54.55C54.8153 55.2667 55.0153 55.875 55.0153 56.375C55.0153 56.8583 54.857 57.175 54.5403 57.325ZM51.4153 50.1C51.4153 49.4 51.0737 49.05 50.3903 49.05C50.0737 49.05 49.7987 49.15 49.5653 49.35C49.3487 49.5333 49.2403 49.8083 49.2403 50.175V50.95H50.5903C51.1403 50.95 51.4153 50.6667 51.4153 50.1ZM64.6235 45.575C64.6902 45.4417 65.1069 45.375 65.8735 45.375C68.3735 45.375 69.5902 45.4667 69.5235 45.65L66.4735 51.975C68.5235 55.8083 69.5485 57.725 69.5485 57.725C69.5485 57.825 69.0485 57.9083 68.0485 57.975C67.0485 58.0417 66.3402 58.075 65.9235 58.075C64.8735 58.075 64.3152 57.9667 64.2485 57.75L62.8985 53.575L61.3485 57.925C61.3152 58.0417 60.8402 58.1 59.9235 58.1C59.0069 58.1 58.1902 58.0667 57.4735 58C56.7569 57.9333 56.4319 57.85 56.4985 57.75L59.3235 52C57.3569 47.8833 56.3735 45.8167 56.3735 45.8C56.3735 45.7 56.6235 45.6083 57.1235 45.525C57.6402 45.4417 58.2152 45.4 58.8485 45.4C59.4985 45.4 60.1152 45.4333 60.6985 45.5C61.2819 45.55 61.6069 45.625 61.6735 45.725L62.9985 49.775L64.6235 45.575ZM76.6646 57.85C76.6646 58.05 75.9646 58.15 74.5646 58.15C72.8979 58.0833 72.0646 57.975 72.0646 57.825V48.975H70.7896C70.4562 48.975 70.2896 48.4 70.2896 47.25C70.2896 46.95 70.3146 46.5833 70.3646 46.15C70.4312 45.7167 70.5562 45.5 70.7396 45.5H72.0646V43.3C72.0646 42.9667 72.7646 42.8 74.1646 42.8C75.5812 42.8 76.2896 42.9333 76.2896 43.2V44.8L76.3146 45.5H78.4396C78.7229 45.5 78.8646 46.0833 78.8646 47.25C78.8646 48.4167 78.7229 49 78.4396 49H76.6646V57.85ZM85.4687 57.975C85.4687 58.0917 84.7103 58.15 83.1937 58.15C81.677 58.1167 80.9187 58.05 80.9187 57.95V49.65H80.2437C79.977 49.65 79.7603 49.4917 79.5937 49.175C79.4437 48.8417 79.3687 48.4333 79.3687 47.95C79.3687 46.15 79.902 45.25 80.9687 45.25C81.7187 45.25 82.3437 45.4833 82.8437 45.95C83.3437 46.4 83.5937 46.9167 83.5937 47.5C83.9437 46.8167 84.4103 46.275 84.9937 45.875C85.5937 45.4583 86.202 45.25 86.8187 45.25C87.7853 45.25 88.3687 45.5 88.5687 46C88.6187 46.1333 88.6437 46.3333 88.6437 46.6C88.6437 46.85 88.5603 47.3083 88.3937 47.975C88.2437 48.6417 88.0853 49.125 87.9187 49.425C87.752 49.725 87.652 49.875 87.6187 49.875C87.5853 49.875 87.427 49.8167 87.1437 49.7C86.877 49.5667 86.6353 49.5 86.4187 49.5C85.7853 49.5 85.4687 50 85.4687 51V57.975ZM91.3558 48.925C90.8891 48.0917 90.6558 47.4167 90.6558 46.9C90.6558 46.3667 90.7974 46.025 91.0808 45.875C92.0308 45.4583 93.3308 45.25 94.9808 45.25C96.6474 45.25 97.8224 45.6417 98.5058 46.425C99.1891 47.1917 99.5308 48.3333 99.5308 49.85V53.8H100.381C100.664 53.8 100.881 53.9667 101.031 54.3C101.197 54.6333 101.281 55.0917 101.281 55.675C101.281 56.2583 101.131 56.8333 100.831 57.4C100.547 57.9667 100.156 58.25 99.6558 58.25C98.7558 58.25 98.0308 58.0083 97.4808 57.525C97.2308 57.325 97.0391 57.0833 96.9058 56.8C96.1391 57.7667 94.9474 58.25 93.3308 58.25C92.1141 58.25 91.0891 57.8167 90.2558 56.95C89.4224 56.0833 89.0058 55.0583 89.0058 53.875C89.0058 51.1583 90.6308 49.8 93.8808 49.8H95.2558V49.55C95.2558 49.1167 95.1808 48.8417 95.0308 48.725C94.8974 48.5917 94.5724 48.525 94.0558 48.525C93.4224 48.525 92.5224 48.6583 91.3558 48.925ZM93.3558 53.525C93.3558 53.8917 93.4558 54.175 93.6558 54.375C93.8558 54.5583 94.1058 54.65 94.4058 54.65C94.7224 54.65 95.0058 54.525 95.2558 54.275V52.35H94.5558C93.7558 52.35 93.3558 52.7417 93.3558 53.525ZM107.683 53.5C109.033 54.3167 110.099 54.725 110.883 54.725C111.383 54.725 111.633 54.55 111.633 54.2C111.633 53.95 111.199 53.625 110.333 53.225C108.249 52.375 107.208 50.9833 107.208 49.05C107.208 47.8167 107.658 46.875 108.558 46.225C109.458 45.575 110.533 45.25 111.783 45.25C113.049 45.25 114.116 45.3833 114.983 45.65C115.866 45.9167 116.308 46.2667 116.308 46.7C116.308 47.0667 116.124 47.55 115.758 48.15C115.408 48.75 115.166 49.075 115.033 49.125C114.316 48.725 113.541 48.525 112.708 48.525C112.258 48.525 112.033 48.6833 112.033 49C112.033 49.2 112.116 49.375 112.283 49.525C112.466 49.6583 112.791 49.8333 113.258 50.05C113.724 50.25 114.108 50.4333 114.408 50.6C114.724 50.7667 115.074 51 115.458 51.3C116.258 51.9333 116.658 52.7583 116.658 53.775C116.658 55.1083 116.216 56.1917 115.333 57.025C114.449 57.8417 113.116 58.25 111.333 58.25C110.149 58.25 109.074 58.05 108.108 57.65C107.141 57.25 106.658 56.7 106.658 56C106.658 55.5333 106.766 55.0417 106.983 54.525C107.216 54.0083 107.449 53.6667 107.683 53.5ZM124.038 57.85C124.038 58.05 123.338 58.15 121.938 58.15C120.271 58.0833 119.438 57.975 119.438 57.825V48.975H118.163C117.829 48.975 117.663 48.4 117.663 47.25C117.663 46.95 117.688 46.5833 117.738 46.15C117.804 45.7167 117.929 45.5 118.113 45.5H119.438V43.3C119.438 42.9667 120.138 42.8 121.538 42.8C122.954 42.8 123.663 42.9333 123.663 43.2V44.8L123.688 45.5H125.813C126.096 45.5 126.238 46.0833 126.238 47.25C126.238 48.4167 126.096 49 125.813 49H124.038V57.85ZM136.817 57.325C135.767 57.9417 134.417 58.25 132.767 58.25C131.117 58.25 129.725 57.6917 128.592 56.575C127.458 55.4417 126.892 53.8833 126.892 51.9C126.892 49.9 127.433 48.2917 128.517 47.075C129.617 45.8583 131 45.25 132.667 45.25C134.333 45.25 135.617 45.675 136.517 46.525C137.433 47.375 137.892 48.4083 137.892 49.625C137.892 52.325 136.342 53.675 133.242 53.675H131.517C131.517 54.175 131.65 54.525 131.917 54.725C132.2 54.9083 132.608 55 133.142 55C134.308 55 135.417 54.7333 136.467 54.2C136.483 54.1833 136.558 54.3 136.692 54.55C137.092 55.2667 137.292 55.875 137.292 56.375C137.292 56.8583 137.133 57.175 136.817 57.325ZM133.692 50.1C133.692 49.4 133.35 49.05 132.667 49.05C132.35 49.05 132.075 49.15 131.842 49.35C131.625 49.5333 131.517 49.8083 131.517 50.175V50.95H132.867C133.417 50.95 133.692 50.6667 133.692 50.1ZM144.775 62.55C144.775 62.6667 144.058 62.725 142.625 62.725C141.208 62.725 140.5 62.6667 140.5 62.55V49.675H139.65C139.25 49.675 138.975 49.3083 138.825 48.575C138.775 48.3417 138.75 48.0417 138.75 47.675C138.75 47.3083 138.867 46.875 139.1 46.375C139.433 45.6417 139.967 45.275 140.7 45.275C141.183 45.275 141.625 45.3917 142.025 45.625C142.442 45.8417 142.725 46.05 142.875 46.25C143.042 46.4333 143.125 46.5417 143.125 46.575C144.242 45.7083 145.45 45.275 146.75 45.275C148.05 45.275 149.167 45.7833 150.1 46.8C151.033 47.8 151.5 49.3583 151.5 51.475C151.5 53.575 151.033 55.2083 150.1 56.375C149.167 57.525 147.983 58.1 146.55 58.1C145.9 58.1 145.308 58.0667 144.775 58V62.55ZM145.8 49.65C145.517 49.65 145.242 49.7417 144.975 49.925V54.35C145.258 54.3833 145.483 54.4 145.65 54.4C145.833 54.4 145.975 54.4 146.075 54.4C146.758 54.3333 147.1 53.4583 147.1 51.775C147.1 50.3583 146.667 49.65 145.8 49.65ZM153.667 53.5C155.017 54.3167 156.084 54.725 156.867 54.725C157.367 54.725 157.617 54.55 157.617 54.2C157.617 53.95 157.184 53.625 156.317 53.225C154.234 52.375 153.192 50.9833 153.192 49.05C153.192 47.8167 153.642 46.875 154.542 46.225C155.442 45.575 156.517 45.25 157.767 45.25C159.034 45.25 160.1 45.3833 160.967 45.65C161.85 45.9167 162.292 46.2667 162.292 46.7C162.292 47.0667 162.109 47.55 161.742 48.15C161.392 48.75 161.15 49.075 161.017 49.125C160.3 48.725 159.525 48.525 158.692 48.525C158.242 48.525 158.017 48.6833 158.017 49C158.017 49.2 158.1 49.375 158.267 49.525C158.45 49.6583 158.775 49.8333 159.242 50.05C159.709 50.25 160.092 50.4333 160.392 50.6C160.709 50.7667 161.059 51 161.442 51.3C162.242 51.9333 162.642 52.7583 162.642 53.775C162.642 55.1083 162.2 56.1917 161.317 57.025C160.434 57.8417 159.1 58.25 157.317 58.25C156.134 58.25 155.059 58.05 154.092 57.65C153.125 57.25 152.642 56.7 152.642 56C152.642 55.5333 152.75 55.0417 152.967 54.525C153.2 54.0083 153.434 53.6667 153.667 53.5ZM179.897 53.25H165.572C165.272 53.25 165.055 53.0083 164.922 52.525C164.855 52.275 164.822 52.0333 164.822 51.8C164.822 51.5667 164.855 51.325 164.922 51.075C165.055 50.5917 165.272 50.35 165.572 50.35H179.897C180.197 50.35 180.414 50.5917 180.547 51.075C180.614 51.325 180.647 51.5667 180.647 51.8C180.647 52.0333 180.614 52.275 180.547 52.525C180.414 53.0083 180.197 53.25 179.897 53.25ZM183.874 57.125V45.6C183.874 45.5 184.624 45.45 186.124 45.45C187.64 45.45 188.399 45.4917 188.399 45.575V58.9C188.399 60.1333 187.882 61.1083 186.849 61.825C185.832 62.5583 184.557 62.925 183.024 62.925C180.874 62.925 179.799 62.175 179.799 60.675C179.799 60.175 179.882 59.7583 180.049 59.425C180.199 59.4417 180.407 59.45 180.674 59.45C181.89 59.45 182.724 59.2583 183.174 58.875C183.64 58.4917 183.874 57.9083 183.874 57.125ZM183.874 44.125V40.525C183.874 40.3583 184.624 40.275 186.124 40.275C187.64 40.275 188.399 40.325 188.399 40.425V44.1C188.399 44.2167 187.64 44.275 186.124 44.275C184.624 44.275 183.874 44.225 183.874 44.125ZM190.411 45.65C190.411 45.4667 191.127 45.375 192.561 45.375C193.994 45.375 194.711 45.4667 194.711 45.65V52.95C194.711 53.7833 194.977 54.2 195.511 54.2C195.911 54.2 196.361 54.025 196.861 53.675V45.65C196.861 45.4833 197.569 45.4 198.986 45.4C200.402 45.4 201.111 45.4833 201.111 45.65V53.85H201.761C202.327 53.85 202.611 54.3917 202.611 55.475C202.611 56.025 202.494 56.5833 202.261 57.15C201.927 57.8833 201.477 58.25 200.911 58.25C199.794 58.25 198.969 57.7917 198.436 56.875L198.411 56.9C197.394 57.8 196.302 58.25 195.136 58.25C193.519 58.25 192.327 57.85 191.561 57.05C190.794 56.2333 190.411 54.8917 190.411 53.025V45.65ZM204.534 53.5C205.884 54.3167 206.951 54.725 207.734 54.725C208.234 54.725 208.484 54.55 208.484 54.2C208.484 53.95 208.051 53.625 207.184 53.225C205.101 52.375 204.059 50.9833 204.059 49.05C204.059 47.8167 204.509 46.875 205.409 46.225C206.309 45.575 207.384 45.25 208.634 45.25C209.901 45.25 210.968 45.3833 211.834 45.65C212.718 45.9167 213.159 46.2667 213.159 46.7C213.159 47.0667 212.976 47.55 212.609 48.15C212.259 48.75 212.018 49.075 211.884 49.125C211.168 48.725 210.393 48.525 209.559 48.525C209.109 48.525 208.884 48.6833 208.884 49C208.884 49.2 208.968 49.375 209.134 49.525C209.318 49.6583 209.643 49.8333 210.109 50.05C210.576 50.25 210.959 50.4333 211.259 50.6C211.576 50.7667 211.926 51 212.309 51.3C213.109 51.9333 213.509 52.7583 213.509 53.775C213.509 55.1083 213.068 56.1917 212.184 57.025C211.301 57.8417 209.968 58.25 208.184 58.25C207.001 58.25 205.926 58.05 204.959 57.65C203.993 57.25 203.509 56.7 203.509 56C203.509 55.5333 203.618 55.0417 203.834 54.525C204.068 54.0083 204.301 53.6667 204.534 53.5ZM220.889 57.85C220.889 58.05 220.189 58.15 218.789 58.15C217.122 58.0833 216.289 57.975 216.289 57.825V48.975H215.014C214.681 48.975 214.514 48.4 214.514 47.25C214.514 46.95 214.539 46.5833 214.589 46.15C214.656 45.7167 214.781 45.5 214.964 45.5H216.289V43.3C216.289 42.9667 216.989 42.8 218.389 42.8C219.806 42.8 220.514 42.9333 220.514 43.2V44.8L220.539 45.5H222.664C222.947 45.5 223.089 46.0833 223.089 47.25C223.089 48.4167 222.947 49 222.664 49H220.889V57.85ZM229.33 53.5C230.68 54.3167 231.747 54.725 232.53 54.725C233.03 54.725 233.28 54.55 233.28 54.2C233.28 53.95 232.847 53.625 231.98 53.225C229.897 52.375 228.855 50.9833 228.855 49.05C228.855 47.8167 229.305 46.875 230.205 46.225C231.105 45.575 232.18 45.25 233.43 45.25C234.697 45.25 235.764 45.3833 236.63 45.65C237.514 45.9167 237.955 46.2667 237.955 46.7C237.955 47.0667 237.772 47.55 237.405 48.15C237.055 48.75 236.814 49.075 236.68 49.125C235.964 48.725 235.189 48.525 234.355 48.525C233.905 48.525 233.68 48.6833 233.68 49C233.68 49.2 233.764 49.375 233.93 49.525C234.114 49.6583 234.439 49.8333 234.905 50.05C235.372 50.25 235.755 50.4333 236.055 50.6C236.372 50.7667 236.722 51 237.105 51.3C237.905 51.9333 238.305 52.7583 238.305 53.775C238.305 55.1083 237.864 56.1917 236.98 57.025C236.097 57.8417 234.764 58.25 232.98 58.25C231.797 58.25 230.722 58.05 229.755 57.65C228.789 57.25 228.305 56.7 228.305 56C228.305 55.5333 228.414 55.0417 228.63 54.525C228.864 54.0083 229.097 53.6667 229.33 53.5ZM244.51 57.85C244.51 57.9833 243.743 58.05 242.21 58.05C240.693 58.05 239.935 57.9917 239.935 57.875V45.6C239.935 45.4833 240.693 45.425 242.21 45.425C243.743 45.425 244.51 45.475 244.51 45.575V57.85ZM244.51 44.1C244.51 44.2167 243.743 44.275 242.21 44.275C240.693 44.275 239.935 44.225 239.935 44.125V40.525C239.935 40.3583 240.693 40.275 242.21 40.275C243.743 40.275 244.51 40.325 244.51 40.425V44.1ZM252.396 57.85C252.396 58.05 251.696 58.15 250.296 58.15C248.629 58.0833 247.796 57.975 247.796 57.825V48.975H246.521C246.188 48.975 246.021 48.4 246.021 47.25C246.021 46.95 246.046 46.5833 246.096 46.15C246.163 45.7167 246.288 45.5 246.471 45.5H247.796V43.3C247.796 42.9667 248.496 42.8 249.896 42.8C251.313 42.8 252.021 42.9333 252.021 43.2V44.8L252.046 45.5H254.171C254.454 45.5 254.596 46.0833 254.596 47.25C254.596 48.4167 254.454 49 254.171 49H252.396V57.85ZM260.437 40.575C260.437 40.375 261.154 40.275 262.587 40.275C264.037 40.275 264.762 40.3833 264.762 40.6V45.45C265.479 45.3167 265.987 45.25 266.287 45.25C269.787 45.25 271.537 47.2583 271.537 51.275C271.537 53.5083 270.995 55.2333 269.912 56.45C268.845 57.65 267.32 58.25 265.337 58.25C263.37 58.25 261.737 57.8083 260.437 56.925V40.575ZM265.587 49.15C265.304 49.15 265.029 49.2417 264.762 49.425V54.2C264.995 54.3 265.237 54.35 265.487 54.35C265.754 54.35 266.02 54.25 266.287 54.05C266.754 53.7167 266.987 52.9417 266.987 51.725C266.987 50.0083 266.52 49.15 265.587 49.15ZM274.75 48.925C274.284 48.0917 274.05 47.4167 274.05 46.9C274.05 46.3667 274.192 46.025 274.475 45.875C275.425 45.4583 276.725 45.25 278.375 45.25C280.042 45.25 281.217 45.6417 281.9 46.425C282.584 47.1917 282.925 48.3333 282.925 49.85V53.8H283.775C284.059 53.8 284.275 53.9667 284.425 54.3C284.592 54.6333 284.675 55.0917 284.675 55.675C284.675 56.2583 284.525 56.8333 284.225 57.4C283.942 57.9667 283.55 58.25 283.05 58.25C282.15 58.25 281.425 58.0083 280.875 57.525C280.625 57.325 280.434 57.0833 280.3 56.8C279.534 57.7667 278.342 58.25 276.725 58.25C275.509 58.25 274.484 57.8167 273.65 56.95C272.817 56.0833 272.4 55.0583 272.4 53.875C272.4 51.1583 274.025 49.8 277.275 49.8H278.65V49.55C278.65 49.1167 278.575 48.8417 278.425 48.725C278.292 48.5917 277.967 48.525 277.45 48.525C276.817 48.525 275.917 48.6583 274.75 48.925ZM276.75 53.525C276.75 53.8917 276.85 54.175 277.05 54.375C277.25 54.5583 277.5 54.65 277.8 54.65C278.117 54.65 278.4 54.525 278.65 54.275V52.35H277.95C277.15 52.35 276.75 52.7417 276.75 53.525ZM290.065 51.8C290.065 53.4333 290.682 54.25 291.915 54.25C292.715 54.25 293.382 54.0917 293.915 53.775C294.165 53.775 294.365 54.2083 294.515 55.075C294.682 55.925 294.765 56.5083 294.765 56.825C294.765 57.125 294.724 57.325 294.64 57.425C293.757 57.975 292.549 58.25 291.015 58.25C289.482 58.25 288.174 57.6833 287.09 56.55C286.024 55.4 285.49 53.8417 285.49 51.875C285.49 49.8917 286.015 48.2917 287.065 47.075C288.132 45.8583 289.54 45.25 291.29 45.25C293.057 45.25 294.282 45.675 294.965 46.525C295.115 46.7083 295.19 46.9833 295.19 47.35C295.19 47.7 295.124 48.1333 294.99 48.65C294.69 49.7167 294.299 50.3333 293.815 50.5C293.749 50.5167 293.649 50.525 293.515 50.525C293.399 50.525 293.249 50.425 293.065 50.225C292.415 49.575 291.89 49.25 291.49 49.25C291.107 49.25 290.774 49.45 290.49 49.85C290.207 50.25 290.065 50.9 290.065 51.8ZM296.436 40.7C296.436 40.4333 297.194 40.3 298.711 40.3C300.128 40.35 300.836 40.4583 300.836 40.625V50.225L303.311 45.65C303.428 45.4 304.136 45.275 305.436 45.275C306.736 45.275 307.569 45.3583 307.936 45.525L304.686 50.825L308.436 57.85C308.469 57.9167 308.153 57.9667 307.486 58C306.836 58.05 306.294 58.075 305.861 58.075C304.261 58.075 303.403 58 303.286 57.85L300.811 52.3V57.825C300.811 58.0417 300.078 58.15 298.611 58.15C297.161 58.15 296.436 58.05 296.436 57.85V40.7ZM315.754 48.925C315.288 48.0917 315.054 47.4167 315.054 46.9C315.054 46.3667 315.196 46.025 315.479 45.875C316.429 45.4583 317.729 45.25 319.379 45.25C321.046 45.25 322.221 45.6417 322.904 46.425C323.588 47.1917 323.929 48.3333 323.929 49.85V53.8H324.779C325.063 53.8 325.279 53.9667 325.429 54.3C325.596 54.6333 325.679 55.0917 325.679 55.675C325.679 56.2583 325.529 56.8333 325.229 57.4C324.946 57.9667 324.554 58.25 324.054 58.25C323.154 58.25 322.429 58.0083 321.879 57.525C321.629 57.325 321.438 57.0833 321.304 56.8C320.538 57.7667 319.346 58.25 317.729 58.25C316.513 58.25 315.488 57.8167 314.654 56.95C313.821 56.0833 313.404 55.0583 313.404 53.875C313.404 51.1583 315.029 49.8 318.279 49.8H319.654V49.55C319.654 49.1167 319.579 48.8417 319.429 48.725C319.296 48.5917 318.971 48.525 318.454 48.525C317.821 48.525 316.921 48.6583 315.754 48.925ZM317.754 53.525C317.754 53.8917 317.854 54.175 318.054 54.375C318.254 54.5583 318.504 54.65 318.804 54.65C319.121 54.65 319.404 54.525 319.654 54.275V52.35H318.954C318.154 52.35 317.754 52.7417 317.754 53.525ZM332.194 57.85C332.194 57.9667 331.594 58.025 330.394 58.025C328.728 57.975 327.894 57.8833 327.894 57.75V49.65H327.244C326.811 49.65 326.528 49.2833 326.394 48.55C326.361 48.3333 326.344 48.1167 326.344 47.9C326.344 47.3833 326.444 46.8667 326.644 46.35C326.944 45.6167 327.411 45.25 328.044 45.25C328.678 45.25 329.244 45.4 329.744 45.7C330.244 46 330.578 46.3 330.744 46.6C331.794 45.7 333.044 45.25 334.494 45.25C335.944 45.25 336.994 45.6417 337.644 46.425C338.294 47.2083 338.619 48.4917 338.619 50.275V57.775C338.619 57.975 337.903 58.075 336.469 58.075C335.053 58.075 334.344 57.975 334.344 57.775V50.55C334.344 49.7167 334.053 49.3 333.469 49.3C333.303 49.3 333.069 49.375 332.769 49.525C332.469 49.6583 332.278 49.7583 332.194 49.825V57.85ZM346.939 40.65C346.939 40.4 347.597 40.275 348.914 40.275C349.364 40.275 349.88 40.3083 350.464 40.375C351.064 40.425 351.364 40.5 351.364 40.6V53.775H352.239C352.655 53.775 352.93 54.15 353.064 54.9C353.097 55.1167 353.114 55.4167 353.114 55.8C353.114 56.1667 352.997 56.6167 352.764 57.15C352.43 57.8833 351.897 58.25 351.164 58.25C350.614 58.25 350.122 58.1417 349.689 57.925C349.272 57.7083 348.989 57.4833 348.839 57.25L348.614 56.925C347.697 57.8083 346.547 58.25 345.164 58.25C343.78 58.25 342.597 57.675 341.614 56.525C340.63 55.375 340.139 53.775 340.139 51.725C340.139 49.6583 340.655 48.0667 341.689 46.95C342.722 45.8167 344.014 45.25 345.564 45.25C346.014 45.25 346.472 45.3 346.939 45.4V40.65ZM346.114 49.25C345.18 49.25 344.714 50.0917 344.714 51.775C344.714 52.625 344.847 53.2417 345.114 53.625C345.38 53.9917 345.672 54.175 345.989 54.175C346.322 54.175 346.639 54.0333 346.939 53.75V49.5C346.655 49.3333 346.38 49.25 346.114 49.25ZM363.761 57.8C363.761 57.95 362.911 58.025 361.211 58.025C359.878 58.0083 359.211 57.9417 359.211 57.825V40.8C359.211 40.55 360.02 40.425 361.636 40.425C363.053 40.475 363.761 40.5583 363.761 40.675V57.8ZM375.348 57.325C374.298 57.9417 372.948 58.25 371.298 58.25C369.648 58.25 368.256 57.6917 367.123 56.575C365.99 55.4417 365.423 53.8833 365.423 51.9C365.423 49.9 365.965 48.2917 367.048 47.075C368.148 45.8583 369.531 45.25 371.198 45.25C372.865 45.25 374.148 45.675 375.048 46.525C375.965 47.375 376.423 48.4083 376.423 49.625C376.423 52.325 374.873 53.675 371.773 53.675H370.048C370.048 54.175 370.181 54.525 370.448 54.725C370.731 54.9083 371.14 55 371.673 55C372.84 55 373.948 54.7333 374.998 54.2C375.015 54.1833 375.09 54.3 375.223 54.55C375.623 55.2667 375.823 55.875 375.823 56.375C375.823 56.8583 375.665 57.175 375.348 57.325ZM372.223 50.1C372.223 49.4 371.881 49.05 371.198 49.05C370.881 49.05 370.606 49.15 370.373 49.35C370.156 49.5333 370.048 49.8083 370.048 50.175V50.95H371.398C371.948 50.95 372.223 50.6667 372.223 50.1ZM383.681 57.85C383.681 58.05 382.981 58.15 381.581 58.15C379.914 58.0833 379.081 57.975 379.081 57.825V48.975H377.806C377.473 48.975 377.306 48.4 377.306 47.25C377.306 46.95 377.331 46.5833 377.381 46.15C377.448 45.7167 377.573 45.5 377.756 45.5H379.081V43.3C379.081 42.9667 379.781 42.8 381.181 42.8C382.598 42.8 383.306 42.9333 383.306 43.2V44.8L383.331 45.5H385.456C385.739 45.5 385.881 46.0833 385.881 47.25C385.881 48.4167 385.739 49 385.456 49H383.681V57.85ZM397.347 57.85C397.347 58.05 396.647 58.15 395.247 58.15C393.581 58.0833 392.747 57.975 392.747 57.825V48.975H391.472C391.139 48.975 390.972 48.4 390.972 47.25C390.972 46.95 390.997 46.5833 391.047 46.15C391.114 45.7167 391.239 45.5 391.422 45.5H392.747V43.3C392.747 42.9667 393.447 42.8 394.847 42.8C396.264 42.8 396.972 42.9333 396.972 43.2V44.8L396.997 45.5H399.122C399.406 45.5 399.547 46.0833 399.547 47.25C399.547 48.4167 399.406 49 399.122 49H397.347V57.85ZM404.851 57.825C404.851 57.975 404.151 58.05 402.751 58.05C401.368 58.05 400.676 57.9333 400.676 57.7V40.575C400.676 40.4583 400.935 40.375 401.451 40.325C401.968 40.275 402.401 40.25 402.751 40.25C404.151 40.25 404.851 40.4 404.851 40.7V45.7C405.785 45.4167 406.493 45.275 406.976 45.275C408.243 45.275 409.243 45.6167 409.976 46.3C410.71 46.9667 411.076 48.2167 411.076 50.05V57.8C411.076 57.95 410.426 58.025 409.126 58.025C407.66 57.975 406.926 57.8917 406.926 57.775V50.425C406.926 49.6083 406.66 49.2 406.126 49.2C405.76 49.2 405.335 49.375 404.851 49.725V57.825ZM422.526 57.325C421.476 57.9417 420.126 58.25 418.476 58.25C416.826 58.25 415.434 57.6917 414.301 56.575C413.167 55.4417 412.601 53.8833 412.601 51.9C412.601 49.9 413.142 48.2917 414.226 47.075C415.326 45.8583 416.709 45.25 418.376 45.25C420.042 45.25 421.326 45.675 422.226 46.525C423.142 47.375 423.601 48.4083 423.601 49.625C423.601 52.325 422.051 53.675 418.951 53.675H417.226C417.226 54.175 417.359 54.525 417.626 54.725C417.909 54.9083 418.317 55 418.851 55C420.017 55 421.126 54.7333 422.176 54.2C422.192 54.1833 422.267 54.3 422.401 54.55C422.801 55.2667 423.001 55.875 423.001 56.375C423.001 56.8583 422.842 57.175 422.526 57.325ZM419.401 50.1C419.401 49.4 419.059 49.05 418.376 49.05C418.059 49.05 417.784 49.15 417.551 49.35C417.334 49.5333 417.226 49.8083 417.226 50.175V50.95H418.576C419.126 50.95 419.401 50.6667 419.401 50.1ZM441.571 58.05C440.121 58.05 439.337 57.8167 439.221 57.35L438.396 54.125H434.421L433.696 57.225C433.596 57.7417 432.796 58 431.296 58C430.496 58 429.904 57.9583 429.521 57.875C429.137 57.775 428.946 57.7 428.946 57.65L433.371 40.725C433.371 40.5917 434.512 40.525 436.796 40.525C439.079 40.525 440.221 40.5917 440.221 40.725L444.546 57.675C444.546 57.7917 444.162 57.8833 443.396 57.95C442.629 58.0167 442.021 58.05 441.571 58.05ZM435.046 50.95H437.671L436.546 45.775H436.396L435.046 50.95ZM447.728 53.7V44.8H445.953C445.669 44.8 445.469 44.4417 445.353 43.725C445.303 43.375 445.278 43.0167 445.278 42.65C445.278 42.2833 445.303 41.925 445.353 41.575C445.469 40.8583 445.669 40.5 445.953 40.5H454.353C454.636 40.5 454.828 40.8583 454.928 41.575C454.994 41.925 455.028 42.2833 455.028 42.65C455.028 43.0167 454.994 43.375 454.928 43.725C454.828 44.4417 454.636 44.8 454.353 44.8H452.678V53.7H454.428C454.711 53.7 454.911 54.0583 455.028 54.775C455.094 55.125 455.128 55.4833 455.128 55.85C455.128 56.2167 455.094 56.575 455.028 56.925C454.911 57.6417 454.711 58 454.428 58H446.003C445.719 58 445.528 57.6417 445.428 56.925C445.361 56.575 445.328 56.2167 445.328 55.85C445.328 55.4833 445.361 55.125 445.428 54.775C445.528 54.0583 445.719 53.7 446.003 53.7H447.728ZM462.207 56.525C461.174 55.375 460.657 53.7833 460.657 51.75C460.657 49.7167 461.174 48.125 462.207 46.975C463.257 45.825 464.666 45.25 466.432 45.25C468.199 45.25 469.599 45.825 470.632 46.975C471.666 48.125 472.182 49.7167 472.182 51.75C472.182 53.7833 471.666 55.375 470.632 56.525C469.599 57.675 468.199 58.25 466.432 58.25C464.666 58.25 463.257 57.675 462.207 56.525ZM466.432 49.425C465.499 49.425 465.032 50.1917 465.032 51.725C465.032 53.2583 465.499 54.025 466.432 54.025C467.382 54.025 467.857 53.2583 467.857 51.725C467.857 50.1917 467.382 49.425 466.432 49.425ZM479.2 62.55C479.2 62.6667 478.483 62.725 477.05 62.725C475.633 62.725 474.925 62.6667 474.925 62.55V49.675H474.075C473.675 49.675 473.4 49.3083 473.25 48.575C473.2 48.3417 473.175 48.0417 473.175 47.675C473.175 47.3083 473.291 46.875 473.525 46.375C473.858 45.6417 474.391 45.275 475.125 45.275C475.608 45.275 476.05 45.3917 476.45 45.625C476.866 45.8417 477.15 46.05 477.3 46.25C477.466 46.4333 477.55 46.5417 477.55 46.575C478.666 45.7083 479.875 45.275 481.175 45.275C482.475 45.275 483.591 45.7833 484.525 46.8C485.458 47.8 485.925 49.3583 485.925 51.475C485.925 53.575 485.458 55.2083 484.525 56.375C483.591 57.525 482.408 58.1 480.975 58.1C480.325 58.1 479.733 58.0667 479.2 58V62.55ZM480.225 49.65C479.941 49.65 479.666 49.7417 479.4 49.925V54.35C479.683 54.3833 479.908 54.4 480.075 54.4C480.258 54.4 480.4 54.4 480.5 54.4C481.183 54.3333 481.525 53.4583 481.525 51.775C481.525 50.3583 481.091 49.65 480.225 49.65ZM493.317 57.85C493.317 58.05 492.617 58.15 491.217 58.15C489.55 58.0833 488.717 57.975 488.717 57.825V48.975H487.442C487.109 48.975 486.942 48.4 486.942 47.25C486.942 46.95 486.967 46.5833 487.017 46.15C487.084 45.7167 487.209 45.5 487.392 45.5H488.717V43.3C488.717 42.9667 489.417 42.8 490.817 42.8C492.234 42.8 492.942 42.9333 492.942 43.2V44.8L492.967 45.5H495.092C495.375 45.5 495.517 46.0833 495.517 47.25C495.517 48.4167 495.375 49 495.092 49H493.317V57.85ZM501.221 57.85C501.221 57.9833 500.454 58.05 498.921 58.05C497.404 58.05 496.646 57.9917 496.646 57.875V45.6C496.646 45.4833 497.404 45.425 498.921 45.425C500.454 45.425 501.221 45.475 501.221 45.575V57.85ZM501.221 44.1C501.221 44.2167 500.454 44.275 498.921 44.275C497.404 44.275 496.646 44.225 496.646 44.125V40.525C496.646 40.3583 497.404 40.275 498.921 40.275C500.454 40.275 501.221 40.325 501.221 40.425V44.1ZM514.682 57.875C514.682 57.9917 513.965 58.05 512.532 58.05C511.115 58.05 510.407 57.975 510.407 57.825V50.55C510.407 49.7167 510.132 49.3 509.582 49.3C509.299 49.3 508.924 49.4833 508.457 49.85V57.85C508.457 58.0167 507.74 58.1 506.307 58.1C504.89 58.1 504.182 58.0083 504.182 57.825V49.65H503.557C503.007 49.65 502.732 49.075 502.732 47.925C502.732 47.4083 502.832 46.8833 503.032 46.35C503.299 45.6167 503.732 45.25 504.332 45.25C504.932 45.25 505.507 45.4083 506.057 45.725C506.624 46.0417 506.965 46.3417 507.082 46.625C508.115 45.7083 509.257 45.25 510.507 45.25C511.774 45.25 512.79 45.6417 513.557 46.425C514.457 45.6417 515.54 45.25 516.807 45.25C519.557 45.25 520.932 46.925 520.932 50.275V57.875C520.932 57.9917 520.215 58.05 518.782 58.05C517.365 58.05 516.657 57.975 516.657 57.825V50.55C516.657 49.7167 516.382 49.3 515.832 49.3C515.532 49.3 515.149 49.4833 514.682 49.85V57.875ZM527.509 57.85C527.509 57.9833 526.742 58.05 525.209 58.05C523.692 58.05 522.934 57.9917 522.934 57.875V45.6C522.934 45.4833 523.692 45.425 525.209 45.425C526.742 45.425 527.509 45.475 527.509 45.575V57.85ZM527.509 44.1C527.509 44.2167 526.742 44.275 525.209 44.275C523.692 44.275 522.934 44.225 522.934 44.125V40.525C522.934 40.3583 523.692 40.275 525.209 40.275C526.742 40.275 527.509 40.325 527.509 40.425V44.1ZM529.595 49.5C529.478 49.5 529.42 49.1417 529.42 48.425C529.42 46.475 529.578 45.5 529.895 45.5H537.87C537.987 45.5 538.245 45.8667 538.645 46.6C539.045 47.3333 539.245 47.75 539.245 47.85C539.245 47.9333 539.237 47.9833 539.22 48L534.37 54.1L538.72 53.8C538.987 53.8 539.12 54.3917 539.12 55.575C539.12 56.025 539.078 56.5417 538.995 57.125C538.912 57.7083 538.77 58 538.57 58H530.57C530.32 58 530.02 57.5833 529.67 56.75C529.32 55.9167 529.145 55.4167 529.145 55.25C529.145 55.0667 529.162 54.9583 529.195 54.925L533.97 49.35L529.595 49.5ZM550.323 57.325C549.273 57.9417 547.923 58.25 546.273 58.25C544.623 58.25 543.231 57.6917 542.098 56.575C540.964 55.4417 540.398 53.8833 540.398 51.9C540.398 49.9 540.939 48.2917 542.023 47.075C543.123 45.8583 544.506 45.25 546.173 45.25C547.839 45.25 549.123 45.675 550.023 46.525C550.939 47.375 551.398 48.4083 551.398 49.625C551.398 52.325 549.848 53.675 546.748 53.675H545.023C545.023 54.175 545.156 54.525 545.423 54.725C545.706 54.9083 546.114 55 546.648 55C547.814 55 548.923 54.7333 549.973 54.2C549.989 54.1833 550.064 54.3 550.198 54.55C550.598 55.2667 550.798 55.875 550.798 56.375C550.798 56.8583 550.639 57.175 550.323 57.325ZM547.198 50.1C547.198 49.4 546.856 49.05 546.173 49.05C545.856 49.05 545.581 49.15 545.348 49.35C545.131 49.5333 545.023 49.8083 545.023 50.175V50.95H546.373C546.923 50.95 547.198 50.6667 547.198 50.1ZM558.468 48.825H557.243C556.993 48.825 556.868 48.275 556.868 47.175C556.868 46.0583 556.993 45.5 557.243 45.5H558.468V44.95C558.468 43.1833 558.834 41.9667 559.568 41.3C560.318 40.6167 561.359 40.275 562.693 40.275C564.026 40.275 565.201 40.5167 566.218 41C566.351 41.05 566.418 41.2333 566.418 41.55C566.418 41.85 566.276 42.3417 565.993 43.025C565.709 43.7083 565.468 44.1 565.268 44.2C564.701 43.85 564.118 43.675 563.518 43.675C562.868 43.675 562.543 44.1083 562.543 44.975V45.5H564.618C564.918 45.5 565.068 46.0333 565.068 47.1C565.068 48.2667 564.876 48.85 564.493 48.85H562.893V57.7C562.893 57.9 562.151 58 560.668 58C559.201 58 558.468 57.9 558.468 57.7V48.825ZM567.183 56.525C566.15 55.375 565.633 53.7833 565.633 51.75C565.633 49.7167 566.15 48.125 567.183 46.975C568.233 45.825 569.641 45.25 571.408 45.25C573.175 45.25 574.575 45.825 575.608 46.975C576.641 48.125 577.158 49.7167 577.158 51.75C577.158 53.7833 576.641 55.375 575.608 56.525C574.575 57.675 573.175 58.25 571.408 58.25C569.641 58.25 568.233 57.675 567.183 56.525ZM571.408 49.425C570.475 49.425 570.008 50.1917 570.008 51.725C570.008 53.2583 570.475 54.025 571.408 54.025C572.358 54.025 572.833 53.2583 572.833 51.725C572.833 50.1917 572.358 49.425 571.408 49.425ZM584.275 57.975C584.275 58.0917 583.517 58.15 582 58.15C580.484 58.1167 579.725 58.05 579.725 57.95V49.65H579.05C578.784 49.65 578.567 49.4917 578.4 49.175C578.25 48.8417 578.175 48.4333 578.175 47.95C578.175 46.15 578.709 45.25 579.775 45.25C580.525 45.25 581.15 45.4833 581.65 45.95C582.15 46.4 582.4 46.9167 582.4 47.5C582.75 46.8167 583.217 46.275 583.8 45.875C584.4 45.4583 585.009 45.25 585.625 45.25C586.592 45.25 587.175 45.5 587.375 46C587.425 46.1333 587.45 46.3333 587.45 46.6C587.45 46.85 587.367 47.3083 587.2 47.975C587.05 48.6417 586.892 49.125 586.725 49.425C586.559 49.725 586.459 49.875 586.425 49.875C586.392 49.875 586.234 49.8167 585.95 49.7C585.684 49.5667 585.442 49.5 585.225 49.5C584.592 49.5 584.275 50 584.275 51V57.975ZM592.299 45.625C592.299 45.4417 593.058 45.35 594.574 45.35C596.108 45.35 596.899 45.4333 596.949 45.6L598.749 51.5L600.474 45.55C600.541 45.4167 601.058 45.35 602.024 45.35C604.241 45.35 605.299 45.4583 605.199 45.675L599.324 62.4C599.308 62.5 598.849 62.55 597.949 62.55C597.066 62.55 596.241 62.5167 595.474 62.45C594.708 62.4 594.341 62.3333 594.374 62.25L596.549 57L592.299 45.625ZM607.552 56.525C606.519 55.375 606.002 53.7833 606.002 51.75C606.002 49.7167 606.519 48.125 607.552 46.975C608.602 45.825 610.01 45.25 611.777 45.25C613.544 45.25 614.944 45.825 615.977 46.975C617.01 48.125 617.527 49.7167 617.527 51.75C617.527 53.7833 617.01 55.375 615.977 56.525C614.944 57.675 613.544 58.25 611.777 58.25C610.01 58.25 608.602 57.675 607.552 56.525ZM611.777 49.425C610.844 49.425 610.377 50.1917 610.377 51.725C610.377 53.2583 610.844 54.025 611.777 54.025C612.727 54.025 613.202 53.2583 613.202 51.725C613.202 50.1917 612.727 49.425 611.777 49.425ZM619.044 45.65C619.044 45.4667 619.761 45.375 621.194 45.375C622.628 45.375 623.344 45.4667 623.344 45.65V52.95C623.344 53.7833 623.611 54.2 624.144 54.2C624.544 54.2 624.994 54.025 625.494 53.675V45.65C625.494 45.4833 626.203 45.4 627.619 45.4C629.036 45.4 629.744 45.4833 629.744 45.65V53.85H630.394C630.961 53.85 631.244 54.3917 631.244 55.475C631.244 56.025 631.128 56.5833 630.894 57.15C630.561 57.8833 630.111 58.25 629.544 58.25C628.428 58.25 627.603 57.7917 627.069 56.875L627.044 56.9C626.028 57.8 624.936 58.25 623.769 58.25C622.153 58.25 620.961 57.85 620.194 57.05C619.428 56.2333 619.044 54.8917 619.044 53.025V45.65Z" fill="white"/>
</svg>
