<svg width="97" height="40" viewBox="0 0 97 40" fill="none" xmlns="http://www.w3.org/2000/svg">
<g filter="url(#filter0_d_267_4100)">
<mask id="path-1-outside-1_267_4100" maskUnits="userSpaceOnUse" x="0" y="4" width="97" height="31" fill="black">
<rect fill="white" y="4" width="97" height="31"/>
<path d="M22.1739 31.221C22.1739 31.7167 21.0644 31.9646 18.8456 31.9646C16.6267 31.9646 15.4228 31.7876 15.234 31.4335L9.32084 20.3862V31.3981C9.32084 31.823 8.2232 32.0354 6.02791 32.0354C3.85623 32.0354 2.77039 31.823 2.77039 31.3981V7.71022C2.77039 7.35614 3.7028 7.1791 5.56761 7.1791C6.29937 7.1791 7.14916 7.24992 8.11698 7.39155C9.1084 7.50957 9.71033 7.74562 9.92278 8.0997L15.588 19.0053V7.88726C15.588 7.43876 16.6857 7.21451 18.881 7.21451C21.0762 7.21451 22.1739 7.43876 22.1739 7.88726V31.221ZM37.7334 17.0579C38.1819 17.0579 38.4062 17.8841 38.4062 19.5364C38.4062 20.0321 38.3472 20.6223 38.2291 21.3068C38.1347 21.9678 37.9459 22.2982 37.6626 22.2982H33.1658V25.839H39.6809C40.0821 25.839 40.3536 26.3583 40.4952 27.397C40.5661 27.8455 40.6015 28.3294 40.6015 28.8487C40.6015 29.3444 40.5306 29.9936 40.389 30.7961C40.2474 31.5987 40.0113 32 39.6809 32H27.5714C26.6744 32 26.2259 31.6341 26.2259 30.9024V8.13511C26.2259 7.52138 26.4973 7.21451 27.0403 7.21451H39.7163C40.212 7.21451 40.4598 8.26494 40.4598 10.3658C40.4598 12.4431 40.212 13.4817 39.7163 13.4817H33.1658V17.0579H37.7334ZM43.1566 7.56859C43.0858 7.30893 44.2779 7.1791 46.7328 7.1791C49.4474 7.1791 50.8401 7.40335 50.911 7.85185L52.6459 22.7586L56.3992 7.67481C56.5172 7.32073 57.4378 7.14369 59.161 7.14369C60.8842 7.14369 61.8048 7.30893 61.9228 7.6394L65.6052 22.8294L67.6589 7.78103C67.7061 7.52138 68.249 7.34434 69.2876 7.24991C70.3263 7.15549 71.1642 7.10828 71.8016 7.10828C74.2801 7.10828 75.484 7.27352 75.4132 7.60399L71.1288 31.0794C71.0344 31.4335 70.3617 31.6931 69.1106 31.8584C67.8595 32.0236 66.8445 32.1062 66.0655 32.1062C63.1385 32.1062 61.6041 31.7758 61.4625 31.1148L59.0548 21.3776L56.4346 31.0794C56.3402 31.5043 55.514 31.8112 53.956 32C53.1535 32.0708 52.3509 32.1062 51.5483 32.1062L49.2822 32C47.7242 31.8348 46.8981 31.5397 46.8036 31.1148L43.1566 7.56859ZM79.3479 23.3605C79.7964 23.7146 80.5635 24.1985 81.6494 24.8122C82.7588 25.4259 83.8093 25.7328 84.8007 25.7328C85.8157 25.7328 86.3232 25.3433 86.3232 24.5644C86.3232 24.2103 86.1816 23.9034 85.8983 23.6437C85.6151 23.3605 85.0958 23.0418 84.3404 22.6877C83.585 22.3337 83.0185 22.0622 82.6408 21.8734C82.2631 21.6609 81.7556 21.3304 81.1183 20.8819C80.5045 20.4098 80.0324 19.9259 79.702 19.4302C78.7577 18.0847 78.2856 16.3733 78.2856 14.2961C78.2856 12.2188 79.0528 10.472 80.5872 9.05572C82.1451 7.6158 84.1751 6.89584 86.6773 6.89584C88.3769 6.89584 89.9466 7.08468 91.3865 7.46236C92.8265 7.81644 93.57 8.28855 93.6172 8.87868C93.6172 8.94949 93.6172 9.02031 93.6172 9.09112C93.6172 9.91731 93.3576 10.9677 92.8383 12.2424C92.319 13.4935 91.9531 14.1899 91.7406 14.3315C90.2299 13.5525 88.8726 13.163 87.6687 13.163C86.4885 13.163 85.8983 13.5879 85.8983 14.4377C85.8983 14.957 86.335 15.4173 87.2084 15.8186C87.3973 15.913 87.6687 16.0429 88.0228 16.2081C88.3769 16.3733 88.7782 16.574 89.2267 16.81C89.6988 17.0225 90.1945 17.3057 90.7138 17.6598C91.2567 17.9903 91.835 18.4388 92.4488 19.0053C93.6999 20.1856 94.3254 21.7435 94.3254 23.6792C94.3254 26.2049 93.629 28.2704 92.2363 29.8755C90.8436 31.4807 88.6956 32.3069 85.7921 32.3541C84.3758 32.3541 83.0893 32.2361 81.9327 32C80.7996 31.7639 79.8082 31.3036 78.9584 30.6191C78.1086 29.9345 77.6837 29.1084 77.6837 28.1405C77.6837 27.1727 77.8608 26.2167 78.2148 25.2725C78.5689 24.3047 78.9466 23.6674 79.3479 23.3605Z"/>
</mask>
<path d="M22.1739 31.221C22.1739 31.7167 21.0644 31.9646 18.8456 31.9646C16.6267 31.9646 15.4228 31.7876 15.234 31.4335L9.32084 20.3862V31.3981C9.32084 31.823 8.2232 32.0354 6.02791 32.0354C3.85623 32.0354 2.77039 31.823 2.77039 31.3981V7.71022C2.77039 7.35614 3.7028 7.1791 5.56761 7.1791C6.29937 7.1791 7.14916 7.24992 8.11698 7.39155C9.1084 7.50957 9.71033 7.74562 9.92278 8.0997L15.588 19.0053V7.88726C15.588 7.43876 16.6857 7.21451 18.881 7.21451C21.0762 7.21451 22.1739 7.43876 22.1739 7.88726V31.221ZM37.7334 17.0579C38.1819 17.0579 38.4062 17.8841 38.4062 19.5364C38.4062 20.0321 38.3472 20.6223 38.2291 21.3068C38.1347 21.9678 37.9459 22.2982 37.6626 22.2982H33.1658V25.839H39.6809C40.0821 25.839 40.3536 26.3583 40.4952 27.397C40.5661 27.8455 40.6015 28.3294 40.6015 28.8487C40.6015 29.3444 40.5306 29.9936 40.389 30.7961C40.2474 31.5987 40.0113 32 39.6809 32H27.5714C26.6744 32 26.2259 31.6341 26.2259 30.9024V8.13511C26.2259 7.52138 26.4973 7.21451 27.0403 7.21451H39.7163C40.212 7.21451 40.4598 8.26494 40.4598 10.3658C40.4598 12.4431 40.212 13.4817 39.7163 13.4817H33.1658V17.0579H37.7334ZM43.1566 7.56859C43.0858 7.30893 44.2779 7.1791 46.7328 7.1791C49.4474 7.1791 50.8401 7.40335 50.911 7.85185L52.6459 22.7586L56.3992 7.67481C56.5172 7.32073 57.4378 7.14369 59.161 7.14369C60.8842 7.14369 61.8048 7.30893 61.9228 7.6394L65.6052 22.8294L67.6589 7.78103C67.7061 7.52138 68.249 7.34434 69.2876 7.24991C70.3263 7.15549 71.1642 7.10828 71.8016 7.10828C74.2801 7.10828 75.484 7.27352 75.4132 7.60399L71.1288 31.0794C71.0344 31.4335 70.3617 31.6931 69.1106 31.8584C67.8595 32.0236 66.8445 32.1062 66.0655 32.1062C63.1385 32.1062 61.6041 31.7758 61.4625 31.1148L59.0548 21.3776L56.4346 31.0794C56.3402 31.5043 55.514 31.8112 53.956 32C53.1535 32.0708 52.3509 32.1062 51.5483 32.1062L49.2822 32C47.7242 31.8348 46.8981 31.5397 46.8036 31.1148L43.1566 7.56859ZM79.3479 23.3605C79.7964 23.7146 80.5635 24.1985 81.6494 24.8122C82.7588 25.4259 83.8093 25.7328 84.8007 25.7328C85.8157 25.7328 86.3232 25.3433 86.3232 24.5644C86.3232 24.2103 86.1816 23.9034 85.8983 23.6437C85.6151 23.3605 85.0958 23.0418 84.3404 22.6877C83.585 22.3337 83.0185 22.0622 82.6408 21.8734C82.2631 21.6609 81.7556 21.3304 81.1183 20.8819C80.5045 20.4098 80.0324 19.9259 79.702 19.4302C78.7577 18.0847 78.2856 16.3733 78.2856 14.2961C78.2856 12.2188 79.0528 10.472 80.5872 9.05572C82.1451 7.6158 84.1751 6.89584 86.6773 6.89584C88.3769 6.89584 89.9466 7.08468 91.3865 7.46236C92.8265 7.81644 93.57 8.28855 93.6172 8.87868C93.6172 8.94949 93.6172 9.02031 93.6172 9.09112C93.6172 9.91731 93.3576 10.9677 92.8383 12.2424C92.319 13.4935 91.9531 14.1899 91.7406 14.3315C90.2299 13.5525 88.8726 13.163 87.6687 13.163C86.4885 13.163 85.8983 13.5879 85.8983 14.4377C85.8983 14.957 86.335 15.4173 87.2084 15.8186C87.3973 15.913 87.6687 16.0429 88.0228 16.2081C88.3769 16.3733 88.7782 16.574 89.2267 16.81C89.6988 17.0225 90.1945 17.3057 90.7138 17.6598C91.2567 17.9903 91.835 18.4388 92.4488 19.0053C93.6999 20.1856 94.3254 21.7435 94.3254 23.6792C94.3254 26.2049 93.629 28.2704 92.2363 29.8755C90.8436 31.4807 88.6956 32.3069 85.7921 32.3541C84.3758 32.3541 83.0893 32.2361 81.9327 32C80.7996 31.7639 79.8082 31.3036 78.9584 30.6191C78.1086 29.9345 77.6837 29.1084 77.6837 28.1405C77.6837 27.1727 77.8608 26.2167 78.2148 25.2725C78.5689 24.3047 78.9466 23.6674 79.3479 23.3605Z" fill="white"/>
<path d="M15.234 31.4335L16.9476 30.5195L16.9463 30.517L15.234 31.4335ZM9.32084 20.3862L11.0331 19.4697L7.37868 20.3862H9.32084ZM8.11698 7.39155L7.83575 9.31324L7.88739 9.32009L8.11698 7.39155ZM9.92278 8.0997L11.6463 7.20439L11.5882 7.10047L9.92278 8.0997ZM15.588 19.0053L13.8645 19.9006L17.5302 19.0053H15.588ZM20.2317 31.221C20.2317 30.8974 20.3287 30.5945 20.4857 30.349C20.6309 30.1218 20.795 29.993 20.8846 29.933C21.0385 29.8299 21.1023 29.8422 20.9184 29.8833C20.5785 29.9592 19.9201 30.0224 18.8456 30.0224V33.9068C19.9899 33.9068 20.9957 33.8461 21.7653 33.6741C22.1361 33.5913 22.6159 33.4487 23.0471 33.1597C23.5179 32.8442 24.1161 32.2065 24.1161 31.221H20.2317ZM18.8456 30.0224C17.7672 30.0224 17.0226 29.9782 16.5611 29.9103C16.3241 29.8755 16.2435 29.8456 16.2579 29.8512C16.2682 29.8551 16.3517 29.8868 16.4661 29.9669C16.5785 30.0456 16.7863 30.2171 16.9476 30.5195L13.5203 32.3474C13.9117 33.0813 14.5932 33.3735 14.8739 33.4805C15.2365 33.6188 15.631 33.6996 15.9959 33.7533C16.7382 33.8625 17.705 33.9068 18.8456 33.9068V30.0224ZM16.9463 30.517L11.0331 19.4697L7.60854 21.3027L13.5217 32.35L16.9463 30.517ZM7.37868 20.3862V31.3981H11.263V20.3862H7.37868ZM7.37868 31.3981C7.37868 30.5072 7.9999 30.0786 8.13981 29.9973C8.28171 29.9149 8.32624 29.931 8.12856 29.9693C7.76799 30.0391 7.09593 30.0932 6.02791 30.0932V33.9776C7.15519 33.9776 8.12959 33.9255 8.86666 33.7828C9.21781 33.7149 9.67395 33.5982 10.0903 33.3565C10.5046 33.1159 11.263 32.5014 11.263 31.3981H7.37868ZM6.02791 30.0932C4.97206 30.0932 4.31045 30.0391 3.95769 29.9701C3.76411 29.9322 3.81253 29.9171 3.95711 30.002C4.03943 30.0503 4.22061 30.1704 4.38983 30.4022C4.57728 30.6589 4.71255 31.0046 4.71255 31.3981H0.828232C0.828232 32.4909 1.57274 33.1064 1.99086 33.3519C2.4069 33.596 2.86252 33.7137 3.21186 33.7821C3.94494 33.9255 4.91208 33.9776 6.02791 33.9776V30.0932ZM4.71255 31.3981V7.71022H0.828232V31.3981H4.71255ZM4.71255 7.71022C4.71255 8.12763 4.56473 8.48933 4.36605 8.7534C4.18717 8.99115 3.99588 9.11452 3.9065 9.16543C3.74613 9.25678 3.67362 9.25002 3.83199 9.21995C4.11327 9.16654 4.66421 9.12126 5.56761 9.12126V5.23694C4.6062 5.23694 3.75853 5.28018 3.10741 5.40381C2.79957 5.46226 2.37741 5.56614 1.98394 5.79027C1.6001 6.00891 0.828232 6.60579 0.828232 7.71022H4.71255ZM5.56761 9.12126C6.18 9.12126 6.93218 9.18101 7.83575 9.31324L8.3982 5.46985C7.36614 5.31882 6.41875 5.23694 5.56761 5.23694V9.12126ZM7.88739 9.32009C8.08445 9.34355 8.24246 9.37061 8.3662 9.39811C8.49148 9.42595 8.56646 9.4509 8.60293 9.4652C8.64163 9.48038 8.61354 9.4744 8.5508 9.42894C8.48553 9.38164 8.36502 9.27832 8.25739 9.09893L11.5882 7.10047C11.1674 6.39922 10.5096 6.04059 10.0211 5.84901C9.50649 5.64722 8.92784 5.5322 8.34657 5.463L7.88739 9.32009ZM8.19929 8.99502L13.8645 19.9006L17.3115 18.11L11.6463 7.20439L8.19929 8.99502ZM17.5302 19.0053V7.88726H13.6459V19.0053H17.5302ZM17.5302 7.88726C17.5302 8.25687 17.4087 8.58862 17.2311 8.84253C17.0696 9.07356 16.8936 9.19679 16.8087 9.24882C16.6611 9.33929 16.6083 9.32472 16.8 9.28555C17.1509 9.21386 17.8148 9.15667 18.881 9.15667V5.27235C17.7518 5.27235 16.7693 5.32727 16.0225 5.47984C15.6654 5.55279 15.201 5.67838 14.7789 5.93704C14.3401 6.206 13.6459 6.83024 13.6459 7.88726H17.5302ZM18.881 9.15667C19.9471 9.15667 20.611 9.21386 20.9619 9.28555C21.1537 9.32472 21.1008 9.33929 20.9532 9.24882C20.8683 9.19679 20.6923 9.07356 20.5308 8.84253C20.3532 8.58862 20.2317 8.25687 20.2317 7.88726H24.1161C24.1161 6.83024 23.4218 6.206 22.983 5.93704C22.561 5.67837 22.0965 5.55279 21.7394 5.47984C20.9927 5.32727 20.0101 5.27235 18.881 5.27235V9.15667ZM20.2317 7.88726V31.221H24.1161V7.88726H20.2317ZM38.2291 21.3068L36.3152 20.9768L36.3065 21.0322L38.2291 21.3068ZM33.1658 22.2982V20.3561L31.2237 22.2982H33.1658ZM33.1658 25.839H31.2237L33.1658 27.7812V25.839ZM40.4952 27.397L38.5709 27.6594L38.5768 27.6999L40.4952 27.397ZM40.389 30.7961L38.4764 30.4586L38.4764 30.4586L40.389 30.7961ZM33.1658 13.4817V11.5395L31.2237 13.4817H33.1658ZM33.1658 17.0579H31.2237L33.1658 19V17.0579ZM37.7334 19C37.478 19 37.2197 18.938 36.9865 18.8153C36.7623 18.6973 36.6124 18.5504 36.5217 18.4391C36.3613 18.2421 36.3406 18.1013 36.3636 18.1863C36.4064 18.3438 36.464 18.7541 36.464 19.5364H40.3483C40.3483 18.6664 40.2938 17.8374 40.1123 17.1688C40.0233 16.8407 39.8624 16.3901 39.5338 15.9865C39.1578 15.5248 38.5415 15.1157 37.7334 15.1157V19ZM36.464 19.5364C36.464 19.8875 36.4213 20.3616 36.3152 20.9768L40.1431 21.6368C40.273 20.883 40.3483 20.1768 40.3483 19.5364H36.464ZM36.3065 21.0322C36.2718 21.275 36.2444 21.2374 36.3304 21.0868C36.3818 20.9969 36.5051 20.8121 36.7436 20.6452C37.005 20.4622 37.3277 20.3561 37.6626 20.3561V24.2404C38.7365 24.2404 39.3979 23.5478 39.703 23.014C39.9778 22.5329 40.092 21.9996 40.1518 21.5815L36.3065 21.0322ZM37.6626 20.3561H33.1658V24.2404H37.6626V20.3561ZM31.2237 22.2982V25.839H35.108V22.2982H31.2237ZM33.1658 27.7812H39.6809V23.8969H33.1658V27.7812ZM39.6809 27.7812C39.3254 27.7812 39.0051 27.6548 38.7707 27.4738C38.5653 27.3152 38.4801 27.1585 38.4642 27.1282C38.4457 27.0928 38.46 27.1098 38.4874 27.2131C38.5135 27.3115 38.5433 27.4569 38.5709 27.6594L42.4196 27.1346C42.3384 26.5395 42.1981 25.8863 41.9066 25.3288C41.6085 24.7586 40.9136 23.8969 39.6809 23.8969V27.7812ZM38.5768 27.6999C38.6298 28.0351 38.6593 28.4167 38.6593 28.8487H42.5436C42.5436 28.2421 42.5023 27.6558 42.4136 27.0941L38.5768 27.6999ZM38.6593 28.8487C38.6593 29.1826 38.6092 29.7062 38.4764 30.4586L42.3016 31.1337C42.4521 30.2809 42.5436 29.5062 42.5436 28.8487H38.6593ZM38.4764 30.4586C38.4203 30.7765 38.3756 30.8098 38.4317 30.7143C38.467 30.6544 38.5724 30.4929 38.7884 30.3399C39.0282 30.17 39.3403 30.0578 39.6809 30.0578V33.9422C40.7981 33.9422 41.4713 33.2082 41.7798 32.6837C42.072 32.187 42.2161 31.6184 42.3016 31.1337L38.4764 30.4586ZM39.6809 30.0578H27.5714V33.9422H39.6809V30.0578ZM27.5714 30.0578C27.3371 30.0578 27.522 30.0021 27.7899 30.2207C27.9355 30.3394 28.0443 30.4924 28.1078 30.648C28.1665 30.7916 28.168 30.8906 28.168 30.9024H24.2837C24.2837 31.6839 24.5425 32.5843 25.3346 33.2305C26.051 33.815 26.9086 33.9422 27.5714 33.9422V30.0578ZM28.168 30.9024V8.13511H24.2837V30.9024H28.168ZM28.168 8.13511C28.168 8.07301 28.1869 8.3892 27.8841 8.73148C27.5412 9.11918 27.1341 9.15667 27.0403 9.15667V5.27235C26.4035 5.27235 25.5892 5.46327 24.9748 6.15783C24.4005 6.80699 24.2837 7.58348 24.2837 8.13511H28.168ZM27.0403 9.15667H39.7163V5.27235H27.0403V9.15667ZM39.7163 9.15667C39.4152 9.15667 39.1265 9.07156 38.8847 8.92513C38.6583 8.78807 38.524 8.62911 38.4564 8.53357C38.3397 8.36875 38.3455 8.28646 38.3837 8.44835C38.4543 8.74782 38.5177 9.35252 38.5177 10.3658H42.402C42.402 9.27823 42.3414 8.30727 42.1642 7.55632C42.0785 7.19299 41.9293 6.71679 41.6268 6.28936C41.2898 5.81338 40.6529 5.27235 39.7163 5.27235V9.15667ZM38.5177 10.3658C38.5177 11.3668 38.4543 11.9606 38.3848 12.2519C38.3473 12.4093 38.3429 12.3233 38.4624 12.1564C38.5316 12.0598 38.6669 11.902 38.893 11.7666C39.1339 11.6224 39.4196 11.5395 39.7163 11.5395V15.4239C40.643 15.4239 41.2796 14.8941 41.6208 14.4175C41.9261 13.9909 42.0767 13.5155 42.1631 13.1535C42.3414 12.4062 42.402 11.4421 42.402 10.3658H38.5177ZM39.7163 11.5395H33.1658V15.4239H39.7163V11.5395ZM31.2237 13.4817V17.0579H35.108V13.4817H31.2237ZM33.1658 19H37.7334V15.1157H33.1658V19ZM43.1566 7.56859L45.0759 7.27131L45.0304 7.05757L43.1566 7.56859ZM50.911 7.85185L52.8401 7.62732L52.8293 7.54894L50.911 7.85185ZM52.6459 22.7586L50.7168 22.9831L54.5306 23.2275L52.6459 22.7586ZM56.3992 7.67481L54.5567 7.06064L54.5145 7.20585L56.3992 7.67481ZM61.9228 7.6394L63.8103 7.18183L63.7518 6.98618L61.9228 7.6394ZM65.6052 22.8294L63.7177 23.2869L67.5295 23.092L65.6052 22.8294ZM67.6589 7.78103L65.748 7.43362L65.7345 7.51842L67.6589 7.78103ZM69.2876 7.24991L69.1118 5.31573L69.1118 5.31573L69.2876 7.24991ZM75.4132 7.60399L73.5141 7.19705L73.5026 7.2553L75.4132 7.60399ZM71.1288 31.0794L73.0054 31.5798L73.0394 31.4281L71.1288 31.0794ZM69.1106 31.8584L68.8563 29.9329L68.8563 29.9329L69.1106 31.8584ZM61.4625 31.1148L63.3615 30.7079L63.3479 30.6486L61.4625 31.1148ZM59.0548 21.3776L60.9401 20.9114L57.1798 20.8713L59.0548 21.3776ZM56.4346 31.0794L54.5596 30.573L54.5387 30.6581L56.4346 31.0794ZM53.956 32L54.1267 33.9346L54.1897 33.928L53.956 32ZM51.5483 32.1062L51.4574 34.0463L51.5483 34.0484V32.1062ZM49.2822 32L49.0774 33.9313L49.1913 33.94L49.2822 32ZM46.8036 31.1148L44.8844 31.4121L44.9077 31.5361L46.8036 31.1148ZM45.0304 7.05757C45.126 7.40835 45.1211 7.79999 44.9869 8.17534C44.8612 8.52701 44.6588 8.76325 44.5102 8.90111C44.246 9.14615 43.9945 9.22694 43.9776 9.23281C43.9012 9.25936 43.9394 9.23645 44.2079 9.20721C44.6942 9.15424 45.5189 9.12126 46.7328 9.12126V5.23694C45.4918 5.23694 44.493 5.26887 43.7873 5.34573C43.4597 5.3814 43.0598 5.43964 42.703 5.56356C42.546 5.61811 42.1937 5.75165 41.8684 6.05348C41.4598 6.4325 41.0348 7.1698 41.2829 8.0796L45.0304 7.05757ZM46.7328 9.12126C48.0628 9.12126 48.9649 9.17785 49.5046 9.26475C49.7883 9.31044 49.852 9.34663 49.7988 9.32217C49.7683 9.30816 49.6266 9.24127 49.4645 9.08272C49.2877 8.90984 49.063 8.60071 48.9926 8.15475L52.8293 7.54894C52.652 6.42581 51.7454 5.94193 51.4212 5.79287C51.0021 5.60022 50.5346 5.49626 50.1221 5.42982C49.269 5.29247 48.1175 5.23694 46.7328 5.23694V9.12126ZM48.9818 8.07638L50.7168 22.9831L54.5751 22.534L52.8401 7.62732L48.9818 8.07638ZM54.5306 23.2275L58.2839 8.14377L54.5145 7.20585L50.7612 22.2896L54.5306 23.2275ZM58.2417 8.28897C58.0398 8.89471 57.5986 9.13269 57.5224 9.17164C57.4209 9.22357 57.3998 9.21159 57.5449 9.18369C57.8231 9.13019 58.3385 9.08585 59.161 9.08585V5.20153C58.2603 5.20153 57.4538 5.24572 56.8114 5.36926C56.4962 5.42987 56.1151 5.52854 55.7539 5.71326C55.4181 5.88498 54.8176 6.27787 54.5567 7.06064L58.2417 8.28897ZM59.161 9.08585C59.9863 9.08585 60.5111 9.12726 60.8007 9.17923C60.9523 9.20644 60.9407 9.21988 60.8472 9.17529C60.7951 9.15042 60.6741 9.08701 60.5358 8.96151C60.392 8.83099 60.2081 8.61283 60.0938 8.29262L63.7518 6.98618C63.4673 6.18963 62.8314 5.81821 62.5203 5.66977C62.1673 5.50125 61.7956 5.41142 61.4869 5.35601C60.8559 5.24274 60.0589 5.20153 59.161 5.20153V9.08585ZM60.0353 8.09698L63.7177 23.2869L67.4927 22.3718L63.8103 7.18183L60.0353 8.09698ZM67.5295 23.092L69.5832 8.04365L65.7345 7.51842L63.6809 22.5668L67.5295 23.092ZM69.5697 8.12845C69.4636 8.71199 69.1094 9.03948 68.9425 9.16297C68.7821 9.28166 68.6688 9.31131 68.7036 9.29998C68.767 9.2793 68.9911 9.22704 69.4635 9.1841L69.1118 5.31573C68.5455 5.36721 67.9789 5.45068 67.4994 5.60704C67.2626 5.68423 66.9399 5.81273 66.6319 6.04059C66.3175 6.27325 65.8777 6.72025 65.748 7.43362L69.5697 8.12845ZM69.4635 9.1841C70.4753 9.09211 71.2479 9.05045 71.8016 9.05045V5.16612C71.0806 5.16612 70.1772 5.21888 69.1118 5.31573L69.4635 9.1841ZM71.8016 9.05045C73.0235 9.05045 73.8347 9.09256 74.2993 9.15633C74.559 9.19197 74.5617 9.21584 74.4488 9.16645C74.3996 9.1449 74.1474 9.03412 73.9054 8.75175C73.5991 8.39441 73.3786 7.82937 73.5141 7.19705L77.3122 8.01094C77.4654 7.296 77.2228 6.65351 76.8546 6.22387C76.5506 5.86922 76.1966 5.6913 76.0057 5.6078C75.6096 5.43447 75.1698 5.35507 74.8275 5.30809C74.0882 5.20663 73.0582 5.16612 71.8016 5.16612V9.05045ZM73.5026 7.2553L69.2182 30.7307L73.0394 31.4281L77.3238 7.95269L73.5026 7.2553ZM69.2523 30.579C69.3667 30.1499 69.6174 29.9058 69.7363 29.8107C69.8498 29.7199 69.9152 29.7042 69.8541 29.7278C69.8033 29.7474 69.6986 29.7812 69.5216 29.8203C69.3481 29.8586 69.1283 29.897 68.8563 29.9329L69.3649 33.7838C70.0474 33.6937 70.7049 33.5631 71.2528 33.3516C71.6528 33.1972 72.6954 32.7425 73.0054 31.5798L69.2523 30.579ZM68.8563 29.9329C67.6448 30.0929 66.7238 30.1641 66.0655 30.1641V34.0484C66.9651 34.0484 68.0743 33.9543 69.3649 33.7838L68.8563 29.9329ZM66.0655 30.1641C64.6432 30.1641 63.6917 30.0811 63.1284 29.9597C62.8401 29.8977 62.7725 29.8497 62.8187 29.877C62.8669 29.9055 63.2409 30.1448 63.3615 30.7079L59.5634 31.5217C59.7549 32.4152 60.3739 32.9438 60.841 33.2201C61.3062 33.4953 61.8317 33.6538 62.3105 33.757C63.2815 33.9661 64.5608 34.0484 66.0655 34.0484V30.1641ZM63.3479 30.6486L60.9401 20.9114L57.1694 21.8438L59.5771 31.581L63.3479 30.6486ZM57.1798 20.8713L54.5596 30.573L58.3096 31.5858L60.9297 21.884L57.1798 20.8713ZM54.5387 30.6581C54.6407 30.1991 54.9068 29.944 55.0181 29.8556C55.1222 29.7728 55.1682 29.7703 55.0679 29.8076C54.8672 29.8821 54.4479 29.984 53.7223 30.072L54.1897 33.928C55.0221 33.8272 55.7949 33.6812 56.4204 33.4488C56.7331 33.3327 57.1008 33.162 57.4351 32.8963C57.7764 32.625 58.1813 32.1722 58.3305 31.5007L54.5387 30.6581ZM53.7853 30.0654C53.0393 30.1312 52.2937 30.1641 51.5483 30.1641V34.0484C52.4081 34.0484 53.2676 34.0104 54.1267 33.9346L53.7853 30.0654ZM51.6392 30.1662L49.3731 30.06L49.1913 33.94L51.4574 34.0463L51.6392 30.1662ZM49.487 30.0687C48.7616 29.9917 48.3446 29.8962 48.1473 29.8258C48.0486 29.7905 48.0991 29.794 48.2081 29.8793C48.3259 29.9714 48.5966 30.23 48.6996 30.6935L44.9077 31.5361C45.0579 32.2121 45.4673 32.6669 45.8152 32.939C46.1544 33.2043 46.5265 33.3715 46.8409 33.4838C47.4698 33.7084 48.2449 33.843 49.0774 33.9313L49.487 30.0687ZM48.7229 30.8175L45.0759 7.27131L41.2374 7.86586L44.8844 31.4121L48.7229 30.8175ZM79.3479 23.3605L80.5513 21.8361L78.1681 21.8177L79.3479 23.3605ZM81.6494 24.8122L80.6937 26.503L80.7093 26.5117L81.6494 24.8122ZM85.8983 23.6437L84.525 25.0171L84.586 25.0754L85.8983 23.6437ZM84.3404 22.6877L83.5161 24.4463L83.5161 24.4463L84.3404 22.6877ZM82.6408 21.8734L81.6886 23.5661L81.7722 23.6105L82.6408 21.8734ZM81.1183 20.8819L79.9341 22.4213L80.0006 22.4702L81.1183 20.8819ZM79.702 19.4302L81.3179 18.3529L81.2917 18.3146L79.702 19.4302ZM80.5872 9.05572L81.9045 10.4828L81.9054 10.482L80.5872 9.05572ZM91.3865 7.46236L90.8938 9.34098L90.9228 9.34834L91.3865 7.46236ZM93.6172 8.87868H95.5594L95.5532 8.7238L93.6172 8.87868ZM92.8383 12.2424L94.6321 12.987L94.6369 12.9752L92.8383 12.2424ZM91.7406 14.3315L90.8506 16.0577L92.8179 15.9475L91.7406 14.3315ZM87.2084 15.8186L88.077 14.0815L88.0193 14.0538L87.2084 15.8186ZM88.0228 16.2081L87.2015 17.9681L87.2015 17.9681L88.0228 16.2081ZM89.2267 16.81L88.3221 18.5287L88.4297 18.5811L89.2267 16.81ZM90.7138 17.6598L89.6197 19.2645L89.704 19.3188L90.7138 17.6598ZM92.4488 19.0053L93.7815 17.5926L93.7661 17.5782L92.4488 19.0053ZM92.2363 29.8755L93.7033 31.1483L93.7033 31.1483L92.2363 29.8755ZM85.7921 32.3541V34.2962L85.8237 34.296L85.7921 32.3541ZM81.9327 32L81.5365 33.9014L81.5443 33.9029L81.9327 32ZM78.9584 30.6191L80.1768 29.1066L80.1768 29.1066L78.9584 30.6191ZM78.2148 25.2725L80.0333 25.9544L80.0388 25.9398L78.2148 25.2725ZM78.1444 24.8849C78.7187 25.3382 79.5979 25.8836 80.6937 26.503L82.605 23.1214C81.5292 22.5133 80.8741 22.0909 80.5513 21.8361L78.1444 24.8849ZM80.7093 26.5117C82.0281 27.2412 83.4011 27.675 84.8007 27.675V23.7907C84.2174 23.7907 83.4896 23.6107 82.5895 23.1128L80.7093 26.5117ZM84.8007 27.675C85.5021 27.675 86.3844 27.5498 87.125 26.9814C87.963 26.3383 88.2654 25.4112 88.2654 24.5644H84.3811C84.3811 24.5508 84.3832 24.4479 84.4467 24.3018C84.5152 24.1441 84.6267 24.0024 84.7602 23.9C84.8833 23.8055 84.9779 23.7801 84.9855 23.7782C84.9904 23.777 84.9366 23.7907 84.8007 23.7907V27.675ZM88.2654 24.5644C88.2654 23.616 87.857 22.8045 87.2107 22.2121L84.586 25.0754C84.5636 25.055 84.5045 24.9928 84.4536 24.8825C84.401 24.7686 84.3811 24.6546 84.3811 24.5644H88.2654ZM87.2716 22.2704C86.7349 21.7337 85.9521 21.2983 85.1647 20.9292L83.5161 24.4463C83.8502 24.6029 84.1006 24.7372 84.2806 24.8476C84.4703 24.964 84.5314 25.0235 84.525 25.0171L87.2716 22.2704ZM85.1647 20.9292C84.4128 20.5768 83.8644 20.3137 83.5094 20.1362L81.7722 23.6105C82.1726 23.8107 82.7572 24.0906 83.5161 24.4463L85.1647 20.9292ZM83.593 20.1806C83.3001 20.0159 82.8548 19.7291 82.236 19.2936L80.0006 22.4702C80.6564 22.9318 81.2262 23.306 81.6886 23.5661L83.593 20.1806ZM82.3024 19.3425C81.8093 18.9632 81.5014 18.6281 81.3179 18.3529L78.086 20.5075C78.5634 21.2237 79.1998 21.8565 79.9341 22.4213L82.3024 19.3425ZM81.2917 18.3146C80.6309 17.3729 80.2278 16.0798 80.2278 14.2961H76.3435C76.3435 16.6669 76.8846 18.7965 78.1122 20.5458L81.2917 18.3146ZM80.2278 14.2961C80.2278 12.7641 80.7661 11.5337 81.9045 10.4828L79.2698 7.62861C77.3396 9.4104 76.3435 11.6735 76.3435 14.2961H80.2278ZM81.9054 10.482C83.0414 9.43203 84.5706 8.838 86.6773 8.838V4.95368C83.7797 4.95368 81.2488 5.79956 79.2689 7.62944L81.9054 10.482ZM86.6773 8.838C88.2336 8.838 89.6356 9.01095 90.8938 9.34098L91.8793 5.58375C90.2577 5.15841 88.5202 4.95368 86.6773 4.95368V8.838ZM90.9228 9.34834C91.2261 9.42293 91.4651 9.4971 91.6486 9.56653C91.8352 9.63714 91.9381 9.69299 91.9831 9.7216C92.0312 9.75209 91.9743 9.72667 91.8934 9.61796C91.8009 9.49368 91.7019 9.29183 91.6813 9.03355L95.5532 8.7238C95.4607 7.56749 94.6909 6.83967 94.0652 6.4424C93.4351 6.04232 92.6551 5.77428 91.8503 5.57639L90.9228 9.34834ZM91.6751 8.87868C91.6751 8.87881 91.6751 8.87895 91.6751 8.87909C91.6751 8.87923 91.6751 8.87937 91.6751 8.87951C91.6751 8.87964 91.6751 8.87978 91.6751 8.87992C91.6751 8.88006 91.6751 8.8802 91.6751 8.88034C91.6751 8.88047 91.6751 8.88061 91.6751 8.88075C91.6751 8.88089 91.6751 8.88103 91.6751 8.88117C91.6751 8.8813 91.6751 8.88144 91.6751 8.88158C91.6751 8.88172 91.6751 8.88186 91.6751 8.882C91.6751 8.88213 91.6751 8.88227 91.6751 8.88241C91.6751 8.88255 91.6751 8.88269 91.6751 8.88282C91.6751 8.88296 91.6751 8.8831 91.6751 8.88324C91.6751 8.88338 91.6751 8.88352 91.6751 8.88365C91.6751 8.88379 91.6751 8.88393 91.6751 8.88407C91.6751 8.88421 91.6751 8.88435 91.6751 8.88448C91.6751 8.88462 91.6751 8.88476 91.6751 8.8849C91.6751 8.88504 91.6751 8.88518 91.6751 8.88531C91.6751 8.88545 91.6751 8.88559 91.6751 8.88573C91.6751 8.88587 91.6751 8.88601 91.6751 8.88614C91.6751 8.88628 91.6751 8.88642 91.6751 8.88656C91.6751 8.8867 91.6751 8.88684 91.6751 8.88697C91.6751 8.88711 91.6751 8.88725 91.6751 8.88739C91.6751 8.88753 91.6751 8.88767 91.6751 8.8878C91.6751 8.88794 91.6751 8.88808 91.6751 8.88822C91.6751 8.88836 91.6751 8.8885 91.6751 8.88863C91.6751 8.88877 91.6751 8.88891 91.6751 8.88905C91.6751 8.88919 91.6751 8.88933 91.6751 8.88946C91.6751 8.8896 91.6751 8.88974 91.6751 8.88988C91.6751 8.89002 91.6751 8.89016 91.6751 8.89029C91.6751 8.89043 91.6751 8.89057 91.6751 8.89071C91.6751 8.89085 91.6751 8.89099 91.6751 8.89112C91.6751 8.89126 91.6751 8.8914 91.6751 8.89154C91.6751 8.89168 91.6751 8.89182 91.6751 8.89195C91.6751 8.89209 91.6751 8.89223 91.6751 8.89237C91.6751 8.89251 91.6751 8.89265 91.6751 8.89278C91.6751 8.89292 91.6751 8.89306 91.6751 8.8932C91.6751 8.89334 91.6751 8.89347 91.6751 8.89361C91.6751 8.89375 91.6751 8.89389 91.6751 8.89403C91.6751 8.89417 91.6751 8.8943 91.6751 8.89444C91.6751 8.89458 91.6751 8.89472 91.6751 8.89486C91.6751 8.895 91.6751 8.89513 91.6751 8.89527C91.6751 8.89541 91.6751 8.89555 91.6751 8.89569C91.6751 8.89583 91.6751 8.89596 91.6751 8.8961C91.6751 8.89624 91.6751 8.89638 91.6751 8.89652C91.6751 8.89666 91.6751 8.89679 91.6751 8.89693C91.6751 8.89707 91.6751 8.89721 91.6751 8.89735C91.6751 8.89749 91.6751 8.89762 91.6751 8.89776C91.6751 8.8979 91.6751 8.89804 91.6751 8.89818C91.6751 8.89832 91.6751 8.89845 91.6751 8.89859C91.6751 8.89873 91.6751 8.89887 91.6751 8.89901C91.6751 8.89915 91.6751 8.89928 91.6751 8.89942C91.6751 8.89956 91.6751 8.8997 91.6751 8.89984C91.6751 8.89998 91.6751 8.90011 91.6751 8.90025C91.6751 8.90039 91.6751 8.90053 91.6751 8.90067C91.6751 8.90081 91.6751 8.90094 91.6751 8.90108C91.6751 8.90122 91.6751 8.90136 91.6751 8.9015C91.6751 8.90164 91.6751 8.90177 91.6751 8.90191C91.6751 8.90205 91.6751 8.90219 91.6751 8.90233C91.6751 8.90247 91.6751 8.9026 91.6751 8.90274C91.6751 8.90288 91.6751 8.90302 91.6751 8.90316C91.6751 8.9033 91.6751 8.90343 91.6751 8.90357C91.6751 8.90371 91.6751 8.90385 91.6751 8.90399C91.6751 8.90413 91.6751 8.90426 91.6751 8.9044C91.6751 8.90454 91.6751 8.90468 91.6751 8.90482C91.6751 8.90495 91.6751 8.90509 91.6751 8.90523C91.6751 8.90537 91.6751 8.90551 91.6751 8.90565C91.6751 8.90578 91.6751 8.90592 91.6751 8.90606C91.6751 8.9062 91.6751 8.90634 91.6751 8.90648C91.6751 8.90661 91.6751 8.90675 91.6751 8.90689C91.6751 8.90703 91.6751 8.90717 91.6751 8.90731C91.6751 8.90744 91.6751 8.90758 91.6751 8.90772C91.6751 8.90786 91.6751 8.908 91.6751 8.90814C91.6751 8.90827 91.6751 8.90841 91.6751 8.90855C91.6751 8.90869 91.6751 8.90883 91.6751 8.90897C91.6751 8.9091 91.6751 8.90924 91.6751 8.90938C91.6751 8.90952 91.6751 8.90966 91.6751 8.9098C91.6751 8.90993 91.6751 8.91007 91.6751 8.91021C91.6751 8.91035 91.6751 8.91049 91.6751 8.91063C91.6751 8.91076 91.6751 8.9109 91.6751 8.91104C91.6751 8.91118 91.6751 8.91132 91.6751 8.91146C91.6751 8.91159 91.6751 8.91173 91.6751 8.91187C91.6751 8.91201 91.6751 8.91215 91.6751 8.91229C91.6751 8.91242 91.6751 8.91256 91.6751 8.9127C91.6751 8.91284 91.6751 8.91298 91.6751 8.91312C91.6751 8.91325 91.6751 8.91339 91.6751 8.91353C91.6751 8.91367 91.6751 8.91381 91.6751 8.91395C91.6751 8.91408 91.6751 8.91422 91.6751 8.91436C91.6751 8.9145 91.6751 8.91464 91.6751 8.91478C91.6751 8.91491 91.6751 8.91505 91.6751 8.91519C91.6751 8.91533 91.6751 8.91547 91.6751 8.91561C91.6751 8.91574 91.6751 8.91588 91.6751 8.91602C91.6751 8.91616 91.6751 8.9163 91.6751 8.91643C91.6751 8.91657 91.6751 8.91671 91.6751 8.91685C91.6751 8.91699 91.6751 8.91713 91.6751 8.91726C91.6751 8.9174 91.6751 8.91754 91.6751 8.91768C91.6751 8.91782 91.6751 8.91796 91.6751 8.91809C91.6751 8.91823 91.6751 8.91837 91.6751 8.91851C91.6751 8.91865 91.6751 8.91879 91.6751 8.91892C91.6751 8.91906 91.6751 8.9192 91.6751 8.91934C91.6751 8.91948 91.6751 8.91962 91.6751 8.91975C91.6751 8.91989 91.6751 8.92003 91.6751 8.92017C91.6751 8.92031 91.6751 8.92045 91.6751 8.92058C91.6751 8.92072 91.6751 8.92086 91.6751 8.921C91.6751 8.92114 91.6751 8.92128 91.6751 8.92141C91.6751 8.92155 91.6751 8.92169 91.6751 8.92183C91.6751 8.92197 91.6751 8.92211 91.6751 8.92224C91.6751 8.92238 91.6751 8.92252 91.6751 8.92266C91.6751 8.9228 91.6751 8.92294 91.6751 8.92307C91.6751 8.92321 91.6751 8.92335 91.6751 8.92349C91.6751 8.92363 91.6751 8.92377 91.6751 8.9239C91.6751 8.92404 91.6751 8.92418 91.6751 8.92432C91.6751 8.92446 91.6751 8.9246 91.6751 8.92473C91.6751 8.92487 91.6751 8.92501 91.6751 8.92515C91.6751 8.92529 91.6751 8.92543 91.6751 8.92556C91.6751 8.9257 91.6751 8.92584 91.6751 8.92598C91.6751 8.92612 91.6751 8.92626 91.6751 8.92639C91.6751 8.92653 91.6751 8.92667 91.6751 8.92681C91.6751 8.92695 91.6751 8.92709 91.6751 8.92722C91.6751 8.92736 91.6751 8.9275 91.6751 8.92764C91.6751 8.92778 91.6751 8.92791 91.6751 8.92805C91.6751 8.92819 91.6751 8.92833 91.6751 8.92847C91.6751 8.92861 91.6751 8.92874 91.6751 8.92888C91.6751 8.92902 91.6751 8.92916 91.6751 8.9293C91.6751 8.92944 91.6751 8.92957 91.6751 8.92971C91.6751 8.92985 91.6751 8.92999 91.6751 8.93013C91.6751 8.93027 91.6751 8.9304 91.6751 8.93054C91.6751 8.93068 91.6751 8.93082 91.6751 8.93096C91.6751 8.9311 91.6751 8.93123 91.6751 8.93137C91.6751 8.93151 91.6751 8.93165 91.6751 8.93179C91.6751 8.93193 91.6751 8.93206 91.6751 8.9322C91.6751 8.93234 91.6751 8.93248 91.6751 8.93262C91.6751 8.93276 91.6751 8.93289 91.6751 8.93303C91.6751 8.93317 91.6751 8.93331 91.6751 8.93345C91.6751 8.93359 91.6751 8.93372 91.6751 8.93386C91.6751 8.934 91.6751 8.93414 91.6751 8.93428C91.6751 8.93442 91.6751 8.93455 91.6751 8.93469C91.6751 8.93483 91.6751 8.93497 91.6751 8.93511C91.6751 8.93525 91.6751 8.93538 91.6751 8.93552C91.6751 8.93566 91.6751 8.9358 91.6751 8.93594C91.6751 8.93608 91.6751 8.93621 91.6751 8.93635C91.6751 8.93649 91.6751 8.93663 91.6751 8.93677C91.6751 8.93691 91.6751 8.93704 91.6751 8.93718C91.6751 8.93732 91.6751 8.93746 91.6751 8.9376C91.6751 8.93774 91.6751 8.93787 91.6751 8.93801C91.6751 8.93815 91.6751 8.93829 91.6751 8.93843C91.6751 8.93856 91.6751 8.9387 91.6751 8.93884C91.6751 8.93898 91.6751 8.93912 91.6751 8.93926C91.6751 8.93939 91.6751 8.93953 91.6751 8.93967C91.6751 8.93981 91.6751 8.93995 91.6751 8.94009C91.6751 8.94022 91.6751 8.94036 91.6751 8.9405C91.6751 8.94064 91.6751 8.94078 91.6751 8.94092C91.6751 8.94105 91.6751 8.94119 91.6751 8.94133C91.6751 8.94147 91.6751 8.94161 91.6751 8.94175C91.6751 8.94188 91.6751 8.94202 91.6751 8.94216C91.6751 8.9423 91.6751 8.94244 91.6751 8.94258C91.6751 8.94271 91.6751 8.94285 91.6751 8.94299C91.6751 8.94313 91.6751 8.94327 91.6751 8.94341C91.6751 8.94354 91.6751 8.94368 91.6751 8.94382C91.6751 8.94396 91.6751 8.9441 91.6751 8.94424C91.6751 8.94437 91.6751 8.94451 91.6751 8.94465C91.6751 8.94479 91.6751 8.94493 91.6751 8.94507C91.6751 8.9452 91.6751 8.94534 91.6751 8.94548C91.6751 8.94562 91.6751 8.94576 91.6751 8.9459C91.6751 8.94603 91.6751 8.94617 91.6751 8.94631C91.6751 8.94645 91.6751 8.94659 91.6751 8.94673C91.6751 8.94686 91.6751 8.947 91.6751 8.94714C91.6751 8.94728 91.6751 8.94742 91.6751 8.94756C91.6751 8.94769 91.6751 8.94783 91.6751 8.94797C91.6751 8.94811 91.6751 8.94825 91.6751 8.94839C91.6751 8.94852 91.6751 8.94866 91.6751 8.9488C91.6751 8.94894 91.6751 8.94908 91.6751 8.94922C91.6751 8.94935 91.6751 8.94949 91.6751 8.94963C91.6751 8.94977 91.6751 8.94991 91.6751 8.95004C91.6751 8.95018 91.6751 8.95032 91.6751 8.95046C91.6751 8.9506 91.6751 8.95074 91.6751 8.95087C91.6751 8.95101 91.6751 8.95115 91.6751 8.95129C91.6751 8.95143 91.6751 8.95157 91.6751 8.9517C91.6751 8.95184 91.6751 8.95198 91.6751 8.95212C91.6751 8.95226 91.6751 8.9524 91.6751 8.95253C91.6751 8.95267 91.6751 8.95281 91.6751 8.95295C91.6751 8.95309 91.6751 8.95323 91.6751 8.95336C91.6751 8.9535 91.6751 8.95364 91.6751 8.95378C91.6751 8.95392 91.6751 8.95406 91.6751 8.95419C91.6751 8.95433 91.6751 8.95447 91.6751 8.95461C91.6751 8.95475 91.6751 8.95489 91.6751 8.95502C91.6751 8.95516 91.6751 8.9553 91.6751 8.95544C91.6751 8.95558 91.6751 8.95572 91.6751 8.95585C91.6751 8.95599 91.6751 8.95613 91.6751 8.95627C91.6751 8.95641 91.6751 8.95655 91.6751 8.95668C91.6751 8.95682 91.6751 8.95696 91.6751 8.9571C91.6751 8.95724 91.6751 8.95738 91.6751 8.95751C91.6751 8.95765 91.6751 8.95779 91.6751 8.95793C91.6751 8.95807 91.6751 8.95821 91.6751 8.95834C91.6751 8.95848 91.6751 8.95862 91.6751 8.95876C91.6751 8.9589 91.6751 8.95904 91.6751 8.95917C91.6751 8.95931 91.6751 8.95945 91.6751 8.95959C91.6751 8.95973 91.6751 8.95987 91.6751 8.96C91.6751 8.96014 91.6751 8.96028 91.6751 8.96042C91.6751 8.96056 91.6751 8.9607 91.6751 8.96083C91.6751 8.96097 91.6751 8.96111 91.6751 8.96125C91.6751 8.96139 91.6751 8.96152 91.6751 8.96166C91.6751 8.9618 91.6751 8.96194 91.6751 8.96208C91.6751 8.96222 91.6751 8.96235 91.6751 8.96249C91.6751 8.96263 91.6751 8.96277 91.6751 8.96291C91.6751 8.96305 91.6751 8.96318 91.6751 8.96332C91.6751 8.96346 91.6751 8.9636 91.6751 8.96374C91.6751 8.96388 91.6751 8.96401 91.6751 8.96415C91.6751 8.96429 91.6751 8.96443 91.6751 8.96457C91.6751 8.96471 91.6751 8.96484 91.6751 8.96498C91.6751 8.96512 91.6751 8.96526 91.6751 8.9654C91.6751 8.96554 91.6751 8.96567 91.6751 8.96581C91.6751 8.96595 91.6751 8.96609 91.6751 8.96623C91.6751 8.96637 91.6751 8.9665 91.6751 8.96664C91.6751 8.96678 91.6751 8.96692 91.6751 8.96706C91.6751 8.9672 91.6751 8.96733 91.6751 8.96747C91.6751 8.96761 91.6751 8.96775 91.6751 8.96789C91.6751 8.96803 91.6751 8.96816 91.6751 8.9683C91.6751 8.96844 91.6751 8.96858 91.6751 8.96872C91.6751 8.96886 91.6751 8.96899 91.6751 8.96913C91.6751 8.96927 91.6751 8.96941 91.6751 8.96955C91.6751 8.96969 91.6751 8.96982 91.6751 8.96996C91.6751 8.9701 91.6751 8.97024 91.6751 8.97038C91.6751 8.97052 91.6751 8.97065 91.6751 8.97079C91.6751 8.97093 91.6751 8.97107 91.6751 8.97121C91.6751 8.97135 91.6751 8.97148 91.6751 8.97162C91.6751 8.97176 91.6751 8.9719 91.6751 8.97204C91.6751 8.97217 91.6751 8.97231 91.6751 8.97245C91.6751 8.97259 91.6751 8.97273 91.6751 8.97287C91.6751 8.973 91.6751 8.97314 91.6751 8.97328C91.6751 8.97342 91.6751 8.97356 91.6751 8.9737C91.6751 8.97383 91.6751 8.97397 91.6751 8.97411C91.6751 8.97425 91.6751 8.97439 91.6751 8.97453C91.6751 8.97466 91.6751 8.9748 91.6751 8.97494C91.6751 8.97508 91.6751 8.97522 91.6751 8.97536C91.6751 8.97549 91.6751 8.97563 91.6751 8.97577C91.6751 8.97591 91.6751 8.97605 91.6751 8.97619C91.6751 8.97632 91.6751 8.97646 91.6751 8.9766C91.6751 8.97674 91.6751 8.97688 91.6751 8.97702C91.6751 8.97715 91.6751 8.97729 91.6751 8.97743C91.6751 8.97757 91.6751 8.97771 91.6751 8.97785C91.6751 8.97798 91.6751 8.97812 91.6751 8.97826C91.6751 8.9784 91.6751 8.97854 91.6751 8.97868C91.6751 8.97881 91.6751 8.97895 91.6751 8.97909C91.6751 8.97923 91.6751 8.97937 91.6751 8.97951C91.6751 8.97964 91.6751 8.97978 91.6751 8.97992C91.6751 8.98006 91.6751 8.9802 91.6751 8.98034C91.6751 8.98047 91.6751 8.98061 91.6751 8.98075C91.6751 8.98089 91.6751 8.98103 91.6751 8.98117C91.6751 8.9813 91.6751 8.98144 91.6751 8.98158C91.6751 8.98172 91.6751 8.98186 91.6751 8.982C91.6751 8.98213 91.6751 8.98227 91.6751 8.98241C91.6751 8.98255 91.6751 8.98269 91.6751 8.98283C91.6751 8.98296 91.6751 8.9831 91.6751 8.98324C91.6751 8.98338 91.6751 8.98352 91.6751 8.98365C91.6751 8.98379 91.6751 8.98393 91.6751 8.98407C91.6751 8.98421 91.6751 8.98435 91.6751 8.98448C91.6751 8.98462 91.6751 8.98476 91.6751 8.9849C91.6751 8.98504 91.6751 8.98518 91.6751 8.98531C91.6751 8.98545 91.6751 8.98559 91.6751 8.98573C91.6751 8.98587 91.6751 8.98601 91.6751 8.98614C91.6751 8.98628 91.6751 8.98642 91.6751 8.98656C91.6751 8.9867 91.6751 8.98684 91.6751 8.98697C91.6751 8.98711 91.6751 8.98725 91.6751 8.98739C91.6751 8.98753 91.6751 8.98767 91.6751 8.9878C91.6751 8.98794 91.6751 8.98808 91.6751 8.98822C91.6751 8.98836 91.6751 8.9885 91.6751 8.98863C91.6751 8.98877 91.6751 8.98891 91.6751 8.98905C91.6751 8.98919 91.6751 8.98933 91.6751 8.98946C91.6751 8.9896 91.6751 8.98974 91.6751 8.98988C91.6751 8.99002 91.6751 8.99016 91.6751 8.99029C91.6751 8.99043 91.6751 8.99057 91.6751 8.99071C91.6751 8.99085 91.6751 8.99099 91.6751 8.99112C91.6751 8.99126 91.6751 8.9914 91.6751 8.99154C91.6751 8.99168 91.6751 8.99182 91.6751 8.99195C91.6751 8.99209 91.6751 8.99223 91.6751 8.99237C91.6751 8.99251 91.6751 8.99265 91.6751 8.99278C91.6751 8.99292 91.6751 8.99306 91.6751 8.9932C91.6751 8.99334 91.6751 8.99348 91.6751 8.99361C91.6751 8.99375 91.6751 8.99389 91.6751 8.99403C91.6751 8.99417 91.6751 8.99431 91.6751 8.99444C91.6751 8.99458 91.6751 8.99472 91.6751 8.99486C91.6751 8.995 91.6751 8.99513 91.6751 8.99527C91.6751 8.99541 91.6751 8.99555 91.6751 8.99569C91.6751 8.99583 91.6751 8.99596 91.6751 8.9961C91.6751 8.99624 91.6751 8.99638 91.6751 8.99652C91.6751 8.99666 91.6751 8.99679 91.6751 8.99693C91.6751 8.99707 91.6751 8.99721 91.6751 8.99735C91.6751 8.99749 91.6751 8.99762 91.6751 8.99776C91.6751 8.9979 91.6751 8.99804 91.6751 8.99818C91.6751 8.99832 91.6751 8.99845 91.6751 8.99859C91.6751 8.99873 91.6751 8.99887 91.6751 8.99901C91.6751 8.99915 91.6751 8.99928 91.6751 8.99942C91.6751 8.99956 91.6751 8.9997 91.6751 8.99984C91.6751 8.99998 91.6751 9.00011 91.6751 9.00025C91.6751 9.00039 91.6751 9.00053 91.6751 9.00067C91.6751 9.00081 91.6751 9.00094 91.6751 9.00108C91.6751 9.00122 91.6751 9.00136 91.6751 9.0015C91.6751 9.00164 91.6751 9.00177 91.6751 9.00191C91.6751 9.00205 91.6751 9.00219 91.6751 9.00233C91.6751 9.00247 91.6751 9.0026 91.6751 9.00274C91.6751 9.00288 91.6751 9.00302 91.6751 9.00316C91.6751 9.0033 91.6751 9.00343 91.6751 9.00357C91.6751 9.00371 91.6751 9.00385 91.6751 9.00399C91.6751 9.00413 91.6751 9.00426 91.6751 9.0044C91.6751 9.00454 91.6751 9.00468 91.6751 9.00482C91.6751 9.00496 91.6751 9.00509 91.6751 9.00523C91.6751 9.00537 91.6751 9.00551 91.6751 9.00565C91.6751 9.00579 91.6751 9.00592 91.6751 9.00606C91.6751 9.0062 91.6751 9.00634 91.6751 9.00648C91.6751 9.00661 91.6751 9.00675 91.6751 9.00689C91.6751 9.00703 91.6751 9.00717 91.6751 9.00731C91.6751 9.00744 91.6751 9.00758 91.6751 9.00772C91.6751 9.00786 91.6751 9.008 91.6751 9.00814C91.6751 9.00827 91.6751 9.00841 91.6751 9.00855C91.6751 9.00869 91.6751 9.00883 91.6751 9.00897C91.6751 9.0091 91.6751 9.00924 91.6751 9.00938C91.6751 9.00952 91.6751 9.00966 91.6751 9.0098C91.6751 9.00993 91.6751 9.01007 91.6751 9.01021C91.6751 9.01035 91.6751 9.01049 91.6751 9.01063C91.6751 9.01076 91.6751 9.0109 91.6751 9.01104C91.6751 9.01118 91.6751 9.01132 91.6751 9.01146C91.6751 9.01159 91.6751 9.01173 91.6751 9.01187C91.6751 9.01201 91.6751 9.01215 91.6751 9.01229C91.6751 9.01242 91.6751 9.01256 91.6751 9.0127C91.6751 9.01284 91.6751 9.01298 91.6751 9.01312C91.6751 9.01325 91.6751 9.01339 91.6751 9.01353C91.6751 9.01367 91.6751 9.01381 91.6751 9.01395C91.6751 9.01408 91.6751 9.01422 91.6751 9.01436C91.6751 9.0145 91.6751 9.01464 91.6751 9.01478C91.6751 9.01491 91.6751 9.01505 91.6751 9.01519C91.6751 9.01533 91.6751 9.01547 91.6751 9.01561C91.6751 9.01574 91.6751 9.01588 91.6751 9.01602C91.6751 9.01616 91.6751 9.0163 91.6751 9.01644C91.6751 9.01657 91.6751 9.01671 91.6751 9.01685C91.6751 9.01699 91.6751 9.01713 91.6751 9.01726C91.6751 9.0174 91.6751 9.01754 91.6751 9.01768C91.6751 9.01782 91.6751 9.01796 91.6751 9.01809C91.6751 9.01823 91.6751 9.01837 91.6751 9.01851C91.6751 9.01865 91.6751 9.01879 91.6751 9.01892C91.6751 9.01906 91.6751 9.0192 91.6751 9.01934C91.6751 9.01948 91.6751 9.01962 91.6751 9.01975C91.6751 9.01989 91.6751 9.02003 91.6751 9.02017C91.6751 9.02031 91.6751 9.02045 91.6751 9.02058C91.6751 9.02072 91.6751 9.02086 91.6751 9.021C91.6751 9.02114 91.6751 9.02128 91.6751 9.02141C91.6751 9.02155 91.6751 9.02169 91.6751 9.02183C91.6751 9.02197 91.6751 9.02211 91.6751 9.02224C91.6751 9.02238 91.6751 9.02252 91.6751 9.02266C91.6751 9.0228 91.6751 9.02294 91.6751 9.02307C91.6751 9.02321 91.6751 9.02335 91.6751 9.02349C91.6751 9.02363 91.6751 9.02377 91.6751 9.0239C91.6751 9.02404 91.6751 9.02418 91.6751 9.02432C91.6751 9.02446 91.6751 9.0246 91.6751 9.02473C91.6751 9.02487 91.6751 9.02501 91.6751 9.02515C91.6751 9.02529 91.6751 9.02543 91.6751 9.02556C91.6751 9.0257 91.6751 9.02584 91.6751 9.02598C91.6751 9.02612 91.6751 9.02626 91.6751 9.02639C91.6751 9.02653 91.6751 9.02667 91.6751 9.02681C91.6751 9.02695 91.6751 9.02709 91.6751 9.02722C91.6751 9.02736 91.6751 9.0275 91.6751 9.02764C91.6751 9.02778 91.6751 9.02792 91.6751 9.02805C91.6751 9.02819 91.6751 9.02833 91.6751 9.02847C91.6751 9.02861 91.6751 9.02874 91.6751 9.02888C91.6751 9.02902 91.6751 9.02916 91.6751 9.0293C91.6751 9.02944 91.6751 9.02957 91.6751 9.02971C91.6751 9.02985 91.6751 9.02999 91.6751 9.03013C91.6751 9.03027 91.6751 9.0304 91.6751 9.03054C91.6751 9.03068 91.6751 9.03082 91.6751 9.03096C91.6751 9.0311 91.6751 9.03123 91.6751 9.03137C91.6751 9.03151 91.6751 9.03165 91.6751 9.03179C91.6751 9.03193 91.6751 9.03206 91.6751 9.0322C91.6751 9.03234 91.6751 9.03248 91.6751 9.03262C91.6751 9.03276 91.6751 9.03289 91.6751 9.03303C91.6751 9.03317 91.6751 9.03331 91.6751 9.03345C91.6751 9.03359 91.6751 9.03372 91.6751 9.03386C91.6751 9.034 91.6751 9.03414 91.6751 9.03428C91.6751 9.03442 91.6751 9.03455 91.6751 9.03469C91.6751 9.03483 91.6751 9.03497 91.6751 9.03511C91.6751 9.03525 91.6751 9.03538 91.6751 9.03552C91.6751 9.03566 91.6751 9.0358 91.6751 9.03594C91.6751 9.03608 91.6751 9.03621 91.6751 9.03635C91.6751 9.03649 91.6751 9.03663 91.6751 9.03677C91.6751 9.03691 91.6751 9.03704 91.6751 9.03718C91.6751 9.03732 91.6751 9.03746 91.6751 9.0376C91.6751 9.03774 91.6751 9.03787 91.6751 9.03801C91.6751 9.03815 91.6751 9.03829 91.6751 9.03843C91.6751 9.03857 91.6751 9.0387 91.6751 9.03884C91.6751 9.03898 91.6751 9.03912 91.6751 9.03926C91.6751 9.0394 91.6751 9.03953 91.6751 9.03967C91.6751 9.03981 91.6751 9.03995 91.6751 9.04009C91.6751 9.04022 91.6751 9.04036 91.6751 9.0405C91.6751 9.04064 91.6751 9.04078 91.6751 9.04092C91.6751 9.04105 91.6751 9.04119 91.6751 9.04133C91.6751 9.04147 91.6751 9.04161 91.6751 9.04175C91.6751 9.04188 91.6751 9.04202 91.6751 9.04216C91.6751 9.0423 91.6751 9.04244 91.6751 9.04258C91.6751 9.04271 91.6751 9.04285 91.6751 9.04299C91.6751 9.04313 91.6751 9.04327 91.6751 9.04341C91.6751 9.04354 91.6751 9.04368 91.6751 9.04382C91.6751 9.04396 91.6751 9.0441 91.6751 9.04424C91.6751 9.04437 91.6751 9.04451 91.6751 9.04465C91.6751 9.04479 91.6751 9.04493 91.6751 9.04507C91.6751 9.0452 91.6751 9.04534 91.6751 9.04548C91.6751 9.04562 91.6751 9.04576 91.6751 9.0459C91.6751 9.04603 91.6751 9.04617 91.6751 9.04631C91.6751 9.04645 91.6751 9.04659 91.6751 9.04673C91.6751 9.04686 91.6751 9.047 91.6751 9.04714C91.6751 9.04728 91.6751 9.04742 91.6751 9.04756C91.6751 9.04769 91.6751 9.04783 91.6751 9.04797C91.6751 9.04811 91.6751 9.04825 91.6751 9.04839C91.6751 9.04852 91.6751 9.04866 91.6751 9.0488C91.6751 9.04894 91.6751 9.04908 91.6751 9.04922C91.6751 9.04935 91.6751 9.04949 91.6751 9.04963C91.6751 9.04977 91.6751 9.04991 91.6751 9.05005C91.6751 9.05018 91.6751 9.05032 91.6751 9.05046C91.6751 9.0506 91.6751 9.05074 91.6751 9.05088C91.6751 9.05101 91.6751 9.05115 91.6751 9.05129C91.6751 9.05143 91.6751 9.05157 91.6751 9.0517C91.6751 9.05184 91.6751 9.05198 91.6751 9.05212C91.6751 9.05226 91.6751 9.0524 91.6751 9.05253C91.6751 9.05267 91.6751 9.05281 91.6751 9.05295C91.6751 9.05309 91.6751 9.05323 91.6751 9.05336C91.6751 9.0535 91.6751 9.05364 91.6751 9.05378C91.6751 9.05392 91.6751 9.05406 91.6751 9.05419C91.6751 9.05433 91.6751 9.05447 91.6751 9.05461C91.6751 9.05475 91.6751 9.05489 91.6751 9.05502C91.6751 9.05516 91.6751 9.0553 91.6751 9.05544C91.6751 9.05558 91.6751 9.05572 91.6751 9.05585C91.6751 9.05599 91.6751 9.05613 91.6751 9.05627C91.6751 9.05641 91.6751 9.05655 91.6751 9.05668C91.6751 9.05682 91.6751 9.05696 91.6751 9.0571C91.6751 9.05724 91.6751 9.05738 91.6751 9.05751C91.6751 9.05765 91.6751 9.05779 91.6751 9.05793C91.6751 9.05807 91.6751 9.05821 91.6751 9.05834C91.6751 9.05848 91.6751 9.05862 91.6751 9.05876C91.6751 9.0589 91.6751 9.05904 91.6751 9.05917C91.6751 9.05931 91.6751 9.05945 91.6751 9.05959C91.6751 9.05973 91.6751 9.05987 91.6751 9.06C91.6751 9.06014 91.6751 9.06028 91.6751 9.06042C91.6751 9.06056 91.6751 9.0607 91.6751 9.06083C91.6751 9.06097 91.6751 9.06111 91.6751 9.06125C91.6751 9.06139 91.6751 9.06153 91.6751 9.06166C91.6751 9.0618 91.6751 9.06194 91.6751 9.06208C91.6751 9.06222 91.6751 9.06235 91.6751 9.06249C91.6751 9.06263 91.6751 9.06277 91.6751 9.06291C91.6751 9.06305 91.6751 9.06318 91.6751 9.06332C91.6751 9.06346 91.6751 9.0636 91.6751 9.06374C91.6751 9.06388 91.6751 9.06401 91.6751 9.06415C91.6751 9.06429 91.6751 9.06443 91.6751 9.06457C91.6751 9.06471 91.6751 9.06484 91.6751 9.06498C91.6751 9.06512 91.6751 9.06526 91.6751 9.0654C91.6751 9.06554 91.6751 9.06567 91.6751 9.06581C91.6751 9.06595 91.6751 9.06609 91.6751 9.06623C91.6751 9.06637 91.6751 9.0665 91.6751 9.06664C91.6751 9.06678 91.6751 9.06692 91.6751 9.06706C91.6751 9.0672 91.6751 9.06733 91.6751 9.06747C91.6751 9.06761 91.6751 9.06775 91.6751 9.06789C91.6751 9.06803 91.6751 9.06816 91.6751 9.0683C91.6751 9.06844 91.6751 9.06858 91.6751 9.06872C91.6751 9.06886 91.6751 9.06899 91.6751 9.06913C91.6751 9.06927 91.6751 9.06941 91.6751 9.06955C91.6751 9.06969 91.6751 9.06982 91.6751 9.06996C91.6751 9.0701 91.6751 9.07024 91.6751 9.07038C91.6751 9.07052 91.6751 9.07065 91.6751 9.07079C91.6751 9.07093 91.6751 9.07107 91.6751 9.07121C91.6751 9.07135 91.6751 9.07148 91.6751 9.07162C91.6751 9.07176 91.6751 9.0719 91.6751 9.07204C91.6751 9.07218 91.6751 9.07231 91.6751 9.07245C91.6751 9.07259 91.6751 9.07273 91.6751 9.07287C91.6751 9.07301 91.6751 9.07314 91.6751 9.07328C91.6751 9.07342 91.6751 9.07356 91.6751 9.0737C91.6751 9.07383 91.6751 9.07397 91.6751 9.07411C91.6751 9.07425 91.6751 9.07439 91.6751 9.07453C91.6751 9.07466 91.6751 9.0748 91.6751 9.07494C91.6751 9.07508 91.6751 9.07522 91.6751 9.07536C91.6751 9.07549 91.6751 9.07563 91.6751 9.07577C91.6751 9.07591 91.6751 9.07605 91.6751 9.07619C91.6751 9.07632 91.6751 9.07646 91.6751 9.0766C91.6751 9.07674 91.6751 9.07688 91.6751 9.07702C91.6751 9.07715 91.6751 9.07729 91.6751 9.07743C91.6751 9.07757 91.6751 9.07771 91.6751 9.07785C91.6751 9.07798 91.6751 9.07812 91.6751 9.07826C91.6751 9.0784 91.6751 9.07854 91.6751 9.07868C91.6751 9.07881 91.6751 9.07895 91.6751 9.07909C91.6751 9.07923 91.6751 9.07937 91.6751 9.07951C91.6751 9.07964 91.6751 9.07978 91.6751 9.07992C91.6751 9.08006 91.6751 9.0802 91.6751 9.08034C91.6751 9.08047 91.6751 9.08061 91.6751 9.08075C91.6751 9.08089 91.6751 9.08103 91.6751 9.08117C91.6751 9.0813 91.6751 9.08144 91.6751 9.08158C91.6751 9.08172 91.6751 9.08186 91.6751 9.082C91.6751 9.08213 91.6751 9.08227 91.6751 9.08241C91.6751 9.08255 91.6751 9.08269 91.6751 9.08283C91.6751 9.08296 91.6751 9.0831 91.6751 9.08324C91.6751 9.08338 91.6751 9.08352 91.6751 9.08366C91.6751 9.08379 91.6751 9.08393 91.6751 9.08407C91.6751 9.08421 91.6751 9.08435 91.6751 9.08449C91.6751 9.08462 91.6751 9.08476 91.6751 9.0849C91.6751 9.08504 91.6751 9.08518 91.6751 9.08531C91.6751 9.08545 91.6751 9.08559 91.6751 9.08573C91.6751 9.08587 91.6751 9.08601 91.6751 9.08614C91.6751 9.08628 91.6751 9.08642 91.6751 9.08656C91.6751 9.0867 91.6751 9.08684 91.6751 9.08697C91.6751 9.08711 91.6751 9.08725 91.6751 9.08739C91.6751 9.08753 91.6751 9.08767 91.6751 9.0878C91.6751 9.08794 91.6751 9.08808 91.6751 9.08822C91.6751 9.08836 91.6751 9.0885 91.6751 9.08863C91.6751 9.08877 91.6751 9.08891 91.6751 9.08905C91.6751 9.08919 91.6751 9.08933 91.6751 9.08946C91.6751 9.0896 91.6751 9.08974 91.6751 9.08988C91.6751 9.09002 91.6751 9.09016 91.6751 9.09029C91.6751 9.09043 91.6751 9.09057 91.6751 9.09071C91.6751 9.09085 91.6751 9.09099 91.6751 9.09112H95.5594C95.5594 9.09099 95.5594 9.09085 95.5594 9.09071C95.5594 9.09057 95.5594 9.09043 95.5594 9.09029C95.5594 9.09016 95.5594 9.09002 95.5594 9.08988C95.5594 9.08974 95.5594 9.0896 95.5594 9.08946C95.5594 9.08933 95.5594 9.08919 95.5594 9.08905C95.5594 9.08891 95.5594 9.08877 95.5594 9.08863C95.5594 9.0885 95.5594 9.08836 95.5594 9.08822C95.5594 9.08808 95.5594 9.08794 95.5594 9.0878C95.5594 9.08767 95.5594 9.08753 95.5594 9.08739C95.5594 9.08725 95.5594 9.08711 95.5594 9.08697C95.5594 9.08684 95.5594 9.0867 95.5594 9.08656C95.5594 9.08642 95.5594 9.08628 95.5594 9.08614C95.5594 9.08601 95.5594 9.08587 95.5594 9.08573C95.5594 9.08559 95.5594 9.08545 95.5594 9.08531C95.5594 9.08518 95.5594 9.08504 95.5594 9.0849C95.5594 9.08476 95.5594 9.08462 95.5594 9.08449C95.5594 9.08435 95.5594 9.08421 95.5594 9.08407C95.5594 9.08393 95.5594 9.08379 95.5594 9.08366C95.5594 9.08352 95.5594 9.08338 95.5594 9.08324C95.5594 9.0831 95.5594 9.08296 95.5594 9.08283C95.5594 9.08269 95.5594 9.08255 95.5594 9.08241C95.5594 9.08227 95.5594 9.08213 95.5594 9.082C95.5594 9.08186 95.5594 9.08172 95.5594 9.08158C95.5594 9.08144 95.5594 9.0813 95.5594 9.08117C95.5594 9.08103 95.5594 9.08089 95.5594 9.08075C95.5594 9.08061 95.5594 9.08047 95.5594 9.08034C95.5594 9.0802 95.5594 9.08006 95.5594 9.07992C95.5594 9.07978 95.5594 9.07964 95.5594 9.07951C95.5594 9.07937 95.5594 9.07923 95.5594 9.07909C95.5594 9.07895 95.5594 9.07881 95.5594 9.07868C95.5594 9.07854 95.5594 9.0784 95.5594 9.07826C95.5594 9.07812 95.5594 9.07798 95.5594 9.07785C95.5594 9.07771 95.5594 9.07757 95.5594 9.07743C95.5594 9.07729 95.5594 9.07715 95.5594 9.07702C95.5594 9.07688 95.5594 9.07674 95.5594 9.0766C95.5594 9.07646 95.5594 9.07632 95.5594 9.07619C95.5594 9.07605 95.5594 9.07591 95.5594 9.07577C95.5594 9.07563 95.5594 9.07549 95.5594 9.07536C95.5594 9.07522 95.5594 9.07508 95.5594 9.07494C95.5594 9.0748 95.5594 9.07466 95.5594 9.07453C95.5594 9.07439 95.5594 9.07425 95.5594 9.07411C95.5594 9.07397 95.5594 9.07383 95.5594 9.0737C95.5594 9.07356 95.5594 9.07342 95.5594 9.07328C95.5594 9.07314 95.5594 9.07301 95.5594 9.07287C95.5594 9.07273 95.5594 9.07259 95.5594 9.07245C95.5594 9.07231 95.5594 9.07218 95.5594 9.07204C95.5594 9.0719 95.5594 9.07176 95.5594 9.07162C95.5594 9.07148 95.5594 9.07135 95.5594 9.07121C95.5594 9.07107 95.5594 9.07093 95.5594 9.07079C95.5594 9.07065 95.5594 9.07052 95.5594 9.07038C95.5594 9.07024 95.5594 9.0701 95.5594 9.06996C95.5594 9.06982 95.5594 9.06969 95.5594 9.06955C95.5594 9.06941 95.5594 9.06927 95.5594 9.06913C95.5594 9.06899 95.5594 9.06886 95.5594 9.06872C95.5594 9.06858 95.5594 9.06844 95.5594 9.0683C95.5594 9.06816 95.5594 9.06803 95.5594 9.06789C95.5594 9.06775 95.5594 9.06761 95.5594 9.06747C95.5594 9.06733 95.5594 9.0672 95.5594 9.06706C95.5594 9.06692 95.5594 9.06678 95.5594 9.06664C95.5594 9.0665 95.5594 9.06637 95.5594 9.06623C95.5594 9.06609 95.5594 9.06595 95.5594 9.06581C95.5594 9.06567 95.5594 9.06554 95.5594 9.0654C95.5594 9.06526 95.5594 9.06512 95.5594 9.06498C95.5594 9.06484 95.5594 9.06471 95.5594 9.06457C95.5594 9.06443 95.5594 9.06429 95.5594 9.06415C95.5594 9.06401 95.5594 9.06388 95.5594 9.06374C95.5594 9.0636 95.5594 9.06346 95.5594 9.06332C95.5594 9.06318 95.5594 9.06305 95.5594 9.06291C95.5594 9.06277 95.5594 9.06263 95.5594 9.06249C95.5594 9.06235 95.5594 9.06222 95.5594 9.06208C95.5594 9.06194 95.5594 9.0618 95.5594 9.06166C95.5594 9.06153 95.5594 9.06139 95.5594 9.06125C95.5594 9.06111 95.5594 9.06097 95.5594 9.06083C95.5594 9.0607 95.5594 9.06056 95.5594 9.06042C95.5594 9.06028 95.5594 9.06014 95.5594 9.06C95.5594 9.05987 95.5594 9.05973 95.5594 9.05959C95.5594 9.05945 95.5594 9.05931 95.5594 9.05917C95.5594 9.05904 95.5594 9.0589 95.5594 9.05876C95.5594 9.05862 95.5594 9.05848 95.5594 9.05834C95.5594 9.05821 95.5594 9.05807 95.5594 9.05793C95.5594 9.05779 95.5594 9.05765 95.5594 9.05751C95.5594 9.05738 95.5594 9.05724 95.5594 9.0571C95.5594 9.05696 95.5594 9.05682 95.5594 9.05668C95.5594 9.05655 95.5594 9.05641 95.5594 9.05627C95.5594 9.05613 95.5594 9.05599 95.5594 9.05585C95.5594 9.05572 95.5594 9.05558 95.5594 9.05544C95.5594 9.0553 95.5594 9.05516 95.5594 9.05502C95.5594 9.05489 95.5594 9.05475 95.5594 9.05461C95.5594 9.05447 95.5594 9.05433 95.5594 9.05419C95.5594 9.05406 95.5594 9.05392 95.5594 9.05378C95.5594 9.05364 95.5594 9.0535 95.5594 9.05336C95.5594 9.05323 95.5594 9.05309 95.5594 9.05295C95.5594 9.05281 95.5594 9.05267 95.5594 9.05253C95.5594 9.0524 95.5594 9.05226 95.5594 9.05212C95.5594 9.05198 95.5594 9.05184 95.5594 9.0517C95.5594 9.05157 95.5594 9.05143 95.5594 9.05129C95.5594 9.05115 95.5594 9.05101 95.5594 9.05088C95.5594 9.05074 95.5594 9.0506 95.5594 9.05046C95.5594 9.05032 95.5594 9.05018 95.5594 9.05005C95.5594 9.04991 95.5594 9.04977 95.5594 9.04963C95.5594 9.04949 95.5594 9.04935 95.5594 9.04922C95.5594 9.04908 95.5594 9.04894 95.5594 9.0488C95.5594 9.04866 95.5594 9.04852 95.5594 9.04839C95.5594 9.04825 95.5594 9.04811 95.5594 9.04797C95.5594 9.04783 95.5594 9.04769 95.5594 9.04756C95.5594 9.04742 95.5594 9.04728 95.5594 9.04714C95.5594 9.047 95.5594 9.04686 95.5594 9.04673C95.5594 9.04659 95.5594 9.04645 95.5594 9.04631C95.5594 9.04617 95.5594 9.04603 95.5594 9.0459C95.5594 9.04576 95.5594 9.04562 95.5594 9.04548C95.5594 9.04534 95.5594 9.0452 95.5594 9.04507C95.5594 9.04493 95.5594 9.04479 95.5594 9.04465C95.5594 9.04451 95.5594 9.04437 95.5594 9.04424C95.5594 9.0441 95.5594 9.04396 95.5594 9.04382C95.5594 9.04368 95.5594 9.04354 95.5594 9.04341C95.5594 9.04327 95.5594 9.04313 95.5594 9.04299C95.5594 9.04285 95.5594 9.04271 95.5594 9.04258C95.5594 9.04244 95.5594 9.0423 95.5594 9.04216C95.5594 9.04202 95.5594 9.04188 95.5594 9.04175C95.5594 9.04161 95.5594 9.04147 95.5594 9.04133C95.5594 9.04119 95.5594 9.04105 95.5594 9.04092C95.5594 9.04078 95.5594 9.04064 95.5594 9.0405C95.5594 9.04036 95.5594 9.04022 95.5594 9.04009C95.5594 9.03995 95.5594 9.03981 95.5594 9.03967C95.5594 9.03953 95.5594 9.0394 95.5594 9.03926C95.5594 9.03912 95.5594 9.03898 95.5594 9.03884C95.5594 9.0387 95.5594 9.03857 95.5594 9.03843C95.5594 9.03829 95.5594 9.03815 95.5594 9.03801C95.5594 9.03787 95.5594 9.03774 95.5594 9.0376C95.5594 9.03746 95.5594 9.03732 95.5594 9.03718C95.5594 9.03704 95.5594 9.03691 95.5594 9.03677C95.5594 9.03663 95.5594 9.03649 95.5594 9.03635C95.5594 9.03621 95.5594 9.03608 95.5594 9.03594C95.5594 9.0358 95.5594 9.03566 95.5594 9.03552C95.5594 9.03538 95.5594 9.03525 95.5594 9.03511C95.5594 9.03497 95.5594 9.03483 95.5594 9.03469C95.5594 9.03455 95.5594 9.03442 95.5594 9.03428C95.5594 9.03414 95.5594 9.034 95.5594 9.03386C95.5594 9.03372 95.5594 9.03359 95.5594 9.03345C95.5594 9.03331 95.5594 9.03317 95.5594 9.03303C95.5594 9.03289 95.5594 9.03276 95.5594 9.03262C95.5594 9.03248 95.5594 9.03234 95.5594 9.0322C95.5594 9.03206 95.5594 9.03193 95.5594 9.03179C95.5594 9.03165 95.5594 9.03151 95.5594 9.03137C95.5594 9.03123 95.5594 9.0311 95.5594 9.03096C95.5594 9.03082 95.5594 9.03068 95.5594 9.03054C95.5594 9.0304 95.5594 9.03027 95.5594 9.03013C95.5594 9.02999 95.5594 9.02985 95.5594 9.02971C95.5594 9.02957 95.5594 9.02944 95.5594 9.0293C95.5594 9.02916 95.5594 9.02902 95.5594 9.02888C95.5594 9.02874 95.5594 9.02861 95.5594 9.02847C95.5594 9.02833 95.5594 9.02819 95.5594 9.02805C95.5594 9.02792 95.5594 9.02778 95.5594 9.02764C95.5594 9.0275 95.5594 9.02736 95.5594 9.02722C95.5594 9.02709 95.5594 9.02695 95.5594 9.02681C95.5594 9.02667 95.5594 9.02653 95.5594 9.02639C95.5594 9.02626 95.5594 9.02612 95.5594 9.02598C95.5594 9.02584 95.5594 9.0257 95.5594 9.02556C95.5594 9.02543 95.5594 9.02529 95.5594 9.02515C95.5594 9.02501 95.5594 9.02487 95.5594 9.02473C95.5594 9.0246 95.5594 9.02446 95.5594 9.02432C95.5594 9.02418 95.5594 9.02404 95.5594 9.0239C95.5594 9.02377 95.5594 9.02363 95.5594 9.02349C95.5594 9.02335 95.5594 9.02321 95.5594 9.02307C95.5594 9.02294 95.5594 9.0228 95.5594 9.02266C95.5594 9.02252 95.5594 9.02238 95.5594 9.02224C95.5594 9.02211 95.5594 9.02197 95.5594 9.02183C95.5594 9.02169 95.5594 9.02155 95.5594 9.02141C95.5594 9.02128 95.5594 9.02114 95.5594 9.021C95.5594 9.02086 95.5594 9.02072 95.5594 9.02058C95.5594 9.02045 95.5594 9.02031 95.5594 9.02017C95.5594 9.02003 95.5594 9.01989 95.5594 9.01975C95.5594 9.01962 95.5594 9.01948 95.5594 9.01934C95.5594 9.0192 95.5594 9.01906 95.5594 9.01892C95.5594 9.01879 95.5594 9.01865 95.5594 9.01851C95.5594 9.01837 95.5594 9.01823 95.5594 9.01809C95.5594 9.01796 95.5594 9.01782 95.5594 9.01768C95.5594 9.01754 95.5594 9.0174 95.5594 9.01726C95.5594 9.01713 95.5594 9.01699 95.5594 9.01685C95.5594 9.01671 95.5594 9.01657 95.5594 9.01644C95.5594 9.0163 95.5594 9.01616 95.5594 9.01602C95.5594 9.01588 95.5594 9.01574 95.5594 9.01561C95.5594 9.01547 95.5594 9.01533 95.5594 9.01519C95.5594 9.01505 95.5594 9.01491 95.5594 9.01478C95.5594 9.01464 95.5594 9.0145 95.5594 9.01436C95.5594 9.01422 95.5594 9.01408 95.5594 9.01395C95.5594 9.01381 95.5594 9.01367 95.5594 9.01353C95.5594 9.01339 95.5594 9.01325 95.5594 9.01312C95.5594 9.01298 95.5594 9.01284 95.5594 9.0127C95.5594 9.01256 95.5594 9.01242 95.5594 9.01229C95.5594 9.01215 95.5594 9.01201 95.5594 9.01187C95.5594 9.01173 95.5594 9.01159 95.5594 9.01146C95.5594 9.01132 95.5594 9.01118 95.5594 9.01104C95.5594 9.0109 95.5594 9.01076 95.5594 9.01063C95.5594 9.01049 95.5594 9.01035 95.5594 9.01021C95.5594 9.01007 95.5594 9.00993 95.5594 9.0098C95.5594 9.00966 95.5594 9.00952 95.5594 9.00938C95.5594 9.00924 95.5594 9.0091 95.5594 9.00897C95.5594 9.00883 95.5594 9.00869 95.5594 9.00855C95.5594 9.00841 95.5594 9.00827 95.5594 9.00814C95.5594 9.008 95.5594 9.00786 95.5594 9.00772C95.5594 9.00758 95.5594 9.00744 95.5594 9.00731C95.5594 9.00717 95.5594 9.00703 95.5594 9.00689C95.5594 9.00675 95.5594 9.00661 95.5594 9.00648C95.5594 9.00634 95.5594 9.0062 95.5594 9.00606C95.5594 9.00592 95.5594 9.00579 95.5594 9.00565C95.5594 9.00551 95.5594 9.00537 95.5594 9.00523C95.5594 9.00509 95.5594 9.00496 95.5594 9.00482C95.5594 9.00468 95.5594 9.00454 95.5594 9.0044C95.5594 9.00426 95.5594 9.00413 95.5594 9.00399C95.5594 9.00385 95.5594 9.00371 95.5594 9.00357C95.5594 9.00343 95.5594 9.0033 95.5594 9.00316C95.5594 9.00302 95.5594 9.00288 95.5594 9.00274C95.5594 9.0026 95.5594 9.00247 95.5594 9.00233C95.5594 9.00219 95.5594 9.00205 95.5594 9.00191C95.5594 9.00177 95.5594 9.00164 95.5594 9.0015C95.5594 9.00136 95.5594 9.00122 95.5594 9.00108C95.5594 9.00094 95.5594 9.00081 95.5594 9.00067C95.5594 9.00053 95.5594 9.00039 95.5594 9.00025C95.5594 9.00011 95.5594 8.99998 95.5594 8.99984C95.5594 8.9997 95.5594 8.99956 95.5594 8.99942C95.5594 8.99928 95.5594 8.99915 95.5594 8.99901C95.5594 8.99887 95.5594 8.99873 95.5594 8.99859C95.5594 8.99845 95.5594 8.99832 95.5594 8.99818C95.5594 8.99804 95.5594 8.9979 95.5594 8.99776C95.5594 8.99762 95.5594 8.99749 95.5594 8.99735C95.5594 8.99721 95.5594 8.99707 95.5594 8.99693C95.5594 8.99679 95.5594 8.99666 95.5594 8.99652C95.5594 8.99638 95.5594 8.99624 95.5594 8.9961C95.5594 8.99596 95.5594 8.99583 95.5594 8.99569C95.5594 8.99555 95.5594 8.99541 95.5594 8.99527C95.5594 8.99513 95.5594 8.995 95.5594 8.99486C95.5594 8.99472 95.5594 8.99458 95.5594 8.99444C95.5594 8.99431 95.5594 8.99417 95.5594 8.99403C95.5594 8.99389 95.5594 8.99375 95.5594 8.99361C95.5594 8.99348 95.5594 8.99334 95.5594 8.9932C95.5594 8.99306 95.5594 8.99292 95.5594 8.99278C95.5594 8.99265 95.5594 8.99251 95.5594 8.99237C95.5594 8.99223 95.5594 8.99209 95.5594 8.99195C95.5594 8.99182 95.5594 8.99168 95.5594 8.99154C95.5594 8.9914 95.5594 8.99126 95.5594 8.99112C95.5594 8.99099 95.5594 8.99085 95.5594 8.99071C95.5594 8.99057 95.5594 8.99043 95.5594 8.99029C95.5594 8.99016 95.5594 8.99002 95.5594 8.98988C95.5594 8.98974 95.5594 8.9896 95.5594 8.98946C95.5594 8.98933 95.5594 8.98919 95.5594 8.98905C95.5594 8.98891 95.5594 8.98877 95.5594 8.98863C95.5594 8.9885 95.5594 8.98836 95.5594 8.98822C95.5594 8.98808 95.5594 8.98794 95.5594 8.9878C95.5594 8.98767 95.5594 8.98753 95.5594 8.98739C95.5594 8.98725 95.5594 8.98711 95.5594 8.98697C95.5594 8.98684 95.5594 8.9867 95.5594 8.98656C95.5594 8.98642 95.5594 8.98628 95.5594 8.98614C95.5594 8.98601 95.5594 8.98587 95.5594 8.98573C95.5594 8.98559 95.5594 8.98545 95.5594 8.98531C95.5594 8.98518 95.5594 8.98504 95.5594 8.9849C95.5594 8.98476 95.5594 8.98462 95.5594 8.98448C95.5594 8.98435 95.5594 8.98421 95.5594 8.98407C95.5594 8.98393 95.5594 8.98379 95.5594 8.98365C95.5594 8.98352 95.5594 8.98338 95.5594 8.98324C95.5594 8.9831 95.5594 8.98296 95.5594 8.98283C95.5594 8.98269 95.5594 8.98255 95.5594 8.98241C95.5594 8.98227 95.5594 8.98213 95.5594 8.982C95.5594 8.98186 95.5594 8.98172 95.5594 8.98158C95.5594 8.98144 95.5594 8.9813 95.5594 8.98117C95.5594 8.98103 95.5594 8.98089 95.5594 8.98075C95.5594 8.98061 95.5594 8.98047 95.5594 8.98034C95.5594 8.9802 95.5594 8.98006 95.5594 8.97992C95.5594 8.97978 95.5594 8.97964 95.5594 8.97951C95.5594 8.97937 95.5594 8.97923 95.5594 8.97909C95.5594 8.97895 95.5594 8.97881 95.5594 8.97868C95.5594 8.97854 95.5594 8.9784 95.5594 8.97826C95.5594 8.97812 95.5594 8.97798 95.5594 8.97785C95.5594 8.97771 95.5594 8.97757 95.5594 8.97743C95.5594 8.97729 95.5594 8.97715 95.5594 8.97702C95.5594 8.97688 95.5594 8.97674 95.5594 8.9766C95.5594 8.97646 95.5594 8.97632 95.5594 8.97619C95.5594 8.97605 95.5594 8.97591 95.5594 8.97577C95.5594 8.97563 95.5594 8.97549 95.5594 8.97536C95.5594 8.97522 95.5594 8.97508 95.5594 8.97494C95.5594 8.9748 95.5594 8.97466 95.5594 8.97453C95.5594 8.97439 95.5594 8.97425 95.5594 8.97411C95.5594 8.97397 95.5594 8.97383 95.5594 8.9737C95.5594 8.97356 95.5594 8.97342 95.5594 8.97328C95.5594 8.97314 95.5594 8.973 95.5594 8.97287C95.5594 8.97273 95.5594 8.97259 95.5594 8.97245C95.5594 8.97231 95.5594 8.97217 95.5594 8.97204C95.5594 8.9719 95.5594 8.97176 95.5594 8.97162C95.5594 8.97148 95.5594 8.97135 95.5594 8.97121C95.5594 8.97107 95.5594 8.97093 95.5594 8.97079C95.5594 8.97065 95.5594 8.97052 95.5594 8.97038C95.5594 8.97024 95.5594 8.9701 95.5594 8.96996C95.5594 8.96982 95.5594 8.96969 95.5594 8.96955C95.5594 8.96941 95.5594 8.96927 95.5594 8.96913C95.5594 8.96899 95.5594 8.96886 95.5594 8.96872C95.5594 8.96858 95.5594 8.96844 95.5594 8.9683C95.5594 8.96816 95.5594 8.96803 95.5594 8.96789C95.5594 8.96775 95.5594 8.96761 95.5594 8.96747C95.5594 8.96733 95.5594 8.9672 95.5594 8.96706C95.5594 8.96692 95.5594 8.96678 95.5594 8.96664C95.5594 8.9665 95.5594 8.96637 95.5594 8.96623C95.5594 8.96609 95.5594 8.96595 95.5594 8.96581C95.5594 8.96567 95.5594 8.96554 95.5594 8.9654C95.5594 8.96526 95.5594 8.96512 95.5594 8.96498C95.5594 8.96484 95.5594 8.96471 95.5594 8.96457C95.5594 8.96443 95.5594 8.96429 95.5594 8.96415C95.5594 8.96401 95.5594 8.96388 95.5594 8.96374C95.5594 8.9636 95.5594 8.96346 95.5594 8.96332C95.5594 8.96318 95.5594 8.96305 95.5594 8.96291C95.5594 8.96277 95.5594 8.96263 95.5594 8.96249C95.5594 8.96235 95.5594 8.96222 95.5594 8.96208C95.5594 8.96194 95.5594 8.9618 95.5594 8.96166C95.5594 8.96152 95.5594 8.96139 95.5594 8.96125C95.5594 8.96111 95.5594 8.96097 95.5594 8.96083C95.5594 8.9607 95.5594 8.96056 95.5594 8.96042C95.5594 8.96028 95.5594 8.96014 95.5594 8.96C95.5594 8.95987 95.5594 8.95973 95.5594 8.95959C95.5594 8.95945 95.5594 8.95931 95.5594 8.95917C95.5594 8.95904 95.5594 8.9589 95.5594 8.95876C95.5594 8.95862 95.5594 8.95848 95.5594 8.95834C95.5594 8.95821 95.5594 8.95807 95.5594 8.95793C95.5594 8.95779 95.5594 8.95765 95.5594 8.95751C95.5594 8.95738 95.5594 8.95724 95.5594 8.9571C95.5594 8.95696 95.5594 8.95682 95.5594 8.95668C95.5594 8.95655 95.5594 8.95641 95.5594 8.95627C95.5594 8.95613 95.5594 8.95599 95.5594 8.95585C95.5594 8.95572 95.5594 8.95558 95.5594 8.95544C95.5594 8.9553 95.5594 8.95516 95.5594 8.95502C95.5594 8.95489 95.5594 8.95475 95.5594 8.95461C95.5594 8.95447 95.5594 8.95433 95.5594 8.95419C95.5594 8.95406 95.5594 8.95392 95.5594 8.95378C95.5594 8.95364 95.5594 8.9535 95.5594 8.95336C95.5594 8.95323 95.5594 8.95309 95.5594 8.95295C95.5594 8.95281 95.5594 8.95267 95.5594 8.95253C95.5594 8.9524 95.5594 8.95226 95.5594 8.95212C95.5594 8.95198 95.5594 8.95184 95.5594 8.9517C95.5594 8.95157 95.5594 8.95143 95.5594 8.95129C95.5594 8.95115 95.5594 8.95101 95.5594 8.95087C95.5594 8.95074 95.5594 8.9506 95.5594 8.95046C95.5594 8.95032 95.5594 8.95018 95.5594 8.95004C95.5594 8.94991 95.5594 8.94977 95.5594 8.94963C95.5594 8.94949 95.5594 8.94935 95.5594 8.94922C95.5594 8.94908 95.5594 8.94894 95.5594 8.9488C95.5594 8.94866 95.5594 8.94852 95.5594 8.94839C95.5594 8.94825 95.5594 8.94811 95.5594 8.94797C95.5594 8.94783 95.5594 8.94769 95.5594 8.94756C95.5594 8.94742 95.5594 8.94728 95.5594 8.94714C95.5594 8.947 95.5594 8.94686 95.5594 8.94673C95.5594 8.94659 95.5594 8.94645 95.5594 8.94631C95.5594 8.94617 95.5594 8.94603 95.5594 8.9459C95.5594 8.94576 95.5594 8.94562 95.5594 8.94548C95.5594 8.94534 95.5594 8.9452 95.5594 8.94507C95.5594 8.94493 95.5594 8.94479 95.5594 8.94465C95.5594 8.94451 95.5594 8.94437 95.5594 8.94424C95.5594 8.9441 95.5594 8.94396 95.5594 8.94382C95.5594 8.94368 95.5594 8.94354 95.5594 8.94341C95.5594 8.94327 95.5594 8.94313 95.5594 8.94299C95.5594 8.94285 95.5594 8.94271 95.5594 8.94258C95.5594 8.94244 95.5594 8.9423 95.5594 8.94216C95.5594 8.94202 95.5594 8.94188 95.5594 8.94175C95.5594 8.94161 95.5594 8.94147 95.5594 8.94133C95.5594 8.94119 95.5594 8.94105 95.5594 8.94092C95.5594 8.94078 95.5594 8.94064 95.5594 8.9405C95.5594 8.94036 95.5594 8.94022 95.5594 8.94009C95.5594 8.93995 95.5594 8.93981 95.5594 8.93967C95.5594 8.93953 95.5594 8.93939 95.5594 8.93926C95.5594 8.93912 95.5594 8.93898 95.5594 8.93884C95.5594 8.9387 95.5594 8.93856 95.5594 8.93843C95.5594 8.93829 95.5594 8.93815 95.5594 8.93801C95.5594 8.93787 95.5594 8.93774 95.5594 8.9376C95.5594 8.93746 95.5594 8.93732 95.5594 8.93718C95.5594 8.93704 95.5594 8.93691 95.5594 8.93677C95.5594 8.93663 95.5594 8.93649 95.5594 8.93635C95.5594 8.93621 95.5594 8.93608 95.5594 8.93594C95.5594 8.9358 95.5594 8.93566 95.5594 8.93552C95.5594 8.93538 95.5594 8.93525 95.5594 8.93511C95.5594 8.93497 95.5594 8.93483 95.5594 8.93469C95.5594 8.93455 95.5594 8.93442 95.5594 8.93428C95.5594 8.93414 95.5594 8.934 95.5594 8.93386C95.5594 8.93372 95.5594 8.93359 95.5594 8.93345C95.5594 8.93331 95.5594 8.93317 95.5594 8.93303C95.5594 8.93289 95.5594 8.93276 95.5594 8.93262C95.5594 8.93248 95.5594 8.93234 95.5594 8.9322C95.5594 8.93206 95.5594 8.93193 95.5594 8.93179C95.5594 8.93165 95.5594 8.93151 95.5594 8.93137C95.5594 8.93123 95.5594 8.9311 95.5594 8.93096C95.5594 8.93082 95.5594 8.93068 95.5594 8.93054C95.5594 8.9304 95.5594 8.93027 95.5594 8.93013C95.5594 8.92999 95.5594 8.92985 95.5594 8.92971C95.5594 8.92957 95.5594 8.92944 95.5594 8.9293C95.5594 8.92916 95.5594 8.92902 95.5594 8.92888C95.5594 8.92874 95.5594 8.92861 95.5594 8.92847C95.5594 8.92833 95.5594 8.92819 95.5594 8.92805C95.5594 8.92791 95.5594 8.92778 95.5594 8.92764C95.5594 8.9275 95.5594 8.92736 95.5594 8.92722C95.5594 8.92709 95.5594 8.92695 95.5594 8.92681C95.5594 8.92667 95.5594 8.92653 95.5594 8.92639C95.5594 8.92626 95.5594 8.92612 95.5594 8.92598C95.5594 8.92584 95.5594 8.9257 95.5594 8.92556C95.5594 8.92543 95.5594 8.92529 95.5594 8.92515C95.5594 8.92501 95.5594 8.92487 95.5594 8.92473C95.5594 8.9246 95.5594 8.92446 95.5594 8.92432C95.5594 8.92418 95.5594 8.92404 95.5594 8.9239C95.5594 8.92377 95.5594 8.92363 95.5594 8.92349C95.5594 8.92335 95.5594 8.92321 95.5594 8.92307C95.5594 8.92294 95.5594 8.9228 95.5594 8.92266C95.5594 8.92252 95.5594 8.92238 95.5594 8.92224C95.5594 8.92211 95.5594 8.92197 95.5594 8.92183C95.5594 8.92169 95.5594 8.92155 95.5594 8.92141C95.5594 8.92128 95.5594 8.92114 95.5594 8.921C95.5594 8.92086 95.5594 8.92072 95.5594 8.92058C95.5594 8.92045 95.5594 8.92031 95.5594 8.92017C95.5594 8.92003 95.5594 8.91989 95.5594 8.91975C95.5594 8.91962 95.5594 8.91948 95.5594 8.91934C95.5594 8.9192 95.5594 8.91906 95.5594 8.91892C95.5594 8.91879 95.5594 8.91865 95.5594 8.91851C95.5594 8.91837 95.5594 8.91823 95.5594 8.91809C95.5594 8.91796 95.5594 8.91782 95.5594 8.91768C95.5594 8.91754 95.5594 8.9174 95.5594 8.91726C95.5594 8.91713 95.5594 8.91699 95.5594 8.91685C95.5594 8.91671 95.5594 8.91657 95.5594 8.91643C95.5594 8.9163 95.5594 8.91616 95.5594 8.91602C95.5594 8.91588 95.5594 8.91574 95.5594 8.91561C95.5594 8.91547 95.5594 8.91533 95.5594 8.91519C95.5594 8.91505 95.5594 8.91491 95.5594 8.91478C95.5594 8.91464 95.5594 8.9145 95.5594 8.91436C95.5594 8.91422 95.5594 8.91408 95.5594 8.91395C95.5594 8.91381 95.5594 8.91367 95.5594 8.91353C95.5594 8.91339 95.5594 8.91325 95.5594 8.91312C95.5594 8.91298 95.5594 8.91284 95.5594 8.9127C95.5594 8.91256 95.5594 8.91242 95.5594 8.91229C95.5594 8.91215 95.5594 8.91201 95.5594 8.91187C95.5594 8.91173 95.5594 8.91159 95.5594 8.91146C95.5594 8.91132 95.5594 8.91118 95.5594 8.91104C95.5594 8.9109 95.5594 8.91076 95.5594 8.91063C95.5594 8.91049 95.5594 8.91035 95.5594 8.91021C95.5594 8.91007 95.5594 8.90993 95.5594 8.9098C95.5594 8.90966 95.5594 8.90952 95.5594 8.90938C95.5594 8.90924 95.5594 8.9091 95.5594 8.90897C95.5594 8.90883 95.5594 8.90869 95.5594 8.90855C95.5594 8.90841 95.5594 8.90827 95.5594 8.90814C95.5594 8.908 95.5594 8.90786 95.5594 8.90772C95.5594 8.90758 95.5594 8.90744 95.5594 8.90731C95.5594 8.90717 95.5594 8.90703 95.5594 8.90689C95.5594 8.90675 95.5594 8.90661 95.5594 8.90648C95.5594 8.90634 95.5594 8.9062 95.5594 8.90606C95.5594 8.90592 95.5594 8.90578 95.5594 8.90565C95.5594 8.90551 95.5594 8.90537 95.5594 8.90523C95.5594 8.90509 95.5594 8.90495 95.5594 8.90482C95.5594 8.90468 95.5594 8.90454 95.5594 8.9044C95.5594 8.90426 95.5594 8.90413 95.5594 8.90399C95.5594 8.90385 95.5594 8.90371 95.5594 8.90357C95.5594 8.90343 95.5594 8.9033 95.5594 8.90316C95.5594 8.90302 95.5594 8.90288 95.5594 8.90274C95.5594 8.9026 95.5594 8.90247 95.5594 8.90233C95.5594 8.90219 95.5594 8.90205 95.5594 8.90191C95.5594 8.90177 95.5594 8.90164 95.5594 8.9015C95.5594 8.90136 95.5594 8.90122 95.5594 8.90108C95.5594 8.90094 95.5594 8.90081 95.5594 8.90067C95.5594 8.90053 95.5594 8.90039 95.5594 8.90025C95.5594 8.90011 95.5594 8.89998 95.5594 8.89984C95.5594 8.8997 95.5594 8.89956 95.5594 8.89942C95.5594 8.89928 95.5594 8.89915 95.5594 8.89901C95.5594 8.89887 95.5594 8.89873 95.5594 8.89859C95.5594 8.89845 95.5594 8.89832 95.5594 8.89818C95.5594 8.89804 95.5594 8.8979 95.5594 8.89776C95.5594 8.89762 95.5594 8.89749 95.5594 8.89735C95.5594 8.89721 95.5594 8.89707 95.5594 8.89693C95.5594 8.89679 95.5594 8.89666 95.5594 8.89652C95.5594 8.89638 95.5594 8.89624 95.5594 8.8961C95.5594 8.89596 95.5594 8.89583 95.5594 8.89569C95.5594 8.89555 95.5594 8.89541 95.5594 8.89527C95.5594 8.89513 95.5594 8.895 95.5594 8.89486C95.5594 8.89472 95.5594 8.89458 95.5594 8.89444C95.5594 8.8943 95.5594 8.89417 95.5594 8.89403C95.5594 8.89389 95.5594 8.89375 95.5594 8.89361C95.5594 8.89347 95.5594 8.89334 95.5594 8.8932C95.5594 8.89306 95.5594 8.89292 95.5594 8.89278C95.5594 8.89265 95.5594 8.89251 95.5594 8.89237C95.5594 8.89223 95.5594 8.89209 95.5594 8.89195C95.5594 8.89182 95.5594 8.89168 95.5594 8.89154C95.5594 8.8914 95.5594 8.89126 95.5594 8.89112C95.5594 8.89099 95.5594 8.89085 95.5594 8.89071C95.5594 8.89057 95.5594 8.89043 95.5594 8.89029C95.5594 8.89016 95.5594 8.89002 95.5594 8.88988C95.5594 8.88974 95.5594 8.8896 95.5594 8.88946C95.5594 8.88933 95.5594 8.88919 95.5594 8.88905C95.5594 8.88891 95.5594 8.88877 95.5594 8.88863C95.5594 8.8885 95.5594 8.88836 95.5594 8.88822C95.5594 8.88808 95.5594 8.88794 95.5594 8.8878C95.5594 8.88767 95.5594 8.88753 95.5594 8.88739C95.5594 8.88725 95.5594 8.88711 95.5594 8.88697C95.5594 8.88684 95.5594 8.8867 95.5594 8.88656C95.5594 8.88642 95.5594 8.88628 95.5594 8.88614C95.5594 8.88601 95.5594 8.88587 95.5594 8.88573C95.5594 8.88559 95.5594 8.88545 95.5594 8.88531C95.5594 8.88518 95.5594 8.88504 95.5594 8.8849C95.5594 8.88476 95.5594 8.88462 95.5594 8.88448C95.5594 8.88435 95.5594 8.88421 95.5594 8.88407C95.5594 8.88393 95.5594 8.88379 95.5594 8.88365C95.5594 8.88352 95.5594 8.88338 95.5594 8.88324C95.5594 8.8831 95.5594 8.88296 95.5594 8.88282C95.5594 8.88269 95.5594 8.88255 95.5594 8.88241C95.5594 8.88227 95.5594 8.88213 95.5594 8.882C95.5594 8.88186 95.5594 8.88172 95.5594 8.88158C95.5594 8.88144 95.5594 8.8813 95.5594 8.88117C95.5594 8.88103 95.5594 8.88089 95.5594 8.88075C95.5594 8.88061 95.5594 8.88047 95.5594 8.88034C95.5594 8.8802 95.5594 8.88006 95.5594 8.87992C95.5594 8.87978 95.5594 8.87964 95.5594 8.87951C95.5594 8.87937 95.5594 8.87923 95.5594 8.87909C95.5594 8.87895 95.5594 8.87881 95.5594 8.87868H91.6751ZM91.6751 9.09112C91.6751 9.55319 91.5189 10.3333 91.0396 11.5097L94.6369 12.9752C95.1963 11.6022 95.5594 10.2814 95.5594 9.09112H91.6751ZM91.0445 11.4978C90.7938 12.1019 90.5983 12.5271 90.4551 12.7996C90.3826 12.9376 90.3414 13.0021 90.3303 13.0181C90.3254 13.0251 90.342 13 90.3801 12.9573C90.4117 12.922 90.5057 12.8206 90.6633 12.7155L92.8179 15.9475C93.1919 15.6982 93.4261 15.3709 93.5272 15.2244C93.6607 15.031 93.7832 14.8166 93.8937 14.6063C94.1163 14.1825 94.3634 13.6341 94.632 12.987L91.0445 11.4978ZM92.6307 12.6053C90.9512 11.7393 89.2832 11.2209 87.6687 11.2209V15.1052C88.462 15.1052 89.5086 15.3658 90.8506 16.0577L92.6307 12.6053ZM87.6687 11.2209C86.9038 11.2209 85.9804 11.3481 85.2061 11.9056C84.3138 12.548 83.9562 13.5085 83.9562 14.4377H87.8405C87.8405 14.449 87.8382 14.5516 87.7714 14.696C87.6998 14.8508 87.5893 14.976 87.4757 15.0578C87.3741 15.131 87.3118 15.1398 87.3474 15.1312C87.384 15.1224 87.4839 15.1052 87.6687 15.1052V11.2209ZM83.9562 14.4377C83.9562 16.2083 85.4376 17.1423 86.3976 17.5834L88.0193 14.0538C87.8708 13.9856 87.7686 13.9274 87.7024 13.8839C87.6353 13.8397 87.6207 13.8209 87.6348 13.8357C87.6503 13.852 87.7042 13.9134 87.7541 14.0254C87.8067 14.1434 87.8405 14.2861 87.8405 14.4377H83.9562ZM86.3399 17.5557C86.5523 17.662 86.8424 17.8005 87.2015 17.9681L88.8441 14.4481C88.495 14.2852 88.2422 14.1641 88.077 14.0815L86.3399 17.5557ZM87.2015 17.9681C87.5207 18.117 87.8935 18.3031 88.3221 18.5287L90.1312 15.0914C89.6629 14.8449 89.2331 14.6297 88.8441 14.4481L87.2015 17.9681ZM88.4297 18.5811C88.7789 18.7383 89.1752 18.9614 89.6197 19.2645L91.8079 16.0552C91.2138 15.6501 90.6187 15.3067 90.0237 15.0389L88.4297 18.5811ZM89.704 19.3188C90.1089 19.5653 90.5847 19.9277 91.1315 20.4324L93.7661 17.5782C93.0854 16.9499 92.4045 16.4153 91.7236 16.0008L89.704 19.3188ZM91.116 20.418C91.9275 21.1836 92.3832 22.2044 92.3832 23.6792H96.2676C96.2676 21.2827 95.4722 19.1876 93.7815 17.5926L91.116 20.418ZM92.3832 23.6792C92.3832 25.83 91.7999 27.415 90.7694 28.6027L93.7033 31.1483C95.4582 29.1257 96.2676 26.5799 96.2676 23.6792H92.3832ZM90.7694 28.6027C89.8566 29.6547 88.3229 30.3705 85.7605 30.4122L85.8237 34.296C89.0682 34.2432 91.8306 33.3066 93.7033 31.1483L90.7694 28.6027ZM85.7921 30.4119C84.4813 30.4119 83.3275 30.3025 82.321 30.0971L81.5443 33.9029C82.8511 34.1696 84.2703 34.2962 85.7921 34.2962V30.4119ZM82.3288 30.0987C81.478 29.9214 80.7726 29.5866 80.1768 29.1066L77.74 32.1316C78.8437 33.0207 80.1212 33.6065 81.5365 33.9013L82.3288 30.0987ZM80.1768 29.1066C79.7186 28.7376 79.6259 28.4408 79.6259 28.1405H75.7416C75.7416 29.7759 76.4986 31.1315 77.74 32.1316L80.1768 29.1066ZM79.6259 28.1405C79.6259 27.4153 79.7575 26.6899 80.0333 25.9544L76.3963 24.5906C75.964 25.7436 75.7416 26.9301 75.7416 28.1405H79.6259ZM80.0388 25.9398C80.1894 25.5281 80.3249 25.2437 80.4345 25.0588C80.5505 24.863 80.5941 24.8524 80.5276 24.9033L78.1681 21.8177C77.2968 22.484 76.7644 23.5844 76.3909 24.6052L80.0388 25.9398Z" fill="black" mask="url(#path-1-outside-1_267_4100)"/>
</g>
<defs>
<filter id="filter0_d_267_4100" x="0.828125" y="4.95361" width="95.4395" height="33.2269" filterUnits="userSpaceOnUse" color-interpolation-filters="sRGB">
<feFlood flood-opacity="0" result="BackgroundImageFix"/>
<feColorMatrix in="SourceAlpha" type="matrix" values="0 0 0 0 0 0 0 0 0 0 0 0 0 0 0 0 0 0 127 0" result="hardAlpha"/>
<feOffset dy="3.88432"/>
<feComposite in2="hardAlpha" operator="out"/>
<feColorMatrix type="matrix" values="0 0 0 0 0 0 0 0 0 0 0 0 0 0 0 0 0 0 0.8 0"/>
<feBlend mode="normal" in2="BackgroundImageFix" result="effect1_dropShadow_267_4100"/>
<feBlend mode="normal" in="SourceGraphic" in2="effect1_dropShadow_267_4100" result="shape"/>
</filter>
</defs>
</svg>
